<?xml version="1.0" encoding="utf-8"?>
<!-- Generator: Adobe Illustrator 19.2.1, SVG Export Plug-In . SVG Version: 6.00 Build 0)  -->
<svg version="1.1" id="Layer_1" xmlns="http://www.w3.org/2000/svg" xmlns:xlink="http://www.w3.org/1999/xlink" x="0px" y="0px"
	 viewBox="0 0 142 142" style="enable-background:new 0 0 142 142;" xml:space="preserve">
<style type="text/css">
	.st0{fill:#34495E;}
	.st1{fill:#F5F5F5;}
	.st2{fill:#E74C3C;}
	.st3{fill:#434343;}
	.st4{fill:#2C98D4;}
	.st5{fill:#E5938F;}
	.st6{fill:#C0392B;}
	.st7{fill:#282827;}
	.st8{fill:#212121;}
	.st9{fill:#E0E0E0;}
	.st10{fill:#BDBDBD;}
	.st11{fill:#EEEEEE;}
	.st12{fill:#BDC3C7;}
	.st13{fill:#D32E2E;}
</style>
<g>
	<path class="st0" d="M142,71c0,0.1,0,0.3,0,0.4c-0.1,22.6-10.8,42.6-27.3,55.5c-12,9.4-27.2,15.1-43.7,15.1c-2.7,0-5.4-0.2-8-0.5
		c-35.4-4-63-34.1-63-70.5C0,31.8,31.8,0,71,0c35.6,0,65,26.1,70.2,60.2C141.7,63.7,142,67.3,142,71z"/>
	<g>
		<path class="st1" d="M44.6,81.6c0,1.2,0.2,2.3,0.5,3.5c1.5,1,0.6,2,0.6,2h0c0.2,0.5,0.4,1.1,0.6,1.6c0,0,1.5,0.7,0.9,1.8
			c0.3,0.5,0.6,1,0.9,1.6c0,0,1.5,0.8,1.4,2c0.3,0.4,0.6,0.8,0.9,1.2c0.1,0,2.2,0.8,2,2.3c1,1,1.9,1.9,2.7,2.6
			c0.3,0.3,0.7,0.4,1.2,0.4h1.5c1,0,1.7-0.7,1.7-1.5V81.6H44.6z"/>
		<path class="st1" d="M36.4,75.9L36.4,75.9c-0.9,0-1.6-0.7-1.6-1.6v-7.1c0-0.9,0.7-1.6,1.6-1.6h0V75.9z"/>
		<path class="st2" d="M61.3,80.2H41.7c-1,0-1.8-0.8-1.8-1.8V63.1c0-1,0.8-1.8,1.8-1.8h19.5c1,0,1.8,0.8,1.8,1.8v15.4
			C63,79.4,62.2,80.2,61.3,80.2z"/>
		<path class="st3" d="M39.9,77.8h-2.1c-0.8,0-1.5-0.7-1.5-1.5V65.2c0-0.8,0.7-1.5,1.5-1.5h2.1V77.8z"/>
		<path class="st4" d="M63,70.8v-7V70.8z"/>
		<path class="st1" d="M101.3,42.2L63,63.7v7l0,0v7l38.3,21.5c1,0.6,2.2,0.9,3.3,0.9h1.2c0.7,0,1.4-0.6,1.4-1.4V42.7
			c0-0.7-0.6-1.4-1.4-1.4h-1.2C103.5,41.4,102.3,41.7,101.3,42.2z"/>
		<path class="st5" d="M61.9,64.6H41.1l0,0c0-1.4,1.1-2.5,2.5-2.5h15.8C60.8,62.1,61.9,63.2,61.9,64.6L61.9,64.6z"/>
		<path class="st6" d="M63,78.5v-2.3H39.9v2.3c0,1,0.8,1.8,1.8,1.8h19.5C62.2,80.2,63,79.4,63,78.5z"/>
		<path class="st7" d="M36.4,73.8v2.6c0,0.8,0.7,1.5,1.5,1.5h2.1v-4H36.4z"/>
		<rect x="39.3" y="63.7" class="st8" width="0.6" height="14.1"/>
		<path class="st9" d="M34.8,71.8v2.5c0,0.9,0.7,1.6,1.6,1.6v-4H34.8z"/>
		<path class="st10" d="M35.8,75.8c0.2,0.1,0.4,0.1,0.6,0.1V65.7c-0.2,0-0.4,0-0.6,0.1V75.8z"/>
		<path class="st9" d="M105.8,92.3h-1.2c-1.2,0-2.3-0.3-3.3-0.9L63,74.3v3.5l38.3,21.5c1,0.6,2.2,0.9,3.3,0.9h1.2
			c0.7,0,1.4-0.6,1.4-1.4V91C107.2,91.7,106.6,92.3,105.8,92.3z"/>
		<path class="st11" d="M105.8,84.9h-1.2c-1.2,0-2.3-0.3-3.3-0.9L63,70.8v3.5l38.3,17.2c1,0.6,2.2,0.9,3.3,0.9h1.2
			c0.7,0,1.4-0.6,1.4-1.4v-7.4C107.2,84.3,106.6,84.9,105.8,84.9z"/>
		<path class="st12" d="M105.8,41.4h-1.2c-0.2,0-0.4,0-0.6,0v58.7c0.2,0,0.4,0,0.6,0h1.2c0.7,0,1.4-0.6,1.4-1.4V42.7
			C107.2,42,106.6,41.4,105.8,41.4z"/>
		<path class="st3" d="M59.6,81.6H43.9L42,80.2h19l0,0C61,81,60.4,81.6,59.6,81.6z"/>
		<path class="st7" d="M43.1,81h17.6c0.2-0.2,0.3-0.5,0.3-0.8H42L43.1,81z"/>
		<path class="st9" d="M59.6,83.7v-2.1h-15c0,0.7,0.1,1.4,0.1,2.1H59.6z"/>
		<path class="st9" d="M49.2,88.1c-1.2,0-2.2,0.2-2.8,0.5c0,0,1.5,0.7,0.9,1.8c0.5,0.1,1.2,0.2,1.9,0.2c1.9,0,3.5-0.6,3.5-1.3
			S51.1,88.1,49.2,88.1z"/>
		<path class="st9" d="M52.5,95.1c-0.8,0-1.5,0.1-2,0.2c0,0,2.2,0.7,2,2.3c0,0,0,0,0,0c1.9,0,3.5-0.6,3.5-1.3
			C56,95.7,54.4,95.1,52.5,95.1z"/>
		<path class="st9" d="M47.5,84.7c-0.9,0-1.8,0.1-2.4,0.4c1.5,1,0.6,2,0.6,2c0.5,0.1,1.1,0.2,1.8,0.2c1.9,0,3.5-0.6,3.5-1.3
			C51,85.3,49.4,84.7,47.5,84.7z"/>
		<path class="st9" d="M50.8,91.6c-1.1,0-2,0.2-2.7,0.5c0,0,1.5,0.7,1.4,2c0.4,0.1,0.8,0.1,1.3,0.1c1.9,0,3.5-0.6,3.5-1.3
			S52.8,91.6,50.8,91.6z"/>
		<g>
			<path class="st10" d="M45.6,85.4c0.6-0.1,1.2-0.2,1.9-0.2c1.7,0,3.1,0.4,3.4,1c0-0.1,0.1-0.2,0.1-0.3c0-0.7-1.6-1.3-3.5-1.3
				c-0.9,0-1.8,0.1-2.4,0.4C45.3,85.2,45.4,85.3,45.6,85.4z"/>
			<path class="st10" d="M45.9,86.6c-0.1,0.3-0.2,0.5-0.2,0.5c0.1,0,0.2,0,0.2,0C46,87,46,86.8,45.9,86.6z"/>
		</g>
		<g>
			<path class="st10" d="M47.4,90.2c0,0.1-0.1,0.2-0.1,0.4c0,0,0.1,0,0.1,0C47.4,90.4,47.4,90.3,47.4,90.2z"/>
			<path class="st10" d="M49.2,88.5c1.8,0,3.2,0.5,3.5,1.1c0-0.1,0-0.1,0-0.2c0-0.7-1.6-1.3-3.5-1.3c-1.2,0-2.2,0.2-2.8,0.5
				c0,0,0.2,0.1,0.4,0.2C47.3,88.7,48.2,88.5,49.2,88.5z"/>
		</g>
		<path class="st10" d="M50.8,92c1.7,0,3.2,0.5,3.4,1.1c0-0.1,0.1-0.1,0.1-0.2c0-0.7-1.6-1.3-3.5-1.3c-1.1,0-2,0.2-2.7,0.5
			c0,0,0.2,0.1,0.4,0.3C49.2,92.2,50,92,50.8,92z"/>
		<path class="st10" d="M52.5,95.6c1.7,0,3.1,0.5,3.4,1.1c0-0.1,0.1-0.2,0.1-0.2c0-0.7-1.6-1.3-3.5-1.3c-0.8,0-1.5,0.1-2,0.2
			c0,0,0.3,0.1,0.7,0.3C51.6,95.6,52,95.6,52.5,95.6z"/>
		<path class="st1" d="M60.2,89.9h-0.5v-5h0.5c0.3,0,0.6,0.3,0.6,0.6v3.8C60.8,89.7,60.5,89.9,60.2,89.9z"/>
		<path class="st9" d="M60.2,89.9v-5c0,0,0,0,0,0h-0.5v5L60.2,89.9C60.2,89.9,60.2,89.9,60.2,89.9z"/>
		<rect x="60.8" y="85.6" class="st7" width="0.3" height="3.8"/>
		<path class="st2" d="M61.4,90.2L61.4,90.2c-0.3,0-0.4-0.1-0.4-0.3V85c0-0.2,0.1-0.3,0.3-0.3h0.1c0.2,0,0.3,0.1,0.3,0.3v4.9
			C61.7,90.1,61.6,90.2,61.4,90.2z"/>
		<path class="st13" d="M61,88.9V90c0,0.2,0.2,0.3,0.4,0.3c0.2,0,0.4-0.1,0.4-0.3v-1.1H61z"/>
	</g>
</g>
</svg>
