<?xml version="1.0" encoding="utf-8"?>
<!-- Generator: Adobe Illustrator 19.2.1, SVG Export Plug-In . SVG Version: 6.00 Build 0)  -->
<svg version="1.1" id="Layer_1" xmlns="http://www.w3.org/2000/svg" xmlns:xlink="http://www.w3.org/1999/xlink" x="0px" y="0px"
	 viewBox="0 0 142 142" style="enable-background:new 0 0 142 142;" xml:space="preserve">
<style type="text/css">
	.st0{fill:#2980B9;}
	.st1{fill:#F1C411;}
</style>
<g>
	<path id="path1948_1_" class="st0" d="M70.2,0C64.4,0,58.8,0.5,54,1.4C39.6,3.9,37,9.2,37,19v12.9h33.9v4.3H37H24.3
		c-9.8,0-18.5,5.9-21.2,17.2c-3.1,12.9-3.2,21,0,34.4c2.4,10,8.2,17.2,18,17.2h11.6V89.5c0-11.2,9.7-21,21.2-21h33.8
		c9.4,0,16.9-7.8,16.9-17.2V19c0-9.2-7.7-16.1-16.9-17.6C82,0.4,76,0,70.2,0z M51.8,10.4c3.5,0,6.4,2.9,6.4,6.5
		c0,3.6-2.9,6.4-6.4,6.4c-3.5,0-6.4-2.9-6.4-6.4C45.5,13.3,48.3,10.4,51.8,10.4z"/>
	<path id="path1950_1_" class="st1" d="M109,36.2v15c0,11.7-9.9,21.5-21.2,21.5H54c-9.3,0-16.9,7.9-16.9,17.2v32.3
		c0,9.2,8,14.6,16.9,17.2c10.7,3.2,21,3.7,33.8,0c8.5-2.5,16.9-7.4,16.9-17.2v-12.9H70.9V105h33.8h16.9c9.8,0,13.5-6.9,16.9-17.2
		c3.5-10.6,3.4-20.8,0-34.4c-2.4-9.8-7.1-17.2-16.9-17.2H109z M89.9,117.9c3.5,0,6.4,2.9,6.4,6.4c0,3.6-2.8,6.5-6.4,6.5
		c-3.5,0-6.4-2.9-6.4-6.5C83.6,120.8,86.4,117.9,89.9,117.9z"/>
</g>
</svg>
