<?xml version="1.0" encoding="utf-8"?>
<!-- Generator: Adobe Illustrator 19.2.1, SVG Export Plug-In . SVG Version: 6.00 Build 0)  -->
<svg version="1.1" id="Layer_1" xmlns="http://www.w3.org/2000/svg" xmlns:xlink="http://www.w3.org/1999/xlink" x="0px" y="0px"
	 viewBox="0 0 142 142" style="enable-background:new 0 0 142 142;" xml:space="preserve">
<style type="text/css">
	.st0{fill:#34495E;}
	.st1{fill:#192530;}
	.st2{fill:#999999;}
	.st3{fill:#FFFFFF;}
	.st4{fill:#ECF0F1;}
</style>
<g>
	<path class="st0" d="M142,71c0,0.1,0,0.3,0,0.4c-0.1,22.6-10.8,42.6-27.3,55.5c-12,9.4-27.2,15.1-43.7,15.1c-2.7,0-5.4-0.2-8-0.5
		c-35.4-4-63-34.1-63-70.5C0,31.8,31.8,0,71,0c35.6,0,65,26.1,70.2,60.2C141.7,63.7,142,67.3,142,71z"/>
	<g>
		<g>
			<g>
				<path class="st1" d="M101.5,47.2c-0.6-0.3-1.3,0-1.6,0.6l-5.7,13.6l-4.4-0.7c-0.2,0-0.5,0-0.7,0c-1.1,0.2-1.9,1.3-1.7,2.4
					c0.2,1.1,1.3,1.9,2.4,1.7l5.1-0.9l0.9-0.1l0.2-0.6l6-14.4C102.4,48.1,102.2,47.4,101.5,47.2z"/>
				<path class="st1" d="M102.3,86.7l-1.8-11l-0.1-0.4l-0.4-0.4l-7.6-7.1c-0.1-0.1-0.3-0.2-0.5-0.3c-1.2-0.7-2.7-0.2-3.3,0.9
					c-0.7,1.2-0.2,2.7,0.9,3.3l8.6,4.8l1.7,10.4c0.1,0.7,0.7,1.1,1.4,1C101.9,87.9,102.4,87.3,102.3,86.7z"/>
				<path class="st1" d="M99.2,97.6l-4.7-7c-0.2-0.2-0.4-0.4-0.6-0.6c-1.2-0.9-2.8-0.6-3.7,0.5c-0.9,1.2-0.6,2.8,0.5,3.7l6.3,4.8
					l-2.3,12.4c-0.1,0.7,0.3,1.3,1,1.4c0.7,0.1,1.3-0.3,1.4-1l2.4-13.1l0.1-0.5L99.2,97.6z"/>
			</g>
			<g>
				<path class="st1" d="M40.5,47.2c0.6-0.3,1.3,0,1.6,0.6l5.7,13.6l4.4-0.7c0.2,0,0.5,0,0.7,0c1.1,0.2,1.9,1.3,1.7,2.4
					c-0.2,1.1-1.3,1.9-2.4,1.7L47,63.9l-0.9-0.1l-0.2-0.6l-6-14.4C39.6,48.1,39.8,47.4,40.5,47.2z"/>
				<path class="st1" d="M39.7,86.7l1.8-11l0.1-0.4l0.4-0.4l7.6-7.1c0.1-0.1,0.3-0.2,0.5-0.3c1.2-0.7,2.7-0.2,3.3,0.9
					c0.7,1.2,0.2,2.7-0.9,3.3l-8.6,4.8l-1.7,10.4c-0.1,0.7-0.7,1.1-1.4,1C40.1,87.9,39.6,87.3,39.7,86.7z"/>
				<path class="st1" d="M42.8,97.6l4.7-7c0.2-0.2,0.4-0.4,0.6-0.6c1.2-0.9,2.8-0.6,3.7,0.5c0.9,1.2,0.6,2.8-0.5,3.7L45,98.9
					l2.3,12.4c0.1,0.7-0.3,1.3-1,1.4c-0.7,0.1-1.3-0.3-1.4-1l-2.4-13.1l-0.1-0.5L42.8,97.6z"/>
			</g>
		</g>
		<g>
			<path class="st1" d="M89.7,37c-0.2-2.6,0.3-6.9-3-7.7c-0.4-0.1-0.7-0.1-1.1-0.1c0,0-0.4,0-0.2,0.1c0.6,0.2,1.2,0.4,1.7,0.8
				c0.5,0.4,0.9,1,1.1,1.6c0,0.2,0.2,1.1,0.1,1.2c-0.2,0.2-1.2-0.1-1.5-1c-0.4,0.5-0.2,1.2,0.2,1.6c0.2,0.3,0.6,0.4,0.9,0.5
				c0.3,0,0.4,0.3,0.4,0.5c-0.2,3.8-0.1,4.3-0.7,4.3l0,0c-2,0.1-3.3-1.4-4-3.1c0,1.2,0.1,2.2,0.7,3.3c0.5,0.9,1.2,1.7,1.9,2.4
				c0.2,0.2,0.4,0.3,0.5,0.5c0.7,1.2-1.9,4.6-3.8,5.5c-2.5,1.1-5,0.7-9.4,0.4v4.9c2-0.1,3.9-0.1,5.9-0.4c3.5-0.4,6.5-2.1,8.5-4.9
				c1.1-1.5,1.8-3.3,2-5C90,40.7,89.8,38.9,89.7,37z"/>
			<path class="st1" d="M52.3,37c0.2-2.6-0.3-6.9,3-7.7c0.4-0.1,0.7-0.1,1.1-0.1c0,0,0.4,0,0.2,0.1c-0.6,0.2-1.2,0.4-1.7,0.8
				c-0.5,0.4-0.9,1-1.1,1.6c0,0.2-0.2,1.1-0.1,1.2c0.2,0.2,1.2-0.1,1.5-1c0.4,0.5,0.2,1.2-0.2,1.6C55,33.8,54.7,34,54.4,34
				c-0.3,0-0.4,0.3-0.4,0.5c0.2,3.8,0.1,4.3,0.7,4.3c0,0,0,0,0,0c2,0.1,3.3-1.4,4-3.1c0,1.2-0.1,2.2-0.7,3.3
				c-0.5,0.9-1.2,1.7-1.9,2.4c-0.2,0.2-0.4,0.3-0.5,0.5c-0.7,1.2,1.8,4.6,3.8,5.5c2.5,1.1,5,0.7,9.4,0.4v4.9c-2-0.1-3.9-0.1-5.9-0.4
				c-3.5-0.4-6.5-2.1-8.5-4.9c-1.1-1.5-1.8-3.3-2-5C52,40.7,52.2,38.9,52.3,37z"/>
		</g>
		<path class="st1" d="M85.9,61.5c0-0.1,0-0.2,0-0.3c0-8.2-6.7-14.9-14.9-14.9c-8.2,0-14.9,6.7-14.9,14.9c0,0.1,0,0.2,0,0.3H85.9z"
			/>
		<g>
			<ellipse class="st2" cx="64" cy="48.5" rx="2.1" ry="2.1"/>
			<ellipse class="st2" cx="77.9" cy="48.3" rx="2.1" ry="2.1"/>
			<ellipse class="st3" cx="77.9" cy="47.2" rx="0.9" ry="0.9"/>
			<circle class="st3" cx="64" cy="47.3" r="0.9"/>
		</g>
		<path class="st4" d="M89.7,64.1v10.4H52.3V64.1c0-3.3,2.4-5.9,5.4-5.9h26.5C87.2,58.2,89.7,60.8,89.7,64.1z"/>
		<path class="st1" d="M89.7,65.6v8.9H52.3v-8.9c1.4-1.1,3.1-1.8,4.9-1.8h4.2c4.4,0,8.1,1.7,9.5,5.8c1.4-4.1,5.1-5.8,9.5-5.8h4.2
			C86.6,63.8,88.3,64.5,89.7,65.6z"/>
		<path class="st4" d="M71,109.3h-3c-10.7,0-19.3-8.7-19.3-19.4V72.4c0-4.4,3.6-8,8-8h4.2c5.6,0,10.1,4.5,10.1,10.1V109.3z"/>
		<path class="st4" d="M71,109.3h3c10.7,0,19.3-8.7,19.3-19.4V72.4c0-4.4-3.6-8-8-8h-4.2c-5.6,0-10.1,4.5-10.1,10.1V109.3z"/>
		<path class="st1" d="M48.6,88.6V90c0,10.7,8.7,19.4,19.3,19.4l3-1.4h-3C57.3,108,48.6,99.3,48.6,88.6z"/>
		<path class="st1" d="M74,108h-3l3,1.4c10.7,0,19.3-8.7,19.3-19.4v-1.4C93.4,99.3,84.7,108,74,108z"/>
	</g>
</g>
</svg>
