<?xml version="1.0" encoding="utf-8"?>
<!-- Generator: Adobe Illustrator 19.2.1, SVG Export Plug-In . SVG Version: 6.00 Build 0)  -->
<svg version="1.1" id="Layer_1" xmlns="http://www.w3.org/2000/svg" xmlns:xlink="http://www.w3.org/1999/xlink" x="0px" y="0px"
	 viewBox="0 0 142 142" style="enable-background:new 0 0 142 142;" xml:space="preserve">
<style type="text/css">
	.st0{fill:#3498DB;}
	.st1{fill:#FFFFFF;}
</style>
<g>
	<path class="st0" d="M142,71c0,0.1,0,0.3,0,0.4c-0.1,22.6-10.8,42.6-27.3,55.5c-12,9.4-27.2,15.1-43.7,15.1c-2.7,0-5.4-0.2-8-0.5
		c-35.4-4-63-34.1-63-70.5C0,31.8,31.8,0,71,0c35.6,0,65,26.1,70.2,60.2C141.7,63.7,142,67.3,142,71z"/>
	<g>
		<path class="st1" d="M48.3,40.8c6.1-6.2,13.8-9.3,23.2-9.3c12.6,0,21.8,4.2,27.6,12.5c3.2,4.7,4.9,9.4,5.2,14.1H88.5
			c-1-3.6-2.3-6.4-3.9-8.2c-2.8-3.3-7-4.9-12.5-4.9c-5.6,0-10.1,2.3-13.3,6.9c-3.2,4.6-4.9,11.2-4.9,19.7c0,8.5,1.7,14.8,5.1,19
			c3.4,4.2,7.8,6.3,13.1,6.3c5.4,0,9.5-1.8,12.4-5.4c1.6-1.9,2.9-4.9,3.9-8.8h15.7c-1.4,8.2-4.8,14.9-10.4,20.1
			c-5.6,5.2-12.7,7.7-21.4,7.7c-10.8,0-19.2-3.5-25.4-10.5c-6.2-7-9.2-16.6-9.2-28.8C37.8,58.1,41.3,47.9,48.3,40.8z"/>
	</g>
</g>
</svg>
