<?xml version="1.0" encoding="utf-8"?>
<!-- Generator: Adobe Illustrator 19.2.1, SVG Export Plug-In . SVG Version: 6.00 Build 0)  -->
<svg version="1.1" id="Layer_1" xmlns="http://www.w3.org/2000/svg" xmlns:xlink="http://www.w3.org/1999/xlink" x="0px" y="0px"
	 viewBox="0 0 142 142" style="enable-background:new 0 0 142 142;" xml:space="preserve">
<style type="text/css">
	.st0{fill:#34495E;}
	.st1{fill:#E6E6E6;}
	.st2{opacity:0.15;}
	.st3{opacity:0.2;}
	.st4{fill:#CCCCCC;}
</style>
<g>
	<path class="st0" d="M142,71c0,0.1,0,0.3,0,0.4c-0.1,22.6-10.8,42.6-27.3,55.5c-12,9.4-27.2,15.1-43.7,15.1c-2.7,0-5.4-0.2-8-0.5
		c-35.4-4-63-34.1-63-70.5C0,31.8,31.8,0,71,0c35.6,0,65,26.1,70.2,60.2C141.7,63.7,142,67.3,142,71z"/>
	<g>
		<g>
			<g>
				<g>
					<path class="st1" d="M73.9,53.1v60.4h-17c-2.2,0-4.1-1.7-4.3-3.9l-5.3-48.4l-0.8-7.1l-0.1-1H73.9z"/>
					<path class="st1" d="M101.5,53.1l-0.1,1l-0.8,7.1l-5.3,48.4c-0.2,2.2-2.1,3.9-4.3,3.9h-17V53.1H101.5z"/>
				</g>
				<path class="st2" d="M57.5,110.6c-1.6,0-2.9-1.2-3-2.8l-4-43.9c-0.2-1.7,1.1-3.2,2.8-3.3c1.7-0.2,3.2,1.1,3.3,2.8l4,43.9
					c0.2,1.7-1.1,3.2-2.8,3.3C57.7,110.6,57.6,110.6,57.5,110.6z"/>
				<path class="st3" d="M57.5,109.4c-1,0-1.8-0.7-1.9-1.7l-4-43.9c-0.1-1,0.7-1.9,1.7-2c0.1,0,0.1,0,0.2,0c1,0,1.8,0.7,1.9,1.7
					l4,43.9c0,0.5-0.1,1-0.4,1.4c-0.3,0.4-0.8,0.6-1.3,0.7C57.6,109.4,57.5,109.4,57.5,109.4z"/>
				<path class="st2" d="M90.3,110.6c-0.1,0-0.2,0-0.3,0c-1.7-0.2-2.9-1.6-2.8-3.3l4-43.9c0.2-1.7,1.6-2.9,3.3-2.8
					c1.7,0.2,2.9,1.6,2.8,3.3l-4,43.9C93.2,109.4,91.9,110.6,90.3,110.6z"/>
				<path class="st3" d="M90.3,109.4c-0.1,0-0.1,0-0.2,0c-0.5,0-1-0.3-1.3-0.7c-0.3-0.4-0.5-0.9-0.4-1.4l4-43.9
					c0.1-1,0.9-1.7,1.9-1.7c0.1,0,0.1,0,0.2,0c0.5,0,1,0.3,1.3,0.7c0.3,0.4,0.5,0.9,0.4,1.4l-4,43.9
					C92.1,108.7,91.3,109.4,90.3,109.4z"/>
				<path class="st2" d="M73.9,110.6c-1.7,0-3.1-1.4-3.1-3.1V63.6c0-1.7,1.4-3.1,3.1-3.1c1.7,0,3.1,1.4,3.1,3.1v43.9
					C77,109.2,75.6,110.6,73.9,110.6z"/>
				<path class="st3" d="M73.9,109.4c-1,0-1.9-0.8-1.9-1.9V63.6c0-1,0.8-1.9,1.9-1.9c1,0,1.9,0.8,1.9,1.9v43.9
					C75.8,108.5,75,109.4,73.9,109.4z"/>
			</g>
		</g>
		<g>
			<path class="st4" d="M83.5,43.7c-1.6,0.5-3.3-0.3-3.9-1.9l-2.1-6.2c-0.2-0.7-1-1.1-1.7-0.8l-16.3,5.4c-0.7,0.2-1.1,1-0.8,1.7
				l2.1,6.2c0.5,1.6-0.3,3.3-1.9,3.9c-1.6,0.5-3.3-0.3-3.9-1.9l-2.1-6.2c-1.3-3.9,0.8-8.1,4.7-9.4l16.3-5.4c3.9-1.3,8.1,0.8,9.4,4.7
				l2.1,6.2C85.9,41.4,85.1,43.1,83.5,43.7z"/>
			<path class="st4" d="M100.1,38.7L42.2,57.9c-1.9,0.6-3.9-0.4-4.5-2.3c-0.6-1.9,0.4-3.9,2.3-4.5l57.9-19.3
				c1.9-0.6,3.9,0.4,4.5,2.3C103,36,102,38,100.1,38.7z"/>
		</g>
	</g>
</g>
</svg>
