<?xml version="1.0" encoding="utf-8"?>
<!-- Generator: Adobe Illustrator 19.2.1, SVG Export Plug-In . SVG Version: 6.00 Build 0)  -->
<svg version="1.1" id="Layer_1" xmlns="http://www.w3.org/2000/svg" xmlns:xlink="http://www.w3.org/1999/xlink" x="0px" y="0px"
	 viewBox="0 0 142 142" style="enable-background:new 0 0 142 142;" xml:space="preserve">
<style type="text/css">
	.st0{fill:#34495E;}
	.st1{fill:#2980B9;}
	.st2{fill:#0071BC;}
	.st3{fill:none;}
	.st4{fill:#27AAE1;}
	.st5{fill:#3498DB;}
	.st6{opacity:0.3;}
	.st7{fill:#F1F2F2;}
	.st8{fill:#E6E7E8;}
</style>
<g>
	<path class="st0" d="M142,71c0,0.1,0,0.3,0,0.4c-0.1,22.6-10.8,42.6-27.3,55.5c-12,9.4-27.2,15.1-43.7,15.1c-2.7,0-5.4-0.2-8-0.5
		c-35.4-4-63-34.1-63-70.5C0,31.8,31.8,0,71,0c35.6,0,65,26.1,70.2,60.2C141.7,63.7,142,67.3,142,71z"/>
	<g>
		<g>
			<g>
				<path class="st1" d="M76.2,99.4C84.4,97,95.9,87,98.6,75.8l6.9-1.2l-0.2-7.4l-0.2-7.4L98.1,59c-0.8-2.7-1.9-5.3-3.4-7.7l4-5.7
					l-5.4-5.1l-5.4-5.1l-5.5,4.3c-2.5-1.4-5.2-2.4-7.9-3l-1.2-6.9L66,30l-7.4,0.2l-0.8,6.9C55,37.9,52.4,39,50,40.5l-5.7-4l-5.1,5.4
					l-5.1,5.4l4.3,5.5c-1.4,2.5-2.4,5.2-3,7.9l-6.9,1.2l0.2,7.4l0.2,7.4l6.9,0.8c0.8,2.7,1.9,5.3,3.4,7.7l-4,5.7l5.4,5.1l5.4,5.1
					l5.5-4.3c2.5,1.4,5.2,2.4,7.9,3l1.2,6.9l7.4-0.2l7.4-0.2L76.2,99.4z M54.5,81.4c-7.3-6.9-7.6-18.4-0.7-25.7
					c6.9-7.3,18.4-7.6,25.7-0.7c7.3,6.9,7.6,18.4,0.7,25.7C73.3,88,61.8,88.3,54.5,81.4z"/>
			</g>
			<g>
				<path class="st2" d="M67.3,50.1c10,0.2,18,8.4,17.9,18.5c-0.2,10-8.4,18-18.5,17.9c-10-0.2-18-8.4-17.9-18.5
					C49,57.9,57.2,49.9,67.3,50.1L67.3,50.1z M67.3,45.3c-3.1,0-6.1,0.5-8.9,1.7c-2.7,1.1-5.2,2.7-7.4,4.8c-2.1,2.1-3.8,4.5-5,7.2
					c-1.2,2.8-1.9,5.8-1.9,8.9c0,3.1,0.5,6.1,1.7,8.9c1.1,2.7,2.7,5.2,4.8,7.4c2.1,2.1,4.5,3.8,7.2,5c2.8,1.2,5.8,1.9,8.9,1.9
					c3.1,0,6.1-0.5,8.9-1.7c2.7-1.1,5.2-2.7,7.4-4.8c2.1-2.1,3.8-4.5,5-7.2c1.2-2.8,1.9-5.8,1.9-8.9c0-3.1-0.5-6.1-1.7-8.9
					c-1.1-2.7-2.7-5.2-4.8-7.4c-2.1-2.1-4.5-3.8-7.2-5C73.4,46,70.4,45.4,67.3,45.3L67.3,45.3z"/>
			</g>
		</g>
		<g>
			<g>
				<path class="st3" d="M52.2,54.9c-7.6,8.2-7.1,21,1.1,28.7c8.2,7.6,21,7.1,28.7-1.1c7.6-8.2,7.1-21-1.1-28.7
					C72.7,46.2,59.9,46.7,52.2,54.9z"/>
			</g>
			<g>
				<path class="st4" d="M52.2,54.9c-7.6,8.2-7.1,21,1.1,28.7c8.2,7.6,21,7.1,28.7-1.1c7.6-8.2,7.1-21-1.1-28.7
					C72.7,46.2,59.9,46.7,52.2,54.9z"/>
			</g>
			<g>
				<path class="st5" d="M88.6,83.4c-0.7,1.1-1.5,2.1-2.4,3c-0.9,1-1.9,1.8-2.8,2.6l5,4.7l5.3-5.7L88.6,83.4z"/>
			</g>
			<g>
				<path class="st5" d="M94.8,89.1l-5.3,5.7l-1.7,1.9l15,13.9c2.6,2.4,6.7,2.3,9.1-0.3c2.4-2.6,2.3-6.7-0.3-9.1l-15-13.9L94.8,89.1
					z"/>
			</g>
			<g>
				<polygon class="st1" points="95.2,84.2 84.6,95.6 86.8,97.6 87.7,96.6 96.5,87.2 97.4,86.2 				"/>
			</g>
			<g class="st6">
				
					<ellipse transform="matrix(0.6805 -0.7327 0.7327 0.6805 -28.7925 71.2766)" class="st7" cx="67.3" cy="68.7" rx="15.9" ry="15.9"/>
			</g>
			<g>
				<path class="st8" d="M84.9,49.6c-10.6-9.8-27.1-9.2-36.9,1.4c-9.8,10.6-9.2,27.1,1.4,36.9c9.6,8.9,24.1,9.2,34,1.3
					c1-0.8,2-1.7,2.8-2.6c0.9-1,1.7-2,2.4-3C95.8,72.9,94.4,58.5,84.9,49.6z M82,82.5c-7.6,8.2-20.5,8.7-28.7,1.1
					c-8.2-7.6-8.7-20.5-1.1-28.7c7.6-8.2,20.5-8.7,28.7-1.1C89.1,61.4,89.6,74.3,82,82.5z"/>
			</g>
		</g>
	</g>
</g>
</svg>
