<?xml version="1.0" encoding="utf-8"?>
<!-- Generator: Adobe Illustrator 19.2.1, SVG Export Plug-In . SVG Version: 6.00 Build 0)  -->
<svg version="1.1" id="Layer_1" xmlns="http://www.w3.org/2000/svg" xmlns:xlink="http://www.w3.org/1999/xlink" x="0px" y="0px"
	 viewBox="0 0 142 142" style="enable-background:new 0 0 142 142;" xml:space="preserve">
<style type="text/css">
	.st0{fill:#34495E;}
	.st1{fill:#2BCC71;}
	.st2{fill:#FFFFFF;}
	.st3{fill:#FBC520;}
	.st4{fill-rule:evenodd;clip-rule:evenodd;fill:#34495E;}
</style>
<g>
	<path class="st0" d="M142,71c0,0.1,0,0.3,0,0.4c-0.1,22.6-10.8,42.6-27.3,55.5c-12,9.4-27.2,15.1-43.7,15.1c-2.7,0-5.4-0.2-8-0.5
		c-35.4-4-63-34.1-63-70.5C0,31.8,31.8,0,71,0c35.6,0,65,26.1,70.2,60.2C141.7,63.7,142,67.3,142,71z"/>
	<g>
		<g>
			<g>
				<path class="st1" d="M105.8,52.2c0,2.1-1.7,3.8-3.8,3.8H36.3c-2.1,0-3.8-1.7-3.8-3.8V40.5c0-2.1,1.7-3.8,3.8-3.8h65.7
					c2.1,0,3.8,1.7,3.8,3.8V52.2z"/>
			</g>
			<g>
				<path class="st2" d="M42.2,46.4c0,1.6-1.3,2.9-2.9,2.9l0,0c-1.6,0-2.9-1.3-2.9-2.9l0,0c0-1.6,1.3-2.9,2.9-2.9l0,0
					C40.9,43.5,42.2,44.8,42.2,46.4L42.2,46.4z"/>
			</g>
			<g>
				<path class="st3" d="M84.8,46.4c0,1.6-1.3,2.9-2.9,2.9l0,0c-1.6,0-2.9-1.3-2.9-2.9l0,0c0-1.6,1.3-2.9,2.9-2.9l0,0
					C83.5,43.5,84.8,44.8,84.8,46.4L84.8,46.4z"/>
			</g>
			<g>
				<path class="st3" d="M92.7,46.4c0,1.6-1.3,2.9-2.9,2.9l0,0c-1.6,0-2.9-1.3-2.9-2.9l0,0c0-1.6,1.3-2.9,2.9-2.9l0,0
					C91.4,43.5,92.7,44.8,92.7,46.4L92.7,46.4z"/>
			</g>
			<g>
				<path class="st3" d="M100.7,46.4c0,1.6-1.3,2.9-2.9,2.9l0,0c-1.6,0-2.9-1.3-2.9-2.9l0,0c0-1.6,1.3-2.9,2.9-2.9l0,0
					C99.4,43.5,100.7,44.8,100.7,46.4L100.7,46.4z"/>
			</g>
		</g>
		<g>
			<g>
				<path class="st1" d="M105.8,73.6c0,2.1-1.7,3.8-3.8,3.8H36.3c-2.1,0-3.8-1.7-3.8-3.8V61.9c0-2.1,1.7-3.8,3.8-3.8h65.7
					c2.1,0,3.8,1.7,3.8,3.8V73.6z"/>
			</g>
			<g>
				<path class="st2" d="M42.2,67.7c0,1.6-1.3,2.9-2.9,2.9l0,0c-1.6,0-2.9-1.3-2.9-2.9l0,0c0-1.6,1.3-2.9,2.9-2.9l0,0
					C40.9,64.8,42.2,66.1,42.2,67.7L42.2,67.7z"/>
			</g>
			<g>
				<path class="st3" d="M84.8,67.7c0,1.6-1.3,2.9-2.9,2.9l0,0c-1.6,0-2.9-1.3-2.9-2.9l0,0c0-1.6,1.3-2.9,2.9-2.9l0,0
					C83.5,64.8,84.8,66.1,84.8,67.7L84.8,67.7z"/>
			</g>
			<g>
				<path class="st3" d="M92.7,67.7c0,1.6-1.3,2.9-2.9,2.9l0,0c-1.6,0-2.9-1.3-2.9-2.9l0,0c0-1.6,1.3-2.9,2.9-2.9l0,0
					C91.4,64.8,92.7,66.1,92.7,67.7L92.7,67.7z"/>
			</g>
			<g>
				<path class="st3" d="M100.7,67.7c0,1.6-1.3,2.9-2.9,2.9l0,0c-1.6,0-2.9-1.3-2.9-2.9l0,0c0-1.6,1.3-2.9,2.9-2.9l0,0
					C99.4,64.8,100.7,66.1,100.7,67.7L100.7,67.7z"/>
			</g>
		</g>
		<g>
			<g>
				<path class="st1" d="M105.8,95.1c0,2.1-1.7,3.8-3.8,3.8H36.3c-2.1,0-3.8-1.7-3.8-3.8V83.4c0-2.1,1.7-3.8,3.8-3.8h65.7
					c2.1,0,3.8,1.7,3.8,3.8V95.1z"/>
			</g>
			<g>
				<path class="st2" d="M42.2,89.2c0,1.6-1.3,2.9-2.9,2.9l0,0c-1.6,0-2.9-1.3-2.9-2.9l0,0c0-1.6,1.3-2.9,2.9-2.9l0,0
					C40.9,86.3,42.2,87.6,42.2,89.2L42.2,89.2z"/>
			</g>
			<g>
				<path class="st3" d="M84.8,89.2c0,1.6-1.3,2.9-2.9,2.9l0,0c-1.6,0-2.9-1.3-2.9-2.9l0,0c0-1.6,1.3-2.9,2.9-2.9l0,0
					C83.5,86.3,84.8,87.6,84.8,89.2L84.8,89.2z"/>
			</g>
			<g>
				<path class="st3" d="M92.7,89.2c0,1.6-1.3,2.9-2.9,2.9l0,0c-1.6,0-2.9-1.3-2.9-2.9l0,0c0-1.6,1.3-2.9,2.9-2.9l0,0
					C91.4,86.3,92.7,87.6,92.7,89.2L92.7,89.2z"/>
			</g>
			<g>
				<path class="st3" d="M100.7,89.2c0,1.6-1.3,2.9-2.9,2.9l0,0c-1.6,0-2.9-1.3-2.9-2.9l0,0c0-1.6,1.3-2.9,2.9-2.9l0,0
					C99.4,86.3,100.7,87.6,100.7,89.2L100.7,89.2z"/>
			</g>
		</g>
	</g>
	<circle class="st4" cx="99.8" cy="94.4" r="17.7"/>
	<g>
		<path class="st1" d="M110.4,92.5H109c-0.1-0.5-0.2-1-0.4-1.4l1.2-0.7c0.3-0.2,0.4-0.5,0.2-0.8l-1.2-2c-0.2-0.3-0.5-0.4-0.8-0.2
			l-1.2,0.7c-0.3-0.4-0.7-0.7-1-1l0.7-1.2c0.2-0.3,0.1-0.6-0.2-0.8l-2-1.2c-0.3-0.2-0.6-0.1-0.8,0.2l-0.7,1.2
			c-0.5-0.2-0.9-0.3-1.4-0.4v-1.3c0-0.3-0.3-0.6-0.6-0.6h-2.3c-0.3,0-0.6,0.3-0.6,0.6v1.4c-0.5,0.1-1,0.2-1.4,0.4l-0.7-1.2
			c-0.2-0.3-0.5-0.4-0.8-0.2l-2,1.2c-0.3,0.2-0.4,0.5-0.2,0.8l0.7,1.2c-0.4,0.3-0.7,0.7-1,1l-1.2-0.7c-0.3-0.2-0.6-0.1-0.8,0.2
			l-1.2,2c-0.2,0.3-0.1,0.6,0.2,0.8l1.2,0.7c-0.2,0.5-0.3,0.9-0.4,1.4h-1.3c-0.3,0-0.6,0.3-0.6,0.6v2.3c0,0.3,0.3,0.6,0.6,0.6h1.4
			c0.1,0.5,0.2,1,0.4,1.4l-1.2,0.7c-0.3,0.2-0.4,0.5-0.2,0.8l1.2,2c0.2,0.3,0.5,0.4,0.8,0.2l1.2-0.7c0.3,0.4,0.7,0.7,1,1l-0.7,1.2
			c-0.2,0.3-0.1,0.6,0.2,0.8l2,1.2c0.3,0.2,0.6,0.1,0.8-0.2l0.7-1.2c0.5,0.2,0.9,0.3,1.4,0.4v1.3c0,0.3,0.3,0.6,0.6,0.6l2.3,0
			c0.3,0,0.6-0.3,0.6-0.6v-1.4c0.5-0.1,1-0.2,1.4-0.4l0.7,1.2c0.2,0.3,0.5,0.4,0.8,0.2l2-1.2c0.3-0.2,0.4-0.5,0.2-0.8l-0.7-1.2
			c0.4-0.3,0.7-0.7,1-1l1.2,0.7c0.3,0.2,0.6,0.1,0.8-0.2l1.2-2c0.2-0.3,0.1-0.6-0.2-0.8l-1.2-0.7c0.2-0.5,0.3-0.9,0.4-1.4h1.3
			c0.3,0,0.6-0.3,0.6-0.6v-2.3C111,92.8,110.7,92.5,110.4,92.5z M99.8,100.4c-3.3,0-6-2.7-6-6c0-3.3,2.7-6,6-6c3.3,0,6,2.7,6,6
			C105.8,97.7,103.1,100.4,99.8,100.4z"/>
		<path class="st1" d="M99.6,100.4c-3.2-0.1-5.8-2.7-5.8-6c0-3.2,2.6-5.9,5.8-6v-5.3h-1.1c-0.3,0-0.6,0.3-0.6,0.6v1.4
			c-0.5,0.1-1,0.2-1.4,0.4l-0.7-1.2c-0.2-0.3-0.5-0.4-0.8-0.2l-2,1.2c-0.3,0.2-0.4,0.5-0.2,0.8l0.7,1.2c-0.4,0.3-0.7,0.7-1,1
			l-1.2-0.7c-0.3-0.2-0.6-0.1-0.8,0.2l-1.2,2c-0.2,0.3-0.1,0.6,0.2,0.8l1.2,0.7c-0.2,0.5-0.3,0.9-0.4,1.4h-1.3
			c-0.3,0-0.6,0.3-0.6,0.6v2.3c0,0.3,0.3,0.6,0.6,0.6h1.4c0.1,0.5,0.2,1,0.4,1.4l-1.2,0.7c-0.3,0.2-0.4,0.5-0.2,0.8l1.2,2
			c0.2,0.3,0.5,0.4,0.8,0.2l1.2-0.7c0.3,0.4,0.7,0.7,1,1l-0.7,1.2c-0.2,0.3-0.1,0.6,0.2,0.8l2,1.2c0.3,0.2,0.6,0.1,0.8-0.2l0.7-1.2
			c0.5,0.2,0.9,0.3,1.4,0.4v1.3c0,0.3,0.3,0.6,0.6,0.6l0.8,0V100.4z"/>
		<path class="st1" d="M99.8,87.1c-4,0-7.3,3.3-7.3,7.3c0,4,3.3,7.3,7.3,7.3s7.3-3.3,7.3-7.3C107.1,90.3,103.8,87.1,99.8,87.1z
			 M99.8,100.4c-3.3,0-6-2.7-6-6c0-3.3,2.7-6,6-6c3.3,0,6,2.7,6,6C105.8,97.7,103.1,100.4,99.8,100.4z"/>
		<path class="st1" d="M99.8,87.1c-0.1,0-0.1,0-0.2,0v1.3c0.1,0,0.1,0,0.2,0c3.3,0,6,2.7,6,6c0,3.3-2.7,6-6,6c-0.1,0-0.1,0-0.2,0
			v1.3c0.1,0,0.1,0,0.2,0c4,0,7.3-3.3,7.3-7.3C107.1,90.3,103.8,87.1,99.8,87.1z"/>
	</g>
</g>
</svg>
