<?xml version="1.0" encoding="utf-8"?>
<!-- Generator: Adobe Illustrator 19.2.1, SVG Export Plug-In . SVG Version: 6.00 Build 0)  -->
<svg version="1.1" id="Layer_1" xmlns="http://www.w3.org/2000/svg" xmlns:xlink="http://www.w3.org/1999/xlink" x="0px" y="0px"
	 viewBox="0 0 142 142" style="enable-background:new 0 0 142 142;" xml:space="preserve">
<style type="text/css">
	.st0{fill:#34495E;}
	.st1{fill:#ECF0F1;}
	.st2{fill:#BDC3C7;}
</style>
<g>
	<path class="st0" d="M142,71c0,0.1,0,0.3,0,0.4c-0.1,22.6-10.8,42.6-27.3,55.5c-12,9.4-27.2,15.1-43.7,15.1c-2.7,0-5.4-0.2-8-0.5
		c-35.4-4-63-34.1-63-70.5C0,31.8,31.8,0,71,0c35.6,0,65,26.1,70.2,60.2C141.7,63.7,142,67.3,142,71z"/>
	<path class="st1" d="M73.9,93.6c-0.9,0.2-1.9,0.3-2.9,0.4c-13.1,0.7-24.2-9.5-24.9-22.7c-0.3-6.4,1.8-12.6,6-17.3
		c4.2-4.8,10-7.5,16.3-7.9c0.4,0,0.8,0,1.3,0c12.6,0,22.9,10,23.6,22.7c0.1,1.7,0,3.3-0.2,4.9l8.4,8.1c0.7-1.8,1.2-3.7,1.5-5.6
		l7.9-1.7l-0.1-2.2l-0.3-5.6l-0.1-2.2l-7.5-0.7c-0.3-1.7-0.7-3.4-1.3-5l6-5.4l-1.2-1.9l-3.1-4.7l-1.2-1.9l-6.7,3
		c-1.1-1.4-2.4-2.6-3.7-3.8l2.5-7.5l-2-1l-5-2.6l-2-1L81,37.8c-1.7-0.6-3.5-1.1-5.3-1.4l-1.6-7.6l-2.2,0.1l-5.6,0.3l-2.2,0.1
		l-0.7,7.1c-1.8,0.3-3.6,0.8-5.3,1.4L53,32l-1.9,1.2l-4.7,3.1l-1.9,1.2l3,6.6c-1,0.9-2.1,1.9-3,3c-0.2,0.3-0.4,0.6-0.7,0.8l-7.6-2.5
		l-1,2l-2.6,5l-1,2l6,4.3c-0.6,1.6-1,3.3-1.3,5l-7.9,1.7l0.1,2.2l0.3,5.6l0.1,2.2l7.5,0.8c0.3,1.7,0.7,3.4,1.3,5l-6,5.4l1.2,1.9
		l3.1,4.7l1.2,1.9l6.7-3c1.1,1.4,2.4,2.6,3.7,3.8l-2.5,7.6l2,1l5,2.5l2,1l4.2-5.8c1.7,0.6,3.4,1.1,5.2,1.4l1.6,7.6l2.2-0.1l5.6-0.3
		l2.2-0.1l0.7-7.1c2-0.4,4-1,5.9-1.7L73.9,93.6z"/>
	<path class="st2" d="M113.5,102.7c0.2-1.3-0.5-3.1-1.3-3.8c-8.9-8.6-17.7-17.1-26.5-25.7c1.3-5.4-0.2-11.2-4.3-15.4
		c-4.8-4.8-11.9-6-17.8-3.6l9.1,9.1c0.8,0.8,0.8,2,0,2.8l-6.3,6.3c-0.8,0.8-2,0.8-2.8,0l-9.1-9.1c-2.4,5.9-1.2,13,3.6,17.8
		c4.2,4.2,10,5.6,15.4,4.3c8.6,8.8,17.2,17.7,25.7,26.5c0.7,0.8,2.5,1.5,3.8,1.3C108.3,112.4,112.7,108,113.5,102.7z"/>
</g>
</svg>
