<?xml version="1.0" encoding="utf-8"?>
<!-- Generator: Adobe Illustrator 19.2.1, SVG Export Plug-In . SVG Version: 6.00 Build 0)  -->
<svg version="1.1" id="Layer_1" xmlns="http://www.w3.org/2000/svg" xmlns:xlink="http://www.w3.org/1999/xlink" x="0px" y="0px"
	 viewBox="0 0 142 142" style="enable-background:new 0 0 142 142;" xml:space="preserve">
<style type="text/css">
	.st0{fill:#34495E;}
	.st1{fill:#FFFFFF;}
	.st2{fill:#FEC00F;}
	.st3{fill:#D1ECFB;}
	.st4{fill:#2C3E50;}
	.st5{fill:#F2F2F2;}
</style>
<g>
	<path class="st0" d="M142,71c0,0.1,0,0.3,0,0.4c-0.1,22.6-10.8,42.6-27.3,55.5c-12,9.4-27.2,15.1-43.7,15.1c-2.7,0-5.4-0.2-8-0.5
		c-35.4-4-63-34.1-63-70.5C0,31.8,31.8,0,71,0c35.6,0,65,26.1,70.2,60.2C141.7,63.7,142,67.3,142,71z"/>
	<g>
		<g>
			<g>
				<g>
					<g>
						<g>
							<g>
								<polygon class="st1" points="38,99.5 38,61.3 38,42.2 51.7,28.5 89.9,28.5 89.9,42.7 89.9,61.3 89.9,99.5 								"/>
								<g>
									<polygon class="st2" points="51.7,42.2 38,42.2 51.7,28.5 									"/>
									<polygon class="st3" points="38,42.2 51.7,42.2 38,55.9 									"/>
								</g>
							</g>
						</g>
					</g>
				</g>
			</g>
			<g>
				<rect x="49.7" y="54" class="st4" width="28.6" height="4.2"/>
				<rect x="49.7" y="66.7" class="st4" width="28.6" height="4.2"/>
				<rect x="49.7" y="79.4" class="st4" width="28.6" height="4.2"/>
			</g>
		</g>
		<g>
			<g>
				<g>
					<g>
						<g>
							<g>
								<polygon class="st5" points="52.1,113.5 52.1,75.4 52.1,56.2 65.8,42.5 104,42.5 104,56.7 104,75.4 104,113.5 								"/>
								<g>
									<polygon class="st2" points="65.8,56.2 52.1,56.2 65.8,42.5 									"/>
									<polygon class="st3" points="52.1,56.2 65.8,56.2 52.1,69.9 									"/>
								</g>
							</g>
						</g>
					</g>
				</g>
			</g>
			<g>
				<rect x="63.7" y="68" class="st4" width="28.6" height="4.2"/>
				<rect x="63.7" y="80.7" class="st4" width="28.6" height="4.2"/>
				<rect x="63.7" y="93.5" class="st4" width="28.6" height="4.2"/>
			</g>
		</g>
	</g>
</g>
</svg>
