<?xml version="1.0" encoding="utf-8"?>
<!-- Generator: Adobe Illustrator 19.2.1, SVG Export Plug-In . SVG Version: 6.00 Build 0)  -->
<svg version="1.1" id="Layer_1" xmlns="http://www.w3.org/2000/svg" xmlns:xlink="http://www.w3.org/1999/xlink" x="0px" y="0px"
	 viewBox="0 0 142 142" style="enable-background:new 0 0 142 142;" xml:space="preserve">
<style type="text/css">
	.st0{fill:#34495E;}
	.st1{fill-rule:evenodd;clip-rule:evenodd;fill:#2BCC71;}
	.st2{fill-rule:evenodd;clip-rule:evenodd;fill:#34495E;}
	.st3{fill:#2BCC71;}
</style>
<g>
	<path class="st0" d="M142,71c0,0.1,0,0.3,0,0.4c-0.1,22.6-10.8,42.6-27.3,55.5c-12,9.4-27.2,15.1-43.7,15.1c-2.7,0-5.4-0.2-8-0.5
		c-35.4-4-63-34.1-63-70.5C0,31.8,31.8,0,71,0c35.6,0,65,26.1,70.2,60.2C141.7,63.7,142,67.3,142,71z"/>
	<g>
		<path class="st1" d="M84.7,44.6c0,8.9-7.2,16.1-16.1,16.1c-8.9,0-16.1-7.2-16.1-16.1c0-8.9,7.2-16.1,16.1-16.1
			C77.4,28.5,84.7,35.7,84.7,44.6z"/>
		<path class="st1" d="M71.4,65.8h-7.8c0,0-7.3-0.3-11.4,5.7c-4.1,6-7.3,24.6-7.3,24.6s-0.8,4.9,4.8,4.8h36.9c0,0,5.4,0.1,5.4-4.8
			c0,0-2.6-18.1-7.5-24.3C80.5,64.8,71.4,65.8,71.4,65.8z"/>
	</g>
	<g>
		<circle class="st2" cx="87.8" cy="96.3" r="17.2"/>
		<g>
			<path class="st3" d="M98.5,94.4h-1.4c-0.1-0.5-0.2-1-0.4-1.4l1.2-0.7c0.3-0.2,0.4-0.5,0.2-0.8l-1.2-2c-0.2-0.3-0.5-0.4-0.8-0.2
				L95,90c-0.3-0.4-0.7-0.7-1-1l0.7-1.2c0.2-0.3,0.1-0.6-0.2-0.8l-2-1.2c-0.3-0.2-0.6-0.1-0.8,0.2l-0.7,1.2
				c-0.5-0.2-0.9-0.3-1.4-0.4v-1.3c0-0.3-0.3-0.6-0.6-0.6h-2.3c-0.3,0-0.6,0.3-0.6,0.6V87c-0.5,0.1-1,0.2-1.4,0.4l-0.7-1.2
				c-0.2-0.3-0.5-0.4-0.8-0.2l-2,1.2c-0.3,0.2-0.4,0.5-0.2,0.8l0.7,1.2c-0.4,0.3-0.7,0.7-1,1l-1.2-0.7c-0.3-0.2-0.6-0.1-0.8,0.2
				l-1.2,2c-0.2,0.3-0.1,0.6,0.2,0.8l1.2,0.7c-0.2,0.5-0.3,0.9-0.4,1.4h-1.3c-0.3,0-0.6,0.3-0.6,0.6v2.3c0,0.3,0.3,0.6,0.6,0.6h1.4
				c0.1,0.5,0.2,1,0.4,1.4l-1.2,0.7c-0.3,0.2-0.4,0.5-0.2,0.8l1.2,2c0.2,0.3,0.5,0.4,0.8,0.2l1.2-0.7c0.3,0.4,0.7,0.7,1,1l-0.7,1.2
				c-0.2,0.3-0.1,0.6,0.2,0.8l2,1.2c0.3,0.2,0.6,0.1,0.8-0.2l0.7-1.2c0.5,0.2,0.9,0.3,1.4,0.4v1.3c0,0.3,0.3,0.6,0.6,0.6l2.3,0
				c0.3,0,0.6-0.3,0.6-0.6v-1.4c0.5-0.1,1-0.2,1.4-0.4l0.7,1.2c0.2,0.3,0.5,0.4,0.8,0.2l2-1.2c0.3-0.2,0.4-0.5,0.2-0.8l-0.7-1.2
				c0.4-0.3,0.7-0.7,1-1l1.2,0.7c0.3,0.2,0.6,0.1,0.8-0.2l1.2-2c0.2-0.3,0.1-0.6-0.2-0.8l-1.2-0.7c0.2-0.5,0.3-0.9,0.4-1.4h1.3
				c0.3,0,0.6-0.3,0.6-0.6V95C99.1,94.7,98.8,94.4,98.5,94.4z M87.8,102.3c-3.3,0-6-2.7-6-6c0-3.3,2.7-6,6-6c3.3,0,6,2.7,6,6
				C93.8,99.6,91.2,102.3,87.8,102.3z"/>
			<path class="st3" d="M87.6,102.3c-3.2-0.1-5.8-2.7-5.8-6c0-3.2,2.6-5.9,5.8-6V85h-1.1c-0.3,0-0.6,0.3-0.6,0.6V87
				c-0.5,0.1-1,0.2-1.4,0.4l-0.7-1.2c-0.2-0.3-0.5-0.4-0.8-0.2l-2,1.2c-0.3,0.2-0.4,0.5-0.2,0.8l0.7,1.2c-0.4,0.3-0.7,0.7-1,1
				l-1.2-0.7c-0.3-0.2-0.6-0.1-0.8,0.2l-1.2,2c-0.2,0.3-0.1,0.6,0.2,0.8l1.2,0.7c-0.2,0.5-0.3,0.9-0.4,1.4h-1.3
				c-0.3,0-0.6,0.3-0.6,0.6v2.3c0,0.3,0.3,0.6,0.6,0.6h1.4c0.1,0.5,0.2,1,0.4,1.4l-1.2,0.7c-0.3,0.2-0.4,0.5-0.2,0.8l1.2,2
				c0.2,0.3,0.5,0.4,0.8,0.2l1.2-0.7c0.3,0.4,0.7,0.7,1,1l-0.7,1.2c-0.2,0.3-0.1,0.6,0.2,0.8l2,1.2c0.3,0.2,0.6,0.1,0.8-0.2l0.7-1.2
				c0.5,0.2,0.9,0.3,1.4,0.4v1.3c0,0.3,0.3,0.6,0.6,0.6l0.8,0V102.3z"/>
			<path class="st3" d="M87.8,89c-4,0-7.3,3.3-7.3,7.3c0,4,3.3,7.3,7.3,7.3c4,0,7.3-3.3,7.3-7.3C95.2,92.2,91.9,89,87.8,89z
				 M87.8,102.3c-3.3,0-6-2.7-6-6c0-3.3,2.7-6,6-6c3.3,0,6,2.7,6,6C93.8,99.6,91.2,102.3,87.8,102.3z"/>
			<path class="st3" d="M87.8,89c-0.1,0-0.1,0-0.2,0v1.3c0.1,0,0.1,0,0.2,0c3.3,0,6,2.7,6,6c0,3.3-2.7,6-6,6c-0.1,0-0.1,0-0.2,0v1.3
				c0.1,0,0.1,0,0.2,0c4,0,7.3-3.3,7.3-7.3C95.2,92.2,91.9,89,87.8,89z"/>
		</g>
	</g>
</g>
</svg>
