<?xml version="1.0" encoding="utf-8"?>
<!-- Generator: Adobe Illustrator 19.2.1, SVG Export Plug-In . SVG Version: 6.00 Build 0)  -->
<svg version="1.1" id="Layer_1" xmlns="http://www.w3.org/2000/svg" xmlns:xlink="http://www.w3.org/1999/xlink" x="0px" y="0px"
	 viewBox="0 0 142 142" style="enable-background:new 0 0 142 142;" xml:space="preserve">
<style type="text/css">
	.st0{fill:#34495E;}
	.st1{fill-rule:evenodd;clip-rule:evenodd;fill:#3498DB;}
	.st2{fill-rule:evenodd;clip-rule:evenodd;fill:#34495E;}
	.st3{fill:none;stroke:#3498DB;stroke-width:5;stroke-linecap:round;stroke-linejoin:round;}
</style>
<g>
	<path class="st0" d="M142,71c0,0.1,0,0.3,0,0.4c-0.1,22.6-10.8,42.6-27.3,55.5c-12,9.4-27.2,15.1-43.7,15.1c-2.7,0-5.4-0.2-8-0.5
		c-35.4-4-63-34.1-63-70.5C0,31.8,31.8,0,71,0c35.6,0,65,26.1,70.2,60.2C141.7,63.7,142,67.3,142,71z"/>
	<g>
		<g>
			<path class="st1" d="M84.7,44.6c0,8.9-7.2,16.1-16.1,16.1c-8.9,0-16.1-7.2-16.1-16.1c0-8.9,7.2-16.1,16.1-16.1
				C77.4,28.5,84.7,35.7,84.7,44.6z"/>
			<path class="st1" d="M71.4,65.8h-7.8c0,0-7.3-0.3-11.4,5.7c-4.1,6-7.3,24.6-7.3,24.6s-0.8,4.9,4.8,4.8h36.9c0,0,5.4,0.1,5.4-4.8
				c0,0-2.6-18.1-7.5-24.3C80.5,64.8,71.4,65.8,71.4,65.8z"/>
		</g>
		<circle class="st2" cx="87.8" cy="96.3" r="17.2"/>
		<g>
			<line class="st3" x1="87.8" y1="86.3" x2="87.8" y2="106.3"/>
			<line class="st3" x1="97.8" y1="96.3" x2="77.9" y2="96.3"/>
		</g>
	</g>
</g>
</svg>
