<?xml version="1.0" encoding="utf-8"?>
<!-- Generator: Adobe Illustrator 19.2.1, SVG Export Plug-In . SVG Version: 6.00 Build 0)  -->
<svg version="1.1" id="Layer_1" xmlns="http://www.w3.org/2000/svg" xmlns:xlink="http://www.w3.org/1999/xlink" x="0px" y="0px"
	 viewBox="0 0 142 142" style="enable-background:new 0 0 142 142;" xml:space="preserve">
<style type="text/css">
	.st0{fill:#34495E;}
	.st1{opacity:0.5;}
	.st2{fill:#F39C13;}
	.st3{fill:#ECF0F1;}
	.st4{fill:#F1C411;}
</style>
<path class="st0" d="M142,71c0,0.1,0,0.3,0,0.4c-0.1,22.6-10.8,42.6-27.3,55.5c-12,9.4-27.2,15.1-43.7,15.1c-2.7,0-5.4-0.2-8-0.5
	c-35.4-4-63-34.1-63-70.5C0,31.8,31.8,0,71,0c35.6,0,65,26.1,70.2,60.2C141.7,63.7,142,67.3,142,71z"/>
<g>
	<g>
		<g>
			<g class="st1">
				<path class="st2" d="M114.6,64c0,4.8-6.3,4.8-6.3,0V35.8h5.3c0.5,0,1,0.4,1,1V64z"/>
				<g>
					<path class="st3" d="M110.4,63.4c0,0.6-0.5,1.2-1.2,1.2H81.6V32.4c0-0.4,0.4-0.8,0.9-0.8h26.8c0.5,0,1.2,0.2,1.2,0.8V63.4z"/>
				</g>
				<path class="st4" d="M112,67.6c-1.6,0-3.3-1.1-3.7-3.4l-3.5-20.7c-0.1-0.5-0.5-0.8-0.9-0.8l-7.6,0h-3.9l-0.8-2.9
					c-0.2-0.8-1.3-1.4-2.2-1.4H76.6c-0.6,0-1.1,0.2-1.5,0.7c-0.4,0.4-0.5,1-0.5,1.5l3.7,22.4c0.4,2.5,2.2,4.5,3.9,4.5l16.1,0l2.2,0
					L112,67.6L112,67.6z"/>
			</g>
			<g class="st1">
				<path class="st2" d="M67.4,64c0,4.8-6.3,4.8-6.3,0V35.8h5.3c0.5,0,1,0.4,1,1V64z"/>
				<g>
					<path class="st3" d="M63.1,63.4c0,0.6-0.5,1.2-1.2,1.2H34.3V32.4c0-0.4,0.4-0.8,0.9-0.8H62c0.5,0,1.2,0.2,1.2,0.8V63.4z"/>
				</g>
				<path class="st4" d="M64.8,67.6c-1.6,0-3.3-1.1-3.7-3.4l-3.5-20.7c-0.1-0.5-0.5-0.8-0.9-0.8l-7.6,0h-3.9l-0.8-2.9
					c-0.2-0.8-1.3-1.4-2.2-1.4H29.3c-0.6,0-1.1,0.2-1.5,0.7c-0.4,0.4-0.5,1-0.5,1.5l3.7,22.4c0.4,2.5,2.2,4.5,3.9,4.5l16.1,0l2.2,0
					L64.8,67.6L64.8,67.6z"/>
			</g>
		</g>
		<g>
			<g class="st1">
				<path class="st2" d="M114.6,106.7c0,4.8-6.3,4.8-6.3,0V78.6h5.3c0.5,0,1,0.4,1,1V106.7z"/>
				<g>
					<path class="st3" d="M110.4,106.2c0,0.6-0.5,1.2-1.2,1.2H81.6V75.2c0-0.4,0.4-0.8,0.9-0.8h26.8c0.5,0,1.2,0.2,1.2,0.8V106.2z"
						/>
				</g>
				<path class="st4" d="M112,110.3c-1.6,0-3.3-1.1-3.7-3.4l-3.5-20.7c-0.1-0.5-0.5-0.8-0.9-0.8l-7.6,0h-3.9l-0.8-2.9
					c-0.2-0.8-1.3-1.4-2.2-1.4H76.6c-0.6,0-1.1,0.2-1.5,0.7c-0.4,0.4-0.5,1-0.5,1.5l3.7,22.4c0.4,2.5,2.2,4.5,3.9,4.5l16.1,0l2.2,0
					L112,110.3L112,110.3z"/>
			</g>
			<g class="st1">
				<path class="st2" d="M67.4,106.7c0,4.8-6.3,4.8-6.3,0V78.6h5.3c0.5,0,1,0.4,1,1V106.7z"/>
				<g>
					<path class="st3" d="M63.1,106.2c0,0.6-0.5,1.2-1.2,1.2H34.3V75.2c0-0.4,0.4-0.8,0.9-0.8H62c0.5,0,1.2,0.2,1.2,0.8V106.2z"/>
				</g>
				<path class="st4" d="M64.8,110.3c-1.6,0-3.3-1.1-3.7-3.4l-3.5-20.7c-0.1-0.5-0.5-0.8-0.9-0.8l-7.6,0h-3.9l-0.8-2.9
					c-0.2-0.8-1.3-1.4-2.2-1.4H29.3c-0.6,0-1.1,0.2-1.5,0.7c-0.4,0.4-0.5,1-0.5,1.5l3.7,22.4c0.4,2.5,2.2,4.5,3.9,4.5l16.1,0l2.2,0
					L64.8,110.3L64.8,110.3z"/>
			</g>
		</g>
	</g>
	<g>
		<path class="st2" d="M97.1,89.7c0,6.2-8.2,6.2-8.2,0V53h7c0.7,0,1.3,0.6,1.3,1.3V89.7z"/>
		<g>
			<path class="st3" d="M91.6,89c0,0.8-0.7,1.5-1.5,1.5H54V48.6c0-0.6,0.5-1,1.1-1h34.9c0.6,0,1.5,0.2,1.5,1V89z"/>
		</g>
		<path class="st4" d="M93.7,94.4c-2,0-4.3-1.5-4.8-4.4l-4.6-26.9c-0.1-0.6-0.6-1-1.2-1l-9.9,0h-5.1L67,58.3
			c-0.3-1.1-1.7-1.8-2.8-1.8H47.5c-0.7,0-1.4,0.3-1.9,0.9c-0.5,0.5-0.7,1.3-0.6,2l4.8,29.3c0.6,3.3,2.8,5.9,5.1,5.9l21,0l2.9,0
			L93.7,94.4L93.7,94.4z"/>
	</g>
</g>
</svg>
