<?xml version="1.0" encoding="utf-8"?>
<!-- Generator: Adobe Illustrator 19.2.1, SVG Export Plug-In . SVG Version: 6.00 Build 0)  -->
<svg version="1.1" id="Layer_1" xmlns="http://www.w3.org/2000/svg" xmlns:xlink="http://www.w3.org/1999/xlink" x="0px" y="0px"
	 viewBox="0 0 142 142" style="enable-background:new 0 0 142 142;" xml:space="preserve">
<style type="text/css">
	.st0{fill:#34495E;}
	.st1{fill:#3498DB;}
	.st2{fill-rule:evenodd;clip-rule:evenodd;fill:#FFFFFF;}
	.st3{fill:#F39C13;}
	.st4{fill:#ECF0F1;}
	.st5{fill:#F1C411;}
</style>
<g>
	<path class="st0" d="M141.9,72c0,0.1,0,0.3,0,0.4c-0.1,22.6-10.8,42.6-27.3,55.5c-12,9.4-27.2,15.1-43.7,15.1c-2.7,0-5.4-0.2-8-0.5
		c-35.4-4-63-34.1-63-70.5c0-39.2,31.8-71,71-71c35.6,0,65,26.1,70.2,60.2C141.7,64.7,141.9,68.3,141.9,72z"/>
	<g>
		<path class="st1" d="M70.9,27c-17.6,0-32,15.8-32,35.2c0,19.4,32,54.8,32,54.8c0.3-0.2,32-35.7,32-54.8
			C102.9,42.8,88.6,27,70.9,27z M70.9,71.2c-7.2,0-13.1-5.9-13.1-13.1c0-7.2,5.9-13.1,13.1-13.1C78.2,45,84,50.9,84,58.1
			C84,65.4,78.2,71.2,70.9,71.2z"/>
		<circle class="st2" cx="70.9" cy="58.1" r="21.4"/>
		<g>
			<path class="st3" d="M85,68.2c0,3.4-4.4,3.4-4.4,0V48.4h3.8c0.4,0,0.7,0.3,0.7,0.7V68.2z"/>
			<g>
				<path class="st4" d="M82,67.8c0,0.4-0.4,0.8-0.8,0.8H61.8V46c0-0.3,0.3-0.6,0.6-0.6h18.8c0.3,0,0.8,0.1,0.8,0.6V67.8z"/>
			</g>
			<path class="st5" d="M83.2,70.8c-1.1,0-2.3-0.8-2.6-2.4l-2.5-14.5c-0.1-0.3-0.3-0.6-0.7-0.6l-5.3,0h-2.7l-0.6-2
				c-0.2-0.6-0.9-1-1.5-1h-9c-0.4,0-0.8,0.2-1,0.5c-0.3,0.3-0.4,0.7-0.3,1.1l2.6,15.8c0.3,1.8,1.5,3.2,2.7,3.2l11.3,0l1.6,0
				L83.2,70.8L83.2,70.8z"/>
		</g>
	</g>
</g>
</svg>
