<?xml version="1.0" encoding="utf-8"?>
<!-- Generator: Adobe Illustrator 19.2.1, SVG Export Plug-In . SVG Version: 6.00 Build 0)  -->
<svg version="1.1" id="Layer_1" xmlns="http://www.w3.org/2000/svg" xmlns:xlink="http://www.w3.org/1999/xlink" x="0px" y="0px"
	 viewBox="0 0 142 142" style="enable-background:new 0 0 142 142;" xml:space="preserve">
<style type="text/css">
	.st0{fill:#34495E;}
	.st1{opacity:0.2;}
	.st2{fill:#FFFFFF;}
	.st3{fill:#FEC00F;}
	.st4{fill:#D1ECFB;}
	.st5{fill:#2C3E50;}
</style>
<g>
	<path class="st0" d="M142,71c0,0.1,0,0.3,0,0.4c-0.1,22.6-10.8,42.6-27.3,55.5c-12,9.4-27.2,15.1-43.7,15.1c-2.7,0-5.4-0.2-8-0.5
		c-35.4-4-63-34.1-63-70.5C0,31.8,31.8,0,71,0c35.6,0,65,26.1,70.2,60.2C141.7,63.7,142,67.3,142,71z"/>
	<g>
		<g class="st1">
			<g>
				<g>
					<g>
						<g>
							<g>
								<polygon class="st2" points="19.8,98 19.8,65 19.8,48.5 31.6,36.6 64.7,36.6 64.7,48.9 64.7,65 64.7,98 								"/>
								<g>
									<polygon class="st3" points="31.6,48.5 19.8,48.5 31.6,36.6 									"/>
									<polygon class="st4" points="19.8,48.5 31.6,48.5 19.8,60.3 									"/>
								</g>
							</g>
						</g>
					</g>
				</g>
			</g>
			<g>
				<rect x="29.9" y="58.7" class="st5" width="24.7" height="3.6"/>
				<rect x="29.9" y="69.7" class="st5" width="24.7" height="3.6"/>
				<rect x="29.9" y="80.7" class="st5" width="24.7" height="3.6"/>
			</g>
		</g>
		<g class="st1">
			<g>
				<g>
					<g>
						<g>
							<g>
								<polygon class="st2" points="77.3,98 77.3,65 77.3,48.5 89.2,36.6 122.2,36.6 122.2,48.9 122.2,65 122.2,98 								"/>
								<g>
									<polygon class="st3" points="89.2,48.5 77.3,48.5 89.2,36.6 									"/>
									<polygon class="st4" points="77.3,48.5 89.2,48.5 77.3,60.3 									"/>
								</g>
							</g>
						</g>
					</g>
				</g>
			</g>
			<g>
				<rect x="87.4" y="58.7" class="st5" width="24.7" height="3.6"/>
				<rect x="87.4" y="69.7" class="st5" width="24.7" height="3.6"/>
				<rect x="87.4" y="80.7" class="st5" width="24.7" height="3.6"/>
			</g>
		</g>
	</g>
	<g>
		<g>
			<g>
				<g>
					<g>
						<g>
							<polygon class="st2" points="48.6,105.4 48.6,72.4 48.6,55.9 60.4,44 93.4,44 93.4,56.3 93.4,72.4 93.4,105.4 							"/>
							<g>
								<polygon class="st3" points="60.4,55.9 48.6,55.9 60.4,44 								"/>
								<polygon class="st4" points="48.6,55.9 60.4,55.9 48.6,67.7 								"/>
							</g>
						</g>
					</g>
				</g>
			</g>
		</g>
		<g>
			<rect x="58.6" y="66" class="st5" width="24.7" height="3.6"/>
			<rect x="58.6" y="77" class="st5" width="24.7" height="3.6"/>
			<rect x="58.6" y="88" class="st5" width="24.7" height="3.6"/>
		</g>
	</g>
</g>
</svg>
