<?xml version="1.0" encoding="utf-8"?>
<!-- Generator: Adobe Illustrator 19.2.1, SVG Export Plug-In . SVG Version: 6.00 Build 0)  -->
<svg version="1.1" id="Layer_1" xmlns="http://www.w3.org/2000/svg" xmlns:xlink="http://www.w3.org/1999/xlink" x="0px" y="0px"
	 viewBox="0 0 142 142" style="enable-background:new 0 0 142 142;" xml:space="preserve">
<style type="text/css">
	.st0{fill:#34495E;}
	.st1{fill:#25AE60;}
	.st2{fill:#ECF0F1;}
	.st3{fill:#2BCC71;}
	.st4{fill-rule:evenodd;clip-rule:evenodd;fill:#34495E;}
</style>
<g>
	<path class="st0" d="M142,71c0,0.1,0,0.3,0,0.4c-0.1,22.6-10.8,42.6-27.3,55.5c-12,9.4-27.2,15.1-43.7,15.1c-2.7,0-5.4-0.2-8-0.5
		c-35.4-4-63-34.1-63-70.5C0,31.8,31.8,0,71,0c35.6,0,65,26.1,70.2,60.2C141.7,63.7,142,67.3,142,71z"/>
	<g>
		<g>
			<path class="st1" d="M104.4,93.7c0,9-11.9,9-11.9,0v-53h10c1,0,1.8,0.8,1.8,1.8V93.7z"/>
			<g>
				<path class="st2" d="M96.5,92.7c0,1.2-1,2.2-2.2,2.2H42.2V34.3c0-0.8,0.7-1.5,1.6-1.5h50.4c0.9,0,2.2,0.3,2.2,1.5V92.7z"/>
			</g>
			<path class="st3" d="M99.6,100.6c-2.9,0-6.3-2.1-7-6.4L86,55.3c-0.1-0.9-0.9-1.5-1.8-1.5l-14.3,0h-7.3l-1.5-5.4
				c-0.5-1.6-2.5-2.7-4.1-2.7H32.8c-1.1,0-2.1,0.5-2.8,1.2c-0.7,0.8-1,1.8-0.9,2.9l6.9,42.3c0.8,4.7,4.1,8.6,7.3,8.6l30.3,0l4.2,0
				L99.6,100.6L99.6,100.6z"/>
		</g>
		<g>
			<circle class="st4" cx="96.5" cy="92.7" r="16.4"/>
			<g>
				<path class="st3" d="M106.7,90.9h-1.3c-0.1-0.5-0.2-0.9-0.4-1.3l1.1-0.6c0.3-0.2,0.4-0.5,0.2-0.8l-1.1-1.9
					c-0.2-0.3-0.5-0.4-0.8-0.2l-1.1,0.7c-0.3-0.4-0.6-0.7-1-1l0.6-1.1c0.2-0.3,0.1-0.6-0.2-0.8l-1.9-1.1c-0.3-0.2-0.6-0.1-0.8,0.2
					l-0.7,1.1c-0.4-0.2-0.9-0.3-1.4-0.3v-1.3c0-0.3-0.2-0.6-0.6-0.6h-2.2c-0.3,0-0.6,0.2-0.6,0.6v1.3c-0.5,0.1-0.9,0.2-1.3,0.4
					l-0.6-1.1c-0.2-0.3-0.5-0.4-0.8-0.2L90.1,84c-0.3,0.2-0.4,0.5-0.2,0.8l0.7,1.1c-0.3,0.3-0.7,0.6-1,1l-1.1-0.6
					c-0.3-0.2-0.6-0.1-0.8,0.2l-1.1,1.9c-0.2,0.3-0.1,0.6,0.2,0.8l1.1,0.7c-0.1,0.4-0.3,0.9-0.3,1.4h-1.3c-0.3,0-0.6,0.2-0.6,0.6
					v2.2c0,0.3,0.2,0.6,0.6,0.6h1.3c0.1,0.5,0.2,0.9,0.4,1.3l-1.1,0.6c-0.3,0.2-0.4,0.5-0.2,0.8l1.1,1.9c0.2,0.3,0.5,0.4,0.8,0.2
					l1.1-0.7c0.3,0.4,0.6,0.7,1,1l-0.6,1.1c-0.2,0.3-0.1,0.6,0.2,0.8l1.9,1.1c0.3,0.2,0.6,0.1,0.8-0.2l0.7-1.1
					c0.4,0.1,0.9,0.3,1.4,0.3v1.3c0,0.3,0.2,0.6,0.6,0.6l2.2,0c0.3,0,0.6-0.2,0.6-0.6v-1.3c0.5-0.1,0.9-0.2,1.3-0.4l0.6,1.1
					c0.2,0.3,0.5,0.4,0.8,0.2l1.9-1.1c0.3-0.2,0.4-0.5,0.2-0.8l-0.7-1.1c0.4-0.3,0.7-0.6,1-1l1.1,0.6c0.3,0.2,0.6,0.1,0.8-0.2
					l1.1-1.9c0.2-0.3,0.1-0.6-0.2-0.8l-1.1-0.7c0.1-0.4,0.3-0.9,0.3-1.4h1.3c0.3,0,0.5-0.2,0.6-0.6v-2.2
					C107.2,91.2,107,90.9,106.7,90.9z M96.5,98.4c-3.2,0-5.7-2.6-5.7-5.7c0-3.2,2.6-5.7,5.7-5.7c3.2,0,5.7,2.6,5.7,5.7
					C102.2,95.9,99.6,98.4,96.5,98.4z"/>
				<path class="st3" d="M96.3,98.4c-3.1-0.1-5.5-2.6-5.5-5.7c0-3.1,2.5-5.6,5.5-5.7v-5h-1c-0.3,0-0.6,0.2-0.6,0.6v1.3
					c-0.5,0.1-0.9,0.2-1.3,0.4l-0.6-1.1c-0.2-0.3-0.5-0.4-0.8-0.2L90.1,84c-0.3,0.2-0.4,0.5-0.2,0.8l0.7,1.1c-0.3,0.3-0.7,0.6-1,1
					l-1.1-0.6c-0.3-0.2-0.6-0.1-0.8,0.2l-1.1,1.9c-0.2,0.3-0.1,0.6,0.2,0.8l1.1,0.7c-0.1,0.4-0.3,0.9-0.3,1.4h-1.3
					c-0.3,0-0.6,0.2-0.6,0.6v2.2c0,0.3,0.2,0.6,0.6,0.6h1.3c0.1,0.5,0.2,0.9,0.4,1.3l-1.1,0.6c-0.3,0.2-0.4,0.5-0.2,0.8l1.1,1.9
					c0.2,0.3,0.5,0.4,0.8,0.2l1.1-0.7c0.3,0.4,0.6,0.7,1,1l-0.6,1.1c-0.2,0.3-0.1,0.6,0.2,0.8l1.9,1.1c0.3,0.2,0.6,0.1,0.8-0.2
					l0.7-1.1c0.4,0.1,0.9,0.3,1.4,0.3v1.3c0,0.3,0.2,0.6,0.6,0.6l0.8,0V98.4z"/>
				<path class="st3" d="M96.5,85.8c-3.8,0-7,3.1-7,7c0,3.8,3.1,7,7,7c3.8,0,7-3.1,7-7C103.4,88.9,100.3,85.8,96.5,85.8z M96.5,98.4
					c-3.2,0-5.7-2.6-5.7-5.7c0-3.2,2.6-5.7,5.7-5.7c3.2,0,5.7,2.6,5.7,5.7C102.2,95.9,99.6,98.4,96.5,98.4z"/>
				<path class="st3" d="M96.5,85.8c-0.1,0-0.1,0-0.2,0V87c0.1,0,0.1,0,0.2,0c3.2,0,5.7,2.6,5.7,5.7c0,3.2-2.6,5.7-5.7,5.7
					c-0.1,0-0.1,0-0.2,0v1.2c0.1,0,0.1,0,0.2,0c3.8,0,7-3.1,7-7C103.4,88.9,100.3,85.8,96.5,85.8z"/>
			</g>
		</g>
	</g>
</g>
</svg>
