<?xml version="1.0" encoding="utf-8"?>
<!-- Generator: Adobe Illustrator 19.2.1, SVG Export Plug-In . SVG Version: 6.00 Build 0)  -->
<svg version="1.1" id="Layer_1" xmlns="http://www.w3.org/2000/svg" xmlns:xlink="http://www.w3.org/1999/xlink" x="0px" y="0px"
	 viewBox="0 0 142 142" style="enable-background:new 0 0 142 142;" xml:space="preserve">
<style type="text/css">
	.st0{fill:#34495E;}
	.st1{fill-rule:evenodd;clip-rule:evenodd;fill:#3498DB;}
</style>
<g>
	<path class="st0" d="M142,71c0,0.1,0,0.3,0,0.4c-0.1,22.6-10.8,42.6-27.3,55.5c-12,9.4-27.2,15.1-43.7,15.1c-2.7,0-5.4-0.2-8-0.5
		c-35.4-4-63-34.1-63-70.5C0,31.8,31.8,0,71,0c35.6,0,65,26.1,70.2,60.2C141.7,63.7,142,67.3,142,71z"/>
	<path class="st1" d="M89.3,48.3c0,10.1-8.2,18.3-18.3,18.3c-10.1,0-18.3-8.2-18.3-18.3C52.7,38.2,60.9,30,71,30
		C81.1,30,89.3,38.2,89.3,48.3z"/>
	<path class="st1" d="M74.2,72.3h-8.8c0,0-8.2-0.3-12.9,6.4c-4.7,6.7-8.2,27.8-8.2,27.8s-0.9,5.6,5.4,5.4h41.7c0,0,6.2,0.2,6.2-5.4
		c0,0-2.9-20.5-8.5-27.5C84.5,71.1,74.2,72.3,74.2,72.3z"/>
	<g>
		<path class="st1" d="M49.9,77c2.2-3.1,4.9-5,7.5-6.1c-0.7-2-1.6-3.8-2.6-5.1C51.5,60.2,44.2,61,44.2,61h-6.2c0,0-5.8-0.2-9.2,4.6
			c-3.3,4.8-5.8,19.8-5.8,19.8s-0.6,4,3.9,3.9h18.1C46.3,84.4,48,79.8,49.9,77z"/>
		<g>
			<path class="st1" d="M48.6,48.3c0-4.2,1.3-8.2,3.4-11.5c-2.3-3.5-6.3-5.8-10.8-5.8c-7.2,0-13,5.8-13,13c0,7.2,5.8,13,13,13
				c3.1,0,6-1.1,8.2-2.9C48.9,52.2,48.6,50.3,48.6,48.3z"/>
		</g>
	</g>
	<g>
		<path class="st1" d="M92.1,77c-2.2-3.1-4.9-5-7.5-6.1c0.7-2,1.6-3.8,2.6-5.1c3.3-5.6,10.6-4.8,10.6-4.8h6.2c0,0,5.8-0.2,9.2,4.6
			c3.3,4.8,5.8,19.8,5.8,19.8s0.6,4-3.9,3.9H97.1C95.7,84.4,94,79.8,92.1,77z"/>
		<g>
			<path class="st1" d="M93.4,48.3c0-4.2-1.3-8.2-3.4-11.5c2.3-3.5,6.3-5.8,10.8-5.8c7.2,0,13,5.8,13,13c0,7.2-5.8,13-13,13
				c-3.1,0-6-1.1-8.2-2.9C93.1,52.2,93.4,50.3,93.4,48.3z"/>
		</g>
	</g>
</g>
</svg>
