<?xml version="1.0" encoding="utf-8"?>
<!-- Generator: Adobe Illustrator 19.2.1, SVG Export Plug-In . SVG Version: 6.00 Build 0)  -->
<svg version="1.1" id="Layer_1" xmlns="http://www.w3.org/2000/svg" xmlns:xlink="http://www.w3.org/1999/xlink" x="0px" y="0px"
	 viewBox="0 0 142 142" style="enable-background:new 0 0 142 142;" xml:space="preserve">
<style type="text/css">
	.st0{fill:#34495E;}
	.st1{fill-rule:evenodd;clip-rule:evenodd;fill:#2BCC71;}
</style>
<g>
	<path class="st0" d="M142,71c0,0.1,0,0.3,0,0.4c-0.1,22.6-10.8,42.6-27.3,55.5c-12,9.4-27.2,15.1-43.7,15.1c-2.7,0-5.4-0.2-8-0.5
		c-35.4-4-63-34.1-63-70.5C0,31.8,31.8,0,71,0c35.6,0,65,26.1,70.2,60.2C141.7,63.7,142,67.3,142,71z"/>
	<g>
		<path class="st1" d="M89.3,48.3c0,10.1-8.2,18.3-18.3,18.3c-10.1,0-18.3-8.2-18.3-18.3C52.7,38.2,60.9,30,71,30
			C81.1,30,89.3,38.2,89.3,48.3z"/>
		<path class="st1" d="M74.2,72.3h-8.8c0,0-8.2-0.3-12.9,6.4c-4.7,6.7-8.2,27.8-8.2,27.8s-0.9,5.6,5.4,5.4h41.7c0,0,6.2,0.2,6.2-5.4
			c0,0-2.9-20.5-8.5-27.5C84.5,71.1,74.2,72.3,74.2,72.3z"/>
		<g>
			<g>
				<g>
					<g>
						<path class="st0" d="M73.2,75.9c-0.1,0.4-0.5,0.8-0.9,0.8h-2.6c-0.4,0-0.9-0.3-0.9-0.8l-0.5-2.4c-0.1-0.4,0.2-0.8,0.6-0.8h4.1
							c0.4,0,0.7,0.3,0.6,0.8L73.2,75.9z"/>
					</g>
					<g>
						<path class="st0" d="M72.3,77.4c0.4,0,0.8,0.4,0.8,0.8l1.7,24.9c0,0.4-0.1,1.1-0.4,1.4l-3,4.6c-0.2,0.4-0.6,0.4-0.9,0l-3-4.7
							c-0.2-0.4-0.4-1-0.4-1.4l1.7-24.8c0-0.4,0.4-0.8,0.8-0.8H72.3z"/>
					</g>
				</g>
				<path class="st0" d="M80.4,72.7c0,0.4-0.2,1-0.6,1.3l-3.6,3.6c-0.3,0.3-0.6,0.2-0.7-0.2L75,73.5c-0.1-0.4,0.2-0.9,0.6-1.1l4-1.7
					c0.4-0.2,0.7,0,0.7,0.5V72.7z"/>
				<path class="st0" d="M61.6,72.7c0,0.4,0.2,1,0.6,1.3l3.6,3.6c0.3,0.3,0.6,0.2,0.7-0.2l0.6-3.9c0.1-0.4-0.2-0.9-0.6-1.1l-4-1.7
					c-0.4-0.2-0.7,0-0.7,0.5V72.7z"/>
			</g>
			<g>
				<g>
					<g>
						<path class="st0" d="M73.2,74.3c-0.1,0.4-0.5,0.8-0.9,0.8h-2.6c-0.4,0-0.9-0.3-0.9-0.8l-0.5-2.4c-0.1-0.4,0.2-0.8,0.6-0.8h4.1
							c0.4,0,0.7,0.3,0.6,0.8L73.2,74.3z"/>
					</g>
					<g>
						<path class="st0" d="M72.3,75.9c0.4,0,0.8,0.4,0.8,0.8l1.7,24.9c0,0.4-0.1,1.1-0.4,1.4l-3,4.6c-0.2,0.4-0.6,0.4-0.9,0l-3-4.7
							c-0.2-0.4-0.4-1-0.4-1.4l1.7-24.8c0-0.4,0.4-0.8,0.8-0.8H72.3z"/>
					</g>
				</g>
				<path class="st0" d="M80.4,71.2c0,0.4-0.2,1-0.6,1.3l-3.6,3.6c-0.3,0.3-0.6,0.2-0.7-0.2L75,71.9c-0.1-0.4,0.2-0.9,0.6-1.1l4-1.7
					c0.4-0.2,0.7,0,0.7,0.5V71.2z"/>
				<path class="st0" d="M61.6,71.2c0,0.4,0.2,1,0.6,1.3l3.6,3.6c0.3,0.3,0.6,0.2,0.7-0.2l0.6-3.9c0.1-0.4-0.2-0.9-0.6-1.1l-4-1.7
					c-0.4-0.2-0.7,0-0.7,0.5V71.2z"/>
			</g>
		</g>
	</g>
</g>
</svg>
