<svg xmlns="http://www.w3.org/2000/svg" viewBox="0 0 1920 160" enable-background="new 0 0 1920 160"><style type="text/css">.st0{fill:#FFFFFF;}</style><path id="XMLID_43_" class="st0" d="M-867.4 40.6s2.8-30.9 36.4-32c30.5-1 37.9 19.7 37.9 19.7s22.1-10.8 37.9 3.4c15.7 14.3 11.2 28.5 11.2 28.5s22.6-3.9 34.4 11.8c11.8 15.7-1.5 43.3-19.7 42.8 0 0-7.4 15.7-29 8.4 0 0-9.3 24.6-39.4 20.2-30-4.4-30-19.7-30-19.7s-10.8 16.7-30.5 13.3c-19.7-3.4-20.2-20.7-20.2-20.7s-30.5 9.3-43.8-14.8c-12.3-22.2 6.4-49.7 26.1-45.7.1 0 4.1-21.1 28.7-15.2z"/><path id="XMLID_59_" class="st0" d="M-635.4 40.6s2.8-30.9 36.4-32c30.5-1 37.9 19.7 37.9 19.7s22.1-10.8 37.9 3.4c15.7 14.3 11.3 28.5 11.3 28.5s22.6-3.9 34.4 11.8c11.8 15.7-1.5 43.3-19.7 42.8 0 0-7.4 15.7-29 8.4 0 0-9.3 24.6-39.4 20.2-30-4.4-30-19.7-30-19.7s-10.8 16.7-30.5 13.3c-19.7-3.4-20.2-20.7-20.2-20.7s-30.5 9.3-43.8-14.8c-12.3-22.2 6.4-49.7 26.1-45.7.1 0 4-21.1 28.6-15.2z"/><path id="XMLID_67_" class="st0" d="M-520.5 40.6s2.8-30.9 36.4-32c30.5-1 37.9 19.7 37.9 19.7s22.1-10.8 37.9 3.4c15.7 14.3 11.3 28.5 11.3 28.5s22.6-3.9 34.4 11.8c11.8 15.7-1.5 43.3-19.7 42.8 0 0-7.4 15.7-29 8.4 0 0-9.3 24.6-39.4 20.2-30-4.4-30-19.7-30-19.7s-10.8 16.7-30.5 13.3c-19.7-3.4-20.2-20.7-20.2-20.7s-30.5 9.3-43.8-14.8c-12.3-22.2 6.4-49.7 26.1-45.7 0 0 4-21.1 28.6-15.2z"/><path id="XMLID_91_" class="st0" d="M-201.7 40.6s2.8-30.9 36.4-32c30.5-1 37.9 19.7 37.9 19.7s22.1-10.8 37.9 3.4c15.7 14.3 11.3 28.5 11.3 28.5s22.6-3.9 34.4 11.8c11.8 15.7-1.5 43.3-19.7 42.8 0 0-7.4 15.7-29 8.4 0 0-9.3 24.6-39.4 20.2-30-4.4-30-19.7-30-19.7s-10.8 16.7-30.5 13.3c-19.7-3.4-20.2-20.7-20.2-20.7s-30.5 9.3-43.8-14.8c-12.3-22.2 6.4-49.7 26.1-45.7.1 0 4-21.1 28.6-15.2z"/><path id="XMLID_99_" class="st0" d="M-109.4 55.7s2.8-30.9 36.4-32c30.5-1 37.9 19.7 37.9 19.7s22.1-10.9 37.9 3.4c15.7 14.3 11.3 28.5 11.3 28.5s22.6-3.9 34.4 11.8c11.8 15.7-1.5 43.3-19.7 42.8 0 0-7.4 15.7-29 8.4 0 0-9.3 24.6-39.4 20.2-30-4.4-30-19.7-30-19.7s-10.8 16.7-30.5 13.3c-19.7-3.4-20.2-20.7-20.2-20.7s-30.5 9.3-43.8-14.8c-12.3-22.2 6.4-49.7 26.1-45.7.1 0 4-21.1 28.6-15.2z"/><path id="XMLID_107_" class="st0" d="M-36.7 33s2.8-30.9 36.4-32c30.5-1 37.9 19.7 37.9 19.7s22.1-10.8 37.9 3.4c15.7 14.3 11.3 28.5 11.3 28.5s22.6-3.9 34.4 11.8c11.8 15.7-1.5 43.3-19.7 42.8 0 0-7.4 15.7-29 8.4 0 0-9.3 24.6-39.4 20.2-30-4.4-30-19.7-30-19.7s-10.8 16.7-30.5 13.3c-19.7-3.4-20.2-20.7-20.2-20.7s-30.4 9.4-43.7-14.7c-12.3-22.2 6.4-49.7 26.1-45.7 0 0 3.9-21.2 28.5-15.3z"/><path id="XMLID_83_" class="st0" d="M-324.3 40.6s2.8-30.9 36.4-32c30.5-1 37.9 19.7 37.9 19.7s22.1-10.8 37.9 3.4c15.7 14.3 11.3 28.5 11.3 28.5s22.6-3.9 34.4 11.8c11.8 15.7-1.5 43.3-19.7 42.8 0 0-7.4 15.7-29 8.4 0 0-9.3 24.6-39.4 20.2-30-4.4-30-19.7-30-19.7s-10.8 16.7-30.5 13.3c-19.7-3.4-20.2-20.7-20.2-20.7s-30.5 9.3-43.8-14.8c-12.3-22.2 6.4-49.7 26.1-45.7.1 0 4-21.1 28.6-15.2z"/><path id="XMLID_75_" class="st0" d="M-407.5 24.8s13.3-28 45.2-17.4c29 9.6 28.7 31.6 28.7 31.6s24.5-2.5 34.3 16.4c9.8 18.8.7 30.7.7 30.7s22.6 4.2 28.2 23c5.6 18.9-16.4 40.1-33.3 33.3 0 0-12.4 12.2-30.1-2.2 0 0-17.3 19.8-43.9 5.3-26.6-14.6-21.3-28.9-21.3-28.9s-15.9 11.9-33.2 1.9c-17.3-10-11.8-26.4-11.8-26.4s-31.8-1.8-36-29c-3.8-25.1 23.2-44.4 40.3-33.9.2 0 11.2-18.5 32.2-4.4z"/><path id="XMLID_51_" class="st0" d="M-757.2 61.4s-10.1-29.3 20.1-44.1c27.4-13.4 42.6 2.4 42.6 2.4s15.7-19 36-12.4c20.2 6.5 22 21.4 22 21.4s19-12.9 36.2-3.4c17.2 9.5 16.4 40.1-.4 47.1 0 0-.3 17.4-23 19.5 0 0 1.6 26.3-27.6 34.5-29.2 8.3-35.4-5.6-35.4-5.6s-3 19.7-22.4 24.6c-19.3 5.1-26.9-10.4-26.9-10.4s-24 21-46 4.5c-20.3-15.2-14.6-47.9 5-52.4.1 0-5-20.9 19.8-25.7z"/><path id="XMLID_183_" class="st0" d="M45.9 40.6s2.8-30.9 36.4-32c30.5-1 37.9 19.7 37.9 19.7s22.1-10.8 37.9 3.4c15.7 14.3 11.3 28.5 11.3 28.5s22.6-3.9 34.4 11.8c11.8 15.7-1.5 43.3-19.7 42.8 0 0-7.4 15.7-29 8.4 0 0-9.3 24.6-39.4 20.2-30-4.4-30-19.7-30-19.7s-10.8 16.7-30.4 13.3c-19.7-3.4-20.2-20.7-20.2-20.7s-30.5 9.3-43.8-14.8c-12.3-22.2 6.4-49.7 26.1-45.7 0 0 3.9-21.1 28.5-15.2z"/><path id="XMLID_175_" class="st0" d="M278 40.6s2.8-30.9 36.4-32c30.5-1 37.9 19.7 37.9 19.7s22.1-10.8 37.9 3.4c15.7 14.3 11.3 28.5 11.3 28.5s22.6-3.9 34.4 11.8c11.8 15.7-1.5 43.3-19.7 42.8 0 0-7.4 15.7-29 8.4 0 0-9.3 24.6-39.4 20.2-30-4.4-30-19.7-30-19.7s-10.8 16.7-30.5 13.3c-19.7-3.4-20.2-20.7-20.2-20.7s-30.5 9.3-43.8-14.8c-12.3-22.2 6.4-49.7 26.1-45.7 0 0 4-21.1 28.6-15.2z"/><path id="XMLID_167_" class="st0" d="M392.8 40.6s2.8-30.9 36.4-32c30.5-1 37.9 19.7 37.9 19.7s22.1-10.8 37.9 3.4c15.7 14.3 11.3 28.5 11.3 28.5s22.6-3.9 34.4 11.8c11.8 15.7-1.5 43.3-19.7 42.8 0 0-7.4 15.7-29 8.4 0 0-9.3 24.6-39.4 20.2-30-4.4-30-19.7-30-19.7s-10.8 16.7-30.5 13.3c-19.7-3.4-20.2-20.7-20.2-20.7s-30.5 9.3-43.8-14.8c-12.3-22.2 6.4-49.7 26.1-45.7.1 0 4-21.1 28.6-15.2z"/><path id="XMLID_159_" class="st0" d="M711.7 40.6s2.8-30.9 36.4-32c30.5-1 37.9 19.7 37.9 19.7s22.1-10.8 37.9 3.4c15.7 14.3 11.3 28.5 11.3 28.5s22.6-3.9 34.4 11.8c11.8 15.7-1.5 43.3-19.7 42.8 0 0-7.4 15.7-29 8.4 0 0-9.3 24.6-39.4 20.2-30-4.4-30-19.7-30-19.7s-10.8 16.7-30.5 13.3c-19.7-3.4-20.2-20.7-20.2-20.7s-30.5 9.3-43.8-14.8c-12.3-22.2 6.4-49.7 26.1-45.7 0 0 4-21.1 28.6-15.2z"/><path id="XMLID_151_" class="st0" d="M804 55.7s2.8-30.9 36.4-32c30.5-1 37.9 19.7 37.9 19.7s22.1-10.8 37.9 3.4c15.7 14.3 11.3 28.5 11.3 28.5s22.6-3.9 34.4 11.8c11.8 15.7-1.5 43.3-19.7 42.8 0 0-7.4 15.7-29 8.4 0 0-9.3 24.6-39.4 20.2-30-4.4-30-19.7-30-19.7s-10.8 16.7-30.5 13.3c-19.7-3.4-20.2-20.7-20.2-20.7s-30.5 9.3-43.8-14.8c-12.3-22.2 6.4-49.7 26.1-45.7 0 0 4-21.1 28.6-15.2z"/><path id="XMLID_143_" class="st0" d="M876.6 33s2.8-30.9 36.4-32c30.5-1 37.9 19.7 37.9 19.7s22.1-10.8 37.9 3.4c15.7 14.3 11.3 28.5 11.3 28.5s22.6-3.9 34.4 11.8c11.8 15.7-1.5 43.3-19.7 42.8 0 0-7.4 15.7-29 8.4 0 0-9.3 24.6-39.4 20.2-30-4.4-30-19.7-30-19.7s-10.8 16.7-30.5 13.3c-19.7-3.4-20.2-20.7-20.2-20.7s-30.4 9.4-43.7-14.7c-12.3-22.2 6.4-49.7 26.1-45.7 0 0 3.9-21.2 28.5-15.3z"/><path id="XMLID_135_" class="st0" d="M589.1 40.6s2.8-30.9 36.4-32c30.5-1 37.9 19.7 37.9 19.7s22.1-10.8 37.9 3.4c15.7 14.3 11.3 28.5 11.3 28.5s22.6-3.9 34.4 11.8c11.8 15.7-1.5 43.3-19.7 42.8 0 0-7.4 15.7-29 8.4 0 0-9.3 24.6-39.4 20.2-30-4.4-30-19.7-30-19.7s-10.8 16.7-30.5 13.3c-19.7-3.4-20.2-20.7-20.2-20.7s-30.5 9.3-43.8-14.8c-12.3-22.2 6.4-49.7 26.1-45.7.1 0 4-21.1 28.6-15.2z"/><path id="XMLID_123_" class="st0" d="M505.9 24.8s13.3-28 45.2-17.4c28.9 9.6 28.7 31.6 28.7 31.6s24.5-2.5 34.3 16.4c9.8 18.8.7 30.7.7 30.7s22.6 4.2 28.2 23c5.6 18.9-16.4 40.1-33.3 33.3 0 0-12.4 12.2-30.1-2.2 0 0-17.3 19.8-43.9 5.3-26.6-14.6-21.3-28.9-21.3-28.9s-15.9 11.9-33.2 1.9c-17.3-10-11.8-26.4-11.8-26.4s-31.8-1.8-36-29c-3.8-25.1 23.2-44.4 40.3-33.9.1 0 11.1-18.5 32.2-4.4z"/><path id="XMLID_115_" class="st0" d="M156.2 61.4s-10.1-29.3 20.1-44.1c27.4-13.4 42.6 2.4 42.6 2.4s15.7-19 36-12.4c20.2 6.5 22 21.4 22 21.4s19-12.9 36.2-3.4c17.2 9.5 16.4 40.1-.4 47.1 0 0-.3 17.4-23 19.5 0 0 1.6 26.3-27.6 34.5-29.2 8.3-35.4-5.6-35.4-5.6s-3 19.7-22.4 24.6c-19.4 4.9-26.9-10.6-26.9-10.6s-24 21-46 4.5c-20.3-15.2-14.6-47.9 5-52.4 0 .2-5.1-20.7 19.8-25.5z"/><path id="XMLID_409_" class="st0" d="M939.5 40.6s2.8-30.9 36.4-32c30.5-1 37.9 19.7 37.9 19.7s22.1-10.8 37.9 3.4c15.7 14.3 11.3 28.5 11.3 28.5s22.6-3.9 34.4 11.8c11.8 15.7-1.5 43.3-19.7 42.8 0 0-7.4 15.7-29 8.4 0 0-9.3 24.6-39.4 20.2-30-4.4-30-19.7-30-19.7s-10.8 16.7-30.5 13.3c-19.7-3.4-20.2-20.7-20.2-20.7s-30.5 9.3-43.8-14.8c-12.3-22.2 6.4-49.7 26.1-45.7.1 0 4-21.1 28.6-15.2z"/><path id="XMLID_401_" class="st0" d="M1171.6 40.6s2.8-30.9 36.4-32c30.5-1 37.9 19.7 37.9 19.7s22.1-10.8 37.9 3.4c15.7 14.3 11.3 28.5 11.3 28.5s22.6-3.9 34.4 11.8c11.8 15.7-1.5 43.3-19.7 42.8 0 0-7.4 15.7-29 8.4 0 0-9.3 24.6-39.4 20.2-30-4.4-30-19.7-30-19.7s-10.8 16.7-30.5 13.3c-19.7-3.4-20.2-20.7-20.2-20.7s-30.5 9.3-43.8-14.8c-12.3-22.2 6.4-49.7 26.1-45.7 0 0 4-21.1 28.6-15.2z"/><path id="XMLID_393_" class="st0" d="M1286.4 40.6s2.8-30.9 36.4-32c30.5-1 37.9 19.7 37.9 19.7s22.1-10.8 37.9 3.4c15.7 14.3 11.3 28.5 11.3 28.5s22.6-3.9 34.4 11.8c11.8 15.7-1.5 43.3-19.7 42.8 0 0-7.4 15.7-29 8.4 0 0-9.3 24.6-39.4 20.2-30-4.4-30-19.7-30-19.7s-10.8 16.7-30.5 13.3c-19.7-3.4-20.2-20.7-20.2-20.7s-30.5 9.3-43.8-14.8c-12.3-22.2 6.4-49.7 26.1-45.7.1 0 4-21.1 28.6-15.2z"/><path id="XMLID_385_" class="st0" d="M1605.2 40.6s2.8-30.9 36.4-32c30.5-1 37.9 19.7 37.9 19.7s22.1-10.8 37.9 3.4c15.7 14.3 11.3 28.5 11.3 28.5s22.6-3.9 34.4 11.8c11.8 15.7-1.5 43.3-19.7 42.8 0 0-7.4 15.7-29 8.4 0 0-9.3 24.6-39.4 20.2-30-4.4-30-19.7-30-19.7s-10.8 16.7-30.5 13.3c-19.7-3.4-20.2-20.7-20.2-20.7s-30.5 9.3-43.8-14.8c-12.3-22.2 6.4-49.7 26.1-45.7.1 0 4.1-21.1 28.6-15.2z"/><path id="XMLID_373_" class="st0" d="M1697.6 55.7s2.8-30.9 36.4-32c30.5-1 37.9 19.7 37.9 19.7s22.1-10.8 37.9 3.4c15.7 14.3 11.3 28.5 11.3 28.5s22.6-3.9 34.4 11.8c11.8 15.7-1.5 43.3-19.7 42.8 0 0-7.4 15.7-29 8.4 0 0-9.3 24.6-39.4 20.2-30-4.4-30-19.7-30-19.7s-10.8 16.7-30.5 13.3c-19.7-3.4-20.2-20.7-20.2-20.7s-30.5 9.3-43.8-14.8c-12.3-22.2 6.4-49.7 26.1-45.7 0 0 4-21.1 28.6-15.2z"/><path id="XMLID_365_" class="st0" d="M1770.2 33s2.8-30.9 36.4-32c30.5-1 37.9 19.7 37.9 19.7s22.1-10.8 37.9 3.4c15.7 14.3 11.3 28.5 11.3 28.5s22.6-3.9 34.4 11.8c11.8 15.7-1.5 43.3-19.7 42.8 0 0-7.4 15.7-29 8.4 0 0-9.3 24.6-39.4 20.2-30-4.4-30-19.7-30-19.7s-10.8 16.7-30.5 13.3c-19.7-3.4-20.2-20.7-20.2-20.7s-30.5 9.3-43.8-14.8c-12.3-22.2 6.4-49.7 26.1-45.7.1.1 4-21.1 28.6-15.2z"/><path id="XMLID_357_" class="st0" d="M1482.7 40.6s2.8-30.9 36.4-32c30.5-1 37.9 19.7 37.9 19.7s22.1-10.8 37.9 3.4c15.7 14.3 11.3 28.5 11.3 28.5s22.6-3.9 34.4 11.8c11.8 15.7-1.5 43.3-19.7 42.8 0 0-7.4 15.7-29 8.4 0 0-9.3 24.6-39.4 20.2-30-4.4-30-19.7-30-19.7s-10.8 16.7-30.5 13.3c-19.7-3.4-20.2-20.7-20.2-20.7s-30.5 9.3-43.8-14.8c-12.3-22.2 6.4-49.7 26.1-45.7.1 0 4-21.1 28.6-15.2z"/><path id="XMLID_349_" class="st0" d="M1399.4 24.8s13.3-28 45.2-17.4c28.9 9.6 28.7 31.6 28.7 31.6s24.5-2.5 34.3 16.4c9.8 18.8.7 30.7.7 30.7s22.6 4.2 28.2 23c5.6 18.9-16.4 40.1-33.3 33.3 0 0-12.4 12.2-30.1-2.2 0 0-17.3 19.8-43.9 5.3-26.6-14.6-21.3-28.9-21.3-28.9s-15.9 11.9-33.2 1.9c-17.3-10-11.8-26.4-11.8-26.4s-31.8-1.8-36-29c-3.8-25.1 23.2-44.4 40.3-33.9.2 0 11.2-18.5 32.2-4.4z"/><path id="XMLID_341_" class="st0" d="M1049.8 61.4s-10.1-29.3 20.1-44.1c27.4-13.4 42.6 2.4 42.6 2.4s15.7-19 36-12.4c20.2 6.5 22 21.4 22 21.4s19-12.9 36.2-3.4c17.2 9.5 16.4 40.1-.4 47.1 0 0-.3 17.4-23 19.5 0 0 1.6 26.3-27.6 34.5-29.2 8.3-35.4-5.6-35.4-5.6s-3 19.7-22.4 24.6c-19.4 4.9-26.9-10.6-26.9-10.6s-24 21-46 4.5c-20.3-15.2-14.6-47.9 5-52.4 0 .2-5.1-20.7 19.8-25.5z"/><path id="XMLID_333_" class="st0" d="M1852.9 40.6s2.8-30.9 36.4-32c30.5-1 37.9 19.7 37.9 19.7s22.1-10.8 37.9 3.4c15.7 14.3 11.3 28.5 11.3 28.5s22.6-3.9 34.4 11.8c11.8 15.7-1.5 43.3-19.7 42.8 0 0-7.4 15.7-29 8.4 0 0-9.3 24.6-39.4 20.2-30-4.4-30-19.7-30-19.7s-10.8 16.7-30.5 13.3c-19.7-3.4-20.2-20.7-20.2-20.7s-30.5 9.3-43.8-14.8c-12.3-22.2 6.4-49.7 26.1-45.7 0 0 4-21.1 28.6-15.2z"/><path id="XMLID_325_" class="st0" d="M2084.9 40.6s2.8-30.9 36.4-32c30.5-1 37.9 19.7 37.9 19.7s22.1-10.8 37.9 3.4c15.7 14.3 11.3 28.5 11.3 28.5s22.6-3.9 34.4 11.8c11.8 15.7-1.5 43.3-19.7 42.8 0 0-7.4 15.7-29 8.4 0 0-9.3 24.6-39.4 20.2-30-4.4-30-19.7-30-19.7s-10.8 16.7-30.5 13.3c-19.7-3.4-20.2-20.7-20.2-20.7s-30.5 9.3-43.8-14.8c-12.3-22.2 6.4-49.7 26.1-45.7.1 0 4-21.1 28.6-15.2z"/><path id="XMLID_317_" class="st0" d="M2199.8 40.6s2.8-30.9 36.4-32c30.5-1 37.9 19.7 37.9 19.7s22.1-10.8 37.9 3.4c15.7 14.3 11.3 28.5 11.3 28.5s22.6-3.9 34.4 11.8c11.8 15.7-1.5 43.3-19.7 42.8 0 0-7.4 15.7-29 8.4 0 0-9.3 24.6-39.4 20.2-30-4.4-30-19.7-30-19.7s-10.8 16.7-30.5 13.3c-19.7-3.4-20.2-20.7-20.2-20.7s-30.5 9.3-43.8-14.8c-12.3-22.2 6.4-49.7 26.1-45.7 0 0 4-21.1 28.6-15.2z"/><path id="XMLID_309_" class="st0" d="M2518.6 40.6s2.8-30.9 36.4-32c30.5-1 37.9 19.7 37.9 19.7s22.1-10.8 37.9 3.4c15.7 14.3 11.3 28.5 11.3 28.5s22.6-3.9 34.4 11.8c11.8 15.7-1.5 43.3-19.7 42.8 0 0-7.4 15.7-29 8.4 0 0-9.3 24.6-39.4 20.2-30-4.4-30-19.7-30-19.7s-10.8 16.7-30.5 13.3c-19.7-3.4-20.2-20.7-20.2-20.7s-30.5 9.3-43.8-14.8c-12.3-22.2 6.4-49.7 26.1-45.7.1 0 4-21.1 28.6-15.2z"/><path id="XMLID_301_" class="st0" d="M2610.9 55.7s2.8-30.9 36.4-32c30.5-1 37.9 19.7 37.9 19.7s22.1-10.8 37.9 3.4c15.7 14.3 11.3 28.5 11.3 28.5s22.6-3.9 34.4 11.8c11.8 15.7-1.5 43.3-19.7 42.8 0 0-7.4 15.7-29 8.4 0 0-9.3 24.6-39.4 20.2-30-4.4-30-19.7-30-19.7s-10.8 16.7-30.5 13.3c-19.7-3.4-20.2-20.7-20.2-20.7s-30.5 9.3-43.8-14.8c-12.3-22.2 6.4-49.7 26.1-45.7.1 0 4-21.1 28.6-15.2z"/><path id="XMLID_293_" class="st0" d="M2683.6 33s2.8-30.9 36.4-32c30.5-1 37.9 19.7 37.9 19.7s22.1-10.8 37.9 3.4c15.7 14.3 11.3 28.5 11.3 28.5s22.6-3.9 34.4 11.8c11.8 15.7-1.5 43.3-19.7 42.8 0 0-7.4 15.7-29 8.4 0 0-9.3 24.6-39.4 20.2-30-4.4-30-19.7-30-19.7s-10.8 16.7-30.5 13.3c-19.7-3.4-20.2-20.7-20.2-20.7s-30.5 9.3-43.8-14.8c-12.3-22.2 6.4-49.7 26.1-45.7.1.1 4-21.1 28.6-15.2z"/><path id="XMLID_265_" class="st0" d="M2396 40.6s2.8-30.9 36.4-32c30.5-1 37.9 19.7 37.9 19.7s22.1-10.8 37.9 3.4c15.7 14.3 11.3 28.5 11.3 28.5s22.6-3.9 34.4 11.8c11.8 15.7-1.5 43.3-19.7 42.8 0 0-7.4 15.7-29 8.4 0 0-9.3 24.6-39.4 20.2-30-4.4-30-19.7-30-19.7s-10.8 16.7-30.5 13.3c-19.7-3.4-20.2-20.7-20.2-20.7s-30.5 9.3-43.8-14.8c-12.3-22.2 6.4-49.7 26.1-45.7.1 0 4-21.1 28.6-15.2z"/><path id="XMLID_199_" class="st0" d="M2312.8 24.8s13.3-28 45.2-17.4c29 9.6 28.7 31.6 28.7 31.6s24.5-2.5 34.3 16.4c9.8 18.8.7 30.7.7 30.7s22.6 4.2 28.2 23c5.6 18.9-16.4 40.1-33.3 33.3 0 0-12.4 12.2-30.1-2.2 0 0-17.3 19.8-43.9 5.3-26.6-14.6-21.3-28.9-21.3-28.9s-15.9 11.9-33.2 1.9c-17.3-10-11.8-26.4-11.8-26.4s-31.8-1.8-36-29c-3.8-25.1 23.2-44.4 40.3-33.9.2 0 11.2-18.5 32.2-4.4z"/><path id="XMLID_191_" class="st0" d="M1963.1 61.4s-10.1-29.3 20.1-44.1c27.4-13.4 42.6 2.4 42.6 2.4s15.7-19 36-12.4c20.2 6.5 22 21.4 22 21.4s19-12.9 36.2-3.4c17.2 9.5 16.4 40.1-.4 47.1 0 0-.3 17.4-23 19.5 0 0 1.6 26.3-27.6 34.5-29.2 8.3-35.4-5.6-35.4-5.6s-3 19.7-22.4 24.6c-19.4 4.9-26.9-10.6-26.9-10.6s-24 21-46 4.5c-20.3-15.2-14.6-47.9 5-52.4.1.2-5-20.7 19.8-25.5z"/></svg>