<?xml version="1.0" encoding="utf-8"?>
<!-- Generator: Adobe Illustrator 19.2.1, SVG Export Plug-In . SVG Version: 6.00 Build 0)  -->
<svg version="1.1" id="Layer_1" xmlns="http://www.w3.org/2000/svg" xmlns:xlink="http://www.w3.org/1999/xlink" x="0px" y="0px"
	 viewBox="0 0 142 142" style="enable-background:new 0 0 142 142;" xml:space="preserve">
<style type="text/css">
	.st0{fill:#34495E;}
	.st1{fill:#F39C13;}
	.st2{fill:#ECF0F1;}
	.st3{fill:#F1C411;}
</style>
<g>
	<path class="st0" d="M142,71c0,0.1,0,0.3,0,0.4c-0.1,22.6-10.8,42.6-27.3,55.5c-12,9.4-27.2,15.1-43.7,15.1c-2.7,0-5.4-0.2-8-0.5
		c-35.4-4-63-34.1-63-70.5C0,31.8,31.8,0,71,0c35.6,0,65,26.1,70.2,60.2C141.7,63.7,142,67.3,142,71z"/>
	<g>
		<path class="st1" d="M109.5,98.6c0,9.2-12.1,9.2-12.1,0V44.5h10.3c1,0,1.8,0.8,1.8,1.8V98.6z"/>
		<g>
			<path class="st2" d="M101.3,97.5c0,1.2-1,2.2-2.2,2.2H46V37.9c0-0.8,0.8-1.5,1.7-1.5h51.5c0.9,0,2.2,0.3,2.2,1.5V97.5z"/>
		</g>
		<path class="st3" d="M104.5,105.6c-3,0-6.4-2.2-7.1-6.5l-6.7-39.7c-0.1-0.9-0.9-1.5-1.8-1.5l-14.6,0h-7.5l-1.6-5.5
			c-0.5-1.6-2.5-2.7-4.2-2.7H36.3c-1.1,0-2.1,0.5-2.8,1.3c-0.7,0.8-1,1.9-0.9,2.9l7.1,43.2c0.8,4.8,4.2,8.7,7.5,8.7l30.9,0l4.3,0
			L104.5,105.6L104.5,105.6z"/>
	</g>
</g>
</svg>
