<?xml version="1.0" encoding="utf-8"?>
<!-- Generator: Adobe Illustrator 19.2.1, SVG Export Plug-In . SVG Version: 6.00 Build 0)  -->
<svg version="1.1" id="Layer_1" xmlns="http://www.w3.org/2000/svg" xmlns:xlink="http://www.w3.org/1999/xlink" x="0px" y="0px"
	 viewBox="0 0 142 142" style="enable-background:new 0 0 142 142;" xml:space="preserve">
<style type="text/css">
	.st0{fill:#E90101;}
	.st1{fill:#4D0202;}
	.st2{fill:#7B0606;}
	.st3{fill:#520505;}
	.st4{fill:#CA0101;}
	.st5{fill:#BE0303;}
	.st6{fill:#8B0202;}
	.st7{fill:#600D0D;}
	.st8{fill:#820E0D;}
	.st9{fill:#7E0000;}
	.st10{fill:#C60100;}
	.st11{fill:#DA1313;}
	.st12{fill:#010000;}
	.st13{fill:#C50101;}
	.st14{fill:#CB0101;}
	.st15{fill:#C60101;}
	.st16{fill:#C00101;}
	.st17{fill:#C70101;}
	.st18{fill:#C80101;}
	.st19{fill:#D80101;}
	.st20{fill:#EC0202;}
	.st21{fill:#CF0101;}
	.st22{fill:#F30202;}
	.st23{fill:#E40101;}
	.st24{fill:#F10201;}
	.st25{fill:#F00302;}
	.st26{fill:#F20202;}
	.st27{fill:#F30201;}
	.st28{fill:#F20201;}
	.st29{fill:#720000;}
	.st30{fill:#870100;}
	.st31{fill:#760000;}
	.st32{fill:#790000;}
	.st33{fill:#6F0000;}
	.st34{fill:#4D0606;}
	.st35{fill:#770202;}
</style>
<g id="FwZzEP.tif">
	<g>
		<path class="st0" d="M62.8,0.9c5.7-1.3,11.4-1.2,17.1,0c1.8,1.3,4.1-0.2,5.9,1c25.7,3.6,49.6,27.6,54.8,55c3,15.9,1.1,31.2-6,45.7
			c-1.7,3.4-3.7,6.7-6.7,9.3c-5.8,5.8-11.3,12-19.2,15.1c-3.7,1.3-7.2,3.3-11,4.5c-3.9,1.1-7.7,2.5-11.8,2.6c-6.7,0.1-13.3,0-20,0
			c-4.2,0.4-8-1.3-11.9-2.5c-6.3-2.6-13.1-4.4-18.4-9.2c-5.6-5.1-11-10.5-16.3-16c-5.5-7.8-9.6-16.3-12.2-25.5
			c-0.9-2.4-0.9-4.9-1-7.4c0-5.6,0-11.1,0-16.7c0.1-2.2,0-4.4,0.3-6.5c0.1-0.6,0.2-1.2,0.4-1.7c3.9-9,7.1-18.4,13.4-26.1
			c0-0.4,0.1-0.7,0.2-1c1.4-1.3,3.3-2.3,4.3-4C34,9.3,44.5,3.9,56.8,1.9C57,2,57.3,2,57.5,2c1.4,0,2.8,0.2,4.2-0.2
			C62.1,1.5,62.5,1.3,62.8,0.9z"/>
		<path class="st1" d="M75.4,141.8c-47.8,4-87.4-43.6-72-91.6c2.9,1.1,2.2,3.6,1.9,5.7c-1.5,9.9-0.1,19.5,2.8,29
			c0.5,0.8,0.6,1.6,0.7,2.5c1.4,6.8,5.3,12.4,8.7,18.3c1.1,2.5,3.1,4.2,4.8,6.1c7.5,9.2,17.2,15.4,28.1,19.8c2.5,0.9,5,1.7,7.6,2.3
			c1,0.3,2,0.8,2.9,1.3c1.9,1.1,4.1,0.7,6.2,1.1c0.6,0.1,1.1,0.2,1.7,0.4c5.5-0.2,10.9,1.9,16.5,0.6c1.5-0.3,3.6-0.3,3.8,2.2
			c-2.2,0.8-4.3,1.8-6.7,1.3C80.2,142,77.6,140.6,75.4,141.8z"/>
		<path class="st2" d="M7.7,85.8c-5-9.4-5.1-19.5-4-29.7c0.2-2.1,1.1-4-0.3-6c1.1-4.9,2.8-9.5,5.6-13.7c1.1-0.1,1.6,0.6,1.9,1.5
			c0.2,4-2.6,7.2-3.2,11l0,0C6.1,59.7,5.7,70.4,8,81C8.2,82.6,8.8,84.2,7.7,85.8z"/>
		<path class="st3" d="M89.1,139.5c-5.4-1.8-11,0.8-16.5-1c-1.7-0.6-3.8,0.6-5.3-1.2c1.9-2,4.5-1.5,6.9-1.5
			c4.7-0.1,9.3,0.1,13.9-1.1c4.2,0.8,7.9-2.1,12-1.8c0.9,0.3,1.7,0.8,1.6,2C97.4,136.1,93.8,139.4,89.1,139.5z"/>
		<path class="st4" d="M7.7,49.1c-0.6-4.1,2.4-7.4,2.3-11.4c0.5-1.7,1.2-3.3,2.2-4.8c1.4-4.4,4.1-7.8,8-10.3
			c0.7,3.8-2.7,5.6-4.2,8.3C12.9,36.7,11.7,43.5,7.7,49.1z"/>
		<path class="st5" d="M108.6,125.9c5.4-3,10.6-6.2,14.8-10.8c1.2-1.4,2.4-2.9,4.5-3.1c-3.1,5.1-6.4,10.1-12.1,12.8
			c-1.4,0.8-2.4,2.2-4,2.7c-1.1,0.3-2.2,0.6-3.2-0.1c-0.3-0.3-0.4-0.6-0.3-1C108.4,126,108.5,125.9,108.6,125.9z"/>
		<path class="st6" d="M108.6,127.1c1.1,0,2.3-0.1,3.4-0.1c0.3,0.2,0.4,0.5,0.3,0.7c-0.1,0.2-0.2,0.4-0.3,0.4
			c-1.1,0.8-2.2,1.7-3.3,2.5c-2.6,0.9-4.9,2.9-7.9,2.8c-0.8,0-1.7,0-2.5-0.3c-0.8-2,1.1-2.2,2.1-2.9
			C103.3,129.6,105.6,127.3,108.6,127.1z"/>
		<path class="st7" d="M100.6,132.7c2.9-0.2,5-2.8,8.1-2.2c-1.6,2.6-4.4,3.4-7,4.4c-0.4-0.4-0.8-0.7-1.2-1.1
			c-0.4-0.3-0.5-0.5-0.4-0.7C100.3,132.9,100.4,132.7,100.6,132.7z"/>
		<path class="st8" d="M112,128c0-0.4,0-0.7,0-1.1c0.8-1.6,2.1-2.3,3.9-2.2C115.5,127,114.4,128.2,112,128z"/>
		<path class="st9" d="M12.3,32.9c-0.1,1.9-0.8,3.5-2.2,4.8c-0.3-0.4-0.7-0.8-1-1.2C9.6,34.8,10.5,33.5,12.3,32.9z"/>
		<path class="st3" d="M75.4,141.8c2.1-1.9,4.7-0.8,7-0.9C80.2,142.1,77.8,141.9,75.4,141.8z"/>
		<path class="st10" d="M24.9,17.6c-0.6,2.3-1.9,3.7-4.3,4C21.3,19.5,23.3,18.7,24.9,17.6z"/>
		<path class="st11" d="M62.8,0.9c0,0.4-0.1,0.8-0.1,1.1c-1.8,1-3.6,0.6-5.4,0.3c-0.2-0.1-0.4-0.2-0.5-0.4
			C58.6,0.7,60.7,0.8,62.8,0.9z"/>
		<path class="st11" d="M85.8,2c-2,0-4.2,0.7-5.9-1C81.9,0.8,84,0.8,85.8,2z"/>
		<path d="M75.1,129.2c-1.7,0-3.5,0-5.2,0c-1.9-1.1-4.1,0.1-6-0.9c-6.2-2.1-12.2-4.3-16.9-9.2c-10.3-10.7-9.6-25.3,2-34.4
			c4.8-3.7,10.1-6.8,15-10.4c7.8-5.8,14.2-12.7,15.8-22.8c-0.3-0.3-0.4-0.5-0.2-0.7c0.1-0.2,0.3-0.2,0.4-0.2
			c2-5.7,0.6-11.6,1.2-18.3c13.5,17.5,23.2,35.7,24.9,57.4c1,0.9,1,1.8,0,2.7c-0.5,3.2-1,6.4-1.5,9.6c-2.2,13.9-9.9,22.8-23.5,26.5
			C79.1,129.3,76.9,128.1,75.1,129.2z"/>
		<path class="st12" d="M72.9,21.3c-1.3,2.6-1.2,5.4-1,8.3c0.6,3.3,1,6.7-0.2,10c-0.3,1.5-0.7,2.9-0.8,4.4
			c-1,13.2-7.5,21.3-21.2,25.8c2.5-11.2,1.8-22.3,1.6-33.3c-0.4-0.2-0.5-0.5-0.3-0.6c0.1-0.2,0.3-0.2,0.4-0.2
			c1.9-16.8,12.8-25.2,28.7-30.5c-3.2,5.5-6.7,9.8-7,15.4c0.3,0.3,0.4,0.5,0.2,0.7C73.2,21.3,73.1,21.3,72.9,21.3z"/>
		<path class="st13" d="M7.7,85.8c0-1.5,0-3.1,0-4.6c0.4-0.5,0.8-0.5,1.2,0c1.9,9.3,6.9,17.1,11.5,25.2c0.3,0.3,0.4,0.6,0.3,0.9
			c-0.1,0.3-0.2,0.5-0.3,0.5c-1.3,0.3-2.1-0.3-2.8-1.3c-4-5.8-7.1-12-9.8-18.4C7.7,87.2,7.7,86.5,7.7,85.8z"/>
		<path class="st14" d="M20.3,107.6c0-0.4,0.1-0.9,0.1-1.3c5.3,5,10.7,10,16,15c-0.6,0.7-1.4,0.9-2.3,0.9c-5.7-2.1-9-6.8-12.9-11
			C20.3,110.1,19,109.2,20.3,107.6z"/>
		<path class="st15" d="M8.9,81.1c-0.4,0-0.8,0-1.2,0C4.3,70.5,4.2,59.7,7.7,49c0,2.3,0,4.6,0,6.9c-1,6.1-1,12.2,0,18.3
			C7.7,76.6,7.5,79,8.9,81.1z"/>
		<path class="st16" d="M34,121.3c0.8,0,1.6,0,2.3,0c4.7,5,11.5,6,17.2,9.1c0.4,0.5,0.4,1-0.1,1.5c-1.1,0.7-2.2,0.3-3.3,0
			c-4.5-1.8-8.9-3.9-13-6.6C35.7,124.3,33.7,123.7,34,121.3z"/>
		<path class="st17" d="M100.6,130.5c-0.8,0.7-1.6,1.5-2.4,2.2c-2.9,2.1-6.3,2.4-9.6,2.9c-3.1-0.1-6.3,1.4-9.4,0
			c-0.6-0.4-0.7-1-0.6-1.7c2.6-1.4,5.7,0.4,8.3-1.1c3.8-0.8,7.6-1.5,11.4-2.3C99.1,129.8,99.8,129.8,100.6,130.5z"/>
		<path class="st18" d="M78.8,133.9c0,0.4,0,0.8,0,1.2c-6.6,2-13.2,1.6-19.7-0.5c-1.7-1.1-4.7,0.2-5.5-2.9c0-0.4,0-0.8,0-1.2
			c4,0,7.3,3.3,11.5,2.3C69.5,134.3,74.3,132.3,78.8,133.9z"/>
		<path class="st19" d="M78.8,133.9c-4.6-0.6-9.3,1.2-13.8-1.2c7.3,0,14.5,0,21.8,0C84.4,134.9,81.4,133.4,78.8,133.9z"/>
		<path class="st4" d="M7.7,74.3c-1.9-6.1-1.9-12.2,0-18.3C7.7,62,7.7,68.2,7.7,74.3z"/>
		<path class="st20" d="M106.1,92.2c0-0.9,0-1.8,0-2.7c0.1-2.3,0.1-4.5,0.2-6.8c0-0.1,0.2-0.2,0.3-0.4c0.3,0.4,0.5,0.7,0.8,1.1
			c0.9,5,0.9,9.9,0,14.9C104.8,96.8,107.1,94.2,106.1,92.2z"/>
		<path class="st21" d="M100.6,130.5c-0.8,0-1.6,0-2.4-0.1c3.3-1.8,6.6-3.7,10.3-4.6c0,0.4,0,0.8,0,1.2
			C106.3,129,103.7,130.4,100.6,130.5z"/>
		<path class="st22" d="M71.7,39.6c-0.5-3.3-0.5-6.7,0.2-10c2.4,4.8,0.5,9.9,1.2,15.6C71.3,43,72.3,41.1,71.7,39.6z"/>
		<path class="st23" d="M107.4,98.3c0-5,0-9.9,0-14.9C109.3,88.4,109.3,93.4,107.4,98.3z"/>
		<path class="st24" d="M74.1,1.8c-2.2,0-4.3,0-7.2,0C69.6,0.3,71.8,1.4,74.1,1.8z"/>
		<path class="st25" d="M57.3,2.4c1.8-0.1,3.6-0.2,5.4-0.3C61,3.7,59.2,3.7,57.3,2.4z"/>
		<path class="st26" d="M72.9,21.3c-0.1-0.3-0.1-0.6,0.2-0.9c1.4,1.4,1.4,2.9,0.3,5.4C73.2,23.8,73.1,22.6,72.9,21.3z"/>
		<path class="st27" d="M51.4,35.6c0.1,0.3,0.1,0.6-0.1,0.9c-1.7-1.2-1-2.8-1.1-4.6C51.9,32.9,51,34.4,51.4,35.6z"/>
		<path class="st19" d="M75.1,129.2c1.9-1.1,3.9-0.9,6-0.9C79.3,130,77.1,129.1,75.1,129.2z"/>
		<path class="st19" d="M63.9,128.2c2,0,4.1-0.1,6,0.9C67.8,129.1,65.7,130,63.9,128.2z"/>
		<path class="st27" d="M79.4,35.8c-0.7-1.7-0.8-2.9,0-4.1C80.2,32.9,80,34,79.4,35.8z"/>
		<path class="st28" d="M80.1,50.4c0.1,0.3,0.1,0.6-0.2,0.9c-1.7-1.4-1-3-0.2-4.6C79.8,48,79.9,49.2,80.1,50.4z"/>
		<path class="st29" d="M34,121.3c4.1,5.4,10.9,6.6,16.2,10.2c0.4,0.3,0.5,0.6,0.4,0.8c-0.1,0.3-0.3,0.4-0.4,0.4
			c-11.3-4.4-21.6-10.2-28.7-20.6c-0.3-0.3-0.4-0.6-0.3-0.9c0.1-0.3,0.2-0.4,0.4-0.4C26.1,113.9,28.7,119.2,34,121.3z"/>
		<path class="st30" d="M58.2,133.8c6.8,1,13.7,1.6,20.6,1.2c3.4,0,6.9,0,10.3-0.1c0.4,0.3,0.5,0.5,0.4,0.8
			c-0.1,0.3-0.3,0.4-0.4,0.4c-7.2,1.8-14.5,1-21.8,1.2c0,0,0,0,0,0c-2.1-1.5-4.8,0.3-6.9-1.1c-0.8-0.4-1.5-0.8-2.3-1.1
			c-0.3-0.3-0.4-0.5-0.3-0.8C58,133.9,58.1,133.8,58.2,133.8z"/>
		<path class="st31" d="M7.8,88c3.4,6.1,6.8,12.3,10.3,18.4c-0.4,0.4-0.8,0.4-1.2,0C12.7,100.8,9,95,7.8,88z"/>
		<path class="st32" d="M58.2,133.8c0,0.4,0,0.8,0,1.2c-2.9,0-5.4-1.2-8-2.3c0-0.4,0-0.8,0-1.2c1.1,0,2.3,0.1,3.4,0.1
			C55.1,132.4,56.6,133.1,58.2,133.8z"/>
		<path class="st33" d="M16.8,106.4c0.4,0,0.8,0,1.2,0c0.7,0.4,1.5,0.8,2.2,1.3c0.4,1.1,0.8,2.2,1.2,3.3c0,0.4,0,0.8-0.1,1.3
			C19.4,110.7,17.2,109.2,16.8,106.4z"/>
		<path class="st34" d="M58.4,139c2.6-0.6,4-0.8,5.6-0.1C62.4,140,60.9,139.7,58.4,139z"/>
		<path class="st3" d="M60.4,136.1c2.3,0.3,4.9-0.8,6.9,1.1C65,136.9,62.4,138.2,60.4,136.1z"/>
		<path class="st35" d="M89.1,136.1c0-0.4,0-0.8,0-1.2c3-0.8,6.1-1.5,9.1-2.3c0.8,0,1.6,0,2.4,0.1c0,0.4,0,0.7,0,1.1
			C96.6,133.8,93.3,137.2,89.1,136.1z"/>
	</g>
</g>
</svg>
