<svg xmlns="http://www.w3.org/2000/svg" viewBox="0 0 142 142" enable-background="new 0 0 142 142"><style type="text/css">.st0{fill:#34495E;} .st1{fill:#FECD8D;} .st2{fill:#C7985A;} .st3{fill:#FFBF77;} .st4{fill:#FFFFFF;} .st5{fill:#3498DB;}</style><path class="st0" d="M71 0c-39.2 0-71 31.8-71 71 0 32.6 21.9 60 51.8 68.4 4.4 1.2 9 2.1 13.7 2.4 1.8.1 3.6.2 5.5.2 37.3 0 67.8-28.7 70.8-65.2.1-.6.1-1.3.1-1.9.1-1.3.1-2.6.1-3.9 0-39.2-31.8-71-71-71z"/><path class="st1" d="M114.9 76.4c0-1.4 0-4.9-3.4-6.4 3.4-1.6 3.4-4.7 3.4-6.7 0-3.6-.6-7.4-7.5-7.4h-18.2c0-1.4.1-1.5.5-2.2.4-.6 1-1.7 1.9-4 2.9-7 4.1-17.3.6-22.7-1.6-2.4-4.1-3.7-7.2-3.7-2.9 0-4.2 1.7-4.2 3.4 0 5.7-2.4 13.5-4.2 16.7-9.5 16.8-22.3 16.8-26.6 16.8h-1.2c-.8 0-2.9.7-2.9 2.2v38.1c0 .6.5 1.3 1.4 1.3l.9-.1c.2 0 .4-.1.5-.1 1.3.1 3.2.1 4.9.2h.4c5.1.1 5.2.1 10.4 2.7l.2.1c6.8 3.4 10.9 4 19.6 4 2 0 4.2 0 6.7-.1 3.5 0 7.4-.1 12.3-.1h.3c4.4 0 6.9-2.7 6.9-7.5 0-1.9-.7-3.9-2.3-5 3.4-.6 5-2.7 5-6.4 0-1.6 0-4.9-2.8-6.5 3.7-1 4.6-4 4.6-6.6z"/><path class="st2" d="M113.5 70c2.4-2 2.4-5 2.4-6.7 0-2.7 0-8.4-8.5-8.4h-17.1v-.1c0-.1 0-.1.3-.5.4-.6 1-1.7 2-4.1 1.6-3.7 2.6-8.1 2.8-12.2.2-3.4-.1-8.1-2.3-11.5-1.8-2.7-4.6-4.2-8-4.2-3.6 0-5.3 2.3-5.3 4.4 0 5.5-2.4 13.1-4.1 16.1-9.2 16.4-21.6 16.4-25.7 16.4h-1.2c-.6 0-1.4.2-2.1.6-1.6.8-1.8 2-1.8 2.6v38.1c0 1.1.9 2.3 2.5 2.3.4 0 .8-.1 1.1-.1.1 0 .2 0 .3-.1 1.4.1 3.2.1 4.9.2h.4c4.9.1 4.9.1 9.9 2.6l.2.1c7 3.5 11.2 4.1 20 4.1 2 0 4.2 0 6.7-.1 3.5 0 7.4-.1 12.3-.1h.4c3.6 0 5.5-1.7 6.4-3.1 1-1.4 1.5-3.3 1.5-5.5 0-1.1-.2-2.8-1.2-4.3l-.1-.2c.9-.4 1.6-.8 2.2-1.5 1.2-1.3 1.8-3.1 1.8-5.5 0-1.3 0-4.1-1.8-6.2 3.1-1.6 3.7-4.8 3.7-6.9 0-1.5-.2-3.7-1.6-5.5-.4-.1-.7-.4-1-.7zm-6.3 12.3h-5.7v.9h5.1c5 .1 5.4 3.4 5.4 6.3 0 3.4-1.3 5.5-6.2 5.6h-7.3v1h6.3c3.7 0 4.5 2.9 4.5 4.8 0 2.9-1.1 6.5-5.9 6.5h-.3c-8.4 0-14.4.2-19 .2-8.6 0-12.5-.6-19.1-3.9-5.4-2.7-5.6-2.8-11-2.9-1.7 0-3.8-.1-5.2-.2h-.1l-1.4.2c-.2 0-.4-.1-.4-.3v-38.1c0-.6 1.3-1.1 1.9-1.1h1.2c5.4 0 18.1-.7 27.5-17.4 1.9-3.4 4.3-11.4 4.3-17.2 0-1.1.9-2.3 3.2-2.3 10.4 0 9.6 15.6 5.7 25-2.5 5.9-2.4 3.1-2.5 7.6h19.2c6 0 6.4 3 6.4 6.3 0 2.8-.3 5.5-4.6 6.4h-7.8v.7h6.4c5.1 0 6 2.8 6 6 .1 3.5-1.7 5.9-6.6 5.9z"/><path class="st3" d="M85 24.4c-.4 0-.8 0-1.1.1 8.8 1.4 8 16 4.2 24.9-2.5 5.9-2.4 3.1-2.5 7.6h2.6c.1-4.4 0-1.7 2.5-7.6 3.9-9.4 4.7-25-5.7-25zM103.1 104.3c-24.3 0-28 1.4-38.1-3.7-5.4-2.7-5.6-2.8-11-2.9-1.7 0-3.8-.1-5.2-.2-.6 0-1.9.5-1.9-.1v3.1c0 .6 1.3.1 1.9.1 1.4.1 3.5.1 5.2.2 5.4.1 5.6.2 11 2.9 10.1 5.1 13.8 3.7 38.1 3.7 5.1.2 6.2-3.5 6.2-6.5 0-.5 0-1-.2-1.6-.6 2.5-1.8 5.1-6 5zM109.2 66.5h-7.8v3.1h6.2c2 0 3.1-.2 4.4-1.2 1.6-1.3 1.7-3.2 1.7-5.2 0-.5 0-1.1-.1-1.6 0 2.3-.8 4.3-4.4 4.9zM107.2 79.2h-5.7v3.1h5.2c2.2 0 3.1-.3 4.2-.6 2.2-.9 3.1-2.8 3.1-5.3 0-.6 0-1.1-.1-1.7-.6 2.7-2.5 4.5-6.7 4.5zM105.8 92h-7.3v3.1h5c2.1 0 2.7 0 4.1-.1 3.5-.5 4.4-2.6 4.4-5.5 0-.6 0-1.2-.1-1.7-.4 2.5-1.9 4.1-6.1 4.2z"/><path class="st4" d="M46.2 56.4h12.1v51.7h-12.1z"/><path class="st5" d="M23.8 53.8h28.2v58h-28.2z"/></svg>