<?xml version="1.0" encoding="utf-8"?>
<!-- Generator: Adobe Illustrator 19.2.1, SVG Export Plug-In . SVG Version: 6.00 Build 0)  -->
<svg version="1.1" id="Layer_1" xmlns="http://www.w3.org/2000/svg" xmlns:xlink="http://www.w3.org/1999/xlink" x="0px" y="0px"
	 viewBox="0 0 142 142" style="enable-background:new 0 0 142 142;" xml:space="preserve">
<style type="text/css">
	.st0{fill:#34495E;}
	.st1{fill:#F1C411;}
	.st2{fill:#F39C13;}
</style>
<g>
	<path class="st0" d="M142,71c0,0.1,0,0.3,0,0.4c-0.1,22.6-10.8,42.6-27.3,55.5c-12,9.4-27.2,15.1-43.7,15.1c-2.7,0-5.4-0.2-8-0.5
		c-35.4-4-63-34.1-63-70.5C0,31.8,31.8,0,71,0c35.6,0,65,26.1,70.2,60.2C141.7,63.7,142,67.3,142,71z"/>
	<path class="st1" d="M50.3,81.8l-0.5-0.1h-0.4c-0.5,0-1.6,0-7.4,3l2-5.5L42.2,78c-5.4-3.7-8.3-8.5-8.3-13.8
		c0-10.5,11.9-19.1,26.6-19.1c8,0,15.1,2.5,20,6.5c1.2-0.1,2.4-0.2,3.7-0.2c1.3,0,2.5,0.1,3.8,0.2c-5.6-7.2-15.8-12-27.5-12
		c-17.7,0-32,11-32,24.5c0,6.4,3.3,12.5,9,17L32,96.5l6.4-3.7c4.2-2.4,9.3-5.1,11-5.7c2.4,0.7,4.9,1.1,7.4,1.3
		c-1.5-1.8-2.6-3.8-3.4-6C52.3,82.3,51.3,82.1,50.3,81.8z"/>
	<path class="st2" d="M113.5,76c0-12-13.1-21.8-29.3-21.8C68,54.2,54.9,63.9,54.9,76c0,12,13.1,21.8,29.3,21.8c3.9,0,7.6-0.6,11-1.6
		c1.1-0.4,12.5,6.2,12.5,6.2L104,92C109.9,88,113.5,82.3,113.5,76z M100,83H69.7v-2.8H100V83z M100,77.3H69.7v-2.8H100V77.3z
		 M100,71.6H69.7v-2.8H100V71.6z"/>
</g>
</svg>
