<?xml version="1.0" encoding="utf-8"?>
<!-- Generator: Adobe Illustrator 19.2.1, SVG Export Plug-In . SVG Version: 6.00 Build 0)  -->
<svg version="1.1" id="Layer_1" xmlns="http://www.w3.org/2000/svg" xmlns:xlink="http://www.w3.org/1999/xlink" x="0px" y="0px"
	 viewBox="0 0 142 142" style="enable-background:new 0 0 142 142;" xml:space="preserve">
<style type="text/css">
	.st0{fill:#34495E;}
	.st1{fill:#D92C29;}
	.st2{fill:#ECF0F1;}
</style>
<g>
	<path class="st0" d="M142,71c0,0.1,0,0.3,0,0.4c-0.1,22.6-10.8,42.6-27.3,55.5c-12,9.4-27.2,15.1-43.7,15.1c-2.7,0-5.4-0.2-8-0.5
		c-35.4-4-63-34.1-63-70.5C0,31.8,31.8,0,71,0c35.6,0,65,26.1,70.2,60.2C141.7,63.7,142,67.3,142,71z"/>
	<g>
		<g>
			<g>
				<path class="st1" d="M109.3,68C107.7,46.8,89.1,31,68,32.7C46.8,34.3,31,52.9,32.7,74c1.7,21.2,20.2,37,41.4,35.3
					C95.2,107.7,111,89.1,109.3,68z M51,72.6c-0.9-11,7.4-20.7,18.4-21.6c11-0.9,20.7,7.4,21.6,18.4c0.9,11-7.4,20.7-18.4,21.6
					C61.5,91.9,51.9,83.6,51,72.6z"/>
				<path class="st2" d="M106,55.2L106,55.2l-16.7,7.5l0,0c2.7,6,2.2,12.7-0.8,18l7.9,4.4l8.2,4.5C110.4,79.1,111,66.3,106,55.2z
					 M85.2,45.6l4.5-8.1C79.2,31.6,66.3,31,55.2,36l0,0l3.8,8.5l3.7,8.2l0,0c6-2.7,12.7-2.2,18,0.8L85.2,45.6z M79.3,89.3L79.3,89.3
					c-6.1,2.7-12.7,2.2-18.1-0.8l-4.4,7.9l-4.6,8.1c10.6,5.9,23.5,6.5,34.5,1.5l0,0L79.3,89.3z M52.7,79.2c-2.7-6-2.2-12.7,0.8-18
					l-7.9-4.4l-8.1-4.5C31.6,62.8,31,75.7,36,86.8l0,0l15.4-6.9L52.7,79.2L52.7,79.2z"/>
			</g>
		</g>
	</g>
</g>
</svg>
