<?xml version="1.0" encoding="utf-8"?>
<!-- Generator: Adobe Illustrator 19.2.1, SVG Export Plug-In . SVG Version: 6.00 Build 0)  -->
<svg version="1.1" id="Layer_1" xmlns="http://www.w3.org/2000/svg" xmlns:xlink="http://www.w3.org/1999/xlink" x="0px" y="0px"
	 viewBox="0 0 200 59" style="enable-background:new 0 0 200 59;" xml:space="preserve">
<style type="text/css">
	.st0{fill-rule:evenodd;clip-rule:evenodd;}
	.st1{fill-rule:evenodd;clip-rule:evenodd;fill:#FFFFFF;}
	.st2{fill-rule:evenodd;clip-rule:evenodd;fill:url(#SVGID_1_);}
	.st3{fill-rule:evenodd;clip-rule:evenodd;fill:url(#SVGID_2_);}
	.st4{fill-rule:evenodd;clip-rule:evenodd;fill:url(#SVGID_3_);}
	.st5{fill-rule:evenodd;clip-rule:evenodd;fill:url(#SVGID_4_);}
	.st6{fill-rule:evenodd;clip-rule:evenodd;fill:url(#SVGID_5_);}
	.st7{fill-rule:evenodd;clip-rule:evenodd;fill:url(#SVGID_6_);}
	.st8{fill-rule:evenodd;clip-rule:evenodd;fill:url(#SVGID_7_);}
	.st9{fill-rule:evenodd;clip-rule:evenodd;fill:url(#SVGID_8_);}
</style>
<g>
	<path class="st0" d="M8.1,0h183.8c4.5,0,8.1,3.6,8.1,8.1v42.9c0,4.4-3.6,8.1-8.1,8.1H8.1C3.6,59,0,55.4,0,50.9V8.1
		C0,3.6,3.6,0,8.1,0z"/>
	<path class="st1" d="M72.2,32.3h-9.4v2.8h6.6c-0.3,3.9-3.6,5.5-6.6,5.5c-3.9,0-7.3-3.1-7.3-7.4c0-4.2,3.3-7.4,7.3-7.4
		c3.2,0,5,2,5,2l1.9-2c0,0-2.5-2.8-7.1-2.8c-5.8,0-10.3,4.9-10.3,10.1c0,5.2,4.2,10.2,10.4,10.2c5.5,0,9.5-3.7,9.5-9.2
		C72.4,33,72.2,32.3,72.2,32.3L72.2,32.3z"/>
	<path class="st1" d="M80.2,32.9c1.9,0,3.7,1.5,3.7,4c0,2.4-1.8,4-3.7,4c-2.1,0-3.7-1.7-3.7-4C76.5,34.6,78.1,32.9,80.2,32.9
		L80.2,32.9L80.2,32.9z M80.2,30.3c-3.8,0-6.6,3-6.6,6.5c0,3.5,2.7,6.6,6.6,6.6c3.6,0,6.5-2.7,6.5-6.5
		C86.8,32.6,83.4,30.3,80.2,30.3L80.2,30.3z"/>
	<path class="st1" d="M94.7,32.9c1.9,0,3.7,1.5,3.7,4c0,2.4-1.8,4-3.7,4c-2.1,0-3.7-1.7-3.7-4C91,34.6,92.6,32.9,94.7,32.9
		L94.7,32.9L94.7,32.9z M94.7,30.3c-3.8,0-6.6,3-6.6,6.5c0,3.5,2.7,6.6,6.6,6.6c3.6,0,6.5-2.7,6.5-6.5
		C101.3,32.6,97.9,30.3,94.7,30.3L94.7,30.3z"/>
	<path class="st1" d="M109.2,32.9c1.7,0,3.5,1.5,3.5,4c0,2.6-1.8,4-3.5,4c-1.9,0-3.6-1.5-3.6-3.9C105.5,34.4,107.3,32.9,109.2,32.9
		L109.2,32.9L109.2,32.9z M108.9,30.3c-3.5,0-6.3,3.1-6.3,6.5c0,3.9,3.2,6.5,6.2,6.5c1.9,0,2.9-0.7,3.6-1.6v1.3
		c0,2.3-1.4,3.6-3.4,3.6c-2,0-3-1.5-3.4-2.3l-2.5,1c0.9,1.9,2.7,3.8,5.9,3.8c3.5,0,6.2-2.2,6.2-6.8V30.7h-2.8v1.1
		C111.6,30.9,110.4,30.3,108.9,30.3L108.9,30.3z"/>
	<path class="st1" d="M128.1,32.8c1.2,0,2.1,0.6,2.4,1.4l-5.9,2.4C124.4,34.8,126.2,32.8,128.1,32.8L128.1,32.8L128.1,32.8z
		 M128,30.3c-3.3,0-6.1,2.6-6.1,6.5c0,4.1,3.1,6.6,6.4,6.6c2.8,0,4.5-1.5,5.5-2.9l-2.3-1.5c-0.6,0.9-1.6,1.8-3.2,1.8
		c-1.8,0-2.7-1-3.2-2l8.8-3.6l-0.5-1.1C132.6,32.1,130.6,30.3,128,30.3L128,30.3z"/>
	<rect x="117.4" y="23.8" class="st1" width="2.9" height="19.3"/>
	<g>
		<linearGradient id="SVGID_1_" gradientUnits="userSpaceOnUse" x1="41.1133" y1="38.1031" x2="36.154" y2="28.3699">
			<stop  offset="0" style="stop-color:#FACD8A"/>
			<stop  offset="1" style="stop-color:#F5906C"/>
		</linearGradient>
		<path class="st2" d="M37.4,38.2c3.6-1.9,6.3-3.4,6.5-3.6c0.7-0.4,1.5-1.4,0-2.3c-0.5-0.3-3.1-1.7-6.5-3.6l-4.7,4.7L37.4,38.2z"/>
		<linearGradient id="SVGID_2_" gradientUnits="userSpaceOnUse" x1="37.2536" y1="33.3022" x2="17.8432" y2="53.4023">
			<stop  offset="0" style="stop-color:#E62D38"/>
			<stop  offset="1" style="stop-color:#78459A"/>
		</linearGradient>
		<path class="st3" d="M32.7,33.5l-15,15c0.3,0,0.7,0,1.2-0.3c1-0.5,11.4-6.2,18.5-10.1L32.7,33.5z"/>
		<linearGradient id="SVGID_3_" gradientUnits="userSpaceOnUse" x1="36.7371" y1="33.6614" x2="18.3629" y2="13.9575">
			<stop  offset="0" style="stop-color:#E5EBA5"/>
			<stop  offset="1" style="stop-color:#38BBBA"/>
		</linearGradient>
		<path class="st4" d="M32.7,33.5l4.7-4.7c0,0-17.4-9.5-18.5-10c-0.4-0.2-0.9-0.3-1.3-0.2L32.7,33.5z"/>
		<linearGradient id="SVGID_4_" gradientUnits="userSpaceOnUse" x1="24.5636" y1="61.4438" x2="24.5636" y2="5.7737">
			<stop  offset="0" style="stop-color:#8DD1CD"/>
			<stop  offset="1" style="stop-color:#006F8C"/>
		</linearGradient>
		<path class="st5" d="M32.7,33.5L17.6,18.6c-0.6,0.1-1.1,0.7-1.1,1.8c0,1.7,0.1,25,0.1,26.5c0,1,0.4,1.7,1.1,1.8L32.7,33.5z"/>
	</g>
	<rect x="156.1" y="23.8" class="st1" width="2.9" height="19.3"/>
	<rect x="140.8" y="23.8" class="st1" width="2.9" height="19.3"/>
	<path class="st1" d="M140.8,23.8h7c3.4,0,6.2,2.8,6.2,6.1l0,0c0,3.4-2.8,6.1-6.2,6.1h-7V23.8L140.8,23.8z M143.7,26.6v6.5h4.1
		c1.8,0,3.3-1.5,3.3-3.3c0-1.8-1.5-3.3-3.3-3.3H143.7z"/>
	<polygon class="st1" points="180.4,49.3 188.7,30.3 185.6,30.3 177.2,49.3 	"/>
	<polygon class="st1" points="181.3,45 174.9,30.3 178,30.3 182.5,40.4 181.3,40.4 	"/>
	<path class="st1" d="M170.9,43h2.9v-6.9c0.5-7.1-8.6-8.8-12.1-3.7L164,34c1.7-2.9,6.5-2.3,6.8,0.9c-1.4-0.4-3-0.7-4.4-0.5
		c-2.2,0.2-4.1,1.6-4.4,3.9c-0.2,1.2,0.1,2.8,1,3.7c1.4,1.5,3.6,1.7,5.4,1.2c1-0.3,1.8-0.9,2.5-1.7V43L170.9,43z M170.9,37.5
		c-0.4,1.6-1.6,2.8-3.2,3.2c-3.3,0.9-4.2-4.5,0.8-3.8C169.3,37,170.1,37.2,170.9,37.5z"/>
	<path class="st1" d="M62.1,12h-4.3v1.3h3c-0.1,1.8-1.6,2.5-3,2.5c-1.8,0-3.3-1.4-3.3-3.4c0-1.9,1.5-3.4,3.3-3.4
		c1.4,0,2.3,0.9,2.3,0.9L61,9.1c0,0-1.1-1.3-3.2-1.3c-2.6,0-4.7,2.2-4.7,4.6c0,2.3,1.9,4.6,4.7,4.6c2.5,0,4.3-1.7,4.3-4.2
		C62.2,12.4,62.1,12,62.1,12L62.1,12z"/>
	<rect x="79.5" y="8.1" class="st1" width="1.3" height="8.8"/>
	<path class="st1" d="M72.1,16.9h1.3V9.5h2.2V8.1c-1.9,0-3.8,0-5.6,0v1.3h2.2V16.9z"/>
	<path class="st1" d="M63.5,16.9h5v-1.3h-3.7v-2.4h3.3v-1.3h-3.3V9.5h3.7V8.1h-5C63.5,11.1,63.5,14,63.5,16.9z"/>
	<path class="st1" d="M84,16.9h1.3V9.5h2.2V8.1c-1.9,0-3.8,0-5.6,0v1.3H84V16.9z"/>
	<path class="st1" d="M95.6,15.8c-1.8,0-3.3-1.4-3.3-3.4c0-1.9,1.5-3.4,3.3-3.4c1.8,0,3.3,1.5,3.3,3.4
		C98.9,14.4,97.3,15.8,95.6,15.8L95.6,15.8z M95.6,7.8c-2.6,0-4.7,2.2-4.7,4.6c0,2.3,1.9,4.6,4.7,4.6c2.8,0,4.7-2.3,4.7-4.6
		C100.3,10.1,98.2,7.8,95.6,7.8z"/>
	<polygon class="st1" points="101.6,16.9 102.9,16.9 102.9,10.5 107.1,16.9 108.4,16.9 108.4,8.1 107.1,8.1 107.1,14.5 102.9,8.1 
		101.6,8.1 	"/>
	<g>
		<linearGradient id="SVGID_5_" gradientUnits="userSpaceOnUse" x1="41.1133" y1="38.1031" x2="36.154" y2="28.3699">
			<stop  offset="0" style="stop-color:#FACD8A"/>
			<stop  offset="1" style="stop-color:#F5906C"/>
		</linearGradient>
		<path class="st6" d="M37.4,38.2c3.6-1.9,6.3-3.4,6.5-3.6c0.7-0.4,1.5-1.4,0-2.3c-0.5-0.3-3.1-1.7-6.5-3.6l-4.7,4.7L37.4,38.2z"/>
		<linearGradient id="SVGID_6_" gradientUnits="userSpaceOnUse" x1="37.2536" y1="33.3022" x2="17.8432" y2="53.4023">
			<stop  offset="0" style="stop-color:#E62D38"/>
			<stop  offset="1" style="stop-color:#78459A"/>
		</linearGradient>
		<path class="st7" d="M32.7,33.5l-15,15c0.3,0,0.7,0,1.2-0.3c1-0.5,11.4-6.2,18.5-10.1L32.7,33.5z"/>
		<linearGradient id="SVGID_7_" gradientUnits="userSpaceOnUse" x1="36.7371" y1="33.6614" x2="18.3629" y2="13.9575">
			<stop  offset="0" style="stop-color:#E5EBA5"/>
			<stop  offset="1" style="stop-color:#38BBBA"/>
		</linearGradient>
		<path class="st8" d="M32.7,33.5l4.7-4.7c0,0-17.4-9.5-18.5-10c-0.4-0.2-0.9-0.3-1.3-0.2L32.7,33.5z"/>
		<linearGradient id="SVGID_8_" gradientUnits="userSpaceOnUse" x1="24.5636" y1="61.4438" x2="24.5636" y2="5.7737">
			<stop  offset="0" style="stop-color:#8DD1CD"/>
			<stop  offset="1" style="stop-color:#006F8C"/>
		</linearGradient>
		<path class="st9" d="M32.7,33.5L17.6,18.6c-0.6,0.1-1.1,0.7-1.1,1.8c0,1.7,0.1,25,0.1,26.5c0,1,0.4,1.7,1.1,1.8L32.7,33.5z"/>
	</g>
</g>
</svg>
