<?xml version="1.0" encoding="utf-8"?>
<!-- Generator: Adobe Illustrator 19.2.1, SVG Export Plug-In . SVG Version: 6.00 Build 0)  -->
<svg version="1.1" id="Layer_1" xmlns="http://www.w3.org/2000/svg" xmlns:xlink="http://www.w3.org/1999/xlink" x="0px" y="0px"
	 viewBox="0 0 182.3 134" style="enable-background:new 0 0 182.3 134;" xml:space="preserve">
<style type="text/css">
	.st0{fill:#0077BF;}
	.st1{fill:#FFFFFF;}
	.st2{fill:#3498DB;}
	.st3{fill:#1D78AA;}
	.st4{fill:#E67E22;}
	.st5{fill:#D35401;}
	.st6{fill:#A66BBE;}
	.st7{fill:#8E44AD;}
	.st8{fill:#2BCC71;}
	.st9{fill:#25AE60;}
	.st10{fill:#E74C3C;}
	.st11{fill:#C0392B;}
</style>
<path id="XMLID_23_" class="st0" d="M102.2,15.1c1.9,0.1,3.6-1.4,3.7-3.4c0.1-1.9-1.4-3.6-3.4-3.7c-1.9-0.1-3.6,1.4-3.7,3.4
	C98.8,13.4,100.2,15,102.2,15.1"/>
<path id="XMLID_22_" class="st0" d="M86.9,80h-4.4v-7.7h2v6h2.4V80z M149.1,8.2c-9.4,0-17,7.7-17,17.1c0,0.7,0.1,1.4,0.2,2.1
	c-2.2,1-4.3,2-6.4,3.1c-1.9,1-3.8,2-5.7,3.1c-1.8,1.1-3.7,2.3-5.5,3.5c-3.6,2.4-7,5.1-10.2,7.9c-3.2,2.9-6.3,5.9-9,9.3
	c-1.4,1.7-2.7,3.4-3.9,5.1c-1.2,1.8-2.3,3.6-3.3,5.5c0,0,0,0.1-0.1,0.1c-0.6-0.2-1.4-0.4-2.3-0.5c-0.4-3.5-0.9-6.9-1.7-10.3
	c-0.9-3.8-2-7.6-3.6-11.2c-0.6-1.5-1.4-3-2.3-4.4c1-0.7,1.8-2,1.8-3.4c0.1-2.4-1.8-4.4-4.2-4.5s-4.4,1.8-4.5,4.2
	c-0.1,2.4,1.8,4.4,4.2,4.5c0.8,0,1.5-0.2,2.2-0.5c0.7,1.4,1.3,3,1.8,4.4c1.3,3.6,2.1,7.4,2.6,11.2c0.5,3.3,0.7,6.6,0.7,10
	c-0.9,0.1-1.8,0.3-2.6,0.6c-0.7-1.2-1.5-2.4-2.4-3.5c-2-2.6-4.4-4.9-7.1-6.9c-2.7-2-5.6-3.6-8.6-5c-1.5-0.6-3.1-1.3-4.7-1.8
	c-1.6-0.6-3.2-1-4.8-1.4c-1.6-0.4-3.2-0.7-4.9-1c-0.8-0.2-1.6-0.2-2.5-0.4c-0.8-0.2-1.7-0.2-2.5-0.3l-2-0.2
	c-0.2-0.4-0.3-0.8-0.6-1.2l-1-1.4l-0.2-0.2c-0.1-0.1-0.1-0.2-0.2-0.2L39,41.4c-0.1-0.1-0.1-0.2-0.2-0.2c-0.2-0.2-0.3-0.3-0.3-0.4
	l-0.2-0.1c-0.7-0.6-1.4-1.1-2.3-1.5H36l-0.3-0.2c0,0-0.1,0-0.1-0.1L35.4,39c-0.1,0-0.2-0.1-0.2-0.1c-0.1,0-0.2-0.1-0.2-0.1l-0.2-0.1
	h-0.1l-0.3-0.1h-0.1c-0.9-0.2-1.8-0.3-2.7-0.2h-0.5c-0.8,0.1-1.6,0.2-2.4,0.6h-0.1l-0.4,0.2l-0.2,0.1l-0.2,0.1
	c-0.1,0-0.2,0.1-0.2,0.2l-0.2,0.1c-0.1,0.1-0.2,0.2-0.3,0.2H27c-0.5,0.2-0.9,0.6-1.3,0.9c-1.5,1.3-2.7,3-3.2,5
	c-0.7,2.5-0.3,5.1,1,7.5c1.3,2.3,3.4,3.9,5.9,4.6c0.9,0.2,1.7,0.3,2.6,0.3c4.4,0,8.3-3,9.5-7.2c0.1-0.4,0.2-0.9,0.2-1.3h1.1
	c1.6,0,3.1,0.1,4.7,0.2c1.6,0.1,3.1,0.2,4.7,0.5c1.5,0.2,3.1,0.5,4.7,0.9c1.5,0.3,3.1,0.8,4.6,1.3c3,1,5.9,2.3,8.5,4
	c2.7,1.7,5.1,3.7,7.3,6.1c0.9,1,1.8,2,2.5,3.1c-3.9,1.8-6.8,5.6-7,10.3c-0.2,6.5,4.7,12,11.3,12.2c6.5,0.2,12-4.7,12.2-11.3
	c0.2-5-2.7-9.4-7.1-11.3c1.1-1.8,2.3-3.5,3.7-5.1c1.3-1.6,2.7-3.2,4.2-4.7c2.9-3,6.1-5.7,9.5-8.1c3.4-2.5,6.9-4.7,10.5-6.7
	c5.5-3.1,11.1-5.6,17-8c2.8,5.6,8.6,9.6,15.4,9.5c9.4,0,17-7.7,17-17.1C166.2,15.7,158.6,8.1,149.1,8.2"/>
<path id="XMLID_21_" class="st0" d="M125.4,49.1c-4-0.2-7.3,2.9-7.5,6.8c-0.1,1.9,0.6,3.8,1.8,5.1c1.3,1.4,3.1,2.3,5,2.3h0.3
	c3.9,0,7-3.1,7.2-6.8C132.5,52.6,129.5,49.2,125.4,49.1"/>
<g>
	<circle class="st0" cx="31.4" cy="48.2" r="12.1"/>
	<circle class="st1" cx="31.4" cy="48.2" r="9.8"/>
	<path class="st2" d="M23.5,48.2c0,4.3,3.5,7.9,7.9,7.9c4.3,0,7.9-3.5,7.9-7.9c0-1-0.2-2-0.6-2.9H24.1
		C23.7,46.2,23.5,47.2,23.5,48.2z"/>
	<circle class="st3" cx="31.2" cy="48.2" r="0.8"/>
	<circle class="st3" cx="29.6" cy="51.6" r="1.6"/>
	<circle class="st3" cx="28" cy="48.2" r="0.6"/>
	<circle class="st3" cx="31.2" cy="41.7" r="0.7"/>
	<circle class="st3" cx="29.3" cy="43.3" r="0.9"/>
	<circle class="st3" cx="34.5" cy="49.1" r="0.6"/>
	<circle class="st3" cx="33.7" cy="52.1" r="1.1"/>
	<circle class="st3" cx="33.2" cy="43.1" r="0.4"/>
</g>
<g>
	<circle class="st0" cx="75.8" cy="34" r="5.4"/>
	<circle class="st1" cx="75.8" cy="34" r="4.3"/>
	<path class="st4" d="M72.3,34c0,1.9,1.6,3.5,3.5,3.5c1.9,0,3.5-1.6,3.5-3.5c0-0.5-0.1-0.9-0.3-1.3h-6.5
		C72.4,33.1,72.3,33.5,72.3,34z"/>
	<circle class="st5" cx="75.8" cy="34" r="0.4"/>
	<circle class="st5" cx="75.1" cy="35.5" r="0.7"/>
	<circle class="st5" cx="74.3" cy="34" r="0.3"/>
	<circle class="st5" cx="75.8" cy="31.1" r="0.3"/>
	<circle class="st5" cx="74.9" cy="31.8" r="0.4"/>
	<circle class="st5" cx="77.2" cy="34.3" r="0.3"/>
	<circle class="st5" cx="76.9" cy="35.7" r="0.5"/>
	<circle class="st5" cx="76.7" cy="31.7" r="0.2"/>
</g>
<g>
	<circle class="st0" cx="102.2" cy="11.5" r="5.4"/>
	<circle class="st1" cx="102.2" cy="11.5" r="4.3"/>
	<path class="st6" d="M98.7,11.5c0,1.9,1.6,3.5,3.5,3.5c1.9,0,3.5-1.6,3.5-3.5c0-0.5-0.1-0.9-0.3-1.3H99
		C98.8,10.6,98.7,11.1,98.7,11.5z"/>
	<circle class="st7" cx="102.2" cy="11.6" r="0.4"/>
	<circle class="st7" cx="101.5" cy="13.1" r="0.7"/>
	<circle class="st7" cx="100.8" cy="11.6" r="0.3"/>
	<circle class="st7" cx="102.2" cy="8.6" r="0.3"/>
	<circle class="st7" cx="101.3" cy="9.3" r="0.4"/>
	<circle class="st7" cx="103.6" cy="11.9" r="0.3"/>
	<circle class="st7" cx="103.3" cy="13.3" r="0.5"/>
	<circle class="st7" cx="103.1" cy="9.3" r="0.2"/>
</g>
<g>
	<circle class="st0" cx="147.6" cy="25.9" r="19.1"/>
	<circle class="st1" cx="147.6" cy="25.9" r="15.4"/>
	<path class="st8" d="M135.3,25.9c0,6.8,5.5,12.4,12.4,12.4c6.8,0,12.4-5.5,12.4-12.4c0-1.6-0.3-3.2-0.9-4.6h-23
		C135.6,22.7,135.3,24.2,135.3,25.9z"/>
	<circle class="st9" cx="147.5" cy="25.9" r="1.3"/>
	<circle class="st9" cx="144.9" cy="31.2" r="2.5"/>
	<circle class="st9" cx="142.4" cy="25.9" r="1"/>
	<circle class="st9" cx="147.4" cy="15.6" r="1.1"/>
	<circle class="st9" cx="144.5" cy="18.1" r="1.4"/>
	<circle class="st9" cx="152.5" cy="27.2" r="1"/>
	<circle class="st9" cx="151.4" cy="31.9" r="1.8"/>
	<circle class="st9" cx="150.5" cy="17.8" r="0.7"/>
</g>
<g>
	<circle class="st0" cx="125.1" cy="56.2" r="8"/>
	<circle class="st1" cx="125.1" cy="56.2" r="6.5"/>
	<path class="st10" d="M119.9,56.2c0,2.9,2.3,5.2,5.2,5.2c2.9,0,5.2-2.3,5.2-5.2c0-0.7-0.1-1.3-0.4-1.9h-9.7
		C120.1,54.9,119.9,55.5,119.9,56.2z"/>
	<circle class="st11" cx="125.1" cy="56.3" r="0.5"/>
	<circle class="st11" cx="124" cy="58.5" r="1.1"/>
	<circle class="st11" cx="122.9" cy="56.3" r="0.4"/>
	<circle class="st11" cx="125" cy="51.9" r="0.5"/>
	<circle class="st11" cx="123.8" cy="53" r="0.6"/>
	<circle class="st11" cx="127.2" cy="56.8" r="0.4"/>
	<circle class="st11" cx="126.7" cy="58.8" r="0.8"/>
	<circle class="st11" cx="126.3" cy="52.9" r="0.3"/>
</g>
<circle class="st0" cx="84.5" cy="76.1" r="8.2"/>
<g>
	<path id="XMLID_20_" class="st2" d="M42.4,40.2c-0.2,0-0.4,0-0.6,0c-1.5-4.6-5.9-8-11.1-8c-6.4,0-11.7,5.2-11.7,11.7
		c0,0.1,0,0.2,0,0.2c-3.5,0.9-6.1,4-6.1,7.8c0,4.4,3.6,8,8,8c0.5,0,1-0.1,1.5-0.2c1.5,2,3.8,3.3,6.5,3.3c2.6,0,4.9-1.2,6.4-3.2
		c1.9,1.6,4.4,2.5,7,2.5c6.1,0,11.1-5,11.1-11.1S48.5,40.2,42.4,40.2z"/>
	<path id="XMLID_17_" class="st1" d="M28.3,55.6c-1.7,0-3.1-0.6-4.2-1.3l1.3-2.5c0.7,0.5,1.8,1.1,2.6,1.1c0.8,0,1.4-0.3,1.4-1
		c0-1.6-4.8-1.4-4.8-5c0-2,1.6-3.6,3.5-3.6c2,0,3,0.6,3.6,0.9l-0.9,2.6c-0.5-0.4-1.3-0.8-2.1-0.8c-0.5,0-1,0.4-0.9,0.8
		c0,1.2,4.8,1.3,4.8,4.9C32.5,53.8,31.3,55.6,28.3,55.6z M37.9,50.1L36.6,48l-1.4,2.1l-2.2,0l2.4-3.6l-2.1-3.1l2.1,0l1.1,1.6
		l1.1-1.6l2.1,0l-2.1,3.1l2.4,3.6L37.9,50.1z"/>
</g>
<g>
	<path id="XMLID_16_" class="st8" d="M165.3,14.4c-0.3,0-0.6,0-0.9,0c-2.4-7.1-9.1-12.3-17-12.3c-9.9,0-17.9,8-17.9,17.9
		c0,0.1,0,0.2,0,0.4c-5.4,1.3-9.4,6.2-9.4,12c0,6.8,5.5,12.3,12.3,12.3c0.8,0,1.6-0.1,2.4-0.2c2.2,3.1,5.9,5,9.9,5
		c4,0,7.5-1.9,9.8-4.9c2.9,2.4,6.7,3.9,10.8,3.9c9.4,0,17.1-7.6,17.1-17.1S174.7,14.4,165.3,14.4z"/>
	<path id="XMLID_13_" class="st1" d="M143.7,38.1c-2.7,0-4.7-0.9-6.5-2l1.9-3.8c1,0.8,2.8,1.7,4,1.7c1.2,0,2.1-0.5,2.1-1.6
		c0-2.5-7.4-2.1-7.4-7.6c0-3,2.4-5.5,5.4-5.5c3,0,4.6,0.9,5.5,1.3l-1.3,4c-0.8-0.6-2-1.2-3.2-1.2c-0.8,0-1.5,0.6-1.5,1.2
		c0,1.8,7.3,2,7.3,7.5C150.2,35.4,148.3,38.1,143.7,38.1z M158.5,29.7l-2.1-3.3l-2.1,3.3l-3.3,0l3.7-5.6l-3.2-4.8l3.3,0l1.6,2.5
		l1.6-2.5l3.3,0l-3.2,4.8l3.8,5.6L158.5,29.7z"/>
</g>
<g>
	<path id="XMLID_12_" class="st4" d="M81.6,29.6c-0.1,0-0.2,0-0.3,0c-0.7-2.2-2.8-3.7-5.2-3.7c-3,0-5.5,2.4-5.5,5.5c0,0,0,0.1,0,0.1
		c-1.6,0.4-2.9,1.9-2.9,3.6c0,2.1,1.7,3.7,3.7,3.7c0.2,0,0.5,0,0.7-0.1c0.7,0.9,1.8,1.5,3,1.5c1.2,0,2.3-0.6,3-1.5
		c0.9,0.7,2,1.2,3.3,1.2c2.9,0,5.2-2.3,5.2-5.2S84.5,29.6,81.6,29.6z"/>
	<path id="XMLID_9_" class="st1" d="M75,36.8c-0.8,0-1.4-0.3-2-0.6l0.6-1.2c0.3,0.2,0.9,0.5,1.2,0.5c0.4,0,0.6-0.1,0.6-0.5
		c0-0.8-2.3-0.6-2.3-2.3c0-0.9,0.7-1.7,1.7-1.7c0.9,0,1.4,0.3,1.7,0.4l-0.4,1.2c-0.2-0.2-0.6-0.4-1-0.4c-0.2,0-0.4,0.2-0.4,0.4
		c0,0.5,2.2,0.6,2.2,2.3C77,36,76.4,36.8,75,36.8z M79.5,34.3l-0.6-1l-0.6,1l-1,0l1.1-1.7l-1-1.5l1,0l0.5,0.8l0.5-0.8l1,0l-1,1.5
		l1.1,1.7L79.5,34.3z"/>
</g>
<g>
	<path id="XMLID_8_" class="st6" d="M109.5,5.4c-0.1,0-0.3,0-0.4,0c-1.1-3.2-4-5.4-7.5-5.4c-4.4,0-7.9,3.6-7.9,7.9
		c0,0.1,0,0.1,0,0.2c-2.4,0.6-4.2,2.7-4.2,5.3c0,3,2.4,5.5,5.5,5.5c0.4,0,0.7,0,1.1-0.1c1,1.4,2.6,2.2,4.4,2.2
		c1.8,0,3.3-0.8,4.3-2.2c1.3,1.1,3,1.7,4.8,1.7c4.2,0,7.6-3.4,7.6-7.6S113.7,5.4,109.5,5.4z"/>
	<path id="XMLID_5_" class="st1" d="M100,15.9c-1.2,0-2.1-0.4-2.9-0.9l0.9-1.7c0.5,0.3,1.3,0.7,1.8,0.7c0.5,0,0.9-0.2,0.9-0.7
		c0-1.1-3.3-0.9-3.3-3.4c0-1.3,1.1-2.4,2.4-2.4c1.3,0,2,0.4,2.4,0.6l-0.6,1.8c-0.4-0.2-0.9-0.5-1.4-0.5c-0.4,0-0.6,0.2-0.6,0.5
		c0,0.8,3.2,0.9,3.3,3.3C102.8,14.7,102,15.9,100,15.9z M106.5,12.2l-0.9-1.5l-0.9,1.5l-1.5,0l1.6-2.5l-1.4-2.1l1.5,0l0.7,1.1
		l0.7-1.1l1.5,0l-1.4,2.1l1.7,2.5L106.5,12.2z"/>
</g>
<g>
	<path id="XMLID_4_" class="st10" d="M132.1,51.5c-0.1,0-0.3,0-0.4,0c-1-3-3.8-5.1-7.1-5.1c-4.1,0-7.4,3.3-7.4,7.4c0,0,0,0.1,0,0.1
		c-2.2,0.5-3.9,2.6-3.9,5c0,2.8,2.3,5.1,5.1,5.1c0.3,0,0.7,0,1-0.1c0.9,1.3,2.4,2.1,4.1,2.1c1.7,0,3.1-0.8,4.1-2
		c1.2,1,2.8,1.6,4.5,1.6c3.9,0,7.1-3.2,7.1-7.1S136,51.5,132.1,51.5z"/>
	<path id="XMLID_1_" class="st1" d="M123.1,61.4c-1.1,0-2-0.4-2.7-0.8l0.8-1.6c0.4,0.3,1.2,0.7,1.7,0.7c0.5,0,0.9-0.2,0.9-0.6
		c0-1-3.1-0.9-3.1-3.2c0-1.3,1-2.3,2.3-2.3c1.3,0,1.9,0.4,2.3,0.6l-0.5,1.6c-0.3-0.2-0.8-0.5-1.3-0.5c-0.3,0-0.6,0.2-0.6,0.5
		c0,0.7,3,0.8,3,3.1C125.8,60.3,125,61.4,123.1,61.4z M129.2,57.9l-0.9-1.4l-0.9,1.4l-1.4,0l1.5-2.3l-1.3-2l1.4,0l0.7,1l0.7-1l1.4,0
		l-1.3,2l1.6,2.3L129.2,57.9z"/>
</g>
<g id="XMLID_4833_">
	<g id="XMLID_4834_">
		<path id="XMLID_4841_" class="st1" d="M65.8,95.9c-0.2,0-0.3,0-0.5,0l0,0c-0.1,0-0.3,0-0.4,0c-0.2,0-0.3,0-0.5-0.1
			c-0.1,0-0.2,0-0.3-0.1l0,0c-2-0.3-3.5-0.9-4.5-1.8l0,0c-0.1-0.1-0.2-0.2-0.3-0.3c-0.1-0.1-0.2-0.2-0.2-0.3
			c-0.1-0.1-0.1-0.2-0.2-0.3c-0.1-0.1-0.1-0.2-0.2-0.3c0,0,0,0,0,0c0,0,0,0-0.1,0.1L58.5,93l-0.1,0.1c0,0-0.1,0.1-0.1,0.1
			c0,0-0.1,0.1-0.2,0.1L58,93.4c0,0-0.1,0.1-0.1,0.1l0,0c0,0-0.1,0.1-0.2,0.1l-0.1,0c0,0-0.1,0.1-0.2,0.1l0,0
			c-0.1,0-0.1,0.1-0.2,0.1l-0.1,0C57.1,94,57,94,57,94l-0.1,0c-0.1,0-0.2,0.1-0.2,0.1l0,0c-0.1,0-0.1,0.1-0.2,0.1l-0.1,0
			c-0.1,0-0.2,0.1-0.3,0.1l0,0c-0.1,0-0.2,0.1-0.2,0.1l-0.1,0c-0.1,0-0.2,0-0.3,0.1c0,0,0,0,0,0c-0.1,0-0.2,0-0.3,0.1l-0.1,0
			c-0.1,0-0.2,0-0.2,0l-0.1,0c-0.1,0-0.2,0-0.3,0l-0.1,0c-0.1,0-0.2,0-0.3,0l-0.1,0c-0.1,0-0.2,0-0.3,0l0,0c-0.1,0-0.2,0-0.3,0
			l-0.1,0c-0.1,0-0.2,0-0.3-0.1c-0.1,0-0.2,0-0.3-0.1c0,0-0.1,0-0.1,0c-0.1,0-0.1,0-0.2-0.1c0,0-0.1,0-0.1,0c-0.1,0-0.1,0-0.2,0
			c-0.1,0-0.1,0-0.2-0.1c0,0-0.1,0-0.1,0c-1.6-0.6-2.4-1.8-2.8-2.7l0,0c0-0.1-0.1-0.1-0.1-0.2l0,0c0-0.1,0-0.1-0.1-0.2l0,0
			c0-0.1-0.1-0.2-0.1-0.3c0,0-0.1,0-0.1,0c-0.1,0-0.3,0-0.4,0.1l0,0c-0.1,0-0.2,0-0.4,0l0,0c-0.1,0-0.1,0-0.2,0l0,0
			c-0.1,0-0.3,0-0.4,0l0,0c-0.1,0-0.2,0-0.4,0l-0.1,0c-0.2,0-0.5,0-0.7,0l0,0c-2.1-0.2-3.9-1.1-5-2.7l0,0c-0.1-0.1-0.2-0.2-0.2-0.3
			l0,0c-0.1-0.1-0.2-0.3-0.2-0.4c0-0.1-0.1-0.2-0.1-0.3l0-0.1c0-0.1-0.1-0.2-0.1-0.2l0-0.1c0-0.1-0.1-0.2-0.1-0.3l0,0
			c0-0.1-0.1-0.2-0.1-0.3l0-0.1c-0.1-0.2-0.1-0.4-0.1-0.6l0,0c0-0.1,0-0.2,0-0.3l0,0c0-0.1,0-0.2,0-0.3l0,0l0,0c0-0.1,0-0.2,0-0.3
			l0,0c0-0.2,0-0.4,0-0.6l0,0c0-0.2,0-0.4,0.1-0.6l0,0c0-0.2,0.1-0.4,0.1-0.6l0.7,0.1L40,82.9c0-0.2,0.1-0.4,0.2-0.6l0,0
			c0.2-0.5,0.4-1,0.6-1.4c0.1-0.2,0.2-0.3,0.3-0.5l0,0c0.2-0.3,0.4-0.5,0.6-0.7l0,0c0.1-0.1,0.1-0.1,0.2-0.2l0,0
			c0.2-0.2,0.5-0.4,0.7-0.6l0,0c0.1,0,0.1-0.1,0.2-0.1l0,0c0.1,0,0.1-0.1,0.2-0.1l0,0l0,0c0.2-0.1,0.4-0.2,0.6-0.3l0,0
			c0.1,0,0.1,0,0.2-0.1l0,0c0.1,0,0.1,0,0.2-0.1l0,0l0,0c0.2,0,0.3-0.1,0.5-0.1l0,0c0.1,0,0.1,0,0.2,0l0,0c0.1,0,0.1,0,0.2,0l0,0
			c0.1,0,0.1,0,0.2,0l0.1,0l0,0c0,0,0.1,0,0.1,0c0.5-1.3,1.8-3,4.3-3c0.3,0,0.6,0,0.9,0.1c0.1-0.2,0.1-0.5,0.2-0.8
			c0.1-0.2,0.1-0.4,0.2-0.5l0,0c0,0,0-0.1,0.1-0.2l0,0c0.1-0.1,0.1-0.2,0.2-0.3l0-0.1c0-0.1,0.1-0.1,0.1-0.2l0,0
			c0.1-0.2,0.2-0.4,0.3-0.6l0,0l0,0c0,0,0.1-0.1,0.1-0.1l0,0c0.1-0.2,0.3-0.4,0.4-0.6l0,0l0,0c0.3-0.4,0.7-0.7,1.1-1l0,0
			c0.2-0.1,0.4-0.3,0.6-0.4l0,0c0.1-0.1,0.2-0.1,0.3-0.2l0,0c0.1-0.1,0.2-0.1,0.3-0.1l0,0c0.1,0,0.2-0.1,0.3-0.1c0,0,0.1,0,0.1,0
			l0,0l0.3-0.1l0.1,0l0,0c0.1,0,0.1,0,0.2,0l0.1,0c0.1,0,0.1,0,0.2-0.1l0.1,0c0.1,0,0.1,0,0.2,0c0,0,0.1,0,0.1,0c0.1,0,0.1,0,0.2,0
			c0,0,0.1,0,0.1,0c0.1,0,0.1,0,0.2,0c0,0,0.1,0,0.1,0c0.1,0,0.1,0,0.2,0l0.1,0c0.1,0,0.1,0,0.2,0c0,0,0.1,0,0.1,0
			c0.1,0,0.2,0,0.3,0c0.1,0,0.3,0,0.4,0l0.1,0c0.1,0,0.3,0,0.4,0l0,0c1.3,0.1,2.5,0.3,3.6,0.9l0,0l0.1,0c0.1,0.1,0.3,0.1,0.4,0.2
			l0,0c1.3,0.8,2,1.7,2.4,2.4c0.6-0.2,1.6-0.5,2.7-0.5l0,0c0.1,0,0.2,0,0.2,0c0.1,0,0.2,0,0.4,0l0.1,0c0.1,0,0.1,0,0.2,0l0.1,0
			c0.1,0,0.3,0,0.4,0c0,0,0.1,0,0.1,0c0,0,0.1,0,0.2,0c0,0,0.1,0,0.1,0c0.1,0,0.1,0,0.2,0c0.1,0,0.1,0,0.2,0l0,0c0,0,0.1,0,0.1,0
			c0.1,0,0.2,0.1,0.3,0.1c0,0,0.1,0,0.1,0l0,0c0.1,0,0.1,0,0.2,0.1c0,0,0.1,0,0.1,0.1c0.1,0,0.1,0.1,0.2,0.1l0,0c0,0,0,0,0.1,0
			c0.1,0.1,0.2,0.1,0.3,0.2c0,0,0.1,0,0.1,0c0.1,0,0.2,0.1,0.2,0.2c0,0,0.1,0.1,0.1,0.1c0.1,0.1,0.1,0.1,0.2,0.2
			c0,0,0.1,0.1,0.1,0.1c0.1,0.1,0.2,0.2,0.3,0.2c0.1,0.1,0.2,0.2,0.3,0.2c0,0,0.1,0.1,0.1,0.1c0,0,0.1,0.1,0.1,0.1
			c0.1,0.1,0.1,0.1,0.2,0.2l0,0c1.6,1.8,1.8,3.5,1.7,4.4l0,0l0.1,0c0.1,0,0.2,0,0.3,0l0.3,0c0,0,0.1,0,0.1,0l0.1,0c0,0,0.1,0,0.1,0
			l0.1,0c0.1,0,0.1,0,0.2,0l0.1,0c0.1,0,0.1,0,0.2,0l0.1,0c0.1,0,0.2,0,0.2,0c0.1,0,0.1,0,0.2,0c0,0,0.1,0,0.1,0c0,0,0.1,0,0.1,0
			c0,0,0.1,0,0.1,0l0.1,0c0.1,0,0.2,0,0.3,0.1l0.1,0c0.1,0,0.1,0,0.2,0l0.1,0c0.2,0.1,0.4,0.1,0.6,0.2l0,0c0.5,0.2,1,0.5,1.4,0.8
			l0,0l0,0c0.1,0.1,0.2,0.1,0.3,0.2l0,0c0.1,0.1,0.2,0.2,0.3,0.2l0,0c0.1,0.1,0.2,0.2,0.2,0.2l0,0c0,0,0,0,0,0.1
			c0.1,0.1,0.2,0.2,0.3,0.3c0.1,0.1,0.1,0.2,0.2,0.3c0,0,0,0.1,0.1,0.1c0,0.1,0.1,0.2,0.1,0.2c0,0,0,0.1,0.1,0.1
			c0,0.1,0.1,0.1,0.1,0.2c0,0.1,0,0.1,0.1,0.2c0,0,0,0.1,0,0.1c0.8,2.1,0.1,4.8-1.7,6.5c-0.1,0.1-0.1,0.1-0.2,0.2
			c0,0-0.1,0.1-0.1,0.1c0,0-0.1,0.1-0.1,0.1c-0.1,0.1-0.1,0.1-0.2,0.1c0,0-0.1,0.1-0.1,0.1c0,0-0.1,0.1-0.1,0.1
			c-0.1,0-0.1,0.1-0.2,0.1c0,0-0.1,0-0.1,0.1c0,0-0.1,0-0.1,0.1l0,0l-0.1,0c0,0-0.1,0-0.1,0c-0.1,0-0.1,0-0.2,0.1l0,0
			c0,0-0.1,0-0.1,0c-0.1,0-0.2,0.1-0.3,0.1c0,0-0.1,0-0.1,0l0,0c-0.1,0-0.2,0-0.2,0.1c0,0-0.1,0-0.1,0c-0.1,0-0.2,0-0.3,0
			c0,0,0,0.1-0.1,0.1l0,0c0,0-0.1,0.1-0.1,0.1l0,0c0,0-0.1,0.1-0.1,0.1l0,0l0,0c0,0-0.1,0.1-0.1,0.1l0,0c0,0-0.1,0.1-0.1,0.1l0,0
			c0,0-0.1,0.1-0.1,0.1l0,0c-0.1,0.1-0.3,0.2-0.4,0.3l0,0c-0.1,0-0.1,0.1-0.2,0.1l0,0c-0.2,0.1-0.4,0.2-0.6,0.3
			c-0.1,0-0.1,0-0.2,0.1c0,0-0.1,0-0.1,0c0,0-0.1,0-0.1,0c-0.1,0-0.1,0-0.2,0l0,0c0,0-0.1,0-0.1,0c0,0-0.1,0-0.1,0l-0.1,0
			c-0.1,0-0.2,0-0.3,0l-0.1,0c-0.1,0-0.3,0-0.4,0c-0.1,0-0.1,0-0.2,0l0,0c-0.5,0-0.9-0.1-1.4-0.2c0,0-0.1,0.1-0.1,0.1l0,0
			c0,0.1-0.1,0.1-0.1,0.2c0,0-0.1,0.1-0.1,0.1l0,0.1c0,0,0,0.1-0.1,0.1l0,0c-0.1,0.1-0.1,0.2-0.2,0.2l0,0.1c0,0-0.1,0.1-0.1,0.1
			l0,0.1c-0.1,0.1-0.2,0.3-0.4,0.4l0,0c0,0-0.1,0.1-0.1,0.1l0,0c-0.1,0.1-0.2,0.2-0.3,0.3l0,0l0,0c-0.1,0-0.1,0.1-0.2,0.1l0,0
			C69.1,95.4,67.6,95.9,65.8,95.9L65.8,95.9z"/>
		<g id="XMLID_4837_">
			<path id="XMLID_4838_" class="st2" d="M51.4,75.9c0,0,0.5-5.8,6.8-6c5.7-0.2,7.1,3.7,7.1,3.7s4.1-2,7.1,0.6
				c2.9,2.7,2.1,5.3,2.1,5.3s4.2-0.7,6.4,2.2c2.2,2.9-0.3,8.1-3.7,8c0,0-1.4,2.9-5.4,1.6c0,0-1.7,4.6-7.4,3.8
				c-5.6-0.8-5.6-3.7-5.6-3.7s-2,3.1-5.7,2.5c-3.7-0.6-3.8-3.9-3.8-3.9s-5.7,1.7-8.2-2.8c-2.3-4.2,1.2-9.3,4.9-8.6
				C46.1,78.7,46.8,74.8,51.4,75.9z"/>
		</g>
	</g>
</g>
<g id="XMLID_4742_">
	<g id="XMLID_4745_">
		<path id="XMLID_4750_" class="st1" d="M112.2,97.5c-0.2,0-0.3,0-0.5,0l0,0c-0.1,0-0.3,0-0.4,0c-0.2,0-0.3,0-0.5-0.1
			c-0.1,0-0.2,0-0.3-0.1l0,0c-1.9-0.3-3.4-0.9-4.4-1.8l0,0c-0.1-0.1-0.2-0.2-0.3-0.3c-0.1-0.1-0.2-0.2-0.2-0.3
			c-0.1-0.1-0.1-0.2-0.2-0.3c-0.1-0.1-0.1-0.2-0.2-0.3c0,0,0,0,0,0c0,0,0,0-0.1,0.1l-0.1,0.1l-0.1,0.1c0,0-0.1,0.1-0.1,0.1
			c0,0-0.1,0.1-0.2,0.1l-0.1,0c0,0-0.1,0.1-0.1,0.1l0,0c0,0-0.1,0.1-0.2,0.1l-0.1,0c0,0-0.1,0.1-0.2,0.1l0,0c-0.1,0-0.1,0.1-0.2,0.1
			l-0.1,0c-0.1,0-0.1,0.1-0.2,0.1l-0.1,0c-0.1,0-0.1,0.1-0.2,0.1l0,0c-0.1,0-0.1,0.1-0.2,0.1l-0.1,0c-0.1,0-0.2,0.1-0.3,0.1l0,0
			c-0.1,0-0.2,0.1-0.2,0.1l-0.1,0c-0.1,0-0.2,0-0.3,0.1c0,0,0,0,0,0c-0.1,0-0.2,0-0.3,0.1l-0.1,0c-0.1,0-0.2,0-0.2,0l-0.1,0
			c-0.1,0-0.2,0-0.3,0l-0.1,0c-0.1,0-0.2,0-0.3,0l-0.1,0c-0.1,0-0.2,0-0.3,0l0,0c-0.1,0-0.2,0-0.3,0l-0.1,0c-0.1,0-0.2,0-0.3,0
			c-0.1,0-0.2,0-0.3-0.1c0,0-0.1,0-0.1,0c-0.1,0-0.1,0-0.2-0.1c0,0-0.1,0-0.1,0c0,0-0.1,0-0.2,0c-0.1,0-0.1,0-0.2-0.1
			c0,0-0.1,0-0.1,0c-1.6-0.6-2.4-1.8-2.7-2.6l0,0c0-0.1-0.1-0.1-0.1-0.2l0,0c0-0.1,0-0.1-0.1-0.2l0,0c0-0.1-0.1-0.2-0.1-0.3
			c0,0-0.1,0-0.1,0c-0.1,0-0.3,0-0.4,0.1l0,0c-0.1,0-0.2,0-0.3,0l0,0c-0.1,0-0.1,0-0.2,0l0,0c-0.1,0-0.3,0-0.4,0l0,0
			c-0.1,0-0.2,0-0.4,0l-0.1,0c-0.2,0-0.5,0-0.7,0l0,0c-2.1-0.2-3.8-1.1-4.9-2.6l0,0c-0.1-0.1-0.2-0.2-0.2-0.3l0,0
			c-0.1-0.1-0.2-0.2-0.2-0.4c0-0.1-0.1-0.2-0.1-0.3l0-0.1c0-0.1-0.1-0.1-0.1-0.2l0-0.1c0-0.1-0.1-0.2-0.1-0.3l0,0
			c0-0.1-0.1-0.2-0.1-0.3l0-0.1c-0.1-0.2-0.1-0.4-0.1-0.6l0,0c0-0.1,0-0.2,0-0.3l0,0c0-0.1,0-0.2,0-0.3l0,0l0,0c0-0.1,0-0.2,0-0.3
			l0,0c0-0.2,0-0.4,0-0.6l0,0c0-0.2,0-0.4,0.1-0.6l0,0c0-0.2,0.1-0.4,0.1-0.6l0.7,0.1l-0.7-0.2c0-0.2,0.1-0.4,0.2-0.6l0,0
			c0.2-0.5,0.4-0.9,0.6-1.4c0.1-0.2,0.2-0.3,0.3-0.5l0,0c0.2-0.3,0.4-0.5,0.6-0.7l0,0c0.1-0.1,0.1-0.1,0.2-0.2l0,0
			c0.2-0.2,0.5-0.4,0.7-0.6l0,0c0.1,0,0.1-0.1,0.2-0.1l0,0c0,0,0.1-0.1,0.2-0.1l0,0l0,0c0.2-0.1,0.4-0.2,0.6-0.3l0,0
			c0.1,0,0.1,0,0.2-0.1l0,0c0.1,0,0.1,0,0.2-0.1l0,0l0,0c0.2,0,0.3-0.1,0.5-0.1l0,0c0.1,0,0.1,0,0.2,0l0,0c0.1,0,0.1,0,0.2,0l0,0
			c0.1,0,0.1,0,0.2,0l0.1,0l0,0c0,0,0.1,0,0.1,0c0.5-1.3,1.7-2.9,4.3-2.9c0.3,0,0.6,0,0.9,0.1c0.1-0.2,0.1-0.5,0.2-0.8
			c0.1-0.2,0.1-0.4,0.2-0.5l0,0c0,0,0-0.1,0.1-0.2l0,0c0-0.1,0.1-0.2,0.2-0.3l0-0.1c0-0.1,0.1-0.1,0.1-0.2l0,0
			c0.1-0.2,0.2-0.4,0.3-0.6l0,0l0,0c0,0,0.1-0.1,0.1-0.1l0,0c0.1-0.2,0.3-0.4,0.4-0.6l0,0l0,0c0.3-0.4,0.7-0.7,1-0.9l0,0
			c0.2-0.1,0.4-0.3,0.6-0.4l0,0c0.1-0.1,0.2-0.1,0.3-0.2l0,0c0.1-0.1,0.2-0.1,0.3-0.1l0,0c0.1,0,0.2-0.1,0.3-0.1c0,0,0.1,0,0.1,0
			l0,0l0.3-0.1l0.1,0l0,0c0.1,0,0.1,0,0.2,0l0.1,0c0.1,0,0.1,0,0.2-0.1l0.1,0c0.1,0,0.1,0,0.2,0c0,0,0.1,0,0.1,0c0.1,0,0.1,0,0.2,0
			c0,0,0.1,0,0.1,0c0.1,0,0.1,0,0.2,0c0,0,0.1,0,0.1,0c0.1,0,0.1,0,0.2,0l0.1,0c0.1,0,0.1,0,0.2,0c0,0,0.1,0,0.1,0
			c0.1,0,0.2,0,0.3,0c0.1,0,0.2,0,0.4,0l0.1,0c0.1,0,0.3,0,0.4,0l0,0c1.3,0.1,2.5,0.3,3.5,0.8l0,0l0.1,0c0.1,0.1,0.3,0.1,0.4,0.2
			l0,0c1.3,0.7,2,1.7,2.4,2.3c0.6-0.2,1.6-0.5,2.7-0.5l0,0c0.1,0,0.2,0,0.2,0c0.1,0,0.2,0,0.4,0l0.1,0c0.1,0,0.1,0,0.2,0l0.1,0
			c0.1,0,0.3,0,0.4,0c0,0,0.1,0,0.1,0c0,0,0.1,0,0.2,0c0,0,0.1,0,0.1,0c0.1,0,0.1,0,0.2,0c0.1,0,0.1,0,0.2,0l0,0c0,0,0.1,0,0.1,0
			c0.1,0,0.2,0.1,0.3,0.1c0,0,0.1,0,0.1,0l0,0c0.1,0,0.1,0,0.2,0.1c0,0,0.1,0,0.1,0.1c0.1,0,0.1,0.1,0.2,0.1l0,0c0,0,0,0,0.1,0
			c0.1,0.1,0.2,0.1,0.3,0.2c0,0,0.1,0,0.1,0c0.1,0,0.2,0.1,0.2,0.1c0,0,0.1,0.1,0.1,0.1c0.1,0.1,0.1,0.1,0.2,0.2c0,0,0.1,0,0.1,0.1
			c0.1,0.1,0.2,0.2,0.3,0.2c0.1,0.1,0.2,0.2,0.3,0.2c0,0,0.1,0.1,0.1,0.1c0,0,0.1,0.1,0.1,0.1c0.1,0.1,0.1,0.1,0.2,0.2l0,0
			c1.5,1.7,1.7,3.4,1.7,4.3l0,0l0.1,0c0.1,0,0.2,0,0.3,0l0.2,0c0,0,0.1,0,0.1,0l0.1,0c0,0,0.1,0,0.1,0l0.1,0c0,0,0.1,0,0.1,0l0.1,0
			c0.1,0,0.1,0,0.2,0l0.1,0c0.1,0,0.1,0,0.2,0c0.1,0,0.1,0,0.2,0c0,0,0.1,0,0.1,0c0,0,0.1,0,0.1,0c0,0,0.1,0,0.1,0l0.1,0
			c0.1,0,0.2,0,0.3,0.1l0.1,0c0.1,0,0.1,0,0.2,0l0.1,0c0.2,0.1,0.4,0.1,0.6,0.2l0,0c0.5,0.2,1,0.5,1.4,0.8l0,0l0,0
			c0.1,0.1,0.2,0.1,0.3,0.2l0,0c0.1,0.1,0.2,0.2,0.3,0.2l0,0c0.1,0.1,0.2,0.2,0.2,0.2l0,0c0,0,0,0,0,0c0.1,0.1,0.2,0.2,0.3,0.3
			c0.1,0.1,0.1,0.2,0.2,0.3c0,0,0,0.1,0.1,0.1c0,0.1,0.1,0.2,0.1,0.2c0,0,0,0.1,0.1,0.1c0,0.1,0.1,0.1,0.1,0.2c0,0.1,0,0.1,0.1,0.2
			c0,0,0,0.1,0,0.1c0.8,2.1,0.1,4.8-1.6,6.4c-0.1,0.1-0.1,0.1-0.2,0.2c0,0-0.1,0.1-0.1,0.1c0,0-0.1,0.1-0.1,0.1
			c-0.1,0.1-0.1,0.1-0.2,0.1c0,0-0.1,0.1-0.1,0.1c0,0-0.1,0.1-0.1,0.1c-0.1,0-0.1,0.1-0.2,0.1c0,0-0.1,0-0.1,0.1c0,0-0.1,0-0.1,0.1
			l0,0l-0.1,0c0,0-0.1,0-0.1,0c-0.1,0-0.1,0-0.2,0.1l0,0c0,0-0.1,0-0.1,0c-0.1,0-0.2,0.1-0.3,0.1c0,0-0.1,0-0.1,0l0,0
			c-0.1,0-0.2,0-0.2,0c0,0-0.1,0-0.1,0c-0.1,0-0.2,0-0.3,0c0,0,0,0.1-0.1,0.1l0,0c0,0-0.1,0.1-0.1,0.1l0,0c0,0-0.1,0.1-0.1,0.1l0,0
			l0,0c0,0-0.1,0.1-0.1,0.1l0,0c0,0-0.1,0.1-0.1,0.1l0,0c0,0-0.1,0.1-0.1,0.1l0,0c-0.1,0.1-0.3,0.2-0.4,0.3l0,0
			c-0.1,0-0.1,0.1-0.2,0.1l0,0c-0.2,0.1-0.4,0.2-0.6,0.3c-0.1,0-0.1,0-0.2,0.1c0,0-0.1,0-0.1,0c0,0-0.1,0-0.1,0c-0.1,0-0.1,0-0.2,0
			l0,0c0,0-0.1,0-0.1,0c0,0-0.1,0-0.1,0l-0.1,0c-0.1,0-0.2,0-0.3,0l-0.1,0c-0.1,0-0.3,0-0.4,0c-0.1,0-0.1,0-0.2,0l0,0
			c-0.4,0-0.9-0.1-1.4-0.2c0,0,0,0.1,0,0.1l0,0c0,0.1-0.1,0.1-0.1,0.2c0,0-0.1,0.1-0.1,0.1l0,0.1c0,0,0,0.1-0.1,0.1l0,0
			c-0.1,0.1-0.1,0.2-0.2,0.2l0,0.1c0,0-0.1,0.1-0.1,0.1l0,0.1c-0.1,0.1-0.2,0.3-0.4,0.4l0,0c0,0-0.1,0.1-0.1,0.1l0,0
			c-0.1,0.1-0.2,0.2-0.3,0.3l0,0l0,0c-0.1,0-0.1,0.1-0.2,0.1l0,0C115.5,97,114,97.5,112.2,97.5L112.2,97.5z"/>
		<g id="XMLID_4746_">
			<path id="XMLID_4749_" class="st2" d="M98,77.7c0,0,0.5-5.7,6.7-5.9c5.6-0.2,7,3.6,7,3.6s4.1-2,7,0.6c2.9,2.6,2.1,5.3,2.1,5.3
				s4.2-0.7,6.4,2.2c2.2,2.9-0.3,8-3.6,7.9c0,0-1.4,2.9-5.4,1.5c0,0-1.7,4.5-7.3,3.7c-5.5-0.8-5.5-3.6-5.5-3.6s-2,3.1-5.6,2.5
				c-3.6-0.6-3.7-3.8-3.7-3.8s-5.6,1.7-8.1-2.7c-2.3-4.1,1.2-9.2,4.8-8.5C92.8,80.5,93.5,76.6,98,77.7z"/>
		</g>
	</g>
</g>
<g id="XMLID_4822_">
	<g id="XMLID_4824_">
		<path id="XMLID_4830_" class="st1" d="M42.5,120.9c-0.3,0-0.6,0-0.8,0l0,0c-0.2,0-0.5,0-0.7-0.1c-0.3,0-0.5-0.1-0.8-0.1
			c-0.2,0-0.4-0.1-0.5-0.1l0,0c-3.2-0.5-5.7-1.5-7.3-3l0,0c-0.2-0.1-0.3-0.3-0.5-0.4c-0.1-0.1-0.3-0.3-0.4-0.4
			c-0.1-0.2-0.2-0.3-0.3-0.4c-0.1-0.2-0.2-0.3-0.3-0.4c0,0,0,0,0,0c0,0-0.1,0.1-0.1,0.1l-0.1,0.1l-0.2,0.2c-0.1,0.1-0.1,0.1-0.2,0.2
			c0,0-0.2,0.2-0.3,0.2l-0.1,0.1c-0.1,0.1-0.2,0.1-0.2,0.2l-0.1,0.1c-0.1,0.1-0.2,0.1-0.3,0.2l-0.1,0.1c-0.1,0.1-0.2,0.1-0.3,0.2
			l-0.1,0c-0.1,0.1-0.2,0.1-0.3,0.2l-0.1,0.1c-0.1,0.1-0.2,0.1-0.3,0.2l-0.1,0c-0.1,0.1-0.2,0.1-0.4,0.2l-0.1,0
			c-0.1,0.1-0.2,0.1-0.3,0.1l-0.1,0c-0.1,0.1-0.3,0.1-0.4,0.2l0,0c-0.1,0-0.3,0.1-0.4,0.1l-0.1,0c-0.1,0-0.3,0.1-0.4,0.1
			c0,0,0,0-0.1,0c-0.1,0-0.3,0.1-0.4,0.1l-0.1,0c-0.1,0-0.3,0-0.4,0.1l-0.1,0c-0.2,0-0.3,0-0.5,0l-0.1,0c-0.1,0-0.3,0-0.4,0l-0.1,0
			c-0.2,0-0.4,0-0.5,0l-0.1,0c-0.2,0-0.3,0-0.5,0l-0.1,0c-0.2,0-0.4,0-0.6-0.1c-0.2,0-0.4-0.1-0.6-0.1c0,0-0.2,0-0.2,0
			c-0.1,0-0.2-0.1-0.3-0.1c-0.1,0-0.2,0-0.2-0.1c-0.1,0-0.2-0.1-0.2-0.1c-0.1,0-0.2-0.1-0.3-0.1c0,0-0.2-0.1-0.2-0.1
			c-2.7-1-3.9-2.9-4.5-4.3l0,0c0-0.1-0.1-0.2-0.1-0.3l0,0c0-0.1-0.1-0.2-0.1-0.3l0,0c0-0.2-0.1-0.3-0.1-0.5c0,0-0.2,0-0.2,0
			c-0.2,0-0.5,0.1-0.7,0.1l0,0c-0.2,0-0.4,0-0.6,0.1l0,0c-0.1,0-0.2,0-0.3,0l0,0c-0.2,0-0.4,0-0.6,0l0,0c-0.2,0-0.4,0-0.6,0l-0.1,0
			c-0.4,0-0.8,0-1.1-0.1l0,0c-3.5-0.3-6.3-1.8-8.2-4.4l0,0c-0.1-0.2-0.3-0.4-0.4-0.6l0,0c-0.1-0.2-0.3-0.4-0.4-0.6
			c-0.1-0.1-0.2-0.3-0.2-0.4L1,106.8c-0.1-0.1-0.1-0.2-0.2-0.4l0-0.1c-0.1-0.2-0.1-0.3-0.2-0.5l0-0.1c-0.1-0.2-0.1-0.3-0.1-0.4
			l0-0.1c-0.1-0.3-0.2-0.6-0.2-0.9l0-0.1c0-0.1-0.1-0.3-0.1-0.4l0,0c0-0.2,0-0.3-0.1-0.5l0,0l0,0c0-0.2,0-0.3,0-0.5l0-0.1
			c0-0.3,0-0.7,0-1l0,0c0-0.3,0-0.7,0.1-1l0,0c0-0.4,0.1-0.7,0.2-1l1.1,0.2l-1.1-0.3c0.1-0.3,0.2-0.6,0.3-1l0,0
			c0.3-0.8,0.6-1.6,1-2.3c0.2-0.3,0.3-0.6,0.5-0.8l0,0c0.3-0.4,0.7-0.8,1-1.2l0,0c0.1-0.1,0.2-0.2,0.3-0.3l0,0
			c0.4-0.4,0.8-0.7,1.2-1l0,0C4.8,93,4.9,92.9,5,92.8l0,0c0.1-0.1,0.2-0.1,0.3-0.2l0,0l0,0c0.3-0.2,0.7-0.3,1-0.5l0,0
			c0.1,0,0.2-0.1,0.3-0.1l0,0c0.1,0,0.2-0.1,0.3-0.1l0,0l0,0c0.3-0.1,0.5-0.1,0.8-0.2l0,0c0.1,0,0.2,0,0.3,0l0.1,0
			c0.1,0,0.2,0,0.4,0l0,0c0.1,0,0.2,0,0.3,0l0.1,0l0,0c0.1,0,0.1,0,0.2,0c0.8-2.1,2.9-4.9,7.1-4.9c0.5,0,1,0,1.5,0.1
			c0.1-0.4,0.2-0.8,0.4-1.3c0.1-0.3,0.2-0.6,0.3-0.9l0,0c0-0.1,0.1-0.2,0.1-0.3l0,0c0.1-0.2,0.2-0.4,0.3-0.6l0-0.1
			c0-0.1,0.1-0.2,0.1-0.3l0,0c0.2-0.3,0.4-0.6,0.6-0.9l0,0l0,0c0.1-0.1,0.1-0.1,0.2-0.2l0-0.1c0.2-0.3,0.5-0.6,0.7-0.9l0,0l0,0
			c0.5-0.6,1.1-1.1,1.7-1.6l0,0c0.3-0.2,0.6-0.4,0.9-0.6l0.1,0c0.2-0.1,0.3-0.2,0.5-0.3l0,0c0.2-0.1,0.3-0.2,0.5-0.2l0.1,0
			c0.2-0.1,0.3-0.1,0.5-0.2c0,0,0.2-0.1,0.2-0.1l0,0l0.4-0.1l0.2-0.1l0,0c0.1,0,0.2-0.1,0.3-0.1l0.1,0c0.1,0,0.2-0.1,0.3-0.1l0.2,0
			c0.1,0,0.2,0,0.3-0.1c0.1,0,0.1,0,0.2,0c0.1,0,0.2,0,0.3-0.1c0.1,0,0.1,0,0.2,0c0.1,0,0.2,0,0.3,0c0.1,0,0.1,0,0.2,0
			c0.1,0,0.2,0,0.3,0l0.2,0c0.1,0,0.2,0,0.3,0c0,0,0.1,0,0.2,0c0.2,0,0.4,0,0.5,0c0.2,0,0.4,0,0.6,0l0.2,0c0.2,0,0.5,0,0.7,0l0,0
			c2.2,0.1,4.1,0.6,5.8,1.4l0,0l0.1,0.1c0.2,0.1,0.4,0.2,0.6,0.3l0,0c2.1,1.2,3.3,2.8,3.9,3.9c1-0.4,2.6-0.8,4.5-0.9l0,0
			c0.1,0,0.3,0,0.4,0c0.2,0,0.4,0,0.6,0l0.1,0c0.1,0,0.2,0,0.3,0l0.1,0c0.2,0,0.4,0,0.6,0.1c0,0,0.1,0,0.1,0c0.1,0,0.2,0,0.3,0
			c0,0,0.2,0,0.2,0c0.1,0,0.2,0,0.3,0.1c0.1,0,0.2,0,0.3,0.1l0,0c0.1,0,0.1,0,0.2,0.1c0.2,0,0.3,0.1,0.5,0.1c0,0,0.1,0,0.1,0.1
			l0.1,0c0.1,0,0.2,0.1,0.3,0.1c0.1,0,0.1,0.1,0.2,0.1c0.1,0,0.2,0.1,0.3,0.2l0,0c0,0,0.1,0,0.1,0.1c0.2,0.1,0.3,0.2,0.5,0.3
			c0,0,0.1,0.1,0.1,0.1c0.1,0.1,0.3,0.2,0.4,0.2c0,0,0.2,0.1,0.2,0.1c0.1,0.1,0.2,0.2,0.3,0.3c0,0,0.1,0.1,0.1,0.1
			c0.2,0.1,0.3,0.3,0.5,0.4c0.2,0.1,0.3,0.3,0.4,0.4c0.1,0.1,0.1,0.1,0.2,0.2c0,0,0.2,0.2,0.2,0.2c0.1,0.1,0.2,0.2,0.3,0.3l0,0
			c2.5,2.9,2.9,5.6,2.8,7.1l0,0l0.1,0c0.1,0,0.3,0,0.5,0l0.4,0c0.1,0,0.1,0,0.2,0l0.1,0c0.1,0,0.2,0,0.2,0l0.1,0c0.1,0,0.2,0,0.2,0
			l0.1,0c0.1,0,0.2,0,0.3,0l0.1,0c0.1,0,0.2,0,0.4,0c0.1,0,0.2,0,0.3,0c0.1,0,0.2,0,0.2,0c0.1,0,0.1,0,0.2,0c0.1,0,0.1,0,0.2,0
			l0.2,0c0.1,0,0.3,0.1,0.4,0.1l0.1,0c0.1,0,0.2,0.1,0.3,0.1l0.1,0c0.3,0.1,0.6,0.2,1,0.3l0,0c0.8,0.3,1.6,0.8,2.3,1.3l0.1,0l0,0
			c0.1,0.1,0.3,0.2,0.4,0.3l0,0c0.2,0.1,0.3,0.3,0.4,0.4l0.1,0.1c0.1,0.1,0.3,0.3,0.4,0.4l0,0c0,0,0,0.1,0.1,0.1
			c0.2,0.2,0.3,0.4,0.4,0.5c0.1,0.1,0.2,0.3,0.3,0.5c0,0,0.1,0.1,0.1,0.1c0.1,0.1,0.1,0.3,0.2,0.4c0,0.1,0.1,0.1,0.1,0.2
			c0.1,0.1,0.1,0.2,0.2,0.4c0,0.1,0.1,0.2,0.1,0.3c0,0.1,0,0.1,0.1,0.2c1.2,3.4,0.1,7.9-2.7,10.6c-0.1,0.1-0.2,0.2-0.3,0.2
			c-0.1,0.1-0.1,0.1-0.2,0.2c-0.1,0-0.1,0.1-0.2,0.1c-0.1,0.1-0.2,0.2-0.3,0.2c-0.1,0-0.1,0.1-0.2,0.1c-0.1,0.1-0.2,0.1-0.2,0.2
			c-0.1,0.1-0.2,0.1-0.3,0.2c-0.1,0-0.1,0.1-0.2,0.1c-0.1,0-0.1,0.1-0.2,0.1l0,0l-0.2,0.1c0,0-0.2,0.1-0.2,0.1
			c-0.1,0-0.2,0.1-0.3,0.1l0,0c-0.1,0-0.1,0-0.2,0.1c-0.1,0-0.3,0.1-0.4,0.1c-0.1,0-0.1,0-0.2,0l0,0c-0.1,0-0.3,0.1-0.4,0.1
			c0,0-0.1,0-0.1,0c-0.2,0-0.3,0-0.5,0.1c0,0.1-0.1,0.1-0.1,0.2l0,0c0,0.1-0.1,0.1-0.1,0.2l0,0c0,0.1-0.1,0.1-0.2,0.2l0,0l0,0
			c-0.1,0.1-0.1,0.1-0.2,0.2l0,0c-0.1,0.1-0.1,0.1-0.2,0.2l-0.1,0.1c-0.1,0.1-0.2,0.1-0.2,0.2l-0.1,0c-0.2,0.2-0.5,0.4-0.7,0.5l0,0
			c-0.1,0.1-0.2,0.1-0.4,0.2l0,0c-0.3,0.2-0.7,0.3-1,0.4c-0.1,0-0.2,0.1-0.3,0.1c-0.1,0-0.1,0-0.2,0.1c-0.1,0-0.1,0-0.2,0
			c-0.1,0-0.2,0.1-0.3,0.1l0,0c0,0-0.1,0-0.2,0c-0.1,0-0.2,0-0.2,0l-0.1,0c-0.2,0-0.3,0-0.5,0.1l-0.1,0c-0.2,0-0.4,0-0.7,0
			c-0.1,0-0.2,0-0.3,0l0,0c-0.7,0-1.5-0.1-2.3-0.4c0,0-0.1,0.1-0.1,0.1l0,0c-0.1,0.1-0.1,0.2-0.2,0.4c0,0-0.1,0.1-0.1,0.2l-0.1,0.1
			c0,0.1-0.1,0.1-0.1,0.2l0,0c-0.1,0.1-0.2,0.3-0.3,0.4l-0.1,0.1c0,0.1-0.1,0.1-0.2,0.2l-0.1,0.1c-0.2,0.2-0.4,0.4-0.6,0.7l-0.1,0.1
			c-0.1,0.1-0.1,0.1-0.2,0.2l0,0c-0.2,0.2-0.3,0.3-0.5,0.5l0,0l0,0c-0.1,0.1-0.2,0.1-0.3,0.2l0,0C47.9,120.1,45.4,120.9,42.5,120.9
			L42.5,120.9z"/>
		<g id="XMLID_4826_">
			<path id="XMLID_4829_" class="st2" d="M19,88.2c0,0,0.9-9.4,11.1-9.8c9.3-0.3,11.6,6,11.6,6s6.8-3.3,11.6,1.1
				c4.8,4.4,3.5,8.7,3.5,8.7s6.9-1.2,10.5,3.6c3.6,4.8-0.4,13.2-6,13.1c0,0-2.3,4.8-8.9,2.6c0,0-2.9,7.5-12,6.2
				c-9.2-1.4-9.2-6-9.2-6s-3.3,5.1-9.3,4.1c-6-1.1-6.2-6.3-6.2-6.3s-9.3,2.9-13.4-4.5c-3.7-6.8,2-15.2,8-14
				C10.3,92.9,11.5,86.4,19,88.2z"/>
		</g>
	</g>
</g>
<g id="XMLID_4753_">
	<g id="XMLID_4754_">
		<path id="XMLID_4761_" class="st1" d="M145.6,122.3c-0.3,0-0.6,0-0.9,0l0,0c-0.3,0-0.5,0-0.8-0.1c-0.3,0-0.6-0.1-0.8-0.1
			c-0.2,0-0.4-0.1-0.6-0.1l0,0c-3.6-0.6-6.3-1.7-8.1-3.3l0,0c-0.2-0.2-0.4-0.3-0.5-0.5c-0.2-0.2-0.3-0.3-0.4-0.5
			c-0.1-0.2-0.3-0.3-0.4-0.5c-0.1-0.2-0.2-0.3-0.3-0.5c0,0,0,0,0,0c0,0-0.1,0.1-0.1,0.1l-0.1,0.1l-0.3,0.2c-0.1,0.1-0.2,0.1-0.2,0.2
			c0,0-0.2,0.2-0.3,0.2l-0.1,0.1c-0.1,0.1-0.2,0.1-0.3,0.2l-0.1,0.1c-0.1,0.1-0.2,0.1-0.3,0.2l-0.1,0.1c-0.1,0.1-0.2,0.1-0.3,0.2
			l-0.1,0c-0.1,0.1-0.2,0.1-0.4,0.2l-0.1,0.1c-0.1,0.1-0.2,0.1-0.3,0.2l-0.1,0c-0.1,0.1-0.3,0.1-0.4,0.2l-0.1,0
			c-0.1,0.1-0.3,0.1-0.4,0.2l-0.1,0c-0.2,0.1-0.3,0.1-0.5,0.2l0,0c-0.1,0-0.3,0.1-0.4,0.1l-0.1,0c-0.2,0-0.3,0.1-0.5,0.1
			c0,0,0,0-0.1,0c-0.2,0-0.3,0.1-0.5,0.1l-0.1,0c-0.1,0-0.3,0-0.4,0.1l-0.1,0c-0.2,0-0.4,0-0.5,0l-0.1,0c-0.2,0-0.3,0-0.5,0l-0.1,0
			c-0.2,0-0.4,0-0.6,0l-0.1,0c-0.2,0-0.4,0-0.5,0l-0.2,0c-0.2,0-0.4-0.1-0.6-0.1c-0.2,0-0.4-0.1-0.6-0.1c-0.1,0-0.2-0.1-0.2-0.1
			c-0.1,0-0.2-0.1-0.4-0.1c-0.1,0-0.2-0.1-0.3-0.1c-0.1,0-0.2-0.1-0.3-0.1c-0.1,0-0.2-0.1-0.3-0.1c-0.1,0-0.2-0.1-0.2-0.1
			c-3-1.1-4.4-3.2-5-4.8l0,0c0-0.1-0.1-0.2-0.1-0.4l0,0c0-0.1-0.1-0.2-0.1-0.3l0,0c-0.1-0.2-0.1-0.3-0.1-0.5c0,0-0.2,0-0.2,0
			c-0.2,0-0.5,0.1-0.8,0.1l0,0c-0.2,0-0.4,0.1-0.6,0.1l0,0c-0.1,0-0.2,0-0.4,0l-0.1,0c-0.2,0-0.5,0-0.7,0l0,0c-0.2,0-0.4,0-0.7,0
			l-0.1,0c-0.4,0-0.9,0-1.3-0.1l0,0c-3.9-0.3-7-2-9.1-4.8l0,0c-0.2-0.2-0.3-0.4-0.4-0.6l0,0c-0.1-0.2-0.3-0.5-0.4-0.7
			c-0.1-0.2-0.2-0.3-0.3-0.5l-0.1-0.1c-0.1-0.1-0.1-0.3-0.2-0.4l0-0.1c-0.1-0.2-0.1-0.3-0.2-0.5l0-0.1c-0.1-0.2-0.1-0.3-0.2-0.5
			l0-0.1c-0.1-0.3-0.2-0.7-0.3-1.1l0-0.1c0-0.2-0.1-0.3-0.1-0.5l0-0.1c0-0.2,0-0.3-0.1-0.5l0,0l0,0c0-0.2,0-0.4,0-0.5l0-0.1
			c0-0.4,0-0.8,0-1.1l0-0.1c0-0.4,0.1-0.7,0.1-1.1l0,0c0.1-0.4,0.1-0.8,0.2-1.1l1.3,0.3l-1.3-0.3c0.1-0.4,0.2-0.7,0.3-1.1l0,0
			c0.3-0.9,0.7-1.7,1.2-2.5c0.2-0.3,0.4-0.6,0.6-0.9l0,0c0.3-0.5,0.7-0.9,1.1-1.3l0,0c0.1-0.1,0.2-0.2,0.3-0.3l0,0
			c0.4-0.4,0.9-0.8,1.3-1.1l0,0c0.1-0.1,0.2-0.1,0.3-0.2l0.1,0c0.1-0.1,0.2-0.1,0.3-0.2l0,0l0,0c0.4-0.2,0.8-0.4,1.1-0.5l0,0
			c0.1,0,0.2-0.1,0.4-0.1l0,0c0.1,0,0.2-0.1,0.3-0.1l0,0l0,0c0.3-0.1,0.6-0.1,0.9-0.2l0,0c0.1,0,0.3,0,0.4-0.1l0.1,0
			c0.1,0,0.3,0,0.4,0l0,0c0.1,0,0.2,0,0.3,0l0.1,0l0,0c0.1,0,0.1,0,0.2,0c0.9-2.3,3.2-5.4,7.9-5.4c0.6,0,1.1,0,1.7,0.1
			c0.1-0.4,0.2-0.9,0.4-1.4c0.1-0.3,0.2-0.7,0.4-1l0,0c0-0.1,0.1-0.2,0.1-0.3l0,0c0.1-0.2,0.2-0.4,0.3-0.6l0.1-0.1
			c0-0.1,0.1-0.2,0.2-0.3l0,0c0.2-0.4,0.4-0.7,0.6-1l0,0l0,0c0.1-0.1,0.1-0.2,0.2-0.2l0.1-0.1c0.3-0.4,0.5-0.7,0.8-1l0,0l0,0
			c0.6-0.6,1.2-1.2,1.9-1.7l0,0c0.3-0.2,0.7-0.5,1-0.7l0.1,0c0.2-0.1,0.4-0.2,0.5-0.3l0,0c0.2-0.1,0.4-0.2,0.5-0.3l0.1,0
			c0.2-0.1,0.4-0.2,0.6-0.2c0,0,0.2-0.1,0.2-0.1l0,0l0.5-0.2l0.2-0.1l0,0c0.1,0,0.2-0.1,0.3-0.1l0.1,0c0.1,0,0.2-0.1,0.4-0.1l0.2,0
			c0.1,0,0.2-0.1,0.3-0.1c0.1,0,0.1,0,0.2,0c0.1,0,0.2,0,0.3-0.1c0.1,0,0.2,0,0.2,0c0.1,0,0.2,0,0.3-0.1c0.1,0,0.2,0,0.2,0
			c0.1,0,0.2,0,0.3,0l0.2,0c0.1,0,0.3,0,0.4,0c0,0,0.2,0,0.2,0c0.2,0,0.4,0,0.6,0c0.2,0,0.5,0,0.7,0l0.2,0c0.3,0,0.5,0,0.8,0l0,0
			c2.4,0.1,4.6,0.6,6.5,1.6l0,0l0.1,0.1c0.3,0.1,0.5,0.3,0.7,0.4l0.1,0c2.4,1.4,3.7,3.1,4.4,4.3c1.1-0.4,2.9-0.9,5-1l0,0
			c0.2,0,0.3,0,0.4,0c0.2,0,0.4,0,0.7,0l0.1,0c0.1,0,0.3,0,0.4,0l0.1,0c0.2,0,0.5,0.1,0.7,0.1c0,0,0.1,0,0.1,0c0.1,0,0.2,0,0.3,0.1
			c0,0,0.2,0,0.3,0.1c0.1,0,0.2,0,0.3,0.1c0.1,0,0.2,0,0.3,0.1l0,0c0.1,0,0.1,0,0.2,0.1c0.2,0.1,0.3,0.1,0.5,0.2
			c0.1,0,0.1,0,0.2,0.1l0.1,0c0.1,0,0.2,0.1,0.4,0.1c0.1,0,0.1,0.1,0.2,0.1c0.1,0.1,0.2,0.1,0.4,0.2l0.1,0c0,0,0.1,0,0.1,0.1
			c0.2,0.1,0.4,0.2,0.5,0.3c0,0,0.1,0.1,0.1,0.1c0.1,0.1,0.3,0.2,0.4,0.3c0.1,0,0.2,0.1,0.2,0.1c0.1,0.1,0.3,0.2,0.4,0.3
			c0,0,0.1,0.1,0.2,0.1c0.2,0.2,0.4,0.3,0.5,0.4c0.2,0.2,0.3,0.3,0.5,0.5c0.1,0.1,0.1,0.1,0.2,0.2c0,0,0.2,0.2,0.2,0.2
			c0.1,0.1,0.2,0.2,0.3,0.4l0,0.1c2.8,3.2,3.2,6.3,3.2,7.9l0,0l0.1,0c0.2,0,0.3,0,0.5,0l0.5,0c0.1,0,0.2,0,0.2,0l0.2,0
			c0.1,0,0.2,0,0.3,0l0.1,0c0.1,0,0.2,0,0.3,0l0.1,0c0.1,0,0.2,0,0.3,0l0.1,0c0.1,0,0.3,0,0.4,0.1c0.1,0,0.2,0,0.3,0
			c0.1,0,0.2,0,0.2,0c0.1,0,0.1,0,0.2,0c0.1,0,0.2,0,0.2,0l0.2,0c0.2,0,0.3,0.1,0.5,0.1l0.1,0c0.1,0,0.2,0.1,0.3,0.1l0.1,0
			c0.4,0.1,0.7,0.2,1.1,0.4l0,0c0.9,0.4,1.8,0.9,2.6,1.4l0.1,0.1l0,0c0.2,0.1,0.3,0.3,0.5,0.4l0,0c0.2,0.1,0.3,0.3,0.5,0.4l0.1,0.1
			c0.1,0.1,0.3,0.3,0.4,0.4l0,0c0,0,0.1,0.1,0.1,0.1c0.2,0.2,0.3,0.4,0.5,0.6c0.1,0.2,0.2,0.3,0.4,0.5c0,0.1,0.1,0.1,0.1,0.2
			c0.1,0.1,0.2,0.3,0.2,0.4c0,0.1,0.1,0.2,0.1,0.2c0.1,0.1,0.1,0.3,0.2,0.4c0,0.1,0.1,0.2,0.1,0.3c0,0.1,0,0.1,0.1,0.2
			c1.4,3.8,0.1,8.8-3,11.8c-0.1,0.1-0.2,0.2-0.3,0.3c-0.1,0.1-0.2,0.1-0.2,0.2c-0.1,0.1-0.1,0.1-0.2,0.2c-0.1,0.1-0.2,0.2-0.4,0.3
			c-0.1,0.1-0.1,0.1-0.2,0.2c-0.1,0.1-0.2,0.1-0.3,0.2c-0.1,0.1-0.2,0.1-0.3,0.2c-0.1,0-0.2,0.1-0.2,0.1c-0.1,0-0.1,0.1-0.2,0.1l0,0
			l-0.2,0.1c0,0-0.2,0.1-0.2,0.1c-0.1,0-0.2,0.1-0.3,0.1l0,0c-0.1,0-0.1,0.1-0.2,0.1c-0.2,0.1-0.3,0.1-0.5,0.1c-0.1,0-0.1,0-0.2,0
			l0,0c-0.1,0-0.3,0.1-0.4,0.1c0,0-0.1,0-0.1,0c-0.2,0-0.4,0.1-0.6,0.1c0,0.1-0.1,0.1-0.1,0.2l0,0c0,0.1-0.1,0.1-0.1,0.2l0,0.1
			c-0.1,0.1-0.1,0.1-0.2,0.2l0,0l0,0c-0.1,0.1-0.1,0.2-0.2,0.2l0,0.1c-0.1,0.1-0.2,0.2-0.2,0.2l-0.1,0.1c-0.1,0.1-0.2,0.2-0.3,0.2
			l-0.1,0c-0.2,0.2-0.5,0.4-0.8,0.6l0,0c-0.1,0.1-0.3,0.2-0.4,0.2l-0.1,0c-0.4,0.2-0.7,0.4-1.1,0.5c-0.1,0-0.2,0.1-0.3,0.1
			c-0.1,0-0.1,0-0.2,0.1c-0.1,0-0.1,0-0.2,0.1c-0.1,0-0.2,0.1-0.4,0.1l0,0c-0.1,0-0.1,0-0.2,0c-0.1,0-0.2,0-0.3,0l-0.1,0
			c-0.2,0-0.4,0-0.5,0.1l-0.1,0c-0.2,0-0.5,0-0.7,0c-0.1,0-0.2,0-0.4,0l-0.1,0c-0.8,0-1.7-0.2-2.6-0.4c0,0.1-0.1,0.2-0.1,0.2l0,0
			c-0.1,0.1-0.2,0.3-0.2,0.4c0,0-0.1,0.2-0.1,0.2l-0.1,0.1c0,0.1-0.1,0.1-0.1,0.2l0,0c-0.1,0.1-0.2,0.3-0.3,0.4l-0.1,0.1
			c-0.1,0.1-0.1,0.1-0.2,0.2l-0.1,0.1c-0.2,0.2-0.4,0.5-0.7,0.7l-0.1,0.1c-0.1,0.1-0.2,0.2-0.2,0.2l0,0c-0.2,0.2-0.4,0.3-0.5,0.5
			l0,0l0,0c-0.1,0.1-0.2,0.2-0.3,0.2l0,0C151.6,121.4,148.8,122.3,145.6,122.3L145.6,122.3z"/>
		<g id="XMLID_4757_">
			<path id="XMLID_4758_" class="st2" d="M119.5,86c0,0,0.9-10.5,12.4-10.9c10.4-0.3,12.9,6.7,12.9,6.7s7.5-3.7,12.9,1.2
				c5.3,4.8,3.8,9.7,3.8,9.7s7.7-1.3,11.7,4c4,5.3-0.5,14.7-6.7,14.5c0,0-2.5,5.3-9.8,2.8c0,0-3.2,8.3-13.4,6.8
				c-10.2-1.5-10.2-6.7-10.2-6.7s-3.7,5.7-10.4,4.5c-6.7-1.2-6.8-7-6.8-7s-10.4,3.2-14.9-5c-4.2-7.5,2.2-16.9,8.8-15.5
				C109.8,91.1,111.2,84,119.5,86z"/>
		</g>
	</g>
</g>
<g id="XMLID_4773_">
	<g id="XMLID_4774_">
		<path id="XMLID_4781_" class="st1" d="M96.6,134c-0.4,0-0.7,0-1.1,0l0,0c-0.3,0-0.6,0-0.9-0.1c-0.3,0-0.7-0.1-1-0.1
			c-0.2,0-0.5-0.1-0.7-0.1l0,0c-4.2-0.7-7.5-2-9.7-4l0,0c-0.2-0.2-0.4-0.4-0.6-0.6c-0.2-0.2-0.4-0.4-0.5-0.6
			c-0.2-0.2-0.3-0.4-0.5-0.6c-0.1-0.2-0.3-0.4-0.4-0.6c0,0,0,0,0-0.1c0,0-0.1,0.1-0.1,0.1l-0.1,0.1l-0.3,0.3
			c-0.1,0.1-0.2,0.2-0.3,0.2c0,0-0.3,0.2-0.3,0.3l-0.1,0.1c-0.1,0.1-0.2,0.2-0.3,0.2l-0.1,0.1c-0.1,0.1-0.2,0.2-0.3,0.2l-0.1,0.1
			c-0.1,0.1-0.2,0.1-0.3,0.2l-0.1,0.1c-0.1,0.1-0.3,0.2-0.4,0.3l-0.1,0.1c-0.1,0.1-0.2,0.1-0.4,0.2l-0.1,0.1
			c-0.2,0.1-0.3,0.2-0.5,0.2l-0.1,0c-0.2,0.1-0.3,0.1-0.5,0.2l-0.1,0.1c-0.2,0.1-0.4,0.1-0.6,0.2l-0.1,0c-0.2,0.1-0.3,0.1-0.5,0.2
			l-0.1,0c-0.2,0.1-0.4,0.1-0.6,0.1c0,0,0,0-0.1,0c-0.2,0-0.4,0.1-0.6,0.1l-0.2,0c-0.2,0-0.4,0.1-0.5,0.1l-0.1,0
			c-0.2,0-0.4,0-0.7,0.1l-0.2,0c-0.2,0-0.4,0-0.6,0l-0.1,0c-0.3,0-0.5,0-0.7,0l-0.1,0c-0.2,0-0.4,0-0.6-0.1l-0.2,0
			c-0.2,0-0.5-0.1-0.7-0.1c-0.3,0-0.5-0.1-0.7-0.1c-0.1,0-0.3-0.1-0.3-0.1c-0.2,0-0.3-0.1-0.4-0.1c-0.1,0-0.2-0.1-0.3-0.1
			c-0.1,0-0.2-0.1-0.3-0.1c-0.1,0-0.2-0.1-0.3-0.1c-0.1,0-0.2-0.1-0.2-0.1c-3.5-1.4-5.2-3.9-6-5.7l0,0c-0.1-0.1-0.1-0.3-0.2-0.4l0,0
			c-0.1-0.1-0.1-0.3-0.1-0.4l0,0c-0.1-0.2-0.1-0.4-0.2-0.6c0,0-0.2,0-0.2,0c-0.3,0.1-0.6,0.1-1,0.1l-0.1,0c-0.2,0-0.5,0.1-0.8,0.1
			l0,0c-0.1,0-0.3,0-0.4,0l-0.1,0c-0.3,0-0.6,0-0.8,0l-0.1,0c-0.2,0-0.5,0-0.8,0l-0.2,0c-0.5,0-1,0-1.5-0.1l0,0
			c-4.6-0.4-8.4-2.4-10.9-5.8l0,0c-0.2-0.3-0.3-0.5-0.5-0.7l0-0.1c-0.2-0.3-0.3-0.5-0.5-0.8c-0.1-0.2-0.2-0.4-0.3-0.6l-0.1-0.2
			c-0.1-0.2-0.2-0.3-0.2-0.5l-0.1-0.1c-0.1-0.2-0.2-0.4-0.2-0.6l0-0.1c-0.1-0.2-0.1-0.4-0.2-0.5l0-0.1c-0.1-0.4-0.2-0.8-0.3-1.3
			l0-0.1c0-0.2-0.1-0.4-0.1-0.6l0-0.1c0-0.2-0.1-0.4-0.1-0.6l0,0l0-0.1c0-0.2,0-0.4-0.1-0.6l0-0.1c0-0.4,0-0.9,0-1.4l0-0.1
			c0-0.4,0.1-0.9,0.1-1.3l0,0c0.1-0.5,0.1-0.9,0.2-1.3l1.5,0.3l-1.5-0.4c0.1-0.4,0.2-0.9,0.4-1.3l0,0c0.3-1,0.8-2.1,1.4-3
			c0.2-0.4,0.5-0.7,0.7-1.1l0-0.1c0.4-0.6,0.9-1.1,1.4-1.6l0,0c0.1-0.1,0.2-0.2,0.3-0.3l0,0c0.5-0.5,1-0.9,1.6-1.3l0,0
			c0.1-0.1,0.2-0.2,0.4-0.2l0.1,0c0.1-0.1,0.2-0.1,0.4-0.2l0,0l0,0c0.4-0.2,0.9-0.5,1.4-0.6l0.1,0c0.1-0.1,0.3-0.1,0.4-0.2l0.1,0
			c0.1,0,0.3-0.1,0.4-0.1l0,0l0,0c0.3-0.1,0.7-0.2,1-0.2l0.1,0c0.1,0,0.3,0,0.5-0.1l0.1,0c0.2,0,0.3,0,0.5,0l0,0c0.1,0,0.3,0,0.4,0
			l0.1,0l0,0c0.1,0,0.2,0,0.2,0c1-2.8,3.8-6.5,9.4-6.5c0.7,0,1.3,0.1,2.1,0.2c0.1-0.5,0.3-1.1,0.5-1.7c0.1-0.4,0.3-0.8,0.4-1.1
			l0-0.1c0-0.1,0.1-0.2,0.1-0.3l0,0c0.1-0.2,0.2-0.5,0.4-0.7l0.1-0.1c0.1-0.1,0.1-0.2,0.2-0.3l0,0c0.2-0.4,0.5-0.8,0.7-1.2l0,0l0,0
			c0.1-0.1,0.1-0.2,0.2-0.3l0.1-0.1c0.3-0.4,0.6-0.8,1-1.2l0,0l0,0c0.7-0.8,1.5-1.5,2.3-2.1l0,0c0.4-0.3,0.8-0.6,1.2-0.8l0.1,0
			c0.2-0.1,0.4-0.2,0.7-0.4l0.1,0c0.2-0.1,0.4-0.2,0.7-0.3l0.1,0c0.2-0.1,0.5-0.2,0.7-0.3c0,0,0.2-0.1,0.3-0.1l0,0l0.6-0.2l0.2-0.1
			l0.1,0c0.1,0,0.2-0.1,0.3-0.1l0.2,0c0.1,0,0.3-0.1,0.4-0.1l0.2-0.1c0.1,0,0.3-0.1,0.4-0.1c0.1,0,0.2,0,0.3-0.1
			c0.1,0,0.3,0,0.4-0.1c0.1,0,0.2,0,0.3,0c0.1,0,0.3,0,0.4-0.1c0.1,0,0.2,0,0.3,0c0.1,0,0.3,0,0.4,0l0.3,0c0.2,0,0.3,0,0.5,0
			c0,0,0.2,0,0.2,0c0.2,0,0.5,0,0.7,0c0.3,0,0.5,0,0.8,0l0.3,0c0.3,0,0.6,0,1,0l0.1,0c2.9,0.1,5.5,0.8,7.8,1.9l0,0l0.1,0.1
			c0.3,0.2,0.6,0.3,0.9,0.5l0.1,0c2.8,1.6,4.4,3.7,5.2,5.1c1.3-0.5,3.5-1.1,5.9-1.2l0,0c0.2,0,0.4,0,0.5,0c0.3,0,0.5,0,0.8,0l0.1,0
			c0.2,0,0.3,0,0.5,0l0.1,0c0.3,0,0.6,0.1,0.9,0.1c0,0,0.1,0,0.2,0c0.1,0,0.2,0,0.3,0.1c0,0,0.2,0,0.3,0.1c0.1,0,0.2,0.1,0.4,0.1
			c0.1,0,0.2,0.1,0.3,0.1l0.1,0c0.1,0,0.2,0,0.2,0.1c0.2,0.1,0.4,0.1,0.6,0.2c0.1,0,0.1,0,0.2,0.1l0.1,0c0.1,0.1,0.3,0.1,0.4,0.2
			c0.1,0,0.2,0.1,0.3,0.1c0.1,0.1,0.3,0.1,0.4,0.2l0.1,0c0.1,0,0.1,0.1,0.2,0.1c0.2,0.1,0.4,0.2,0.6,0.4c0,0,0.1,0.1,0.1,0.1
			c0.2,0.1,0.3,0.2,0.5,0.3c0.1,0,0.2,0.1,0.2,0.1c0.2,0.1,0.3,0.2,0.5,0.3c0,0,0.1,0.1,0.2,0.1c0.2,0.2,0.4,0.4,0.6,0.5
			c0.2,0.2,0.4,0.4,0.6,0.5c0.1,0.1,0.2,0.2,0.2,0.2c0,0,0.2,0.2,0.3,0.3c0.1,0.1,0.3,0.3,0.4,0.4l0.1,0.1c3.4,3.8,3.8,7.5,3.8,9.4
			l0,0l0.1,0c0.2,0,0.4,0,0.6,0l0.5,0c0.1,0,0.2,0,0.3,0l0.2,0c0.1,0,0.2,0,0.3,0l0.2,0c0.1,0,0.2,0,0.3,0l0.2,0c0.1,0,0.2,0,0.4,0
			l0.1,0c0.2,0,0.3,0,0.5,0.1c0.1,0,0.2,0,0.3,0.1c0.1,0,0.3,0,0.3,0c0.1,0,0.2,0,0.2,0c0.1,0,0.2,0,0.3,0.1l0.2,0
			c0.2,0,0.4,0.1,0.6,0.1l0.2,0c0.1,0,0.2,0.1,0.4,0.1l0.1,0c0.4,0.1,0.9,0.3,1.3,0.4l0,0c1.1,0.4,2.2,1,3.1,1.7l0.1,0.1l0,0
			c0.2,0.1,0.4,0.3,0.6,0.5l0,0c0.2,0.2,0.4,0.3,0.6,0.5l0.1,0.1c0.2,0.2,0.3,0.3,0.5,0.5l0,0c0,0,0.1,0.1,0.1,0.1
			c0.2,0.2,0.4,0.5,0.6,0.7c0.1,0.2,0.3,0.4,0.4,0.6c0,0.1,0.1,0.1,0.1,0.2c0.1,0.2,0.2,0.3,0.3,0.5c0,0.1,0.1,0.2,0.1,0.3
			c0.1,0.2,0.2,0.3,0.2,0.5c0.1,0.1,0.1,0.2,0.2,0.4c0,0.1,0.1,0.1,0.1,0.2c1.6,4.6,0.1,10.5-3.6,14.1c-0.1,0.1-0.2,0.2-0.4,0.3
			c-0.1,0.1-0.2,0.2-0.3,0.2c-0.1,0.1-0.2,0.1-0.2,0.2c-0.1,0.1-0.3,0.2-0.4,0.3c-0.1,0.1-0.2,0.1-0.3,0.2c-0.1,0.1-0.2,0.1-0.3,0.2
			c-0.1,0.1-0.3,0.2-0.4,0.2c-0.1,0.1-0.2,0.1-0.3,0.2c-0.1,0-0.2,0.1-0.2,0.1l-0.1,0.1l-0.3,0.1c-0.1,0-0.2,0.1-0.2,0.1
			c-0.1,0-0.2,0.1-0.3,0.1l0,0c-0.1,0-0.2,0.1-0.3,0.1c-0.2,0.1-0.4,0.1-0.6,0.2c-0.1,0-0.1,0-0.2,0.1l0,0c-0.2,0-0.3,0.1-0.5,0.1
			c0,0-0.1,0-0.2,0c-0.2,0-0.4,0.1-0.7,0.1c-0.1,0.1-0.1,0.1-0.1,0.2l0,0.1c-0.1,0.1-0.1,0.2-0.2,0.2l-0.1,0.1
			c-0.1,0.1-0.1,0.2-0.2,0.3l0,0l0,0c-0.1,0.1-0.2,0.2-0.3,0.3l-0.1,0.1c-0.1,0.1-0.2,0.2-0.3,0.3l-0.1,0.1
			c-0.1,0.1-0.2,0.2-0.3,0.3l-0.1,0.1c-0.3,0.2-0.6,0.5-0.9,0.7l-0.1,0c-0.2,0.1-0.3,0.2-0.5,0.3l-0.1,0c-0.4,0.2-0.9,0.4-1.3,0.6
			c-0.1,0-0.2,0.1-0.3,0.1c-0.1,0-0.2,0.1-0.3,0.1c-0.1,0-0.2,0-0.2,0.1c-0.1,0-0.3,0.1-0.4,0.1l0,0c-0.1,0-0.1,0-0.2,0
			c-0.1,0-0.2,0-0.3,0.1l-0.2,0c-0.2,0-0.4,0.1-0.6,0.1l-0.1,0c-0.3,0-0.6,0-0.9,0c-0.1,0-0.3,0-0.4,0l-0.1,0c-1,0-2-0.2-3.1-0.5
			c0,0.1-0.1,0.2-0.1,0.2l0,0.1c-0.1,0.2-0.2,0.3-0.3,0.5c0,0-0.1,0.2-0.2,0.3l-0.1,0.1c-0.1,0.1-0.1,0.2-0.2,0.2l0,0.1
			c-0.1,0.2-0.2,0.3-0.4,0.5l-0.1,0.1c-0.1,0.1-0.1,0.2-0.2,0.3l-0.1,0.1c-0.2,0.3-0.5,0.6-0.8,0.9l-0.1,0.1
			c-0.1,0.1-0.2,0.2-0.3,0.3l0,0c-0.2,0.2-0.4,0.4-0.7,0.6l0,0l0,0c-0.1,0.1-0.2,0.2-0.3,0.3l0,0C103.8,132.9,100.5,134,96.6,134
			L96.6,134z"/>
		<g id="XMLID_4777_">
			<path id="XMLID_4778_" class="st2" d="M65.5,90.6c0,0,1.1-12.5,14.8-13c12.4-0.4,15.4,8,15.4,8s9-4.4,15.4,1.4
				c6.4,5.8,4.6,11.6,4.6,11.6s9.2-1.6,14,4.8c4.8,6.4-0.6,17.5-8,17.3c0,0-3,6.4-11.8,3.4c0,0-3.8,10-15.9,8.2
				c-12.2-1.8-12.2-8-12.2-8s-4.4,6.8-12.4,5.4c-8-1.4-8.2-8.4-8.2-8.4s-12.4,3.8-17.7-6c-5-9,2.6-20.1,10.6-18.5
				C53.9,96.8,55.5,88.2,65.5,90.6z"/>
		</g>
	</g>
</g>
</svg>
1
			c0.2,0.2,0.4,0.5,0.6,0.7c0.1,0.2,0.3,0.4,0.4,0.6c0,0.1,0.1,0.1,0.1,0.2c0.1,0.2,0.2,0.3,0.3,0.5c0,0.1,0.1,0.2,0.1,0.3
			c0.1,0.2,0.2,0.3,0.2,0.5c0.1,0.1,0.1,0.2,0.2,0.4c0,0.1,0.1,0.1,0.1,0.2c1.6,4.6,0.1,10.5-3.6,14.1c-0.1,0.1-0.2,0.2-0.4,0.3
			c-0.1,0.1-0.2,0.2-0.3,0.2c-0.1,0.1-0.2,0.1-0.2,0.2c-0.1,0.1-0.3,0.2-0.4,0.3c-0.1,0.1-0.2,0.1-0.3,0.2c-0.1,0.1-0.2,0.1-0.3,0.2
			c-0.1,0.1-0.3,0.2-0.4,0.2c-0.1,0.1-0.2,0.1-0.3,0.2c-0.1,0-0.2,0.1-0.2,0.1l-0.1,0.1l-0.3,0.1c-0.1,0-0.2,0.1-0.2,0.1
			c-0.1,0-0.2,0.1-0.3,0.1l0,0c-0.1,0-0.2,0.1-0.3,0.1c-0.2,0.1-0.4,0.1-0.6,0.2c-0.1,0-0.1,0-0.2,0.1l0,0c-0.2,0-0.3,0.1-0.5,0.1
			c0,0-0.1,0-0.2,0c-0.2,0-0.4,0.1-0.7,0.1c-0.1,0.1-0.1,0.1-0.1,0.2l0,0.1c-0.1,0.1-0.1,0.2-0.2,0.2l-0.1,0.1
			c-0.1,0.1-0.1,0.2-0.2,0.3l0,0l0,0c-0.1,0.1-0.2,0.2-0.3,0.3l-0.1,0.1c-0.1,0.1-0.2,0.2-0.3,0.3l-0.1,0.1
			c-0.1,0.1-0.2,0.2-0.3,0.3l-0.1,0.1c-0.3,0.2-0.6,0.5-0.9,0.7l-0.1,0c-0.2,0.1-0.3,0.2-0.5,0.3l-0.1,0c-0.4,0.2-0.9,0.4-1.3,0.6
			c-0.1,0-0.2,0.1-0.3,0.1c-0.1,0-0.2,0.1-0.3,0.1c-0.1,0-0.2,0-0.2,0.1c-0.1,0-0.3,0.1-0.4,0.1l0,0c-0.1,0-0.1,0-0.2,0
			c-0.1,0-0.2,0-0.3,0.1l-0.2,0c-0.2,0-0.4,0.1-0.6,0.1l-0.1,0c-0.3,0-0.6,0-0.9,0c-0.1,0-0.3,0-0.4,0l-0.1,0c-1,0-2-0.2-3.1-0.5
			c0,0.1-0.1,0.2-0.1,0.2l0,0.1c-0.1,0.2-0.2,0.3-0.3,0.5c0,0-0.1,0.2-0.2,0.3l-0.1,0.1c-0.1,0.1-0.1,0.2-0.2,0.2l0,0.1
			c-0.1,0.2-0.2,0.3-0.4,0.5l-0.1,0.1c-0.1,0.1-0.1,0.2-0.2,0.3l-0.1,0.1c-0.2,0.3-0.5,0.6-0.8,0.9l-0.1,0.1
			c-0.1,0.1-0.2,0.2-0.3,0.3l0,0c-0.2,0.2-0.4,0.4-0.7,0.6l0,0l0,0c-0.1,0.1-0.2,0.2-0.3,0.3l0,0C103.8,132.9,100.5,134,96.6,134
			L96.6,134z"/>
		<g id="XMLID_4777_">
			<path id="XMLID_4778_" class="st2" d="M65.5,90.6c0,0,1.1-12.5,14.8-13c12.4-0.4,15.4,8,15.4,8s9-4.4,15.4,1.4
				c6.4,5.8,4.6,11.6,4.6,11.6s9.2-1.6,14,4.8c4.8,6.4-0.6,17.5-8,17.3c0,0-3,6.4-11.8,3.4c0,0-3.8,10-15.9,8.2
				c-12.2-1.8-12.2-8-12.2-8s-4.4,6.8-12.4,5.4c-8-1.4-8.2-8.4-8.2-8.4s-12.4,3.8-17.7-6c-5-9,2.6-20.1,10.6-18.5
				C53.9,96.8,55.5,88.2,65.5,90.6z"/>
		</g>
	</g>
</g>
<g class="cloudy1">
	<path id="XMLID_20_" class="st2" d="M42.5,40.4c-0.2,0-0.4,0-0.6,0c-1.5-4.6-5.9-8-11.1-8c-6.4,0-11.7,5.2-11.7,11.7
		c0,0.1,0,0.2,0,0.2c-3.5,0.9-6.1,4-6.1,7.8c0,4.4,3.6,8,8,8c0.5,0,1-0.1,1.5-0.2c1.5,2,3.8,3.3,6.5,3.3c2.6,0,4.9-1.2,6.4-3.2
		c1.9,1.6,4.4,2.5,7,2.5c6.1,0,11.1-5,11.1-11.1S48.6,40.4,42.5,40.4z"/>
	<path id="XMLID_17_" class="st1" d="M28.4,55.9c-1.7,0-3.1-0.6-4.2-1.3l1.3-2.5c0.7,0.5,1.8,1.1,2.6,1.1c0.8,0,1.4-0.3,1.4-1
		c0-1.6-4.8-1.4-4.8-5c0-2,1.6-3.6,3.5-3.6c2,0,3,0.6,3.6,0.9l-0.9,2.6c-0.5-0.4-1.3-0.8-2.1-0.8c-0.5,0-1,0.4-0.9,0.8
		c0,1.2,4.8,1.3,4.8,4.9C32.6,54.1,31.4,55.9,28.4,55.9z M38,50.4l-1.4-2.1l-1.4,2.1l-2.2,0l2.4-3.6l-2.1-3.1l2.1,0l1.1,1.6l1.1-1.6
		l2.1,0l-2.1,3.1l2.4,3.6L38,50.4z"/>
</g>
<g class="cloudy2">
	<path id="XMLID_16_" class="st8" d="M164.8,14.1c-0.3,0-0.6,0-0.9,0c-2.4-7.3-9.3-12.6-17.4-12.6c-10.2,0-18.4,8.2-18.4,18.4
		c0,0.1,0,0.2,0,0.4c-5.5,1.3-9.6,6.3-9.6,12.3c0,7,5.7,12.6,12.6,12.6c0.8,0,1.6-0.1,2.4-0.2c2.3,3.1,6,5.2,10.2,5.2
		c4.1,0,7.7-2,10.1-5c3,2.5,6.9,4,11.1,4c9.7,0,17.5-7.8,17.5-17.5S174.5,14.1,164.8,14.1z"/>
	<path id="XMLID_13_" class="st1" d="M142.7,38.4c-2.7,0-4.8-0.9-6.6-2l2-3.9c1.1,0.8,2.9,1.7,4.1,1.7c1.3,0,2.1-0.5,2.1-1.6
		c0-2.5-7.6-2.1-7.6-7.8c0-3.1,2.5-5.6,5.6-5.7c3.1,0,4.7,0.9,5.6,1.4l-1.3,4.1c-0.8-0.6-2.1-1.3-3.3-1.3c-0.8,0-1.5,0.6-1.5,1.2
		c0,1.8,7.5,2,7.5,7.7C149.3,35.6,147.4,38.4,142.7,38.4z M157.8,29.8l-2.2-3.4l-2.1,3.4l-3.4,0l3.8-5.7l-3.3-4.9l3.4,0l1.7,2.6
		l1.7-2.6l3.4,0l-3.3,4.9l3.9,5.7L157.8,29.8z"/>
</g>
<g class="cloudy3">
	<path id="XMLID_12_" class="st4" d="M82.2,29.6c-0.1,0-0.2,0-0.3,0c-0.8-2.3-3-4-5.6-4c-3.3,0-5.9,2.6-5.9,5.9c0,0,0,0.1,0,0.1
		c-1.8,0.4-3.1,2-3.1,3.9c0,2.2,1.8,4.1,4.1,4.1c0.3,0,0.5,0,0.8-0.1c0.7,1,1.9,1.7,3.3,1.7c1.3,0,2.5-0.6,3.2-1.6
		c1,0.8,2.2,1.3,3.6,1.3c3.1,0,5.6-2.5,5.6-5.6C87.8,32.1,85.3,29.6,82.2,29.6z"/>
	<path id="XMLID_9_" class="st1" d="M75.1,37.4c-0.9,0-1.6-0.3-2.1-0.6l0.6-1.3c0.3,0.3,0.9,0.6,1.3,0.6c0.4,0,0.7-0.2,0.7-0.5
		c0-0.8-2.4-0.7-2.4-2.5c0-1,0.8-1.8,1.8-1.8c1,0,1.5,0.3,1.8,0.4L76.3,33c-0.3-0.2-0.7-0.4-1.1-0.4c-0.3,0-0.5,0.2-0.5,0.4
		c0,0.6,2.4,0.6,2.4,2.5C77.2,36.5,76.6,37.4,75.1,37.4z M79.9,34.7l-0.7-1.1l-0.7,1.1l-1.1,0l1.2-1.8l-1.1-1.6l1.1,0l0.5,0.8
		l0.5-0.8l1.1,0l-1.1,1.6l1.2,1.8L79.9,34.7z"/>
</g>
<g class="cloudy4">
	<path id="XMLID_8_" class="st6" d="M109.5,5.4c-0.1,0-0.3,0-0.4,0c-1.1-3.2-4-5.4-7.5-5.4c-4.4,0-7.9,3.6-7.9,7.9
		c0,0.1,0,0.1,0,0.2c-2.4,0.6-4.2,2.7-4.2,5.3c0,3,2.4,5.5,5.5,5.5c0.4,0,0.7,0,1.1-0.1c1,1.4,2.6,2.2,4.4,2.2
		c1.8,0,3.3-0.8,4.3-2.2c1.3,1.1,3,1.7,4.8,1.7c4.2,0,7.6-3.4,7.6-7.6S113.7,5.4,109.5,5.4z"/>
	<path id="XMLID_5_" class="st1" d="M100,15.9c-1.2,0-2.1-0.4-2.9-0.9l0.9-1.7c0.5,0.3,1.3,0.7,1.8,0.7c0.5,0,0.9-0.2,0.9-0.7
		c0-1.1-3.3-0.9-3.3-3.4c0-1.3,1.1-2.4,2.4-2.4c1.3,0,2,0.4,2.4,0.6l-0.6,1.8c-0.4-0.2-0.9-0.5-1.4-0.5c-0.4,0-0.6,0.2-0.6,0.5
		c0,0.8,3.2,0.9,3.3,3.3C102.8,14.7,102,15.9,100,15.9z M106.5,12.2l-0.9-1.5l-0.9,1.5l-1.5,0l1.6-2.5l-1.4-2.1l1.5,0l0.7,1.1
		l0.7-1.1l1.5,0l-1.4,2.1l1.7,2.5L106.5,12.2z"/>
</g>
<g class="cloudy5">
	<path id="XMLID_4_" class="st10" d="M132.1,51.5c-0.1,0-0.3,0-0.4,0c-1-3-3.8-5.1-7.1-5.1c-4.1,0-7.4,3.3-7.4,7.4c0,0,0,0.1,0,0.1
		c-2.2,0.5-3.9,2.6-3.9,5c0,2.8,2.3,5.1,5.1,5.1c0.3,0,0.7,0,1-0.1c0.9,1.3,2.4,2.1,4.1,2.1c1.7,0,3.1-0.8,4.1-2
		c1.2,1,2.8,1.6,4.5,1.6c3.9,0,7.1-3.2,7.1-7.1S136,51.5,132.1,51.5z"/>
	<path id="XMLID_1_" class="st1" d="M123.1,61.4c-1.1,0-2-0.4-2.7-0.8l0.8-1.6c0.4,0.3,1.2,0.7,1.7,0.7c0.5,0,0.9-0.2,0.9-0.6
		c0-1-3.1-0.9-3.1-3.2c0-1.3,1-2.3,2.3-2.3c1.3,0,1.9,0.4,2.3,0.6l-0.5,1.6c-0.3-0.2-0.8-0.5-1.3-0.5c-0.3,0-0.6,0.2-0.6,0.5
		c0,0.7,3,0.8,3,3.1C125.8,60.3,125,61.4,123.1,61.4z M129.2,57.9l-0.9-1.4l-0.9,1.4l-1.4,0l1.5-2.3l-1.3-2l1.4,0l0.7,1l0.7-1l1.4,0
		l-1.3,2l1.6,2.3L129.2,57.9z"/>
</g>
</svg>
