<svg xmlns="http://www.w3.org/2000/svg" viewBox="0 0 142 142" enable-background="new 0 0 142 142"><style type="text/css">.st0{fill:#34495E;} .st1{fill:#2AEA7C;} .st2{fill:#239B56;} .st3{fill:#2BCC71;} .st4{opacity:0.15;} .st5{fill:#E57873;} .st6{fill:#BC322B;} .st7{fill:#E74C3C;} .st8{fill:#65BEEF;} .st9{fill:#1D78AA;} .st10{fill:#3498DB;}</style><path class="st0" d="M141.5 79.8c-1.2 9.2-4.2 18.5-9.5 27.4-11.1 18.8-29.8 30.9-50.2 34.1-4.8.7-9.6 1-14.5.7-37.3-2-67.3-32.8-67.3-71 0-39.2 31.8-71 70.9-71 44.4 0 75.6 39.5 70.6 79.8z"/><path class="st1" d="M29.3 85.3c-.6-.3-.9-.7-.9-1v3.4c0 .4.3.7.9 1l39.5 19.2v-3.4l-39.5-19.2z"/><path class="st2" d="M113.5 84.4v.2s0 .1-.1.1c0 0 0 .1-.1.1l-.1.1-.1.1s-.1 0-.1.1h-.1c-.1 0-.2.1-.2.1l-39.5 19.2v3.4l39.5-19.2c.1 0 .2-.1.2-.1s.1 0 .1-.1l.1-.1v-3.7c.4-.3.4-.2.4-.2z"/><path class="st3" d="M72.6 108.1l.5-.2v-3.4c-.1.1-.3.1-.5.2h-.2c-.1 0-.2.1-.4.1l-.5.1h-1.1c-.2 0-.4 0-.5-.1l-.5-.1c-.2-.1-.3-.1-.4-.2v3.4l.2.1c.1 0 .2.1.2.1.1 0 .2 0 .3.1h2c.1 0 .3 0 .4-.1.1 0 .2-.1.4-.1 0 .1 0 .1.1.1zM112.6 85.3l-39.5 19.2c-.6.3-1.4.4-2.1.4-.8 0-1.5-.1-2.1-.4l-39.6-19.2c-1.2-.6-1.2-1.5 0-2.1l3.6-1.7 36-17.5c.6-.3 1.4-.4 2.1-.4.8 0 1.5.1 2.1.4l36 17.5 3.6 1.7c1.1.6 1.1 1.6-.1 2.1z"/><path class="st4" d="M73.1 64.1c-.6-.3-1.4-.4-2.1-.4-.8 0-1.5.1-2.1.4l-36 17.5 36 17.5.2.1c.1 0 .2.1.2.1l.3.1h1.9000000000000004c.1 0 .3 0 .4-.1.1 0 .2-.1.4-.1h.2l.5-.2 36-17.5-35.9-17.4z"/><path class="st5" d="M29.3 69c-.6-.3-.9-.7-.9-1v3.4c0 .4.3.7.9 1l39.5 19.2v-3.4l-39.5-19.2z"/><path class="st6" d="M113.5 68.1v.2s0 .1-.1.1c0 0 0 .1-.1.1l-.1.1-.1.1s-.1 0-.1.1h-.1c-.1 0-.2.1-.2.1l-39.6 19.3v3.4l39.5-19.2c.1 0 .2-.1.2-.1s.1 0 .1-.1l.1-.1v-4.1c.5 0 .5 0 .5.1z"/><path class="st7" d="M72.6 91.7l.5-.2v-3.4c-.1.1-.3.1-.5.2h-.2c-.1 0-.2.1-.4.1l-.5.1h-1.1c-.2 0-.4 0-.5-.1l-.5-.1c-.2-.1-.3-.1-.4-.2v3.4l.2.1c.1 0 .2.1.2.1.1 0 .2 0 .3.1h2c.1 0 .3 0 .4-.1.1 0 .2-.1.4-.1 0 .2 0 .2.1.1zM112.6 69l-39.5 19.2c-.6.3-1.4.4-2.1.4-.8 0-1.5-.1-2.1-.4l-39.6-19.2c-1.2-.6-1.2-1.5 0-2.1l3.6-1.7 36-17.5c.6-.3 1.4-.4 2.1-.4.8 0 1.5.1 2.1.4l36 17.5 3.6 1.7c1.1.6 1.1 1.5-.1 2.1z"/><path class="st4" d="M73.1 47.7c-.6-.3-1.4-.4-2.1-.4-.8 0-1.5.1-2.1.4l-36 17.5 36 17.5.2.1c.1 0 .2.1.2.1l.3.1h1.9000000000000004c.1 0 .3 0 .4-.1.1 0 .2-.1.4-.1h.2l.5-.2 36-17.5-35.9-17.4z"/><path class="st8" d="M29.3 52.6c-.6-.3-.9-.7-.9-1v3.4c0 .4.3.7.9 1l39.5 19.2v-3.4l-39.5-19.2z"/><path class="st9" d="M113.5 51.7v.2s0 .1-.1.1l-.1.1-.1.1-.1.1s-.1 0-.1.1h-.1c-.1 0-.2.1-.2.1l-39.6 19.3v3.4l39.5-19.2c.1 0 .2-.1.2-.1s.1 0 .1-.1l.1-.1v-3.7c.5-.4.5-.3.5-.3z"/><path class="st10" d="M72.6 75.4l.5-.2v-3.4c-.1.1-.3.1-.5.2h-.2c-.1 0-.2.1-.4.1l-.5.1h-1.1c-.2 0-.4 0-.5-.1l-.5-.1c-.2 0-.3-.1-.4-.2v3.4l.2.1c.1 0 .2.1.2.1l.3.1h2c.1 0 .3 0 .4-.1.1 0 .2-.1.4-.1 0 .1 0 .1.1.1zM70.9 31c.8 0 1.5.1 2.1.4l39.5 19.2c1.2.6 1.2 1.5 0 2.1l-39.4 19.1c-.6.3-1.4.4-2.1.4-.8 0-1.5-.1-2.1-.4l-39.6-19.2c-1.2-.6-1.2-1.5 0-2.1l39.5-19.2c.6-.2 1.4-.3 2.1-.3z"/></svg>