<svg xmlns="http://www.w3.org/2000/svg" viewBox="0 0 2944.8 807.8" enable-background="new 0 0 2944.8 807.8"><style type="text/css">.st0{fill:none;stroke:#B3B3B3;stroke-width:10;stroke-linecap:round;stroke-linejoin:round;stroke-miterlimit:10;} .st1{fill:none;stroke:#B3B3B3;stroke-width:10;stroke-linecap:round;stroke-miterlimit:10;} .st2{fill:#0077BF;} .st3{fill:none;stroke:#0077BF;stroke-width:10;stroke-linecap:round;stroke-linejoin:round;stroke-miterlimit:10;} .st4{fill:none;stroke:#0077BF;stroke-width:10;stroke-linecap:round;stroke-miterlimit:10;} .st5{fill:#34495E;} .st6{font-family:&apos;OpenSans-Semibold&apos;;} .st7{font-size:34.2222px;} .st8{fill:#0077BF;stroke:#0077BF;stroke-width:10;stroke-miterlimit:10;} .st9{fill:#F3F5F7;} .st10{fill:none;stroke:#F3F5F7;stroke-width:5;stroke-miterlimit:10;} .st11{fill:#F3F5F7;stroke:#F3F5F7;stroke-width:2;stroke-miterlimit:10;} .st12{fill-rule:evenodd;clip-rule:evenodd;fill:#0077BF;} .st13{fill:#B3B3B3;} .st14{fill:#F3F5F7;stroke:#0077BF;stroke-width:10;stroke-miterlimit:10;} .st15{fill:#F3F5F7;stroke:#B3B3B3;stroke-width:10;stroke-miterlimit:10;} .st16{fill-rule:evenodd;clip-rule:evenodd;fill:#B3B3B3;} .st17{fill:#B3B3B3;stroke:#F3F5F7;stroke-miterlimit:10;}</style><path class="st0" d="M310.1 613.1l248.6-205.1"/><path class="st1" d="M344.8 505.4l213.9-97.4"/><path class="st0" d="M318.9 196.3l239.8 211.7"/><g id="XMLID_25_"><path id="XMLID_42_" class="st2" d="M2908.9 2034.6c-.5-.4-1-.6-1.7-.6-.5 0-1.1.3-1.1.8 0 .6.7.8 1.1.9l.6.2c1.3.4 2.4 1.1 2.4 2.6 0 1-.2 1.9-1 2.6-.7.6-1.8.9-2.7.9-1.2 0-2.4-.4-3.4-1.1l1.1-2c.6.5 1.4 1 2.2 1 .6 0 1.2-.3 1.2-1s-1-.9-1.5-1.1c-1.6-.4-2.6-.9-2.6-2.7 0-1.9 1.4-3.2 3.3-3.2 1 0 2.1.3 3 .8l-.9 1.9z"/><path id="XMLID_41_" class="st2" d="M2936 2032.1h3.1l-3.8 4.6 4.2 5h-3.3l-3.2-4.1v4.1h-2.5v-9.6h2.5v4z"/><path id="XMLID_40_" class="st2" d="M2958.1 2032.1h3l1.8 2.6 1.8-2.6h3l-3.5 5v4.6h-2.5v-4.6z"/><path id="XMLID_37_" class="st2" d="M3016.8 2035.1l-1.1 3h2.1l-1-3zm-1.7 4.9l-.7 1.7h-2.6l3.7-9.6h2.7l3.6 9.6h-2.7l-.6-1.7h-3.4z"/><path id="XMLID_33_" class="st2" d="M3044.1 2039.8h.3c.7 0 2 0 2-1 0-1.2-1.2-1-2-1h-.3v2zm0-3.9h.3c.7 0 1.3-.1 1.3-.9 0-.9-.8-.9-1.4-.9h-.2v1.8zm-2.5 5.8v-9.6h3.6c1.7 0 2.8.7 2.8 2.5 0 .9-.3 1.6-1.1 2 1.4.2 2 1.1 2 2.4 0 2-1.7 2.7-3.5 2.7h-3.8z"/><path id="XMLID_32_" class="st2" d="M3071.8 2039.6h3v2.1h-5.5v-9.6h2.5z"/><path id="XMLID_31_" class="st2" d="M3097.1 2034.2v1.6h2.8v2.1h-2.8v1.7h3v2.1h-5.5v-9.6h5.5v2.1z"/><path id="XMLID_30_" class="st2" d="M3011.8 1961.1c2.4.1 4.5-1.8 4.6-4.2.1-2.4-1.8-4.5-4.2-4.6-2.4-.1-4.5 1.8-4.6 4.2-.1 2.4 1.8 4.5 4.2 4.6"/><path id="XMLID_27_" class="st2" d="M2992.8 2041.7h-5.5v-9.6h2.5v7.5h3v2.1zm77.4-89.3c-11.7 0-21.2 9.6-21.2 21.3 0 .9.1 1.8.2 2.6-2.7 1.2-5.3 2.5-7.9 3.8-2.4 1.2-4.7 2.5-7.1 3.9-2.3 1.4-4.6 2.8-6.8 4.3-4.5 3-8.7 6.3-12.7 9.8-4 3.6-7.8 7.4-11.2 11.6-1.7 2.1-3.3 4.2-4.8 6.4s-2.9 4.5-4.1 6.9c0 0 0 .1-.1.1-.9-.3-1.9-.6-2.9-.7-.5-4.3-1.1-8.6-2.1-12.8-1.1-4.7-2.5-9.4-4.5-13.9-.8-1.9-1.8-3.7-2.8-5.5 1.3-.9 2.3-2.5 2.3-4.2.1-3-2.2-5.5-5.2-5.6-3-.1-5.5 2.2-5.6 5.2-.1 3 2.2 5.5 5.2 5.6 1 0 1.9-.2 2.7-.6.9 1.8 1.6 3.7 2.3 5.5 1.6 4.5 2.6 9.2 3.2 13.9.6 4.1.9 8.2.9 12.4-1.1.1-2.2.4-3.2.8-.9-1.5-1.9-3-3-4.4-2.5-3.2-5.5-6.1-8.8-8.6-3.3-2.5-7-4.5-10.7-6.2-1.9-.8-3.8-1.6-5.8-2.2-2-.7-4-1.2-6-1.7s-4-.9-6.1-1.3c-1-.2-2-.3-3.1-.5-1-.2-2.1-.3-3.1-.4l-2.5-.3c-.2-.5-.4-1-.7-1.5l-1.2-1.8-.3-.3c-.1-.1-.1-.2-.2-.2l-.1-.1c-.1-.1-.1-.2-.2-.2-.1-.1-.2-.2-.3-.2l-.2-.1c-.9-.8-1.8-1.4-2.8-1.9h-.1l-.4-.2s-.1 0-.1-.1l-.3-.1c-.1 0-.2-.1-.2-.1-.1 0-.2-.1-.2-.1l-.3-.1h-.1l-.4-.1h-.1c-1.1-.3-2.2-.4-3.4-.3h-.6000000000000001c-1 .1-2 .3-3 .7h-.1l-.5.2-.2.1-.3.1c-.1 0-.2.1-.3.2l-.2.1c-.1.1-.3.2-.4.2h-.1c-.6.3-1.1.7-1.6 1.1-1.9 1.6-3.4 3.7-4 6.2-.9 3.1-.4 6.4 1.2 9.3 1.6 2.8 4.2 4.9 7.4 5.7 1.1.3 2.1.4 3.2.4 5.5 0 10.3-3.7 11.8-9 .1-.5.3-1.1.3-1.6h1.4c2 0 3.9.1 5.9.2 2 .1 3.9.3 5.9.6s3.9.6 5.8 1.1c1.9.4 3.8 1 5.7 1.6 3.7 1.3 7.3 2.9 10.6 5s6.4 4.6 9.1 7.6c1.1 1.2 2.2 2.5 3.1 3.9-4.9 2.2-8.5 7-8.7 12.8-.3 8.1 5.9 14.9 14 15.2 8.1.3 14.9-5.9 15.2-14 .3-6.2-3.4-11.7-8.8-14.1 1.4-2.2 2.9-4.3 4.6-6.4 1.6-2 3.4-4 5.2-5.8 3.6-3.7 7.6-7.1 11.8-10.1 4.2-3.1 8.6-5.8 13.1-8.3 6.8-3.8 13.8-7 21.1-9.9 3.5 7 10.7 11.9 19.1 11.8 11.7 0 21.2-9.6 21.2-21.3-.5-12-10.1-21.4-21.8-21.4"/><path id="XMLID_26_" class="st2" d="M3040.8 2003.3c-5-.2-9.1 3.6-9.3 8.5-.1 2.4.7 4.7 2.3 6.4 1.6 1.8 3.8 2.8 6.2 2.9h.4c4.8 0 8.7-3.8 8.9-8.5.2-4.9-3.6-9.1-8.5-9.3"/></g><path class="st3" d="M558.7 408h1294.7M310.1 173.1"/><path class="st4" d="M558.7 408l-233.8-106.2M325.2 505.4"/><text transform="translate(675.255 623.28)"><tspan x="0" y="0" class="st5 st6 st7">Deploy Source</tspan><tspan x="-22.5" y="41.1" class="st5 st6 st7">Virtual Appliance</tspan></text><text transform="translate(1016.848 623.28)"><tspan x="0" y="0" class="st5 st6 st7">Deploy Destination</tspan><tspan x="21.4" y="41.1" class="st5 st6 st7">Virtual Appliance</tspan></text><text transform="translate(1524.341 623.366)"><tspan x="0" y="0" class="st5 st6 st7">Start</tspan><tspan x="-40" y="41.1" class="st5 st6 st7">Migration</tspan></text><circle class="st8" cx="1564.5" cy="408" r="162.7"/><path class="st9" d="M1525.8 480.1c-6.3 0-10.6-5-10.6-12.6v-119c0-8.7 5.3-12.6 10.6-12.6 2.4 0 4.9.7 7.4 2.2l103.1 59.5c4.4 2.6 7 6.3 7 10.4 0 4-2.6 7.8-7 10.4l-103.1 59.6c-2.5 1.4-5 2.1-7.4 2.1zm0-137.1c-3.1 0-3.5 3.8-3.5 5.5v119.1c0 1.6.3 5.5 3.5 5.5 1.1 0 2.4-.4 3.9-1.2l103.1-59.5c2.2-1.3 3.5-2.8 3.5-4.2 0-1.4-1.3-3-3.4-4.2l-103.1-59.5c-1.6-1-2.9-1.5-4-1.5z"/><circle class="st8" cx="793.6" cy="408" r="162.7"/><circle class="st10" cx="793.6" cy="408" r="152.2"/><path class="st9" d="M841.1 420.4c-.8 0-1.6-.2-2.3-.7l-42.1-30.7-42.1 30.6c-1.7 1.2-4.1.9-5.4-.8-1.2-1.7-.9-4.1.8-5.4l44.4-32.3c1.3-1 3.2-1 4.5 0l44.4 32.3c1.7 1.2 2.1 3.6.8 5.4-.7 1.1-1.8 1.6-3 1.6zM796.7 486.4c-2.1 0-3.8-1.7-3.8-3.8v-98.3c0-2.1 1.7-3.8 3.8-3.8s3.8 1.7 3.8 3.8v98.3c.1 2.1-1.6 3.8-3.8 3.8z"/><path class="st11" d="M709.8 410.2l85-85c1.1-1.1 2.8-1.1 3.9 0l85 85c1.1 1.1 1.1 2.8 0 3.9l-42.2 42.2c-1.1 1.1-2.8 1.1-3.9 0s-1.1-2.8 0-3.9l40.2-40.2-81.1-81.2-81.1 81.1 40.2 40.2c1.1 1.1 1.1 2.8 0 3.9s-2.8 1.1-3.9 0l-42.2-42.2c-1-1-1-2.7.1-3.8z"/><circle class="st8" cx="1179.1" cy="408" r="162.7"/><path class="st9" d="M1218.4 418.2c-.6 0-1.3-.2-1.8-.6l-34.4-25-34.4 25c-1.4 1-3.4.7-4.4-.7-1-1.4-.7-3.4.7-4.4l36.2-26.4c1.1-.8 2.6-.8 3.7 0l36.2 26.4c1.4 1 1.7 3 .7 4.4-.6.8-1.5 1.3-2.5 1.3zM1182.2 472.1c-1.7 0-3.1-1.4-3.1-3.1v-80.3c0-1.7 1.4-3.1 3.1-3.1 1.7 0 3.1 1.4 3.1 3.1v80.3c0 1.6-1.4 3.1-3.1 3.1zM1242.8 457.1h-20.2c-2.4 0-4.3-1.9-4.3-4.3s1.9-4.3 4.3-4.3h20.2c7.7 0 15-3.3 20.2-9 7.9-7.2 12.1-16.6 12.1-26.8 0-19.7-16.1-35.8-35.8-35.8-3.7 0-7.4.6-11 1.7-1.2.4-2.6.2-3.6-.5-1.1-.7-1.8-1.9-1.9-3.1-2.4-24-22.4-42.2-46.6-42.2-25.8 0-46.8 21-46.8 46.8 0 3 .3 6.1.9 9.2.2 1.3-.1 2.6-.9 3.5-.8 1-2 1.6-3.3 1.6h-9.5c-15.1 0-27.3 12.3-27.3 27.3 0 15.1 12.2 27.3 27.3 27.3h25.2c2.4 0 4.3 1.9 4.3 4.3s-1.9 4.3-4.3 4.3h-25.2c-19.7 0-35.8-16.1-35.8-35.8 0-19.8 16.1-35.8 35.8-35.8h4.6c-.2-1.9-.3-3.9-.3-5.8 0-30.5 24.8-55.3 55.3-55.3 26.9 0 49.5 19 54.4 45 2.9-.6 5.8-.9 8.7-.9 24.4 0 44.3 19.9 44.3 44.3 0 12.4-5.3 24.4-14.6 32.8-6.5 7.2-16.2 11.5-26.2 11.5z"/><path class="st12" d="M131.8 343.2c-.5 1.3-1 2-2.6 2s-2.2-.8-2.6-2l-4.9-12.6c-.2-.6-.3-1-.3-1.4 0-1.6 1.2-2.4 2.5-2.4s1.9 1 2.2 1.7l3.1 9.6h.1l3.1-9.6c.2-.7.8-1.7 2.2-1.7h4.8c1.2 0 2 .7 2.2 1.9 1.2-1.3 2.7-2 4.5-2 2 0 3.7.8 5 2.5 1.3-1.6 3.5-2.5 5.1-2.5 3.9 0 6.6 2.3 6.6 6.5v9.3c0 1.6-1 2.7-2.4 2.7s-2.4-1.1-2.4-2.7v-8.5c0-2-1.1-3.3-2.9-3.3-1.8 0-2.9 1.4-2.9 3.3v8.5c0 1.6-1 2.7-2.4 2.7s-2.4-1.1-2.4-2.7v-8.5c0-2-1.1-3.3-2.9-3.3-2 0-2.9 1.4-2.9 3.3v8.5c0 1.6-1 2.7-2.4 2.7s-2.4-1.1-2.4-2.7v-12.1l-5 12.8zM164.4 329.4c-.1-.4-.2-.8-.2-1.1 0-.6.4-1.3 1.4-1.3.6 0 1.2.2 1.7 1.5l3.8 12.3h.1l3.7-11.8c.4-1.3.7-2 1.8-2s1.3.7 1.7 2l3.7 11.8h.1l3.8-12.3c.4-1.3 1-1.5 1.6-1.5 1 0 1.4.7 1.4 1.3 0 .3-.1.7-.2 1.1l-4.9 14.4c-.4 1.1-.9 1.6-1.7 1.6-.8 0-1.3-.4-1.7-1.6l-3.8-12.1h-.1l-3.8 12.1c-.4 1.1-.9 1.6-1.7 1.6-.8 0-1.3-.4-1.7-1.6l-5-14.4zM193.3 336.1c0-3.1 1.3-6.6 4.9-6.6 3.6 0 4.9 3.6 4.9 6.6 0 3-1.3 6.6-4.9 6.6-3.7 0-4.9-3.6-4.9-6.6zm12.6-7.8c0-1-.8-1.4-1.4-1.4-.6 0-1.4.4-1.4 1.4v.9h-.1c-1.4-1.5-2.8-2.4-4.9-2.4-5.1 0-7.9 4.4-7.9 9.2 0 4.8 2.8 9.2 7.9 9.2 1.9 0 3.6-.9 4.9-2.7h.1v1.2c0 1 .8 1.4 1.4 1.4.6 0 1.4-.4 1.4-1.4v-15.4zM209.8 328.5c0-1 .6-1.6 1.5-1.6s1.5.6 1.5 1.6v1.5h.1c.7-1.4 2.3-3.1 4-3.1 1 0 1.6.7 1.6 1.5s-.6 1.4-1.9 1.6c-1.8.3-3.9 1.6-3.9 5.1v8.5c0 1-.6 1.6-1.5 1.6s-1.5-.6-1.5-1.6v-15.1h.1zM222.3 335c.1-2.8 1.4-5.7 5.1-5.6 3.3 0 4.8 3 4.8 5.6h-9.9zm11.1 2.2c1.3 0 1.6-.5 1.6-1.6 0-4.3-2.8-8.8-7.7-8.8-5 0-8.1 4.3-8.1 9.2 0 4.8 2.5 9.2 8.2 9.2 3.5 0 7.2-2.2 7.2-3.7 0-.8-.5-1.3-1.1-1.3-1.1 0-2.1 2.4-6.1 2.4-3.3 0-5.3-2.4-5.3-5.5h11.3v.1zM80.7 314.1c-1.6 0-2.9 1.3-2.9 2.9v21.3c0 1.6 1.3 2.9 2.9 2.9h21.3c1.6 0 2.9-1.3 2.9-2.9v-21.3c0-1.6-1.3-2.9-2.9-2.9h-21.3zm-1.2 24.2v-21.3c0-.7.6-1.3 1.3-1.3h21.2c.7 0 1.3.6 1.3 1.3v21.3c0 .7-.6 1.3-1.3 1.3h-21.3c-.7-.1-1.2-.6-1.2-1.3zM87.1 320.5c-1.6 0-2.9 1.3-2.9 2.9v21.3c0 1.6 1.3 2.9 2.9 2.9h21.3c1.6 0 2.9-1.3 2.9-2.9v-21.3c0-1.6-1.3-2.9-2.9-2.9h-21.3zm-1.3 24.1v-21.3c0-.7.6-1.3 1.3-1.3h21.3c.7 0 1.3.6 1.3 1.3v21.3c0 .7-.6 1.3-1.3 1.3h-21.3c-.7 0-1.3-.6-1.3-1.3zM74.4 326.8c-1.6 0-2.9 1.3-2.9 2.9v21.3c0 1.6 1.3 2.9 2.9 2.9h21.3c1.6 0 2.9-1.3 2.9-2.9v-21.3c0-1.6-1.3-2.9-2.9-2.9h-21.3zm-1.3 24.2v-21.3c0-.7.6-1.3 1.3-1.3h21.3c.7 0 1.3.6 1.3 1.3v21.3c0 .7-.6 1.3-1.3 1.3h-21.3c-.7-.1-1.3-.6-1.3-1.3zM237.4 327.2v.4h-.9v2.7h-.5v-2.7h-.9v-.4h2.3zm3 3.1l-.1-1.8v-.8l-.3.9-.6 1.8h-.4l-.6-1.8c-.1-.3-.2-.6-.2-.8v.8l-.1 1.8h-.5l.2-3.1h.6l.6 1.7c.1.2.1.5.2.8.1-.3.1-.6.2-.8l.6-1.7h.6l.2 3.1h-.4v-.1z"/><path class="st2" d="M52.6 243.7c0-10 8.1-18.2 18.2-18.2h217c10 0 18.2 8.1 18.2 18.2v116.1c0 10-8.1 18.2-18.2 18.2h-217c-10 0-18.2-8.1-18.2-18.2v-116.1zm235.2-14.3h-217c-7.9 0-14.4 6.4-14.4 14.4v116.1c0 7.9 6.4 14.4 14.4 14.4h217c7.9 0 14.4-6.4 14.4-14.4v-116.2c0-7.9-6.5-14.3-14.4-14.3zM53.4 243.7c0-9.6 7.8-17.4 17.4-17.4h217c9.6 0 17.4 7.8 17.4 17.4v116.1c0 9.6-7.8 17.4-17.4 17.4h-217c-9.6 0-17.4-7.8-17.4-17.4v-116.1zm234.4-15.2h-217c-8.4 0-15.2 6.8-15.2 15.2v116.1c0 8.4 6.8 15.2 15.2 15.2h217c8.4 0 15.2-6.8 15.2-15.2v-116.1c0-8.4-6.8-15.1-15.2-15.2zM53.1 243.7h.6v116.1c0 9.4 7.7 17.1 17.1 17.1h217c9.4 0 17.1-7.7 17.1-17.1v-116.1c0-9.4-7.7-17.1-17.1-17.1h-217c-9.4 0-17.1 7.7-17.1 17.1h-.6c0-9.8 7.9-17.7 17.6-17.7h217c9.7 0 17.6 7.9 17.6 17.7v116.1c0 9.7-7.9 17.6-17.7 17.6h-217c-9.8 0-17.6-7.9-17.6-17.6v-116.1h.1zm2.2 0c0-8.5 6.9-15.5 15.5-15.5h217v.3-.3c8.5 0 15.5 6.9 15.5 15.5v116.1c0 8.6-6.9 15.5-15.5 15.5h-217c-8.5 0-15.5-6.9-15.5-15.5v-116.1zm15.5-14.9c-8.2 0-14.9 6.7-14.9 14.9v116.1c0 8.2 6.7 14.9 14.9 14.9h217c8.2 0 14.9-6.7 14.9-14.9l3.5 1.6v-116.1c-3.6-9.8-10.2-16.5-18.5-16.5h-216.9zM71.5 245.3h215.6v20.9h-215.6zM71.5 280.3h215.6v20.9h-215.6z"/><circle class="st2" cx="271.6" cy="334" r="15.4"/><path class="st13" d="M180.4 38.8c0-10 8.1-18.2 18.2-18.2h217c10 0 18.2 8.1 18.2 18.2v116.2c0 10-8.1 18.2-18.2 18.2h-217c-10 0-18.2-8.1-18.2-18.2v-116.2zm235.2-14.4h-217c-7.9 0-14.4 6.4-14.4 14.4v116.2c0 7.9 6.4 14.4 14.4 14.4h217c7.9 0 14.4-6.4 14.4-14.4v-116.2c-.1-7.9-6.5-14.4-14.4-14.4zM181.2 38.8c0-9.6 7.8-17.4 17.4-17.4h217c9.6 0 17.4 7.8 17.4 17.4v116.2c0 9.6-7.8 17.4-17.4 17.4h-217c-9.6 0-17.4-7.8-17.4-17.4v-116.2zm234.4-15.2h-217c-8.4 0-15.2 6.8-15.2 15.2v116.2c0 8.4 6.8 15.2 15.2 15.2h217c8.4 0 15.2-6.8 15.2-15.2v-116.2c0-8.4-6.8-15.2-15.2-15.2zM180.9 38.8h.6v116.2c0 9.4 7.7 17.1 17.1 17.1h217c9.4 0 17.1-7.7 17.1-17.1v-116.2c0-9.4-7.7-17.1-17.1-17.1h-217c-9.4 0-17.1 7.7-17.1 17.1h-.6c0-9.8 7.9-17.7 17.6-17.7h217c9.7 0 17.6 7.9 17.6 17.7v116.2c0 9.7-7.9 17.6-17.7 17.6h-217c-9.8 0-17.6-7.9-17.6-17.6v-116.2h.1zm2.2 0c0-8.5 6.9-15.5 15.5-15.5h217v.3-.3c8.5 0 15.5 6.9 15.5 15.5v116.2c0 8.6-6.9 15.5-15.5 15.5h-217c-8.5 0-15.5-6.9-15.5-15.5v-116.2zm15.4-14.9c-8.2 0-14.9 6.7-14.9 14.9v116.1c0 8.2 6.7 14.9 14.9 14.9h217c8.2 0 14.9-6.7 14.9-14.9v-116.1c0-8.2-6.7-14.9-14.9-14.9h-217zM199.3 40.4h215.6v20.9h-215.6zM199.3 75.4h215.6v20.9h-215.6z"/><circle class="st13" cx="399.4" cy="129.1" r="15.4"/><path class="st13" d="M217.7 145.1l-9.1-13.8-3.6 4.9v8.9h-5.8v-32.5h5.8v15.6l11-15.6h6.6l-10.2 14.2 12.1 18.3h-6.8zM239.4 145.5h-3.2l-12.2-32.9h6.3l7.5 22 7.9-22h6.2l-12.5 32.9zM285.9 145.1h-5.6l-3.4-17.5-6.5 17.9h-2.1l-6.5-17.9-3.5 17.5h-5.6l6.5-32.5h3.1l7 21.9 6.9-21.9h3l6.7 32.5zM72.6 448.7c0-10 8.1-18.2 18.2-18.2h217c10 0 18.2 8.1 18.2 18.2v116.1c0 10-8.1 18.2-18.2 18.2h-217c-10 0-18.2-8.1-18.2-18.2v-116.1zm235.2-14.4h-217c-7.9 0-14.4 6.4-14.4 14.4v116.1c0 7.9 6.4 14.4 14.4 14.4h217c7.9 0 14.4-6.4 14.4-14.4v-116.1c0-8-6.5-14.4-14.4-14.4zM73.4 448.7c0-9.6 7.8-17.4 17.4-17.4h217c9.6 0 17.4 7.8 17.4 17.4v116.1c0 9.6-7.8 17.4-17.4 17.4h-217c-9.6 0-17.4-7.8-17.4-17.4v-116.1zm234.4-15.2h-217c-8.4 0-15.2 6.8-15.2 15.2v116.1c0 8.4 6.8 15.2 15.2 15.2h217c8.4 0 15.2-6.8 15.2-15.2v-116.1c0-8.4-6.8-15.2-15.2-15.2zM73.1 448.7h.6v116.1c0 9.4 7.7 17.1 17.1 17.1h217c9.4 0 17.1-7.7 17.1-17.1v-116.1c0-9.4-7.7-17.1-17.1-17.1h-217c-9.4 0-17.1 7.7-17.1 17.1h-.6c0-9.8 7.9-17.7 17.6-17.7h217c9.7 0 17.6 7.9 17.6 17.7v116.1c0 9.7-7.9 17.6-17.7 17.6h-217c-9.8 0-17.6-7.9-17.6-17.6v-116.1h.1zm2.2 0c0-8.5 6.9-15.5 15.5-15.5h217v.3-.3c8.5 0 15.5 6.9 15.5 15.5v116.1c0 8.6-6.9 15.5-15.5 15.5h-217c-8.5 0-15.5-6.9-15.5-15.5v-116.1zm15.5-15c-8.2 0-14.9 6.7-14.9 14.9v116.1c0 8.2 6.7 14.9 14.9 14.9h217c8.2 0 14.9-6.7 14.9-14.9v-116c0-8.2-6.7-14.9-14.9-14.9h-217v-.1zM91.5 450.3h215.6v20.9h-215.6zM91.5 485.2h215.6v20.9h-215.6z"/><circle class="st13" cx="291.6" cy="538.9" r="15.4"/><g id="rojEF3.tif"><path class="st13" d="M118.1 546.3l-2.3 1.8-7.3 5.6c-.5.4-.9.5-1.5.5h-15.6v-.1l20.5-15.7-10.3-13.5h12.9c.2 0 .3 0 .5.2l5.1 6.7.2.2 2.2-1.7c2.3-1.8 4.6-3.6 7-5.3.1-.1.3-.2.5-.2h16.1v.1c-6.5 5-13.1 10-19.7 15.1 3.6 4.7 7.2 9.4 10.8 14.2h-12.9c-.3 0-.4-.1-.5-.3l-5.7-7.4c.1-.1.1-.1 0-.2zM138.1 524.1h-7.8c-.5 0-.8-.1-1.2-.4-2.6-1.9-5.5-3.1-8.7-3.4-3.4-.4-6.6.1-9.7 1.5-1.3.6-2.5 1.3-3.7 2.2-.1.1-.3.2-.5.2h-6.2l.6.8 2.2 2.9c.1.2.1.3 0 .5-1.7 2.5-2.7 5.3-3 8.3-.3 3.1.1 6 1.3 8.9 0 .1 0 .1.1.2-1.7 1.3-3.3 2.6-5 3.8-5.5-10.6-2.5-25.5 10.1-32.4 11.8-6.8 25.4-2 31.5 6.9zM187.7 547.5h-10.1l.4-2.4c.4-2.2.8-4.4 1.1-6.7.1-.4 0-.8 0-1.1-.1-.8-.6-1.3-1.5-1.5-1.2-.2-2.2.2-3.1 1-.5.4-1 .9-1.4 1.4-.2.2-.2.6-.3 1-.5 2.8-1 5.6-1.6 8.3 0 .1 0 .2-.1.3h-10.4l.6-2.7 2.4-11.1.4-2.1c0-.2.1-.3.3-.3h9.6l-.5 2.5c.8-.5 1.5-1 2.2-1.4 2.6-1.5 5.5-2.2 8.5-1.8.8.1 1.6.3 2.4.7 1.4.7 2.1 1.9 2.4 3.4.3 1.6.1 3.2-.2 4.8-.5 2.5-1 5-1.4 7.5.3.1.3.2.3.2zM143.9 541c-.2.8-.2 1.6 0 2.3.2.8.7 1.4 1.5 1.6 1.1.3 2.2.4 3.2-.4.5-.4.9-.8 1.1-1.4.1-.2.2-.2.4-.2h10.100000000000001c0 .6-.2 1.1-.5 1.6-.6 1-1.6 1.7-2.7 2.2-1.7.8-3.6 1.2-5.5 1.4-2.4.3-4.8.4-7.3.2-2.1-.1-4.2-.5-6.2-1.3-1.1-.5-2.1-1.1-2.8-2.1-1-1.4-1.3-2.9-.9-4.5.8-3.1 2.6-5.5 5.4-7.2 2.1-1.3 4.4-2 6.9-2.3 2.4-.3 4.7-.3 7.1.1 1.7.3 3.3.8 4.7 1.8 1.7 1.2 2.5 2.9 2.6 5 0 1-.1 1.9-.4 2.8-.1.3-.2.4-.5.4h-16.2zm1.3-3.2h5.6c.7 0 .7 0 .8-.7.2-1.5-.5-2.4-1.9-2.6-.4-.1-.8-.1-1.2 0-1.1.1-2.1.6-2.7 1.6-.4.5-.6 1-.6 1.7zM100.1 554.8h7.4c.4 0 .8-.1 1.1-.4.2-.2.3-.2.6 0 2 1.2 4.2 1.9 6.5 2.3 3.7.5 7.2 0 10.6-1.6.2-.1.5-.2.8-.2h9.5v.1c-4.5 4.9-10.1 7.7-16.7 8.1-7.8.5-14.4-2.4-19.8-8.1v-.2zM160.6 549.3h5.3999999999999995c.7 0 1.3.2 2 .4 1.4.5 2.1 1.7 2 3.1-.2 2.4-1.7 4.1-4 4.7-.7.2-1.4.2-2.1.3h-1.5c-.2 1.1-.4 2.3-.7 3.4h-3.3c.7-4 1.5-8 2.2-11.9zm2.2 5.9h2.1c.9-.1 1.5-.7 1.7-1.5.2-.8-.2-1.5-1-1.6-.6-.1-1.3-.1-1.9-.1-.1 0-.2.1-.2.2l-.2.9c-.3.7-.4 1.4-.5 2.1zM181.4 561.4c-1.2 0-2.2-.3-3.1-1.1-1.1-1.1-1.4-2.4-1-3.9.7-3.1 4.1-5.2 7.2-4.5 2.2.5 3.4 2.4 2.9 4.7-.5 2.4-2.7 4.4-5.1 4.7-.3 0-.6 0-.9.1zm3-5.2c0-1-.7-1.7-1.7-1.6-1.4.1-2.3 1.5-2.2 2.7.1.9.7 1.4 1.6 1.4 1.2-.1 2.3-1.2 2.3-2.5zM201.8 559.5c-1.1 1.1-2.4 1.8-4 1.8-.8 0-1.6-.1-2.4-.4-1.4-.7-2.1-2-2-3.4.1-2.2 1.2-3.9 3.2-5 1.3-.7 2.8-.9 4.2-.3 1.3.5 1.9 1.5 2 2.9 0 .7-.1 1.4-.1 2.2 0 .3-.1.4-.4.4h-5.800000000000001c0 .8.4 1.3 1.1 1.5.9.2 1.7-.1 2.4-.6.1-.1.2-.2.4-.3.5.2 1 .7 1.4 1.2zm-1.9-3.7c.1-.8-.2-1.3-.7-1.5-1-.4-2.2.3-2.5 1.5h3.2zM215.8 549.7h3.2l-.4 2.3h2.1l-.5 2.6h-2.1c-.1.4-.2.8-.2 1.2l-.4 2.1c-.1.5.1.8.7.8.2 0 .4 0 .7-.1.2 0 .4-.1.6-.2l-.5 2.4c0 .1-.1.2-.2.2-1 .5-2.1.6-3.2.3-1.2-.3-1.7-1.2-1.5-2.5l.7-3.9v-.3h-1.1l.5-2.4c0-.1.2-.2.2-.2h.6c.3 0 .3-.1.4-.3.1-.7.2-1.4.4-2zM213.2 553.8l-2.5 1.6h-.1c-.8-1.4-2.4-1-3.1-.1-.5.6-.8 1.3-.6 2.1.2 1 1 1.5 2 1.2.5-.2.9-.5 1.4-.8.1 0 .2.1.3.2.5.4 1 .8 1.5 1.3-.9 1-2 1.8-3.4 2-.9.1-1.9.1-2.8-.2-1.5-.6-2.4-2.1-2.3-3.8.2-3.2 3.1-5.7 6.3-5.5 1.2.1 2.2.5 2.9 1.6.2.1.3.3.4.4zM193 552l-.5 2.4c-.4 2.2-.8 4.3-1.3 6.5-.2 1.1-.7 2-1.7 2.5-.7.4-1.5.5-2.3.5l-1.2-.1c.1-.5.2-1 .3-1.4 0-.2 0-.5.1-.6.1-.1.4-.1.6-.1.5-.1.8-.4 1-1l1.5-7.6c0-.1 0-.2.1-.2.1-.3 0-.7.2-.8.2-.1.6-.1.9-.1h2.3zM174.6 552l-.3 1.7c.8-1.1 1.7-1.9 3.3-1.8l-.6 3.3c-.4.1-.8.1-1.1.2-1.3.3-1.9 1.2-2.2 2.4-.3 1.1-.5 2.2-.7 3.3v.1h-3.2c.2-.9.4-1.9.5-2.8.4-2 .8-4 1.2-6.1 0-.1.1-.3.2-.3h2.9zM137.7 553.5l-3.9-5.1 1.4-2.7c1.5 1.5 3.4 2.4 5.5 2.9-.9 1.7-1.8 3.4-3 4.9zM136.3 535c-.1-.4-.2-.9-.3-1.4 0-.1 0-.2.1-.2l5-3.8h.1l.6 1.8c-1 .6-2 1-2.9 1.6-.9.6-1.7 1.3-2.6 2zM189.9 551.1c.1-.8.3-1.5.4-2.2 0-.1.1-.1.2-.1h3.2c-.1.8-.3 1.5-.4 2.2 0 0-.1.1-.2.1h-3.2z"/></g><path class="st13" d="M180.4 653.6c0-10 8.1-18.2 18.2-18.2h217c10 0 18.2 8.1 18.2 18.2v116.1c0 10-8.1 18.2-18.2 18.2h-217c-10 0-18.2-8.1-18.2-18.2v-116.1zm235.2-14.4h-217c-7.9 0-14.4 6.4-14.4 14.4v116.1c0 7.9 6.4 14.4 14.4 14.4h217c7.9 0 14.4-6.4 14.4-14.4v-116.1c-.1-7.9-6.5-14.4-14.4-14.4zM181.2 653.6c0-9.6 7.8-17.4 17.4-17.4h217c9.6 0 17.4 7.8 17.4 17.4v116.1c0 9.6-7.8 17.4-17.4 17.4h-217c-9.6 0-17.4-7.8-17.4-17.4v-116.1zm234.4-15.2h-217c-8.4 0-15.2 6.8-15.2 15.2v116.1c0 8.4 6.8 15.2 15.2 15.2h217c8.4 0 15.2-6.8 15.2-15.2v-116.1c0-8.4-6.8-15.2-15.2-15.2zM180.9 653.6h.6v116.1c0 9.4 7.7 17.1 17.1 17.1h217c9.4 0 17.1-7.7 17.1-17.1v-116.1c0-9.4-7.7-17.1-17.1-17.1h-217c-9.4 0-17.1 7.7-17.1 17.1h-.6c0-9.8 7.9-17.7 17.6-17.7h217c9.7 0 17.6 7.9 17.6 17.7v116.1c0 9.7-7.9 17.6-17.7 17.6h-217c-9.8 0-17.6-7.9-17.6-17.6v-116.1h.1zm2.2 0c0-8.5 6.9-15.5 15.5-15.5h217v.3-.3c8.5 0 15.5 6.9 15.5 15.5v116.1c0 8.6-6.9 15.5-15.5 15.5h-217c-8.5 0-15.5-6.9-15.5-15.5v-116.1zm15.4-14.9c-8.2 0-14.9 6.7-14.9 14.9v116.1c0 8.2 6.7 14.9 14.9 14.9h217c8.2 0 14.9-6.7 14.9-14.9v-116.1c0-8.2-6.7-14.9-14.9-14.9h-217zM199.3 655.2h215.6v20.9h-215.6zM199.3 690.2h215.6v20.9h-215.6z"/><circle class="st13" cx="399.4" cy="743.8" r="15.4"/><path class="st13" d="M239.2 724l-21.7 3v15.9h21.7zM215.6 727.3l-16.3 2.3v13.3h16.3zM217.5 760.7l21.7 3v-18.9h-21.7zM199.3 758.1l16.3 2.3v-15.6h-16.3zM249.1 731.4h2.6v7.9h9.9v-7.9h2.6v19.2h-2.6v-9h-9.9v9h-2.6v-19.2zM276.8 736.6h2.6c-.3.9-1.1 2.9-2.2 6.1-.9 2.4-1.6 4.4-2.1 5.9-1.4 3.6-2.3 5.7-2.9 6.5-.6.8-1.5 1.2-2.9 1.2h-.8c-.2 0-.4-.1-.7-.1v-2.2c.4.1.7.2.9.2h.5c.4 0 .8-.1 1-.2.2-.1.4-.3.5-.5l.5-1.1c.3-.6.5-1.1.6-1.4l-5.2-14.4h2.7l3.7 11.4 3.8-11.4zM281.2 736.6h2.3v1.9c.5-.6 1-1.1 1.5-1.5.8-.5 1.7-.8 2.8-.8 1.6 0 2.9.6 4.1 1.8 1.1 1.2 1.7 3 1.7 5.2 0 3.1-.8 5.2-2.4 6.5-1 .8-2.2 1.2-3.5 1.2-1.1 0-1.9-.2-2.7-.7-.4-.3-.9-.7-1.4-1.3v7.2h-2.4v-19.5zm8.9 11c.7-.9 1.1-2.3 1.1-4.1 0-1.1-.2-2.1-.5-2.9-.6-1.5-1.7-2.3-3.4-2.3-1.6 0-2.8.8-3.4 2.4-.3.9-.5 2-.5 3.3 0 1.1.2 2 .5 2.8.6 1.4 1.7 2.2 3.4 2.2 1.1 0 2-.5 2.8-1.4zM305 736.9c.9.5 1.6 1.1 2.1 1.8s.8 1.5.9 2.5c.1.6.2 1.7.2 3.1h-10.2c0 1.4.4 2.6 1 3.4.6.9 1.6 1.3 2.9 1.3 1.2 0 2.2-.4 2.9-1.2.4-.5.7-1 .9-1.6h2.3c-.1.5-.3 1.1-.6 1.7-.3.6-.7 1.1-1.2 1.5-.7.7-1.6 1.2-2.6 1.4-.6.1-1.2.2-1.9.2-1.7 0-3.2-.6-4.4-1.9-1.2-1.3-1.8-3-1.8-5.3 0-2.2.6-4.1 1.8-5.5 1.2-1.4 2.8-2.1 4.8-2.1 1 .1 1.9.3 2.9.7zm.8 5.5c-.1-1-.3-1.8-.7-2.4-.6-1.1-1.7-1.7-3.2-1.7-1.1 0-2 .4-2.7 1.2-.7.8-1.1 1.8-1.2 3h7.8zM311.3 736.6h2.2v2.4c.2-.5.6-1 1.3-1.7.7-.7 1.5-1 2.5-1h.2c.1 0 .3 0 .5.1v2.5c-.1 0-.3 0-.4-.1h-.4c-1.2 0-2.1.4-2.7 1.1-.6.8-1 1.6-1 2.6v8.1h-2.4v-14zM319.5 741.9h6.6v2.4h-6.6v-2.4zM330.9 731.4l5.5 16.4 5.5-16.4h2.9l-7 19.2h-2.8l-7-19.2h2.9z"/><path class="st14" d="M1912.7 552.2c11.3 0 22.2-1.7 32.5-4.8 28.8 35.5 72.7 58.3 122 58.3 36.4 0 69.9-12.4 96.5-33.2 20.3 16.4 46.1 26.2 74.2 26.2 37.3 0 70.5-17.3 92.2-44.2 4.3.6 8.6.9 13.1.9 55.5 0 100.5-45 100.5-100.5 0-51.7-39-94.2-89.1-99.9-15.7-55.1-66.3-95.5-126.5-95.5-12.4 0-24.4 1.7-35.7 4.9-18.2-34.3-54.3-57.7-95.8-57.7-45.5 0-84.5 28.1-100.6 67.9-2.6-.3-5.2-.4-7.9-.4-34.4 0-63.4 23.3-72 55l-3.5-.1c-61.6 0-111.6 50-111.6 111.6.1 61.6 50.1 111.5 111.7 111.5z"/><path class="st12" d="M1979.1 475l-22.7-8.1v-33.3l22.7 7.8zM1983.3 475l22.7-8.1v-33.3l-22.7 7.8zM1958.7 431.1l23-6.4 21.3 6.8-21.3 7.3zM1952.1 428.6l-22.7-8.2v-33.3l22.7 7.8zM1956.2 428.6l22.7-8.2v-33.3l-22.7 7.8zM1931.7 384.7l23-6.5 21.3 6.9-21.3 7.2zM2005 428.6l-22.7-8.2v-33.3l22.7 7.8zM2009.2 428.6l22.7-8.2v-33.3l-22.7 7.8zM1984.7 384.7l22.9-6.5 21.3 6.9-21.3 7.2zM2032.1 382.1l-22.7-8.2v-33.2l22.7 7.7zM2036.2 382.1l22.7-8.2v-33.2l-22.7 7.7zM2011.7 338.2l23-6.5 21.3 6.9-21.3 7.2zM2085 382.1l-22.7-8.2v-33.2l22.7 7.7zM2089.2 382.1l22.7-8.2v-33.2l-22.7 7.7zM2064.7 338.2l22.9-6.5 21.3 6.9-21.3 7.2z"/><path class="st2" d="M2073.5 453.4l-7.6 26.5h-3.3l-5.9-19.7-5.4 19.7h-3.4l-7.9-26.5h4.1l5.8 19.7 5.5-19.7h3l6 19.8 5.9-19.8h3.2zM2094.6 472l3.8.8c-.7 2.3-2.1 4.1-4.1 5.6-2 1.5-4.4 2.2-7.1 2.2-3.6 0-6.5-1.3-8.8-3.8-2.2-2.5-3.4-5.9-3.4-10 0-4.2 1.2-7.6 3.5-10.2 2.3-2.6 5.2-3.9 8.7-3.9 3.5 0 6.2 1.2 8.3 3.6 2.1 2.4 3.2 6 3.2 10.7h-19.2c0 4 .8 6.7 2.5 8.1 1.7 1.4 3.4 2.1 5.3 2.1 3.5 0 5.9-1.8 7.3-5.2zm-.3-8.1c0-1.5-.3-2.8-.7-4-.5-1.2-1.2-2.1-2.3-2.9-1.1-.8-2.4-1.2-3.9-1.2-2 0-3.8.7-5.2 2.2-1.4 1.5-2.2 3.4-2.4 5.9h14.5zM2106.3 479.9h-2v-35.8h4.1v13.7c1.9-3.4 4.5-5.2 7.8-5.2 3 0 5.6 1.2 7.6 3.6 2 2.4 3.1 5.9 3.1 10.4 0 3.9-1 7.2-3 9.9s-4.6 4-7.9 4c-3.6 0-6.4-1.7-8.3-5.1l-1.4 4.5zm2.1-10.4c.2 2.7 1 4.7 2.5 5.9 1.5 1.2 3 1.8 4.7 1.8 2.1 0 3.8-.9 5.1-2.7 1.3-1.8 1.9-4.3 1.9-7.5 0-3.4-.6-6.1-1.9-8-1.2-1.9-3-2.9-5.2-2.9-1.7 0-3.3.7-4.7 2.1-1.4 1.4-2.2 3.2-2.5 5.4v5.9zM2137.4 473l3.9-.8c.9 3.3 3.6 5 8.3 5 1.7 0 3.2-.4 4.4-1.2 1.2-.8 1.8-1.8 1.8-3.2 0-2.1-1.5-3.4-4.5-3.9l-5.6-1.1c-2.2-.4-3.9-1.2-5.2-2.5-1.3-1.2-1.9-2.8-1.9-4.9 0-2.2.9-4.1 2.6-5.6 1.8-1.5 4.1-2.2 7.1-2.2 5.7 0 9.3 2.2 10.6 6.7l-3.8.8c-1.1-2.8-3.3-4.1-6.7-4.1-1.7 0-3.1.3-4.1 1-1.1.7-1.6 1.6-1.6 2.9 0 1.9 1.4 3.2 4.1 3.7l5.2.9c5.4 1 8.1 3.6 8.1 7.9 0 2.4-1 4.4-3 5.9s-4.7 2.2-8 2.2c-6.3.1-10.2-2.4-11.7-7.5zM2182 472l3.8.8c-.7 2.3-2.1 4.1-4.1 5.6-2 1.5-4.4 2.2-7.1 2.2-3.6 0-6.5-1.3-8.8-3.8-2.2-2.5-3.4-5.9-3.4-10 0-4.2 1.2-7.6 3.5-10.2 2.3-2.6 5.2-3.9 8.7-3.9 3.5 0 6.2 1.2 8.3 3.6 2.1 2.4 3.2 6 3.2 10.7h-19.2c0 4 .8 6.7 2.5 8.1 1.7 1.4 3.4 2.1 5.3 2.1 3.6 0 6-1.8 7.3-5.2zm-.2-8.1c0-1.5-.3-2.8-.7-4-.5-1.2-1.2-2.1-2.3-2.9-1.1-.8-2.4-1.2-3.9-1.2-2 0-3.8.7-5.2 2.2-1.4 1.5-2.2 3.4-2.4 5.9h14.5zM2194.9 479.9h-4.1v-26.5h3.6v6.2c1.3-2.9 2.6-4.8 3.8-5.6 1.3-.9 2.6-1.3 3.9-1.3.4 0 1 0 1.6.1v3.9h-.8c-2.3 0-4.2.8-5.7 2.5s-2.3 3.9-2.4 6.6v14.1zM2229.4 453.4l-9.1 26.5h-4.3l-9.5-26.5h4.6l7.4 21.5 7.3-21.5h3.6zM2237.1 444.1v4.6h-4.4v-4.6h4.4zm-.1 9.3v26.5h-4.1v-26.5h4.1zM2258.6 470.6l3.7.7c-.5 2.9-1.7 5.2-3.5 6.9-1.8 1.7-4 2.5-6.7 2.5-3.7 0-6.4-1.3-8.3-4-1.9-2.7-2.9-6-2.9-9.9 0-4 1-7.4 3-10 2-2.7 4.8-4 8.2-4 2.9 0 5.2.9 6.9 2.6 1.7 1.7 2.8 4 3.2 6.7l-3.7.7c-.7-4.4-2.8-6.6-6.3-6.6-2.3 0-4 1-5.2 2.9-1.2 1.9-1.8 4.4-1.8 7.5 0 3.4.6 6 1.8 7.9 1.2 1.9 2.9 2.8 5.1 2.8 3.4-.1 5.6-2.3 6.5-6.7zM2285.6 472l3.8.8c-.7 2.3-2.1 4.1-4.1 5.6-2 1.5-4.4 2.2-7.1 2.2-3.6 0-6.5-1.3-8.8-3.8-2.2-2.5-3.4-5.9-3.4-10 0-4.2 1.2-7.6 3.5-10.2 2.3-2.6 5.2-3.9 8.7-3.9 3.5 0 6.2 1.2 8.3 3.6 2.1 2.4 3.2 6 3.2 10.7h-19.2c0 4 .8 6.7 2.5 8.1 1.7 1.4 3.4 2.1 5.3 2.1 3.5 0 5.9-1.8 7.3-5.2zm-.2-8.1c0-1.5-.3-2.8-.7-4-.5-1.2-1.2-2.1-2.3-2.9-1.1-.8-2.4-1.2-3.9-1.2-2 0-3.8.7-5.2 2.2-1.4 1.5-2.2 3.4-2.4 5.9h14.5zM2292.2 473l3.9-.8c.9 3.3 3.6 5 8.3 5 1.7 0 3.2-.4 4.4-1.2 1.2-.8 1.8-1.8 1.8-3.2 0-2.1-1.5-3.4-4.5-3.9l-5.6-1.1c-2.2-.4-3.9-1.2-5.2-2.5-1.3-1.2-1.9-2.8-1.9-4.9 0-2.2.9-4.1 2.6-5.6 1.8-1.5 4.1-2.2 7.1-2.2 5.7 0 9.3 2.2 10.6 6.7l-3.8.8c-1.1-2.8-3.3-4.1-6.7-4.1-1.7 0-3.1.3-4.1 1-1.1.7-1.6 1.6-1.6 2.9 0 1.9 1.4 3.2 4.1 3.7l5.2.9c5.4 1 8.1 3.6 8.1 7.9 0 2.4-1 4.4-3 5.9s-4.7 2.2-8 2.2c-6.3.1-10.2-2.4-11.7-7.5z"/><path class="st12" d="M2199.2 396.8v-6.4c0-1 .7-1.6 1.6-1.6h28.5c.9 0 1.6.7 1.6 1.6v5.5c0 .9-.8 2.1-2.1 4l-14.8 21.1c5.5-.1 11.3.7 16.3 3.5 1.1.6 1.4 1.6 1.5 2.5v6.8c0 .9-1 2-2.1 1.5-8.8-4.6-20.4-5.1-30.1.1-1 .5-2-.5-2-1.5v-6.5c0-1 0-2.8 1.1-4.4l17.1-24.6h-14.9c-1 0-1.7-.7-1.7-1.6zM2097.1 436.5h-8.7c-.8-.1-1.5-.7-1.6-1.5v-44.5c0-.9.7-1.6 1.7-1.6h8.1c.8 0 1.5.7 1.6 1.5v5.8h.2c2.1-5.6 6.1-8.2 11.4-8.2 5.4 0 8.8 2.6 11.3 8.2 2.1-5.6 6.9-8.2 12-8.2 3.6 0 7.6 1.5 10 4.9 2.8 3.7 2.2 9.2 2.2 14v28.1c0 .9-.7 1.6-1.7 1.6h-8.7c-.9-.1-1.6-.7-1.6-1.6v-23.6c0-1.9.2-6.6-.2-8.3-.6-3-2.6-3.8-5.1-3.8-2.1 0-4.3 1.4-5.2 3.7s-.8 6-.8 8.5v23.6c0 .9-.7 1.6-1.7 1.6h-8.7c-.9-.1-1.6-.7-1.6-1.6v-23.6c0-5 .8-12.3-5.3-12.3-6.2 0-6 7.1-6 12.3v23.6c.1.7-.7 1.4-1.6 1.4zM2251.9 388c12.8 0 19.7 11.1 19.7 25.1 0 13.6-7.6 24.4-19.7 24.4-12.5 0-19.4-11.1-19.4-24.8 0-14 7-24.7 19.4-24.7zm.1 10.2c-6.3 0-6.7 8.7-6.7 14.1s-.1 15.9 6.7 15.9c6.7 0 7-8.2 7-13.9 0-3.7-.2-8.2-1.3-11.8-1.1-3.1-3-4.3-5.7-4.3zM2290.1 436.5h-8.6c-.9-.1-1.6-.7-1.6-1.6v-44.5c.1-.8.8-1.5 1.7-1.5h8c.8 0 1.4.6 1.5 1.2v6.8h.2c2.4-6.1 5.8-9 11.8-9 3.9 0 7.7 1.4 10.1 5.2 2.3 3.6 2.3 9.6 2.3 13.9v28c-.1.8-.8 1.4-1.7 1.4h-8.7c-.8-.1-1.5-.6-1.5-1.4v-24.2c0-4.9.6-12-5.4-12-2.1 0-4 1.4-5 3.6-1.2 2.7-1.4 5.4-1.4 8.4v24c-.1 1-.8 1.7-1.7 1.7zM2177.4 415.2c0 3.4.1 6.2-1.6 9.2-1.4 2.4-3.6 3.9-6 3.9-3.3 0-5.3-2.5-5.3-6.3 0-7.4 6.6-8.7 12.9-8.7v1.9zm8.8 21.2c-.6.5-1.4.5-2.1.2-2.9-2.4-3.4-3.5-5-5.8-4.8 4.9-8.1 6.3-14.3 6.3-7.3 0-13-4.5-13-13.5 0-7 3.8-11.8 9.3-14.2 4.7-2.1 11.3-2.4 16.3-3v-1.1c0-2.1.2-4.5-1.1-6.3-1.1-1.6-3.1-2.3-4.9-2.3-3.3 0-6.3 1.7-7 5.2-.1.8-.7 1.6-1.5 1.6l-8.4-.9c-.7-.2-1.5-.7-1.3-1.8 1.9-10.2 11.1-13.3 19.4-13.3 4.2 0 9.7 1.1 13.1 4.3 4.2 3.9 3.8 9.2 3.8 14.9v13.5c0 4.1 1.7 5.8 3.3 8 .6.8.7 1.7 0 2.3-1.7 1.6-4.9 4.4-6.6 5.9zM2064.7 415.2c0 3.4.1 6.2-1.6 9.2-1.4 2.4-3.6 3.9-6 3.9-3.3 0-5.3-2.5-5.3-6.3 0-7.4 6.6-8.7 12.9-8.7v1.9zm8.7 21.2c-.6.5-1.4.5-2 .2-2.9-2.4-3.4-3.5-5-5.8-4.8 4.9-8.1 6.3-14.3 6.3-7.3 0-13-4.5-13-13.5 0-7 3.8-11.8 9.3-14.2 4.7-2.1 11.3-2.4 16.3-3v-1.1c0-2.1.2-4.5-1.1-6.3-1.1-1.6-3.1-2.3-4.9-2.3-3.3 0-6.3 1.7-7 5.2-.2.8-.7 1.6-1.5 1.6l-8.4-.9c-.7-.2-1.5-.7-1.3-1.8 1.9-10.2 11.1-13.3 19.4-13.3 4.2 0 9.7 1.1 13.1 4.3 4.2 3.9 3.8 9.2 3.8 14.9v13.5c0 4.1 1.7 5.8 3.3 8 .6.8.7 1.7 0 2.3-1.8 1.6-4.9 4.4-6.7 5.9z"/><path class="st15" d="M2375.8 739.7c7.1 0 14-1.1 20.5-3 18.2 22.4 45.9 36.8 77.1 36.8 23 0 44.1-7.8 60.9-21 12.8 10.3 29.1 16.5 46.8 16.5 23.5 0 44.5-10.9 58.2-27.9 2.7.4 5.5.6 8.3.6 35.1 0 63.5-28.4 63.5-63.5 0-32.6-24.6-59.5-56.3-63.1-9.9-34.8-41.9-60.3-79.9-60.3-7.8 0-15.4 1.1-22.5 3.1-11.5-21.7-34.3-36.4-60.5-36.4-28.8 0-53.4 17.7-63.5 42.9-1.6-.2-3.3-.3-5-.3-21.7 0-40 14.7-45.5 34.7l-2.2-.1c-38.9 0-70.5 31.5-70.5 70.5.1 38.9 31.7 70.5 70.6 70.5zM2531.9 470.4c7.1 0 14-1.1 20.5-3 18.2 22.4 45.9 36.8 77.1 36.8 23 0 44.1-7.8 60.9-21 12.8 10.3 29.1 16.5 46.8 16.5 23.5 0 44.5-10.9 58.2-27.9 2.7.4 5.5.6 8.3.6 35.1 0 63.5-28.4 63.5-63.5 0-32.6-24.6-59.5-56.3-63.1-9.9-34.8-41.9-60.3-79.9-60.3-7.8 0-15.4 1.1-22.5 3.1-11.5-21.7-34.3-36.4-60.5-36.4-28.8 0-53.4 17.7-63.5 42.9-1.6-.2-3.3-.3-5-.3-21.7 0-40 14.7-45.5 34.7l-2.2-.1c-38.9 0-70.5 31.5-70.5 70.5.1 39 31.7 70.5 70.6 70.5zM2276.4 242.9c7.1 0 14-1.1 20.5-3 18.2 22.4 45.9 36.8 77.1 36.8 23 0 44.1-7.8 60.9-21 12.8 10.3 29.1 16.5 46.8 16.5 23.5 0 44.5-10.9 58.2-27.9 2.7.4 5.5.6 8.3.6 35.1 0 63.5-28.4 63.5-63.5 0-32.6-24.6-59.5-56.3-63.1-9.9-34.8-41.9-60.3-79.9-60.3-7.8 0-15.4 1.1-22.5 3.1-11.5-21.7-34.3-36.4-60.5-36.4-28.8 0-53.4 17.7-63.5 42.9-1.6-.2-3.3-.3-5-.3-21.7 0-40 14.7-45.5 34.7l-2.2-.1c-38.9 0-70.5 31.5-70.5 70.5.1 39 31.7 70.5 70.6 70.5z"/><path class="st16" d="M2451.7 153.3c.5-.2.6-.3.4-.8-1.1-3.1-5.2-4.8-8.7-3.3-2.8 1.2-4.8 4.1-4.8 7.3 0 4.4 3.2 8.3 7.5 8.3 2 0 3.4-.3 4.6-1.1.3-.2 1.8-1.5 1.8-1.7 0-.1-.2.1-.5.3-1 .5-2.4.7-3.6.7-2.3 0-4.2-1.5-5.4-3.4-.8-1.2-1.3-2.6-1.4-4.1-.2-2.3.4-4.9 2.9-5.5 1.7-.4 3.3.5 4 2.2.3.7.1 1.1-.6 1.4l-6.2 2.6 2.1.1c2.5-1 5.3-2 7.9-3zM2432.6 140.6h4.6c-.6.4-.9.6-1.1 1-.2.3-.2.9-.3 1.4-.3 6.2-.1 12.4-.1 18.6 0 1.7.7 1.5 2.9 1.4-.3.3-.9.8-1.3 1.1h-5.8c.7-.8 1.1-1.3 1.1-3.2 0-6.5-.2-12.7.2-18.9h-2.7c.7-.4 1.6-1 2.5-1.4zM2424.2 165.2l1 .7c1.9 1.2 2.6 2.7 2.4 4.1-.2 1.7-1.8 3-4.5 3.2-2.9.2-6.9-1-6.2-4.9.4-2.1 3.1-3.1 5.4-3.2l1.9.1zm6.7-16.1l-2 1.3h-2.3c1 .7 1.7 1.6 2.1 2.7.4 1.1.5 2.4.1 3.6-.4 1.1-1.2 2-2.5 2.8-.7.4-1 .9-1.1 1.4-.1 1.4 1.7 2.5 2.7 3.3 2.2 1.7 3.1 4.4 1.6 7.1-1.4 2.5-4.8 3.7-8.3 3.7-4.4 0-7.2-2.1-7.4-4.8-.2-3.6 3.5-5.3 6.8-5.7.9-.1 1.8-.1 2.5 0-1.2-.8-1.6-2.3-1-3.4.2-.3.1-.2-.2-.1-2.7.4-5.5-1.4-6.2-4-.3-1.4-.1-2.8.4-3.9 1.1-2.4 3.6-3.7 6.4-3.7 2.9-.3 5.5-.3 8.4-.3zm-5 5.9c.4 2.1-.2 4.2-2.1 4.7-2 .5-4.2-1-4.9-3.7-.8-3 0-4.9 1.9-5.5 2.2-.8 4.5 1.2 5.1 4.5zM2405.7 148.7c5.3 0 8.1 3.5 8.3 7.7.2 4.1-3.2 7.8-7.3 8.2-5 .5-9.4-2.9-9.4-7.9 0-4.5 3.8-8 8.4-8zm5 8.2c.3 3-.7 5.8-3.4 6.5-2.8.6-5.7-1.7-6.5-5.6-.8-4.3.5-7.1 3.2-7.8 3.1-.9 6.2 2.2 6.7 6.9zM2387.5 148.7c5.4 0 8.2 3.5 8.4 7.7.2 4.1-3.2 7.8-7.4 8.2-5.1.5-9.5-2.9-9.5-7.9 0-4.5 3.8-8 8.5-8zm5.1 8.2c.3 3-.7 5.8-3.5 6.5-2.8.6-5.8-1.7-6.5-5.6-.8-4.3.5-7.1 3.2-7.8 3.1-.9 6.3 2.2 6.8 6.9zM2374.1 146.5l2.4-2.5c-4.1-3.4-11.1-3.8-15.8-1.5-4.1 2-7 6.1-7.1 10.7-.2 4.8 2.6 8.6 5.5 10.5 4.7 3.1 12.7 2.4 17.6 0v-5.5l1.1-1.3h-7.1l-2.6 1.5 5.1-.2v4.4c0 .6 0 .7-1 1.1-1.5.4-3.1.5-4.6.3-5.1-.4-9-4.4-9.9-9.5-.9-4.8 1.4-9.3 5.2-11.1 1.9-.9 4.1-1.3 6.5-.6 1.5.5 2.9 1.4 4.1 2.6l-.8 1.5 1.4-.4z"/><path class="st13" d="M2362.4 183.8c-2.3 0-4.1.7-5.4 2.2-1.3 1.5-2 3.5-2 6 0 2.6.6 4.6 1.9 6.1 1.2 1.4 3 2.2 5.3 2.2 1.5 0 3-.2 4.2-.6v1.1c-1.2.4-2.7.6-4.5.6-2.6 0-4.6-.8-6.1-2.5s-2.2-4-2.2-7c0-1.9.4-3.5 1.1-4.9.7-1.4 1.7-2.5 3-3.3s2.9-1.2 4.6-1.2c1.8 0 3.4.3 4.8 1l-.5 1.2c-1.3-.5-2.7-.9-4.2-.9zM2371.2 201.3h-1.2v-19.5h1.2v19.5zM2387 194.4c0 2.2-.5 4-1.6 5.2-1.1 1.2-2.6 1.9-4.5 1.9-1.2 0-2.2-.3-3.2-.9-.9-.6-1.6-1.4-2.1-2.5s-.7-2.3-.7-3.7c0-2.2.5-4 1.6-5.2 1.1-1.2 2.6-1.9 4.4-1.9 1.9 0 3.3.6 4.4 1.9 1.2 1.3 1.7 3 1.7 5.2zm-10.8 0c0 1.9.4 3.3 1.2 4.4.8 1 2 1.6 3.5 1.6s2.7-.5 3.5-1.6c.8-1 1.2-2.5 1.2-4.4 0-1.9-.4-3.3-1.2-4.4-.8-1-2-1.6-3.5-1.6s-2.7.5-3.5 1.5c-.8 1.2-1.2 2.6-1.2 4.5zM2391.4 187.6v8.8c0 1.4.3 2.4.9 3 .6.6 1.5.9 2.7.9 1.6 0 2.8-.4 3.6-1.2.8-.8 1.1-2.2 1.1-4v-7.5h1.2v13.6h-1.1l-.2-1.9h-.1c-.9 1.4-2.5 2.1-4.7 2.1-3.1 0-4.7-1.7-4.7-5v-8.9h1.3zM2410 187.4c1 0 1.8.2 2.6.5.7.4 1.4 1 1.9 1.8h.1c-.1-1.1-.1-2.1-.1-3.1v-4.9h1.2v19.5h-.8l-.3-2.1h-.1c-1 1.6-2.5 2.3-4.5 2.3-1.9 0-3.3-.6-4.3-1.8-1-1.2-1.5-2.9-1.5-5.1 0-2.4.5-4.2 1.5-5.4 1-1.1 2.4-1.7 4.3-1.7zm0 1.1c-1.5 0-2.6.5-3.4 1.6-.7 1-1.1 2.6-1.1 4.6 0 3.9 1.5 5.8 4.5 5.8 1.5 0 2.7-.4 3.4-1.3.7-.9 1.1-2.4 1.1-4.4v-.2c0-2.1-.4-3.6-1.1-4.5-.7-1.1-1.8-1.6-3.4-1.6zM2437.3 188.2c0 1.8-.6 3.1-1.8 4.1-1.2.9-2.9 1.4-5.1 1.4h-2.8v7.6h-1.3v-18.3h4.5c4.3-.1 6.5 1.7 6.5 5.2zm-9.8 4.4h2.5c2.1 0 3.6-.3 4.5-1 .9-.7 1.4-1.8 1.4-3.3 0-1.4-.4-2.5-1.3-3.1-.9-.7-2.2-1-4-1h-3v8.4zM2441.6 201.3h-1.2v-19.5h1.2v19.5zM2453.9 201.3l-.3-2.2h-.1c-.7.9-1.4 1.5-2.1 1.9-.7.4-1.6.5-2.6.5-1.3 0-2.4-.3-3.1-1-.7-.7-1.1-1.6-1.1-2.8 0-1.3.6-2.4 1.7-3.1 1.1-.7 2.7-1.1 4.8-1.2l2.6-.1v-.9c0-1.3-.3-2.3-.8-2.9-.5-.7-1.4-1-2.5-1-1.3 0-2.6.4-3.9 1.1l-.5-1.1c1.5-.7 3-1.1 4.4-1.1 1.5 0 2.6.4 3.4 1.2.7.8 1.1 2 1.1 3.6v9.1h-1zm-5-.9c1.5 0 2.6-.4 3.4-1.2.8-.8 1.3-2 1.3-3.5v-1.3l-2.4.1c-1.9.1-3.3.4-4.1.9-.8.5-1.2 1.3-1.2 2.4 0 .9.3 1.5.8 2 .5.4 1.3.6 2.2.6zM2462.9 200.4c.8 0 1.5-.1 2.1-.2v1c-.6.2-1.3.3-2.1.3-1.2 0-2.1-.3-2.7-1-.6-.6-.9-1.7-.9-3v-8.8h-2v-.7l2-.6.6-3.1h.6v3.3h4v1.1h-4v8.6c0 1 .2 1.8.6 2.3.4.6 1 .8 1.8.8zM2472.9 188.7h-3.2v12.5h-1.2v-12.5h-2.5v-.7l2.5-.5v-1.1c0-1.7.3-2.9.9-3.7.6-.8 1.6-1.2 3-1.2.8 0 1.5.1 2.3.3l-.3 1.1c-.7-.2-1.3-.3-2-.3-1 0-1.7.3-2.1.9-.4.6-.6 1.5-.6 2.8v1.3h3.2v1.1zM2486.3 194.4c0 2.2-.5 4-1.6 5.2-1.1 1.2-2.6 1.9-4.5 1.9-1.2 0-2.2-.3-3.2-.9-.9-.6-1.6-1.4-2.1-2.5s-.7-2.3-.7-3.7c0-2.2.5-4 1.6-5.2 1.1-1.2 2.6-1.9 4.4-1.9 1.9 0 3.3.6 4.4 1.9 1.2 1.3 1.7 3 1.7 5.2zm-10.7 0c0 1.9.4 3.3 1.2 4.4.8 1 2 1.6 3.5 1.6s2.7-.5 3.5-1.6c.8-1 1.2-2.5 1.2-4.4 0-1.9-.4-3.3-1.2-4.4-.8-1-2-1.6-3.5-1.6s-2.7.5-3.5 1.5c-.8 1.2-1.2 2.6-1.2 4.5zM2495.5 187.4c.6 0 1.2.1 1.9.2l-.2 1.2c-.6-.1-1.2-.2-1.8-.2-1.2 0-2.1.5-2.9 1.5-.7 1-1.1 2.2-1.1 3.7v7.5h-1.2v-13.6h1.1l.1 2.5h.1c.6-1 1.2-1.7 1.8-2.1.5-.5 1.3-.7 2.2-.7zM2516.6 201.3v-8.9c0-1.3-.3-2.3-.8-2.9-.5-.6-1.3-.9-2.4-.9-1.4 0-2.4.4-3.1 1.2-.7.8-1 2-1 3.6v8h-1.3v-9.3c0-2.3-1.1-3.4-3.2-3.4-1.4 0-2.5.4-3.1 1.2-.7.8-1 2.2-1 4v7.5h-1.2v-13.6h1l.3 1.9h.1c.4-.7.9-1.2 1.6-1.6.7-.4 1.5-.6 2.3-.6 2.1 0 3.5.8 4.1 2.4h.1c.4-.8 1-1.4 1.8-1.8.7-.4 1.6-.6 2.6-.6 1.5 0 2.6.4 3.3 1.2.7.8 1.1 2.1 1.1 3.8v8.9h-1.2zM2528.1 201.3v-18.3h1.3v17.1h8.7v1.2h-10zM2540.8 183.9c0-.8.3-1.2.8-1.2.3 0 .5.1.6.3.1.2.2.5.2.9s-.1.7-.2.9c-.1.2-.3.3-.6.3-.5 0-.8-.4-.8-1.2zm1.4 17.4h-1.2v-13.6h1.2v13.6zM2549.8 201.3l-5.3-13.6h1.3l3.5 9.3c.5 1.2.8 2.2 1.1 3.1h.1c.3-1.1.7-2.2 1.1-3.1l3.5-9.2h1.3l-5.3 13.6h-1.3zM2564.1 201.5c-2 0-3.5-.6-4.6-1.8-1.1-1.2-1.7-2.9-1.7-5.1 0-2.2.5-3.9 1.6-5.2 1.1-1.3 2.5-2 4.3-2 1.6 0 2.9.6 3.8 1.7.9 1.1 1.4 2.6 1.4 4.6v1h-9.8c0 1.9.5 3.3 1.3 4.3.9 1 2.1 1.5 3.7 1.5.8 0 1.5-.1 2.1-.2.6-.1 1.3-.3 2.2-.7v1.1c-.8.3-1.5.6-2.1.7-.7.1-1.4.1-2.2.1zm-.4-13c-1.3 0-2.4.4-3.2 1.3-.8.9-1.3 2.1-1.4 3.7h8.4c0-1.6-.3-2.8-1-3.7-.6-.9-1.6-1.3-2.8-1.3zM2294.8 184.1c-7.2 0-13.1-5.9-13.1-13.1 0-7.2 5.9-13.1 13.1-13.1 7.2 0 13.1 5.9 13.1 13.1 0 7.2-5.8 13.1-13.1 13.1zm0-24.9c-6.5 0-11.8 5.3-11.8 11.8s5.3 11.8 11.8 11.8c6.5 0 11.8-5.3 11.8-11.8s-5.3-11.8-11.8-11.8zM2309.4 196h-29l-14.8-25.3 14.5-25h29.3l14.3 25.2-14.3 25.1zm-28.2-1.3h27.5l13.5-23.8-13.5-23.8h-27.7l-13.7 23.7 13.9 23.9zm13.6-10.2c-7.4 0-13.5-6-13.5-13.5s6-13.5 13.5-13.5c7.4 0 13.5 6 13.5 13.5s-6 13.5-13.5 13.5zm0-25.7c-6.7 0-12.2 5.5-12.2 12.2 0 6.7 5.5 12.2 12.2 12.2 6.7 0 12.2-5.5 12.2-12.2 0-6.7-5.5-12.2-12.2-12.2zM2340.2 167.9l-11.3-19.6-.5-.9-8.1-14c-1-1.7-3.4-3.1-5.4-3.1h-39.9c-2 0-4.4 1.4-5.4 3.1l-11.2 19.3-.5.9-8.3 14.4c-1 1.7-1 4.5 0 6.3l20 34.6c1 1.7 3.4 3.1 5.4 3.1h39.9c2 0 4.4-1.4 5.4-3.1l7.9-13.8 12-20.8c1-1.8 1-4.7 0-6.4zm-26.6-32c1.2 0 2.3 1 2.3 2.3 0 1.2-1 2.3-2.3 2.3-1.2 0-2.3-1-2.3-2.3 0-1.3 1-2.3 2.3-2.3zm-37.7 0c1.2 0 2.3 1 2.3 2.3 0 1.2-1 2.3-2.3 2.3-1.2 0-2.3-1-2.3-2.3.1-1.3 1.1-2.3 2.3-2.3zm-19 37.4c-1.2 0-2.3-1-2.3-2.3s1-2.3 2.3-2.3c1.2 0 2.3 1 2.3 2.3s-1 2.3-2.3 2.3zm19 32.4c-1.2 0-2.3-1-2.3-2.3 0-1.2 1-2.3 2.3-2.3 1.2 0 2.3 1 2.3 2.3 0 1.3-1 2.3-2.3 2.3zm37.7 0c-1.2 0-2.3-1-2.3-2.3 0-1.2 1-2.3 2.3-2.3 1.2 0 2.3 1 2.3 2.3 0 1.3-1.1 2.3-2.3 2.3zm-4.5-10.3h-28.200000000000003l-14.4-24.6 14.1-24.4h28.5l13.9 24.5-13.9 24.5zm23.5-22.1c-1.2 0-2.3-1-2.3-2.3s1-2.3 2.3-2.3c1.2 0 2.3 1 2.3 2.3s-1.1 2.3-2.3 2.3zM2294.8 158.2c-7.1 0-12.8 5.7-12.8 12.8s5.7 12.8 12.8 12.8c7.1 0 12.8-5.7 12.8-12.8s-5.7-12.8-12.8-12.8zm0 25.2c-6.9 0-12.5-5.6-12.5-12.5s5.6-12.5 12.5-12.5 12.5 5.6 12.5 12.5c0 7-5.6 12.5-12.5 12.5zM2294.8 184.5c-7.4 0-13.5-6-13.5-13.5s6-13.5 13.5-13.5c7.4 0 13.5 6 13.5 13.5s-6 13.5-13.5 13.5zm0-25.3c-6.5 0-11.8 5.3-11.8 11.8s5.3 11.8 11.8 11.8c6.5 0 11.8-5.3 11.8-11.8s-5.3-11.8-11.8-11.8z"/><path class="st17" d="M2378.5 667h32.1v-28.3l-32.1 4.5zM2377.5 667v-23.7l-24.6 3.4v20.3zM2378.5 668v23.8l32.1 4.5v-28.3zM2377.5 668h-24.6v20.3l24.6 3.4z"/><path class="st13" d="M2463.1 656.2c0 .6-.2 1-.6 1.4-.4.4-.9.6-1.4.6-.5 0-1-.2-1.4-.5-.4-.4-.6-.8-.6-1.4 0-.5.2-1 .6-1.4.4-.4.8-.6 1.4-.6.6 0 1 .2 1.4.6.4.3.6.8.6 1.3zM2457.2 654.9l-7.4 26.3h-3.6l-5.9-20.8h-.1l-5.9 20.8h-3.6l-7.7-26.3h3.4l6.1 21.9h.1l6.3-21.9h3l6 22h.1l5.8-22h3.4zM2462.7 681.2h-3v-18.8h3v18.8zM2482.7 681.2h-3v-10.7c0-4-1.5-6-4.4-6-1.5 0-2.7.6-3.7 1.7s-1.5 2.5-1.5 4.3v10.7h-3v-18.8h3v3.1h.1c1.4-2.4 3.5-3.6 6.2-3.6 2.1 0 3.6.7 4.7 2s1.6 3.3 1.6 5.7v11.6zM2503.5 681.2h-3v-3.2h-.1c-1.4 2.4-3.5 3.6-6.5 3.6-2.4 0-4.3-.9-5.7-2.6-1.4-1.7-2.1-4-2.1-6.8 0-3.1.8-5.6 2.3-7.5 1.6-1.9 3.6-2.8 6.3-2.8 2.6 0 4.4 1 5.6 3h.1v-11.6h3v27.9zm-3-8.5v-2.8c0-1.6-.5-2.8-1.5-3.9-1-1-2.3-1.5-3.8-1.5-1.8 0-3.2.7-4.3 2-1.1 1.3-1.6 3.2-1.6 5.6 0 2.2.5 3.9 1.5 5.1 1 1.3 2.4 1.9 4.1 1.9 1.7 0 3-.6 4.1-1.8s1.5-2.8 1.5-4.6zM2525.8 671.7c0 3-.8 5.4-2.5 7.2-1.7 1.8-4 2.7-6.8 2.7s-5-.9-6.6-2.6c-1.7-1.8-2.5-4.1-2.5-7 0-3.1.8-5.6 2.5-7.4 1.7-1.8 4-2.7 7-2.7 2.8 0 5 .9 6.5 2.6 1.6 1.8 2.4 4.2 2.4 7.2zm-3.1.1c0-2.4-.5-4.2-1.6-5.4-1-1.3-2.5-1.9-4.5-1.9-1.9 0-3.5.6-4.6 1.9-1.1 1.3-1.7 3.1-1.7 5.5 0 2.2.6 4 1.7 5.3 1.1 1.3 2.7 1.9 4.6 1.9 2 0 3.5-.6 4.5-1.9 1.1-1.3 1.6-3 1.6-5.4zM2553.1 662.4l-5.6 18.8h-3.1l-4.2-14.6h-.1l-4.5 14.6h-3l-5.7-18.8h3.2l4.1 15.1h.1l4.6-15.1h2.8l4.2 15.1h.1l4.1-15.1h3zM2565.8 676.1c0 1.6-.6 2.9-1.9 4-1.3 1-2.9 1.5-5 1.5-1.8 0-3.3-.4-4.7-1.1v-3.2c1.5 1.2 3.1 1.8 4.9 1.8 2.4 0 3.6-.9 3.6-2.6 0-.7-.2-1.3-.7-1.7-.5-.4-1.5-1-3.2-1.8-1.7-.7-2.8-1.5-3.5-2.3-.7-.8-1-1.9-1-3.2 0-1.6.6-2.8 1.9-3.9 1.2-1 2.8-1.6 4.7-1.6 1.5 0 2.8.3 4 .9v3c-1.2-.9-2.6-1.3-4.3-1.3-1 0-1.8.2-2.4.7-.6.5-.9 1.1-.9 1.9 0 .8.2 1.5.7 1.9.5.4 1.4 1 2.9 1.6 1.8.8 3 1.6 3.8 2.4.8.7 1.1 1.8 1.1 3zM2597.5 681.2h-3.4l-2.8-7.4h-11.2l-2.6 7.4h-3.4l10-26.3h3.2l10.2 26.3zm-7.2-10.2l-4.5-12.3h-.1l-4.5 12.3h9.1zM2614 663.3l-11.1 15.4h11v2.5h-15.4v-.9l11.1-15.3h-10.1v-2.5h14.5v.8zM2632.1 681.2h-3v-3h-.1c-1.2 2.3-3.2 3.4-5.8 3.4-4.5 0-6.7-2.7-6.7-8v-11.2h3v10.7c0 3.9 1.5 5.9 4.5 5.9 1.5 0 2.7-.5 3.6-1.6.9-1.1 1.4-2.5 1.4-4.2v-10.8h3v18.8zM2646.7 665.4c-.5-.4-1.3-.6-2.3-.6-1.3 0-2.4.6-3.2 1.9-.8 1.3-1.2 2.9-1.2 4.9v9.6h-3v-18.8h3v3.9h.1c.4-1.3 1.1-2.3 1.9-3.1.9-.8 1.9-1.1 3-1.1.8 0 1.4.1 1.8.3v3zM2663.6 672.5h-13.3c0 2.1.6 3.7 1.7 4.8 1.1 1.1 2.6 1.7 4.4 1.7 2.1 0 4.1-.7 5.8-2.1v2.8c-1.6 1.2-3.8 1.8-6.5 1.8s-4.8-.9-6.3-2.6c-1.5-1.7-2.3-4.1-2.3-7.2 0-1.9.4-3.6 1.1-5.1.8-1.5 1.8-2.7 3.1-3.6 1.3-.8 2.8-1.3 4.4-1.3 2.4 0 4.3.8 5.7 2.4 1.4 1.6 2 3.8 2 6.6v1.8zm-3.1-2.5c0-1.7-.4-3.1-1.3-4-.8-1-2-1.4-3.4-1.4s-2.6.5-3.6 1.5-1.6 2.3-1.9 4h10.2zM2504.1 389.8v6.1h17.7c5.3 0 7.1 1.4 7.1 6.7v3.9c0 5.3-1.8 6.7-7.1 6.7h-17.6c-5.3 0-7.1-1.4-7.1-6.7v-2h5.8v3.4h20.1v-6.5h-17.7c-5.3 0-7-1.4-7-6.7v-3.1c0-5.3 1.7-6.7 7-6.7h16.1c5.1 0 7 1.3 7 6.2v2h-5.8v-3.2h-18.5zM2542.6 384.9h20.9c5.3 0 7 1.4 7 6.7v15c0 5.3-1.7 6.7-7 6.7h-20.9c-5.3 0-7-1.4-7-6.7v-15c0-5.3 1.7-6.7 7-6.7m21.4 5h-21.8v18h21.8v-18zM2578 384.9h28.8v4.9h-22.2v7.5h12v5.2h-12v10.8h-6.6zM2632.1 413.3h-6.6v-23.4h-13.1v-5h32.8v5h-13.1zM2649.6 384.9h6.6v23h21.3v5.4h-27.9zM2697.8 384.9h6.4l16.3 28.4h-7.4l-3.4-6.2h-18l-3.3 6.2h-6.6l16-28.4zm9.1 17l-6.1-11.6-6.3 11.6h12.4zM2727.5 400.6l-14.8-15.7h8.8l9.7 10.9 9.8-10.9h7.8l-14.7 15.5v12.9h-6.6zM2789 384.9h24.3c4.3 0 6.4 1.5 6.4 5.5v6.7c0 4-2 5.5-6.4 5.5h-3.7l13.1 10.7h-9.5l-11.4-10.7h-6.3v10.7h-6.5v-28.4zm6.5 4.9v7.9h14.9c2 0 3-.4 3-2.3v-3.4c0-1.9-.9-2.3-3-2.3h-14.9zM2753.4 384.9h29.1v5.2h-29.1zM2753.4 396.4h29.1v5.2h-29.1zM2753.4 408h29.1v5.2h-29.1zM2827.6 384.9c2.1 0 3.8 1.7 3.8 3.9s-1.7 3.9-3.9 3.9c-2.1 0-3.9-1.7-3.9-3.9.1-2.2 1.8-3.9 4-3.9zm-.1.6c-1.7 0-3.1 1.5-3.1 3.3 0 1.9 1.4 3.3 3.1 3.3 1.7 0 3.1-1.5 3.1-3.3.1-1.8-1.3-3.3-3.1-3.3zm-.7 5.6h-.7v-4.4c.4-.1.7-.1 1.2-.1.7 0 1.1.1 1.4.3.3.2.4.5.4.9 0 .6-.4.9-.9 1.1.4.1.6.4.7 1.1.1.7.2.9.3 1.1h-.7c-.1-.1-.2-.5-.3-1.1-.1-.6-.4-.8-.9-.8h-.5v1.9zm0-2.4h.5c.6 0 1.1-.2 1.1-.7 0-.4-.3-.8-1.1-.8h-.5v1.5zM2827.6 384.9c2.1 0 3.8 1.7 3.8 3.9s-1.7 3.9-3.9 3.9c-2.1 0-3.9-1.7-3.9-3.9.1-2.2 1.8-3.9 4-3.9zm-.1.6c-1.7 0-3.1 1.5-3.1 3.3 0 1.9 1.4 3.3 3.1 3.3 1.7 0 3.1-1.5 3.1-3.3.1-1.8-1.3-3.3-3.1-3.3zm-.7 5.6h-.7v-4.4c.4-.1.7-.1 1.2-.1.7 0 1.1.1 1.4.3.3.2.4.5.4.9 0 .6-.4.9-.9 1.1.4.1.6.4.7 1.1.1.7.2.9.3 1.1h-.7c-.1-.1-.2-.5-.3-1.1-.1-.6-.4-.8-.9-.8h-.5v1.9zm0-2.4h.5c.6 0 1.1-.2 1.1-.7 0-.4-.3-.8-1.1-.8h-.5v1.5z"/><circle class="st10" cx="1179.1" cy="408" r="152.2"/><circle class="st10" cx="1564.5" cy="408" r="152.2"/><circle class="st2" cx="324.9" cy="301.8" r="13.7"/><circle class="st13" cx="318.9" cy="196.3" r="13.7"/><circle class="st13" cx="346.3" cy="502" r="13.7"/><circle class="st13" cx="310.1" cy="613.1" r="13.7"/></svg>