<?xml version="1.0" encoding="utf-8"?>
<!-- Generator: Adobe Illustrator 19.2.1, SVG Export Plug-In . SVG Version: 6.00 Build 0)  -->
<svg version="1.1" id="Layer_1" xmlns="http://www.w3.org/2000/svg" xmlns:xlink="http://www.w3.org/1999/xlink" x="0px" y="0px"
	 viewBox="0 0 200 59" style="enable-background:new 0 0 200 59;" xml:space="preserve">
<style type="text/css">
	.st0{fill:#FFFFFF;}
</style>
<path d="M193.1,59H7.2C3.4,59,0,56.5,0,52.6V7.4C0,3.5,3.4,0,7.2,0h185.9c3.9,0,6.9,3.5,6.9,7.4v45.2C200,56.5,197.1,59,193.1,59
	L193.1,59z"/>
<path d="M198.6,52.1c0,3.1-2.5,5.7-5.7,5.7H7.1c-3.1,0-5.7-2.5-5.7-5.7V6.9c0-3.1,2.5-5.7,5.7-5.7h185.9c3.1,0,5.7,2.5,5.7,5.7
	L198.6,52.1L198.6,52.1z"/>
<g>
	<g>
		<g>
			<path class="st0" d="M44.7,28c0-4.8,3.9-7.1,4.1-7.2c-2.2-3.3-5.7-3.7-6.9-3.7c-2.9-0.3-5.7,1.7-7.2,1.7c-1.5,0-3.8-1.7-6.3-1.7
				c-3.2,0-6.1,1.9-7.8,4.7c-3.4,5.8-0.9,14.4,2.4,19c1.6,2.3,3.5,4.9,5.9,4.8c2.4-0.1,3.3-1.5,6.2-1.5c2.9,0,3.7,1.5,6.2,1.5
				c2.6,0,4.2-2.3,5.8-4.6c1.9-2.6,2.6-5.2,2.6-5.4C49.7,35.6,44.7,33.7,44.7,28z"/>
			<path class="st0" d="M39.9,13.9c1.3-1.6,2.2-3.8,1.9-6.1C40,8,37.7,9.2,36.3,10.8c-1.2,1.4-2.3,3.7-2,5.8
				C36.4,16.7,38.6,15.5,39.9,13.9z"/>
		</g>
	</g>
	<g>
		<path class="st0" d="M79.5,45.3h-3.4l-1.8-5.8h-6.4l-1.8,5.8h-3.3l6.3-19.7h3.9L79.5,45.3z M73.8,37.1L72.1,32
			c-0.2-0.5-0.5-1.8-1-3.7H71c-0.2,0.8-0.5,2.1-0.9,3.7l-1.6,5.1H73.8z"/>
		<path class="st0" d="M95.8,38.1c0,2.4-0.7,4.3-2,5.7c-1.2,1.2-2.6,1.9-4.4,1.9c-1.9,0-3.2-0.7-4-2h-0.1v7.5h-3.2V35.8
			c0-1.5,0-3.1-0.1-4.7h2.8l0.2,2.3h0.1c1.1-1.7,2.7-2.5,4.8-2.5c1.7,0,3.1,0.7,4.2,2C95.3,34.1,95.8,35.9,95.8,38.1z M92.6,38.2
			c0-1.4-0.3-2.5-0.9-3.4c-0.7-0.9-1.6-1.4-2.7-1.4c-0.8,0-1.5,0.3-2.1,0.8c-0.6,0.5-1,1.2-1.2,2c-0.1,0.4-0.1,0.7-0.1,1v2.4
			c0,1,0.3,1.9,1,2.6c0.6,0.7,1.5,1.1,2.5,1.1c1.2,0,2.1-0.5,2.8-1.4C92.3,40.9,92.6,39.7,92.6,38.2z"/>
		<path class="st0" d="M112.2,38.1c0,2.4-0.7,4.3-2,5.7c-1.2,1.2-2.6,1.9-4.4,1.9c-1.9,0-3.2-0.7-4-2h-0.1v7.5h-3.2V35.8
			c0-1.5,0-3.1-0.1-4.7h2.8l0.2,2.3h0.1c1.1-1.7,2.6-2.5,4.8-2.5c1.7,0,3.1,0.7,4.2,2C111.6,34.1,112.2,35.9,112.2,38.1z M109,38.2
			c0-1.4-0.3-2.5-0.9-3.4c-0.7-0.9-1.6-1.4-2.7-1.4c-0.8,0-1.5,0.3-2.1,0.8c-0.6,0.5-1,1.2-1.2,2c-0.1,0.4-0.1,0.7-0.1,1v2.4
			c0,1,0.3,1.9,0.9,2.6c0.6,0.7,1.5,1.1,2.5,1.1c1.2,0,2.1-0.5,2.8-1.4C108.6,40.9,109,39.7,109,38.2z"/>
		<path class="st0" d="M130.5,39.8c0,1.7-0.6,3-1.8,4.1c-1.3,1.2-3.1,1.7-5.4,1.7c-2.1,0-3.8-0.4-5.1-1.2l0.7-2.6
			c1.4,0.8,2.9,1.3,4.6,1.3c1.2,0,2.1-0.3,2.8-0.8c0.7-0.5,1-1.3,1-2.2c0-0.8-0.3-1.5-0.8-2c-0.5-0.5-1.5-1.1-2.7-1.5
			c-3.5-1.3-5.2-3.2-5.2-5.7c0-1.6,0.6-2.9,1.8-4c1.2-1,2.8-1.6,4.8-1.6c1.8,0,3.3,0.3,4.5,0.9l-0.8,2.6c-1.1-0.6-2.4-0.9-3.8-0.9
			c-1.1,0-2,0.3-2.6,0.8c-0.5,0.5-0.8,1.1-0.8,1.8c0,0.8,0.3,1.4,0.9,1.9c0.5,0.5,1.5,1,2.9,1.5c1.7,0.7,2.9,1.5,3.7,2.4
			C130.1,37.3,130.5,38.4,130.5,39.8z"/>
		<path class="st0" d="M140.9,33.5h-3.5v6.9c0,1.8,0.6,2.6,1.8,2.6c0.6,0,1,0,1.4-0.1l0.1,2.4c-0.6,0.2-1.4,0.4-2.5,0.4
			c-1.2,0-2.2-0.4-2.9-1.1c-0.7-0.8-1.1-2-1.1-3.8v-7.2h-2.1v-2.4h2.1v-2.6l3.1-0.9v3.5h3.5V33.5z"/>
		<path class="st0" d="M156.6,38.1c0,2.2-0.6,4-1.9,5.4c-1.3,1.4-3,2.2-5.2,2.2c-2.1,0-3.7-0.7-5-2.1c-1.2-1.4-1.9-3.1-1.9-5.2
			c0-2.2,0.6-4,1.9-5.4c1.3-1.4,3-2.1,5.2-2.1c2.1,0,3.8,0.7,5,2.1C156,34.3,156.6,36,156.6,38.1z M153.3,38.2
			c0-1.3-0.3-2.4-0.8-3.4c-0.7-1.1-1.6-1.7-2.8-1.7c-1.3,0-2.2,0.6-2.9,1.7c-0.6,0.9-0.8,2.1-0.8,3.4c0,1.3,0.3,2.4,0.8,3.4
			c0.7,1.1,1.6,1.7,2.9,1.7c1.2,0,2.2-0.6,2.8-1.7C153,40.7,153.3,39.5,153.3,38.2z"/>
		<path class="st0" d="M166.9,33.9c-0.3-0.1-0.6-0.1-1-0.1c-1.1,0-2,0.4-2.6,1.3c-0.5,0.7-0.8,1.7-0.8,2.8v7.5h-3.2l0-9.7
			c0-1.6,0-3.1-0.1-4.5h2.8l0.1,2.7h0.1c0.3-0.9,0.9-1.7,1.6-2.3c0.7-0.5,1.5-0.8,2.3-0.8c0.3,0,0.6,0,0.8,0.1V33.9z"/>
		<path class="st0" d="M181,37.6c0,0.6,0,1-0.1,1.4h-9.5c0,1.4,0.5,2.5,1.4,3.2c0.8,0.7,1.8,1,3.1,1c1.4,0,2.7-0.2,3.8-0.7l0.5,2.2
			c-1.3,0.6-2.9,0.9-4.8,0.9c-2.2,0-3.9-0.6-5.2-1.9c-1.3-1.3-1.9-3-1.9-5.2c0-2.1,0.6-3.9,1.8-5.4c1.2-1.5,2.9-2.3,5-2.3
			c2,0,3.6,0.8,4.7,2.3C180.6,34.3,181,35.8,181,37.6z M178,36.7c0-0.9-0.2-1.7-0.6-2.4c-0.5-0.9-1.4-1.3-2.5-1.3
			c-1,0-1.9,0.4-2.5,1.3c-0.5,0.7-0.8,1.5-0.9,2.5H178z"/>
	</g>
	<g>
		<g>
			<path class="st0" d="M72.7,13.5c0,1.7-0.5,3.1-1.6,3.9c-1,0.8-2.3,1.2-4.1,1.2c-0.9,0-1.6,0-2.3-0.1V9c0.8-0.1,1.7-0.2,2.7-0.2
				c1.7,0,3,0.4,3.8,1.1C72.2,10.7,72.7,11.9,72.7,13.5z M71.1,13.5c0-1.1-0.3-2-0.9-2.6c-0.6-0.6-1.5-0.9-2.6-0.9
				c-0.5,0-0.9,0-1.2,0.1v7.2c0.2,0,0.5,0,1,0c1.2,0,2.1-0.3,2.8-1C70.7,15.8,71.1,14.8,71.1,13.5z"/>
			<path class="st0" d="M81.4,15c0,1.1-0.3,2-0.9,2.6c-0.6,0.7-1.5,1.1-2.6,1.1c-1,0-1.8-0.3-2.5-1c-0.6-0.7-0.9-1.5-0.9-2.6
				c0-1.1,0.3-2,0.9-2.7c0.6-0.7,1.5-1,2.5-1c1,0,1.8,0.3,2.5,1C81.1,13.1,81.4,14,81.4,15z M79.8,15.1c0-0.6-0.1-1.2-0.4-1.7
				c-0.3-0.6-0.8-0.8-1.4-0.8c-0.6,0-1.1,0.3-1.4,0.8c-0.3,0.5-0.4,1-0.4,1.7c0,0.6,0.1,1.2,0.4,1.7c0.3,0.6,0.8,0.8,1.4,0.8
				c0.6,0,1.1-0.3,1.4-0.8C79.6,16.3,79.8,15.7,79.8,15.1z"/>
			<path class="st0" d="M93,11.6l-2.2,7h-1.4l-0.9-3c-0.2-0.8-0.4-1.5-0.6-2.3h0c-0.1,0.8-0.3,1.5-0.6,2.3l-1,3H85l-2.1-7h1.6
				l0.8,3.3c0.2,0.8,0.3,1.5,0.5,2.2h0c0.1-0.6,0.3-1.3,0.6-2.2l1-3.3h1.3l0.9,3.3c0.2,0.8,0.4,1.6,0.6,2.3h0
				c0.1-0.7,0.3-1.5,0.5-2.3l0.8-3.3H93z"/>
			<path class="st0" d="M101.1,18.6h-1.6v-4c0-1.2-0.5-1.8-1.4-1.8c-0.5,0-0.8,0.2-1.1,0.5c-0.3,0.3-0.4,0.7-0.4,1.2v4.1H95v-5
				c0-0.6,0-1.3-0.1-2h1.4l0.1,1.1h0c0.2-0.3,0.5-0.6,0.8-0.8c0.4-0.3,0.9-0.4,1.4-0.4c0.7,0,1.2,0.2,1.6,0.6
				c0.5,0.5,0.8,1.3,0.8,2.3V18.6z"/>
			<path class="st0" d="M105.4,18.6h-1.6V8.4h1.6V18.6z"/>
			<path class="st0" d="M114.5,15c0,1.1-0.3,2-0.9,2.6c-0.6,0.7-1.5,1.1-2.6,1.1c-1,0-1.8-0.3-2.5-1c-0.6-0.7-0.9-1.5-0.9-2.6
				c0-1.1,0.3-2,0.9-2.7c0.6-0.7,1.5-1,2.5-1c1,0,1.8,0.3,2.5,1C114.2,13.1,114.5,14,114.5,15z M112.9,15.1c0-0.6-0.1-1.2-0.4-1.7
				c-0.3-0.6-0.8-0.8-1.4-0.8c-0.6,0-1.1,0.3-1.4,0.8c-0.3,0.5-0.4,1-0.4,1.7c0,0.6,0.1,1.2,0.4,1.7c0.3,0.6,0.8,0.8,1.4,0.8
				c0.6,0,1.1-0.3,1.4-0.8C112.7,16.3,112.9,15.7,112.9,15.1z"/>
			<path class="st0" d="M122,18.6h-1.4l-0.1-0.8h0c-0.5,0.6-1.2,1-2,1c-0.7,0-1.2-0.2-1.6-0.6c-0.4-0.4-0.5-0.9-0.5-1.4
				c0-0.9,0.4-1.5,1.1-2c0.7-0.4,1.7-0.7,3-0.7v-0.1c0-0.9-0.5-1.4-1.4-1.4c-0.7,0-1.3,0.2-1.8,0.5l-0.3-1c0.6-0.4,1.4-0.6,2.4-0.6
				c1.8,0,2.7,1,2.7,2.9v2.6C121.9,17.6,121.9,18.2,122,18.6z M120.4,16.2v-1.1c-1.7,0-2.6,0.4-2.6,1.4c0,0.4,0.1,0.6,0.3,0.8
				c0.2,0.2,0.5,0.3,0.8,0.3c0.3,0,0.7-0.1,0.9-0.3c0.3-0.2,0.5-0.5,0.5-0.8C120.4,16.4,120.4,16.3,120.4,16.2z"/>
			<path class="st0" d="M130.8,18.6h-1.4l-0.1-1.1h0c-0.4,0.9-1.2,1.3-2.2,1.3c-0.8,0-1.5-0.3-2.1-1c-0.6-0.7-0.8-1.5-0.8-2.6
				c0-1.1,0.3-2,0.9-2.7c0.6-0.7,1.3-1,2.2-1c0.9,0,1.6,0.3,2,0.9h0v-4h1.6v8.3C130.8,17.4,130.8,18,130.8,18.6z M129.2,15.6v-1.2
				c0-0.2,0-0.4,0-0.5c-0.1-0.4-0.3-0.7-0.6-0.9c-0.3-0.3-0.6-0.4-1-0.4c-0.6,0-1,0.2-1.4,0.7c-0.3,0.5-0.5,1-0.5,1.8
				c0,0.7,0.2,1.3,0.5,1.7c0.3,0.5,0.8,0.7,1.4,0.7c0.5,0,0.9-0.2,1.2-0.6C129.1,16.5,129.2,16.1,129.2,15.6z"/>
			<path class="st0" d="M144.1,15c0,1.1-0.3,2-0.9,2.6c-0.6,0.7-1.5,1.1-2.6,1.1c-1,0-1.8-0.3-2.5-1c-0.6-0.7-0.9-1.5-0.9-2.6
				c0-1.1,0.3-2,0.9-2.7c0.6-0.7,1.5-1,2.5-1c1,0,1.8,0.3,2.5,1C143.8,13.1,144.1,14,144.1,15z M142.5,15.1c0-0.6-0.1-1.2-0.4-1.7
				c-0.3-0.6-0.8-0.8-1.4-0.8c-0.6,0-1.1,0.3-1.4,0.8c-0.3,0.5-0.4,1-0.4,1.7c0,0.6,0.1,1.2,0.4,1.7c0.3,0.6,0.8,0.8,1.4,0.8
				c0.6,0,1.1-0.3,1.4-0.8C142.4,16.3,142.5,15.7,142.5,15.1z"/>
			<path class="st0" d="M152.5,18.6h-1.6v-4c0-1.2-0.5-1.8-1.4-1.8c-0.5,0-0.8,0.2-1.1,0.5c-0.3,0.3-0.4,0.7-0.4,1.2v4.1h-1.6v-5
				c0-0.6,0-1.3-0.1-2h1.4l0.1,1.1h0c0.2-0.3,0.5-0.6,0.8-0.8c0.4-0.3,0.9-0.4,1.4-0.4c0.7,0,1.2,0.2,1.6,0.6
				c0.5,0.5,0.8,1.3,0.8,2.3V18.6z"/>
			<path class="st0" d="M162.9,12.7h-1.7v3.4c0,0.9,0.3,1.3,0.9,1.3c0.3,0,0.5,0,0.7-0.1l0,1.2c-0.3,0.1-0.7,0.2-1.2,0.2
				c-0.6,0-1.1-0.2-1.4-0.6c-0.3-0.4-0.5-1-0.5-1.9v-3.5h-1v-1.2h1v-1.3l1.5-0.5v1.7h1.7V12.7z"/>
			<path class="st0" d="M171.1,18.6h-1.6v-4c0-1.3-0.5-1.9-1.4-1.9c-0.7,0-1.2,0.4-1.5,1.1c0,0.2-0.1,0.3-0.1,0.6v4.2h-1.6V8.4h1.6
				v4.2h0c0.5-0.8,1.2-1.1,2.1-1.1c0.6,0,1.2,0.2,1.6,0.6c0.5,0.5,0.8,1.3,0.8,2.3V18.6z"/>
			<path class="st0" d="M179.6,14.7c0,0.3,0,0.5-0.1,0.7h-4.7c0,0.7,0.2,1.2,0.7,1.6c0.4,0.3,0.9,0.5,1.5,0.5c0.7,0,1.3-0.1,1.9-0.3
				l0.2,1.1c-0.7,0.3-1.4,0.4-2.3,0.4c-1.1,0-1.9-0.3-2.5-1c-0.6-0.6-0.9-1.5-0.9-2.6c0-1.1,0.3-1.9,0.9-2.6
				c0.6-0.7,1.4-1.1,2.4-1.1c1,0,1.8,0.4,2.3,1.1C179.4,13.1,179.6,13.9,179.6,14.7z M178.1,14.3c0-0.5-0.1-0.9-0.3-1.2
				c-0.3-0.4-0.7-0.6-1.2-0.6c-0.5,0-0.9,0.2-1.2,0.6c-0.3,0.3-0.4,0.7-0.5,1.2H178.1z"/>
		</g>
	</g>
</g>
</svg>
