<?xml version="1.0" encoding="utf-8"?>
<!-- Generator: Adobe Illustrator 19.2.1, SVG Export Plug-In . SVG Version: 6.00 Build 0)  -->
<svg version="1.1" id="Layer_1" xmlns="http://www.w3.org/2000/svg" xmlns:xlink="http://www.w3.org/1999/xlink" x="0px" y="0px"
	 viewBox="0 0 142 142" style="enable-background:new 0 0 142 142;" xml:space="preserve">
<style type="text/css">
	.st0{fill:#34495E;}
	.st1{fill:#FFFFFF;}
	.st2{fill:#BDC3C7;}
	.st3{fill:#3498DB;}
</style>
<g>
	<path class="st0" d="M142,71c0,0.1,0,0.3,0,0.4c-0.1,22.6-10.8,42.6-27.3,55.5c-12,9.4-27.2,15.1-43.7,15.1c-2.7,0-5.4-0.2-8-0.5
		c-35.4-4-63-34.1-63-70.5C0,31.8,31.8,0,71,0c35.6,0,65,26.1,70.2,60.2C141.7,63.7,142,67.3,142,71z"/>
	<g>
		<g>
			<g>
				<path class="st1" d="M112.5,106.5c-4.7-2.5-8.5-6.1-10.6-10.4l0,0c5.4-4,8.9-9.9,8.9-16.4c0-2.9-0.7-5.6-1.9-8.1
					c-1.5-3.1-3.8-5.9-6.8-8.1c-0.1-0.1-0.2-0.2-0.3-0.2c-4.7-3.4-10.9-5.5-17.7-5.5c-14.7,0-26.7,9.8-26.7,22
					c0,4.5,1.6,8.7,4.5,12.2c4.8,5.9,13,9.8,22.2,9.8c2.4,0,4.8-0.3,7.1-0.8c4.8,3.6,11.1,5.8,18,5.8
					C110.4,106.7,111.5,106.6,112.5,106.5z"/>
				<path class="st2" d="M101.9,65c0,15.2-14.9,27.5-33.3,27.5c-2.3,0-4.5-0.2-6.7-0.6c-2.8-3.5-4.5-7.7-4.5-12.2
					c0-12.2,12-22,26.7-22c6.8,0,13,2.1,17.7,5.5C101.9,63.8,101.9,64.4,101.9,65z"/>
			</g>
			<path class="st1" d="M64.9,35.3c-8.7,0-16.6,2.7-22.5,7.2c-3.7,2.8-6.6,6.2-8.5,10.1c-1.5,3.1-2.4,6.6-2.4,10.2
				c0,8.1,4.3,15.4,11.1,20.4h0c-2.6,5.4-7.3,10-13.2,13c1.3,0.1,2.7,0.2,4.1,0.2c8.7,0,16.6-2.7,22.5-7.2c0,0,0,0,0,0
				c2.8,0.6,5.8,1,8.8,1c1.1,0,2.1,0,3.1-0.1c2.4-0.2,4.7-0.6,6.9-1.1c2.1-0.5,4.1-1.2,6-2.1c4.2-1.9,7.8-4.5,10.7-7.6
				c1.3-1.4,2.5-3,3.4-4.6c1-1.8,1.8-3.7,2.4-5.6c0.6-2,0.9-4.1,0.9-6.3C98.3,47.6,83.4,35.3,64.9,35.3z"/>
			<path class="st3" d="M79,55.9c-9.4,0-18.7,0-28.1,0c-2.9,0-2.9-4.4,0-4.4c9.4,0,18.7,0,28.1,0C81.9,51.5,81.9,55.9,79,55.9z"/>
			<path class="st3" d="M79,63.9c-9.4,0-18.7,0-28.1,0c-2.9,0-2.9-4.4,0-4.4c9.4,0,18.7,0,28.1,0C81.9,59.5,81.9,64,79,63.9z"/>
			<path class="st3" d="M79,72c-9.4,0-18.7,0-28.1,0c-2.9,0-2.9-4.4,0-4.4c9.4,0,18.7,0,28.1,0C81.9,67.6,81.9,72,79,72z"/>
		</g>
	</g>
</g>
</svg>
