<?xml version="1.0" encoding="utf-8"?>
<!-- Generator: Adobe Illustrator 19.2.1, SVG Export Plug-In . SVG Version: 6.00 Build 0)  -->
<svg version="1.1" id="Layer_1" xmlns="http://www.w3.org/2000/svg" xmlns:xlink="http://www.w3.org/1999/xlink" x="0px" y="0px"
	 viewBox="0 0 142 142" style="enable-background:new 0 0 142 142;" xml:space="preserve">
<style type="text/css">
	.st0{fill:#34495E;}
	.st1{fill:#16BC9C;}
	.st2{fill:#2BCC71;}
	.st3{fill:#3498DB;}
</style>
<g>
	<path class="st0" d="M142,71c0,0.1,0,0.3,0,0.4c-0.1,22.6-10.8,42.6-27.3,55.5c-12,9.4-27.2,15.1-43.7,15.1c-2.7,0-5.4-0.2-8-0.5
		c-35.4-4-63-34.1-63-70.5C0,31.8,31.8,0,71,0c35.6,0,65,26.1,70.2,60.2C141.7,63.7,142,67.3,142,71z"/>
	<g>
		<path class="st1" d="M50.3,81.3l-18.6,6c6.1,14.6,20,25.1,36.5,26.2V93.9C60.4,93,53.7,88.1,50.3,81.3z"/>
		<path class="st2" d="M94,35.3c-6.6-4.3-14.5-6.8-23-6.8c-8.5,0-16.3,2.5-23,6.8l11.5,15.8c3.4-2,7.3-3.1,11.5-3.1
			c4.2,0,8.1,1.1,11.5,3.1L94,35.3z"/>
		<path class="st3" d="M47.9,71c0-6.6,2.7-12.5,7.1-16.7L43.6,38.6C34.4,46.4,28.5,58.1,28.5,71c0,3.8,0.5,7.5,1.5,11l18.5-6
			C48.1,74.4,47.9,72.8,47.9,71z"/>
		<path class="st3" d="M98.4,38.6L86.9,54.4c4.4,4.2,7.1,10.1,7.1,16.7c0,1.7-0.2,3.4-0.5,5l18.5,6c0.9-3.5,1.5-7.2,1.5-11
			C113.5,58.1,107.6,46.4,98.4,38.6z"/>
		<path class="st1" d="M73.8,93.9v19.5c16.5-1.1,30.4-11.6,36.5-26.2l-18.6-6C88.3,88.1,81.6,93,73.8,93.9z"/>
	</g>
</g>
</svg>
