<?xml version="1.0" encoding="utf-8"?>
<!-- Generator: Adobe Illustrator 19.2.1, SVG Export Plug-In . SVG Version: 6.00 Build 0)  -->
<svg version="1.1" id="Layer_1" xmlns="http://www.w3.org/2000/svg" xmlns:xlink="http://www.w3.org/1999/xlink" x="0px" y="0px"
	 viewBox="0 0 180.2 193.8" style="enable-background:new 0 0 180.2 193.8;" xml:space="preserve">
<style type="text/css">
	.st0{fill:#166B91;}
	.st1{fill:#1D78AA;}
	.st2{fill:#3498DB;}
	.st3{fill:#E44044;}
	.st4{fill:#51B0E5;}
</style>
<g>
	<g>
		<polygon class="st0" points="67.1,46.8 56.6,53.8 57.3,65.2 77.3,51.9 		"/>
		<polygon class="st1" points="74.5,27.7 85.8,33.3 95.3,27 73.8,16.3 		"/>
		<polygon class="st2" points="54.3,30.8 53.5,18.3 43.2,13.2 44.8,37.2 		"/>
		<polygon class="st3" points="53.2,43.1 53.3,43.1 45.5,48.3 45.5,48.3 45.5,48.3 48.8,46.1 		"/>
		<polygon class="st1" points="65.3,35.1 53.2,43.1 48.8,46.1 45.5,48.3 36,54.6 47.1,60.1 56.6,53.8 67.1,46.8 77.3,51.9 
			57.3,65.2 67.6,70.2 96.8,50.7 83.1,43.9 		"/>
		<polygon class="st2" points="65.3,35.1 65.3,35.1 65.3,35.1 83.1,43.9 96.8,50.7 96.8,50.7 96,38.4 85.8,33.3 74.5,27.7 
			73.8,16.3 95.3,27 94.6,15.6 63,0 64,15.4 		"/>
		<polygon class="st4" points="45.5,48.3 53.3,43.1 65.3,35.1 65.3,35.1 64,15.4 63,0 63,0 52.7,6.9 53.5,18.3 54.3,30.8 44.8,37.2 
			44.8,37.2 43.2,13.2 33.8,19.5 36,54.6 		"/>
	</g>
	<g>
		<polygon class="st0" points="148.7,87.7 160.6,100.2 175.8,96.5 153.1,72.7 		"/>
		<polygon class="st1" points="121.2,82.3 126.1,65.7 115.3,54.5 106.1,86 		"/>
		<polygon class="st2" points="130.3,108.8 113.5,112.9 109.2,127.9 141.1,120.1 		"/>
		<polygon class="st3" points="147.1,107.2 147.1,107.2 155.9,116.5 155.9,116.5 155.9,116.5 152.2,112.5 		"/>
		<polygon class="st1" points="133.4,92.9 147.1,107.2 152.2,112.5 155.9,116.5 166.7,127.7 171.4,111.5 160.6,100.2 148.7,87.7 
			153.1,72.7 175.8,96.5 180.2,81.5 146.9,46.7 141,66.9 		"/>
		<polygon class="st2" points="133.4,92.9 133.4,92.9 133.4,92.9 141,66.9 146.9,46.7 146.9,46.7 130.5,50.8 126.1,65.7 121.2,82.3 
			106.1,86 115.3,54.5 100.1,58.2 86.7,104.4 107.1,99.4 		"/>
		<polygon class="st4" points="155.9,116.5 147.1,107.2 133.4,92.9 133.4,92.9 107.1,99.4 86.7,104.4 86.7,104.4 98.4,116.6 
			113.5,112.9 130.3,108.8 141.1,120.1 141.1,120.1 109.2,127.9 119.9,139.1 166.7,127.7 		"/>
	</g>
	<g>
		<polygon class="st0" points="75.4,139.6 77.8,161.4 96,169.4 91.4,127.9 		"/>
		<polygon class="st1" points="51.9,112.9 69.6,100 67.4,80.3 33.8,105 		"/>
		<polygon class="st2" points="40.6,146.6 20.5,137.8 4.5,149.5 42.7,166.3 		"/>
		<polygon class="st3" points="58.7,158.1 58.7,158.1 60.5,174.2 60.5,174.2 60.5,174.1 59.7,167.3 		"/>
		<polygon class="st1" points="56,133.1 58.7,158.1 59.7,167.3 60.5,174.1 62.6,193.8 80,181.1 77.8,161.4 75.4,139.6 91.4,127.9 
			96,169.4 111.9,157.7 105.3,96.9 83.7,112.7 		"/>
		<polygon class="st2" points="56,133.1 56,133.1 56,133.1 83.7,112.7 105.3,96.9 105.3,96.9 85.6,88.2 69.6,100 51.9,112.9 
			33.8,105 67.4,80.3 49.3,72.3 0,108.5 24.5,119.2 		"/>
		<polygon class="st4" points="60.5,174.2 58.7,158.1 56,133.1 56,133.1 24.5,119.2 0,108.5 0,108.5 2.3,129.8 20.5,137.8 
			40.6,146.6 42.7,166.3 42.7,166.4 4.5,149.5 6.7,169.2 62.6,193.8 		"/>
	</g>
</g>
</svg>
