<?xml version="1.0" encoding="utf-8"?>
<!-- Generator: Adobe Illustrator 19.2.1, SVG Export Plug-In . SVG Version: 6.00 Build 0)  -->
<svg version="1.1" id="Layer_1" xmlns="http://www.w3.org/2000/svg" xmlns:xlink="http://www.w3.org/1999/xlink" x="0px" y="0px"
	 viewBox="0 0 142 142" style="enable-background:new 0 0 142 142;" xml:space="preserve">
<style type="text/css">
	.st0{fill:#34495E;}
	.st1{fill:#25AE60;}
	.st2{fill:#2EBC67;}
	.st3{fill:#2BCC71;}
</style>
<g>
	<path class="st0" d="M142,71c0,0.1,0,0.3,0,0.4c-0.1,22.6-10.8,42.6-27.3,55.5c-12,9.4-27.2,15.1-43.7,15.1c-2.7,0-5.4-0.2-8-0.5
		c-35.4-4-63-34.1-63-70.5C0,31.8,31.8,0,71,0c35.6,0,65,26.1,70.2,60.2C141.7,63.7,142,67.3,142,71z"/>
	<g id="XMLID_4527_">
		<g>
			<polygon class="st1" points="113.1,40.6 113.1,64.9 92,52.8 			"/>
			<polygon class="st2" points="113.1,40.6 92,52.8 92,28.5 			"/>
			<polygon class="st1" points="113.1,64.9 92,77.1 92,52.8 			"/>
			<polygon class="st1" points="92,77.1 92,101.4 71,89.2 			"/>
			<polygon class="st3" points="92,52.8 92,77.1 71,64.9 			"/>
			<polygon class="st2" points="92,28.5 92,52.8 71,40.6 			"/>
			<polygon class="st3" points="92,52.8 71,64.9 71,40.6 			"/>
			<polygon class="st2" points="92,77.1 71,89.2 71,64.9 			"/>
			<polygon class="st1" points="92,101.4 71,113.5 71,89.2 			"/>
			<polygon class="st3" points="71,89.2 71,113.5 50,101.4 			"/>
			<polygon class="st2" points="71,64.9 71,89.2 50,77.1 			"/>
			<polygon class="st1" points="71,40.6 71,64.9 50,52.8 			"/>
			<polygon class="st2" points="71,40.6 50,52.8 50,28.5 			"/>
			<polygon class="st1" points="71,64.9 50,77.1 50,52.8 			"/>
			<polygon class="st3" points="71,89.2 50,101.4 50,77.1 			"/>
			<polygon class="st3" points="50,52.8 50,77.1 28.9,64.9 			"/>
			<polygon class="st2" points="50,28.5 50,52.8 28.9,40.6 			"/>
			<polygon class="st3" points="50,52.8 28.9,64.9 28.9,40.6 			"/>
		</g>
	</g>
</g>
</svg>
