<?xml version="1.0" encoding="utf-8"?>
<!-- Generator: Adobe Illustrator 19.2.1, SVG Export Plug-In . SVG Version: 6.00 Build 0)  -->
<svg version="1.1" id="Layer_1" xmlns="http://www.w3.org/2000/svg" xmlns:xlink="http://www.w3.org/1999/xlink" x="0px" y="0px"
	 viewBox="0 0 142 142" style="enable-background:new 0 0 142 142;" xml:space="preserve">
<style type="text/css">
	.st0{fill:#34495E;}
	.st1{fill:#16BC9C;}
	.st2{fill:#13A085;}
	.st3{fill:#3498DB;}
	.st4{fill:#2980B9;}
	.st5{fill:#2BCC71;}
	.st6{fill:#25AE60;}
</style>
<g>
	<path class="st0" d="M142,71c0,0.1,0,0.3,0,0.4c-0.1,22.6-10.8,42.6-27.3,55.5c-12,9.4-27.2,15.1-43.7,15.1c-2.7,0-5.4-0.2-8-0.5
		c-35.4-4-63-34.1-63-70.5C0,31.8,31.8,0,71,0c35.6,0,65,26.1,70.2,60.2C141.7,63.7,142,67.3,142,71z"/>
	<g>
		<g>
			<g>
				<g>
					<g>
						<path class="st1" d="M68,57.3H56.4c-1,0-1.9-0.8-1.9-1.9c0-1,0.8-1.9,1.9-1.9h9.8v-1.4c0-6.9-5.6-12.5-12.5-12.5h-9
							c-6.9,0-12.5,5.6-12.5,12.5v1.4H42c1,0,1.9,0.8,1.9,1.9c0,1-0.8,1.9-1.9,1.9H30.4c-1,0-1.9-0.8-1.9-1.9v-3.2
							c0-8.9,7.3-16.2,16.2-16.2h9c8.9,0,16.2,7.3,16.2,16.2v3.2C69.9,56.5,69,57.3,68,57.3z"/>
					</g>
				</g>
				<g>
					<g>
						<path class="st2" d="M43.8,55.5c0-1-0.8-1.9-1.9-1.9h-8.2l0.4,3.7H42C43,57.3,43.8,56.5,43.8,55.5z"/>
					</g>
					<g>
						<path class="st2" d="M64.6,53.6h-8.2c-1,0-1.9,0.8-1.9,1.9c0,1,0.8,1.9,1.9,1.9h7.8L64.6,53.6z"/>
					</g>
				</g>
				<g>
					<g>
						<polygon class="st1" points="59.7,81.4 38.6,81.4 35.1,50.8 63.3,50.8 						"/>
					</g>
				</g>
				<g>
					<g>
						<path class="st2" d="M60.3,55.9H37.4c-0.3,0-0.5-0.2-0.5-0.5c0-0.3,0.2-0.5,0.5-0.5h22.9c0.3,0,0.5,0.2,0.5,0.5
							C60.8,55.7,60.6,55.9,60.3,55.9z"/>
					</g>
				</g>
				<g>
					<g>
						<path class="st2" d="M57.3,66.5H40.4c-0.2,0-0.3-0.2-0.3-0.5c0-0.3,0.2-0.5,0.3-0.5h16.9c0.2,0,0.3,0.2,0.3,0.5
							C57.7,66.3,57.5,66.5,57.3,66.5z"/>
					</g>
				</g>
				<g>
					<g>
						<path class="st2" d="M56.2,79.5H42.1c-0.3,0-0.5-0.2-0.5-0.5c0-0.3,0.2-0.5,0.5-0.5h14.1c0.3,0,0.5,0.2,0.5,0.5
							C56.7,79.3,56.5,79.5,56.2,79.5z"/>
					</g>
				</g>
			</g>
			<g>
				<g>
					<g>
						<path class="st3" d="M111.6,57.3H100c-1,0-1.9-0.8-1.9-1.9c0-1,0.8-1.9,1.9-1.9h9.8v-1.4c0-6.9-5.6-12.5-12.5-12.5h-9
							c-6.9,0-12.5,5.6-12.5,12.5v1.4h9.8c1,0,1.9,0.8,1.9,1.9c0,1-0.8,1.9-1.9,1.9H74c-1,0-1.9-0.8-1.9-1.9v-3.2
							c0-8.9,7.3-16.2,16.2-16.2h9c8.9,0,16.2,7.3,16.2,16.2v3.2C113.5,56.5,112.7,57.3,111.6,57.3z"/>
					</g>
				</g>
				<g>
					<g>
						<path class="st4" d="M87.4,55.5c0-1-0.8-1.9-1.9-1.9h-8.2l0.4,3.7h7.8C86.6,57.3,87.4,56.5,87.4,55.5z"/>
					</g>
					<g>
						<path class="st4" d="M108.3,53.6H100c-1,0-1.9,0.8-1.9,1.9c0,1,0.8,1.9,1.9,1.9h7.8L108.3,53.6z"/>
					</g>
				</g>
				<g>
					<g>
						<polygon class="st3" points="103.4,81.4 82.3,81.4 78.7,50.8 106.9,50.8 						"/>
					</g>
				</g>
				<g>
					<g>
						<path class="st4" d="M104,55.9H81c-0.3,0-0.5-0.2-0.5-0.5c0-0.3,0.2-0.5,0.5-0.5H104c0.3,0,0.5,0.2,0.5,0.5
							C104.4,55.7,104.2,55.9,104,55.9z"/>
					</g>
				</g>
				<g>
					<g>
						<path class="st4" d="M100.9,66.5H84.1c-0.2,0-0.3-0.2-0.3-0.5c0-0.3,0.2-0.5,0.3-0.5h16.9c0.2,0,0.3,0.2,0.3,0.5
							C101.3,66.3,101.1,66.5,100.9,66.5z"/>
					</g>
				</g>
				<g>
					<g>
						<path class="st4" d="M99.9,79.5H85.7c-0.3,0-0.5-0.2-0.5-0.5c0-0.3,0.2-0.5,0.5-0.5h14.1c0.3,0,0.5,0.2,0.5,0.5
							C100.3,79.3,100.1,79.5,99.9,79.5z"/>
					</g>
				</g>
			</g>
		</g>
		<g>
			<g>
				<g>
					<path class="st5" d="M89.8,81.9H78.2c-1,0-1.9-0.8-1.9-1.9c0-1,0.8-1.9,1.9-1.9H88v-1.4c0-6.9-5.6-12.5-12.5-12.5h-9
						C59.6,64.3,54,70,54,76.8v1.4h9.8c1,0,1.9,0.8,1.9,1.9c0,1-0.8,1.9-1.9,1.9H52.2c-1,0-1.9-0.8-1.9-1.9v-3.2
						c0-8.9,7.3-16.2,16.2-16.2h9c8.9,0,16.2,7.3,16.2,16.2v3.2C91.7,81.1,90.9,81.9,89.8,81.9z"/>
				</g>
			</g>
			<g>
				<g>
					<path class="st6" d="M65.6,80.1c0-1-0.8-1.9-1.9-1.9h-8.2l0.4,3.7h7.8C64.8,81.9,65.6,81.1,65.6,80.1z"/>
				</g>
				<g>
					<path class="st6" d="M86.5,78.2h-8.2c-1,0-1.9,0.8-1.9,1.9c0,1,0.8,1.9,1.9,1.9H86L86.5,78.2z"/>
				</g>
			</g>
			<g>
				<g>
					<polygon class="st5" points="81.5,106 60.5,106 56.9,75.4 85.1,75.4 					"/>
				</g>
			</g>
			<g>
				<g>
					<path class="st6" d="M82.1,80.5H59.2c-0.3,0-0.5-0.2-0.5-0.5c0-0.3,0.2-0.5,0.5-0.5h22.9c0.3,0,0.5,0.2,0.5,0.5
						C82.6,80.3,82.4,80.5,82.1,80.5z"/>
				</g>
			</g>
			<g>
				<g>
					<path class="st6" d="M79.1,91.1H62.2c-0.2,0-0.3-0.2-0.3-0.5c0-0.3,0.2-0.5,0.3-0.5h16.9c0.2,0,0.3,0.2,0.3,0.5
						C79.5,90.9,79.3,91.1,79.1,91.1z"/>
				</g>
			</g>
			<g>
				<g>
					<path class="st6" d="M78.1,104.1H63.9c-0.3,0-0.5-0.2-0.5-0.5c0-0.3,0.2-0.5,0.5-0.5h14.1c0.3,0,0.5,0.2,0.5,0.5
						C78.5,103.9,78.3,104.1,78.1,104.1z"/>
				</g>
			</g>
		</g>
	</g>
</g>
</svg>
