<?xml version="1.0" encoding="utf-8"?>
<!-- Generator: Adobe Illustrator 19.2.1, SVG Export Plug-In . SVG Version: 6.00 Build 0)  -->
<svg version="1.1" id="Layer_1" xmlns="http://www.w3.org/2000/svg" xmlns:xlink="http://www.w3.org/1999/xlink" x="0px" y="0px"
	 viewBox="0 0 142 142" style="enable-background:new 0 0 142 142;" xml:space="preserve">
<style type="text/css">
	.st0{fill:#ECF0F1;}
	.st1{fill:#D8A912;}
	.st2{fill:#F1C411;}
	.st3{fill:#FFD243;}
</style>
<g>
	<path class="st0" d="M142,71c0,0.1,0,0.3,0,0.4c-0.1,22.6-10.8,42.6-27.3,55.5c-12,9.4-27.2,15.1-43.7,15.1c-2.7,0-5.4-0.2-8-0.5
		c-35.4-4-63-34.1-63-70.5C0,31.8,31.8,0,71,0c35.6,0,65,26.1,70.2,60.2C141.7,63.7,142,67.3,142,71z"/>
	<g id="XMLID_4417_">
		<g>
			<polygon class="st1" points="92.4,52.5 92.4,77.2 113.8,64.8 113.8,40.1 			"/>
			<polygon class="st2" points="92.4,27.8 71,40.1 92.4,52.5 113.8,40.1 			"/>
			<polygon class="st3" points="71,40.1 71,64.8 92.4,77.2 92.4,52.5 			"/>
			<polygon class="st1" points="71,89.5 71,114.2 92.4,101.9 92.4,77.2 			"/>
			<polygon class="st2" points="71,64.8 49.6,77.2 71,89.5 92.4,77.2 			"/>
			<polygon class="st1" points="49.6,52.5 49.6,77.2 71,64.8 71,40.1 			"/>
			<polygon class="st3" points="49.6,77.2 49.6,101.9 71,114.2 71,89.5 			"/>
			<polygon class="st2" points="49.6,27.8 28.2,40.1 49.6,52.5 71,40.1 			"/>
			<polygon class="st3" points="28.2,40.1 28.2,64.8 49.6,77.2 49.6,52.5 			"/>
		</g>
	</g>
</g>
</svg>
