<?xml version="1.0" encoding="utf-8"?>
<!-- Generator: Adobe Illustrator 19.2.1, SVG Export Plug-In . SVG Version: 6.00 Build 0)  -->
<svg version="1.1" id="Layer_1" xmlns="http://www.w3.org/2000/svg" xmlns:xlink="http://www.w3.org/1999/xlink" x="0px" y="0px"
	 viewBox="0 0 142 142" style="enable-background:new 0 0 142 142;" xml:space="preserve">
<style type="text/css">
	.st0{fill:#34495E;}
	.st1{fill:#2980B9;}
	.st2{fill:#FFFFFF;}
	.st3{fill:#E74C3C;}
	.st4{fill:#E67E22;}
</style>
<g>
	<path class="st0" d="M142,71c0,0.1,0,0.3,0,0.4c-0.1,22.6-10.8,42.6-27.3,55.5c-12,9.4-27.2,15.1-43.7,15.1c-2.7,0-5.4-0.2-8-0.5
		c-35.4-4-63-34.1-63-70.5C0,31.8,31.8,0,71,0c35.6,0,65,26.1,70.2,60.2C141.7,63.7,142,67.3,142,71z"/>
	<g>
		<g>
			
				<rect x="81.8" y="40.9" transform="matrix(0.9012 -0.4335 0.4335 0.9012 -21.7149 46.7619)" class="st1" width="19.7" height="60.2"/>
			<path class="st2" d="M82.7,72.1c0.7,1.4,2.4,2.1,3.9,1.4l10.1-4.9c1.4-0.7,2.1-2.4,1.4-3.9l-8.4-17.5c-0.7-1.4-2.4-2.1-3.9-1.4
				l-10.1,4.9c-1.4,0.7-2.1,2.4-1.4,3.9L82.7,72.1z"/>
			<ellipse transform="matrix(0.9012 -0.4334 0.4334 0.9012 -29.8225 53.2111)" class="st0" cx="101.8" cy="92" rx="3.5" ry="3.5"/>
		</g>
		<g>
			<rect x="48.9" y="40.9" class="st3" width="19.7" height="60.2"/>
			<path class="st2" d="M50.3,68.1c0,1.6,1.3,2.9,2.9,2.9h11.2c1.6,0,2.9-1.3,2.9-2.9V48.7c0-1.6-1.3-2.9-2.9-2.9H53.2
				c-1.6,0-2.9,1.3-2.9,2.9V68.1z"/>
			<circle class="st0" cx="58.8" cy="94.3" r="3.5"/>
		</g>
		<g>
			<rect x="28.4" y="40.9" class="st4" width="19.7" height="60.2"/>
			<path class="st2" d="M29.7,68.1c0,1.6,1.3,2.9,2.9,2.9h11.2c1.6,0,2.9-1.3,2.9-2.9V48.7c0-1.6-1.3-2.9-2.9-2.9H32.6
				c-1.6,0-2.9,1.3-2.9,2.9V68.1z"/>
			<circle class="st0" cx="38.2" cy="94.3" r="3.5"/>
		</g>
	</g>
</g>
</svg>
