<?xml version="1.0" encoding="utf-8"?>
<!-- Generator: Adobe Illustrator 19.2.1, SVG Export Plug-In . SVG Version: 6.00 Build 0)  -->
<svg version="1.1" id="Layer_1" xmlns="http://www.w3.org/2000/svg" xmlns:xlink="http://www.w3.org/1999/xlink" x="0px" y="0px"
	 viewBox="0 0 142 142" style="enable-background:new 0 0 142 142;" xml:space="preserve">
<style type="text/css">
	.st0{fill:none;}
	.st1{fill:#73B1E4;}
	.st2{fill:#135194;}
	.st3{fill:#918F90;}
	.st4{fill:#60BA52;}
</style>
<g>
	<circle class="st0" cx="23.6" cy="82.9" r="17"/>
	<circle class="st0" cx="36.3" cy="32.4" r="14"/>
	<circle class="st0" cx="87.2" cy="27.3" r="10.6"/>
	<circle class="st0" cx="101.7" cy="111.3" r="8.5"/>
	<circle class="st1" cx="123.3" cy="65.9" r="18.7"/>
	<circle class="st1" cx="56.7" cy="120.7" r="17.4"/>
	<circle class="st2" cx="86.8" cy="74.8" r="13.2"/>
	<circle class="st1" cx="59.2" cy="61.2" r="11.5"/>
	<circle class="st3" cx="62.2" cy="88" r="9.3"/>
	<path class="st2" d="M47.1,82.9c0-13-10.6-23.6-23.6-23.6C10.6,59.3,0,69.9,0,82.9c0,13,10.6,23.6,23.6,23.6
		C36.6,106.4,47.1,95.9,47.1,82.9z M23.6,99.9c-9.4,0-17-7.6-17-17c0-9.4,7.6-17,17-17c9.4,0,17,7.6,17,17
		C40.5,92.3,32.9,99.9,23.6,99.9z"/>
	<path class="st4" d="M36.3,51.5c10.5,0,19.1-8.6,19.1-19.1s-8.6-19.1-19.1-19.1s-19.1,8.6-19.1,19.1S25.8,51.5,36.3,51.5z
		 M36.3,18.4c7.7,0,14,6.3,14,14s-6.3,14-14,14s-14-6.3-14-14S28.6,18.4,36.3,18.4z"/>
	<path class="st3" d="M87.2,50.6c12.9,0,23.3-10.5,23.3-23.3S100.1,3.9,87.2,3.9S63.9,14.4,63.9,27.3S74.3,50.6,87.2,50.6z
		 M87.2,16.7c5.9,0,10.6,4.8,10.6,10.6s-4.8,10.6-10.6,10.6c-5.9,0-10.6-4.8-10.6-10.6S81.4,16.7,87.2,16.7z"/>
	<path class="st4" d="M101.7,91.4c-11,0-20,8.9-20,20c0,11,8.9,20,20,20c11,0,20-8.9,20-20C121.6,100.3,112.7,91.4,101.7,91.4z
		 M101.7,119.8c-4.7,0-8.5-3.8-8.5-8.5c0-4.7,3.8-8.5,8.5-8.5s8.5,3.8,8.5,8.5C110.2,116,106.4,119.8,101.7,119.8z"/>
</g>
</svg>
