<?xml version="1.0" encoding="utf-8"?>
<!-- Generator: Adobe Illustrator 19.2.1, SVG Export Plug-In . SVG Version: 6.00 Build 0)  -->
<svg version="1.1" id="Layer_1" xmlns="http://www.w3.org/2000/svg" xmlns:xlink="http://www.w3.org/1999/xlink" x="0px" y="0px"
	 viewBox="0 0 142 142" style="enable-background:new 0 0 142 142;" xml:space="preserve">
<style type="text/css">
	.st0{fill:#294172;}
	.st1{fill:#3C6EB4;}
</style>
<g>
	<path class="st0" d="M74.3,50.1v15.3c0,1.2,0.9,2.2,2.1,2.4h15.5c9.8,0,17.7-8,17.7-17.7c0-8.5-6-15.6-13.9-17.3
		c-1-0.1-2-0.2-3.8-0.2C82.1,32.6,74.3,40.4,74.3,50.1z"/>
	<path class="st0" d="M23.2,101.1c0,8.5,6,15.6,13.9,17.3c1,0.1,2,0.2,3.8,0.2c9.7,0,17.6-7.9,17.6-17.6V85.8c0-1.2-0.9-2.2-2.1-2.4
		H40.9C31.2,83.4,23.2,91.3,23.2,101.1z"/>
	<path class="st0" d="M71,0C31.8,0,0,31.8,0,71v54.9c0,8.9,7.2,16.1,16.1,16.1H71c39.2,0,71-31.8,71-71C142,31.8,110.2,0,71,0z
		 M91.8,83.4H74.3v17.6c0,11.5-5.8,21.6-14.7,27.6c-5.3,3.6-11.7,5.7-18.6,5.7c-18.4,0-33.3-14.9-33.3-33.3s14.9-33.3,33.3-33.3
		h17.6V50.2c0-11.5,5.8-21.6,14.7-27.6c5.3-3.6,11.7-5.7,18.6-5.7c18.4,0,33.3,14.9,33.3,33.3C125.2,68.5,110.2,83.4,91.8,83.4z"/>
	<path class="st1" d="M33.6,133.4c-3.8-1-6.8-4.1-6.8-7.7c0-4.3,3.2-7.5,7.9-7.5c1,0,1.8,0.1,2.6,0.2c-8-1.7-13.9-8.8-13.9-17.3
		c0-9.8,8-17.7,17.7-17.7h15.5c-0.1,0-0.3,0-0.4,0l-11.6,0c-4.3,0-7.8-3.4-7.8-7.8c0-4.3,3.5-7.8,7.9-7.8h14v0H40.9
		c-18.4,0-33.3,14.9-33.3,33.3s14.9,33.3,33.3,33.3c6.9,0,13.3-2.1,18.6-5.7c-5.3,3.6-11.7,5.7-18.6,5.7
		C38.1,134.4,36.2,134.1,33.6,133.4z"/>
	<path class="st1" d="M91.8,16.8c-6.9,0-13.3,2.1-18.6,5.7C78.5,18.9,84.9,16.8,91.8,16.8c2.8,0,4.8,0.3,7.4,1
		c3.8,1,6.8,4.1,6.8,7.7c0,4.3-3.2,7.5-7.9,7.5c-1,0-1.8-0.1-2.6-0.2c8,1.7,13.9,8.8,13.9,17.3c0,9.8-8,17.7-17.7,17.7H76.3
		c0.1,0,0.3,0,0.4,0l11.6,0c4.3,0,7.8,3.4,7.8,7.8c0,4.3-3.5,7.8-7.9,7.8h-14v0h17.6c18.4,0,33.3-14.9,33.3-33.3
		C125.2,31.8,110.2,16.8,91.8,16.8z"/>
</g>
</svg>
