<?xml version="1.0" encoding="utf-8"?>
<!-- Generator: Adobe Illustrator 19.2.1, SVG Export Plug-In . SVG Version: 6.00 Build 0)  -->
<svg version="1.1" id="Layer_1" xmlns="http://www.w3.org/2000/svg" xmlns:xlink="http://www.w3.org/1999/xlink" x="0px" y="0px"
	 viewBox="0 0 142 142" style="enable-background:new 0 0 142 142;" xml:space="preserve">
<style type="text/css">
	.st0{fill:#A80030;}
</style>
<g>
	<path class="st0" d="M82.1,75c-2.4,0,0.4,1.2,3.5,1.7c0.8-0.7,1.6-1.3,2.3-2C86,75.2,84.1,75.2,82.1,75"/>
	<path class="st0" d="M94.8,71.9c1.4-1.9,2.4-4.1,2.8-6.2c-0.3,1.6-1.2,2.9-2,4.3c-4.4,2.8-0.4-1.6,0-3.3
		C90.9,72.6,94.9,70.2,94.8,71.9"/>
	<path class="st0" d="M99.4,59.7c0.3-4.2-0.8-2.9-1.2-1.3C98.7,58.7,99,61.5,99.4,59.7"/>
	<path class="st0" d="M73.2,1.8c1.3,0.2,2.7,0.4,2.5,0.7C77.1,2.2,77.4,2,73.2,1.8"/>
	<path class="st0" d="M75.7,2.5l-0.9,0.2l0.8-0.1L75.7,2.5"/>
	<path class="st0" d="M114.9,61.4c0.1,3.8-1.1,5.7-2.2,8.9l-2,1c-1.7,3.2,0.2,2.1-1,4.6c-2.6,2.3-7.9,7.2-9.6,7.7
		c-1.2,0,0.8-1.5,1.1-2c-3.5,2.4-2.8,3.6-8.1,5l-0.2-0.3c-13.1,6.2-31.3-6.1-31.1-22.7c-0.1,1.1-0.4,0.8-0.7,1.2
		c-0.7-8.6,4-17.2,11.8-20.7c7.7-3.8,16.6-2.2,22.1,2.9c-3-3.9-9-8.1-16.1-7.7c-7,0.1-13.5,4.5-15.6,9.3c-3.6,2.2-4,8.7-5.5,9.8
		c-2.1,15.4,3.9,22,14.1,29.8c1.6,1.1,0.5,1.2,0.7,2.1c-3.4-1.6-6.5-4-9-6.9c1.4,2,2.8,3.9,4.7,5.4c-3.2-1.1-7.5-7.7-8.7-8
		c5.5,9.9,22.3,17.3,31.1,13.6c-4.1,0.2-9.3,0.1-13.8-1.6c-1.9-1-4.5-3-4.1-3.4c12,4.5,24.4,3.4,34.8-4.9c2.6-2.1,5.5-5.6,6.4-5.6
		c-1.3,1.9,0.2,0.9-0.8,2.6c2.6-4.3-1.1-1.7,2.7-7.3l1.4,2c-0.5-3.5,4.4-7.8,3.9-13.4c1.1-1.7,1.3,1.8,0.1,5.8
		c1.7-4.4,0.4-5.1,0.9-8.7c0.5,1.2,1.1,2.5,1.4,3.8c-1.1-4.2,1.1-7.1,1.7-9.5c-0.5-0.2-1.7,1.9-1.9-3.1c0-2.2,0.6-1.1,0.8-1.7
		c-0.4-0.2-1.5-1.9-2.2-5.1c0.5-0.7,1.3,1.9,2,2c-0.4-2.5-1.2-4.5-1.2-6.4c-2-4.1-0.7,0.5-2.3-1.8c-2.1-6.5,1.7-1.5,2-4.4
		c3.1,4.6,4.9,11.6,5.8,14.6c-0.6-3.6-1.6-7-2.9-10.4c1,0.4-1.5-7.3,1.2-2.2c-3-10.9-12.7-21.2-21.7-25.9c1.1,1,2.5,2.3,2,2.5
		c-4.5-2.7-3.7-2.9-4.3-4c-3.6-1.5-3.9,0.1-6.3,0c-6.8-3.6-8.2-3.2-14.5-5.5l0.3,1.3c-4.5-1.5-5.3,0.6-10.2,0
		c-0.3-0.2,1.6-0.8,3.1-1.1c-4.4,0.6-4.2-0.9-8.5,0.2c1.1-0.7,2.2-1.2,3.3-1.9c-3.6,0.2-8.5,2.1-7,0.4c-5.8,2.6-16.2,6.3-22,11.7
		l-0.2-1.2c-2.7,3.2-11.6,9.6-12.3,13.7l-0.7,0.2c-1.4,2.3-2.3,5-3.4,7.4c-1.8,3.1-2.7,1.2-2.4,1.7c-3.6,7.2-5.3,13.3-6.9,18.3
		c1.1,1.6,0,9.8,0.4,16.4c-1.8,32.3,22.7,63.8,49.5,71c3.9,1.4,9.8,1.3,14.7,1.5c-5.9-1.7-6.6-0.9-12.3-2.9c-4.1-1.9-5-4.2-7.9-6.7
		l1.2,2c-5.7-2-3.3-2.5-8-4l1.2-1.6c-1.9-0.1-4.9-3.1-5.7-4.8l-2,0.1c-2.4-3-3.7-5.2-3.6-6.8l-0.7,1.2c-0.7-1.3-9-11.3-4.7-8.9
		c-0.8-0.7-1.8-1.2-3-3.3l0.9-1c-2.1-2.6-3.8-6-3.6-7.2c1.1,1.5,1.9,1.8,2.6,2c-5.2-12.9-5.5-0.7-9.4-13.1l0.8-0.1c-0.6-1-1-2-1.5-3
		l0.4-3.6c-3.7-4.3-1-18.3-0.5-26c0.4-3.1,3.1-6.5,5.2-11.7l-1.3-0.2c2.4-4.2,13.9-17,19.2-16.3c2.6-3.2-0.5,0-1-0.8
		c5.6-5.8,7.4-4.1,11.2-5.2c4.1-2.4-3.5,0.9-1.6-0.9c7.1-1.8,5-4.1,14.3-5c1,0.6-2.3,0.9-3.1,1.6c5.9-2.9,18.7-2.2,27,1.6
		c9.6,4.5,20.5,17.8,20.9,30.3l0.5,0.1c-0.2,5,0.8,10.7-1,16L114.9,61.4"/>
	<path class="st0" d="M56.5,78.3l-0.3,1.6c1.5,2.1,2.8,4.4,4.7,6C59.5,83.1,58.4,82,56.5,78.3"/>
	<path class="st0" d="M60.1,78.1c-0.8-0.9-1.3-2-1.8-3.1c0.5,1.9,1.6,3.5,2.6,5.2L60.1,78.1"/>
	<path class="st0" d="M124.8,64l-0.3,0.9c-0.6,4.5-2,9-4.1,13.1C122.7,73.6,124.2,68.9,124.8,64"/>
	<path class="st0" d="M73.7,0.7c1.6-0.6,3.9-0.3,5.6-0.7c-2.2,0.2-4.4,0.3-6.6,0.6L73.7,0.7"/>
	<path class="st0" d="M17.8,30.4c0.4,3.4-2.6,4.7,0.6,2.5C20.2,29,17.8,31.8,17.8,30.4"/>
	<path class="st0" d="M14.1,46.1c0.7-2.3,0.9-3.6,1.2-4.9C13.2,43.8,14.3,44.3,14.1,46.1"/>
</g>
</svg>
