<?xml version="1.0" encoding="utf-8"?>
<!-- Generator: Adobe Illustrator 19.2.1, SVG Export Plug-In . SVG Version: 6.00 Build 0)  -->
<svg version="1.1" id="Layer_1" xmlns="http://www.w3.org/2000/svg" xmlns:xlink="http://www.w3.org/1999/xlink" x="0px" y="0px"
	 viewBox="0 0 142 142" style="enable-background:new 0 0 142 142;" xml:space="preserve">
<style type="text/css">
	.st0{fill-rule:evenodd;clip-rule:evenodd;fill:#394D54;}
	.st1{fill:#00AADA;}
	.st2{fill:#24B8EB;}
	.st3{fill:#008BB8;}
	.st4{fill:#039BC6;}
	.st5{fill-rule:evenodd;clip-rule:evenodd;fill:#00ACD3;}
	.st6{fill-rule:evenodd;clip-rule:evenodd;fill:#20C2EF;}
	.st7{fill-rule:evenodd;clip-rule:evenodd;fill:#D4EDF1;}
	.st8{fill:#BFDBE0;}
	.st9{fill:#D4EDF1;}
</style>
<g id="XMLID_4344_">
	<path id="outline_8_" class="st0" d="M73.7,54.2h14.5v14.7h7.3c3.4,0,6.9-0.6,10.1-1.7c1.6-0.5,3.3-1.3,4.9-2.2
		c-2-2.7-3.1-6-3.4-9.3c-0.4-4.5,0.5-10.3,3.6-13.8l1.5-1.7l1.8,1.4c4.6,3.6,8.4,8.7,9.1,14.5c5.5-1.6,12-1.2,16.8,1.6l2,1.1l-1,2
		c-4.1,7.9-12.7,10.4-21.1,10c-12.6,31-39.9,45.7-73.1,45.7c-17.1,0-32.8-6.4-41.8-21.4l-0.1-0.2l-1.3-2.6c-3-6.6-4-13.9-3.3-21.2
		l0.2-2.2h12.4V54.2h14.5V39.8h29V25.4h17.4V54.2z"/>
	<path id="XMLID_4526_" class="st1" d="M120.8,59.7c1-7.5-4.7-13.4-8.2-16.2c-4,4.6-4.7,16.8,1.7,21.9c-3.5,3.1-11,5.9-18.6,5.9h-93
		c-0.7,7.9,0.7,15.2,3.9,21.4l1.1,1.9c0.7,1.1,1.4,2.2,2.2,3.3l0,0c3.8,0.2,7.3,0.3,10.6,0.3c0,0,0,0,0,0c6.3-0.1,11.5-0.9,15.4-2.2
		c0.6-0.2,1.2,0.1,1.4,0.7c0.2,0.6-0.1,1.2-0.7,1.4c-0.5,0.2-1.1,0.3-1.6,0.5c0,0,0,0,0,0c-3.1,0.9-6.4,1.5-10.7,1.7
		c0.3,0-0.3,0-0.3,0c-0.1,0-0.3,0-0.5,0c-1.7,0.1-3.5,0.1-5.3,0.1c-2,0-4,0-6.3-0.2l-0.1,0c7.7,8.6,19.9,13.8,35,13.8
		c32.1,0,59.4-14.1,71.5-45.8c8.6,0.9,16.8-1.3,20.5-8.5C132.8,56.4,125.2,57.5,120.8,59.7z"/>
	<path id="XMLID_4523_" class="st2" d="M120.8,59.7c1-7.5-4.7-13.4-8.2-16.2c-4,4.6-4.7,16.8,1.7,21.9c-3.5,3.1-11,5.9-18.6,5.9H8.1
		c-0.4,12.1,4.2,21.3,12.2,26.9c0,0,0,0,0,0c6.3-0.1,11.5-0.9,15.4-2.2c0.6-0.2,1.2,0.1,1.4,0.7c0.2,0.6-0.1,1.2-0.7,1.4
		c-0.5,0.2-1.1,0.3-1.6,0.5c0,0,0,0,0,0c-3.1,0.9-6.7,1.5-10.9,1.8c0,0-0.1-0.1-0.1-0.1c10.9,5.6,26.8,5.5,45-1.4
		c20.4-7.8,39.4-22.6,52.6-39.5C121.1,59.5,120.9,59.6,120.8,59.7z"/>
	<path id="XMLID_4522_" class="st3" d="M2.8,80.9c0.6,4.2,1.8,8.2,3.7,11.8l1.1,1.9c0.7,1.1,1.4,2.2,2.2,3.3
		c3.8,0.2,7.3,0.3,10.6,0.3c6.3-0.1,11.5-0.9,15.4-2.2c0.6-0.2,1.2,0.1,1.4,0.7c0.2,0.6-0.1,1.2-0.7,1.4c-0.5,0.2-1.1,0.3-1.6,0.5
		c0,0,0,0,0,0c-3.1,0.9-6.7,1.5-10.9,1.8c-0.1,0-0.4,0-0.5,0c-1.7,0.1-3.5,0.2-5.3,0.2c-2,0-4.1,0-6.3-0.2
		c7.7,8.6,19.9,13.8,35.1,13.8c27.5,0,51.4-10.4,65.3-33.2H2.8z"/>
	<path id="XMLID_4519_" class="st4" d="M9,80.9c1.6,7.4,5.6,13.3,11.3,17.3c6.3-0.1,11.5-0.9,15.4-2.2c0.6-0.2,1.2,0.1,1.4,0.7
		c0.2,0.6-0.1,1.2-0.7,1.4c-0.5,0.2-1.1,0.3-1.6,0.5c0,0,0,0,0,0c-3.1,0.9-6.7,1.5-11,1.8c10.9,5.6,26.7,5.5,44.9-1.4
		c11-4.2,21.6-10.4,31.1-17.9H9z"/>
	<path id="XMLID_4503_" class="st5" d="M25.8,57.7h1V68h-1V57.7z M23.9,57.7h1V68h-1V57.7z M22,57.7h1V68h-1V57.7z M20,57.7h1V68h-1
		V57.7z M18.1,57.7h1V68h-1V57.7z M16.3,57.7h1V68h-1V57.7z M15.2,56.6h12.6v12.5H15.2V56.6z"/>
	<path id="XMLID_4487_" class="st5" d="M40.3,43.3h1v10.4h-1V43.3z M38.4,43.3h1v10.4h-1V43.3z M36.5,43.3h1v10.4h-1V43.3z
		 M34.6,43.3h1v10.4h-1V43.3z M32.7,43.3h1v10.4h-1V43.3z M30.8,43.3h1v10.4h-1V43.3z M29.7,42.2h12.6v12.5H29.7V42.2z"/>
	<path id="XMLID_4474_" class="st6" d="M40.3,57.7h1V68h-1V57.7z M38.4,57.7h1V68h-1V57.7z M36.5,57.7h1V68h-1V57.7z M34.6,57.7h1
		V68h-1V57.7z M32.7,57.7h1V68h-1V57.7z M30.8,57.7h1V68h-1V57.7z M29.7,56.6h12.6v12.5H29.7V56.6z"/>
	<path id="XMLID_4466_" class="st5" d="M54.8,57.7h1V68h-1V57.7z M52.9,57.7h1V68h-1V57.7z M51,57.7h1V68h-1V57.7z M49.1,57.7h1V68
		h-1V57.7z M47.2,57.7h1V68h-1V57.7z M45.3,57.7h1V68h-1V57.7z M44.2,56.6h12.6v12.5H44.2V56.6z"/>
	<path id="XMLID_4452_" class="st6" d="M54.8,43.3h1v10.4h-1V43.3z M52.9,43.3h1v10.4h-1V43.3z M51,43.3h1v10.4h-1V43.3z M49.1,43.3
		h1v10.4h-1V43.3z M47.2,43.3h1v10.4h-1V43.3z M45.3,43.3h1v10.4h-1V43.3z M44.2,42.2h12.6v12.5H44.2V42.2z"/>
	<path id="XMLID_4444_" class="st6" d="M69.3,57.7h1V68h-1V57.7z M67.4,57.7h1V68h-1V57.7z M65.5,57.7h1V68h-1V57.7z M63.6,57.7h1
		V68h-1V57.7z M61.7,57.7h1V68h-1V57.7z M59.8,57.7h1V68h-1V57.7z M58.8,56.6h12.6v12.5H58.8V56.6z"/>
	<path id="XMLID_4436_" class="st5" d="M69.3,43.3h1v10.4h-1V43.3z M67.4,43.3h1v10.4h-1V43.3z M65.5,43.3h1v10.4h-1V43.3z
		 M63.6,43.3h1v10.4h-1V43.3z M61.7,43.3h1v10.4h-1V43.3z M59.8,43.3h1v10.4h-1V43.3z M58.8,42.2h12.6v12.5H58.8V42.2z"/>
	<path id="XMLID_4428_" class="st6" d="M69.3,28.9h1v10.4h-1V28.9z M67.4,28.9h1v10.4h-1V28.9z M65.5,28.9h1v10.4h-1V28.9z
		 M63.6,28.9h1v10.4h-1V28.9z M61.7,28.9h1v10.4h-1V28.9z M59.8,28.9h1v10.4h-1V28.9z M58.8,27.8h12.6v12.5H58.8V27.8z"/>
	<path id="XMLID_4420_" class="st5" d="M83.8,57.7h1V68h-1V57.7z M81.9,57.7h1V68h-1V57.7z M80,57.7h1V68h-1V57.7z M78.1,57.7h1V68
		h-1V57.7z M76.2,57.7h1V68h-1V57.7z M74.3,57.7h1V68h-1V57.7z M73.3,56.6h12.6v12.5H73.3V56.6z"/>
	<path id="XMLID_4419_" class="st7" d="M41.5,89.3c1.9,0,3.5,1.5,3.5,3.4c0,1.9-1.6,3.4-3.5,3.4c-1.9,0-3.5-1.5-3.5-3.4
		C38.1,90.8,39.6,89.3,41.5,89.3"/>
	<path id="XMLID_4418_" class="st0" d="M41.5,90.3c0.3,0,0.6,0.1,0.9,0.2c-0.3,0.2-0.5,0.5-0.5,0.9c0,0.6,0.5,1,1,1
		c0.4,0,0.7-0.2,0.9-0.5c0.1,0.3,0.2,0.6,0.2,0.9c0,1.4-1.1,2.5-2.5,2.5c-1.4,0-2.5-1.1-2.5-2.5C39,91.4,40.2,90.3,41.5,90.3"/>
	<path id="XMLID_4348_" class="st8" d="M50.7,114.1c-8.6-4-13.3-9.5-15.9-15.5c-3.2,0.9-7,1.5-11.5,1.7c-1.7,0.1-3.4,0.1-5.3,0.1
		c-2.1,0-4.4-0.1-6.8-0.2c7.9,7.8,17.6,13.8,35.5,13.9C48.1,114.2,49.4,114.1,50.7,114.1z"/>
	<path id="XMLID_4345_" class="st9" d="M38,104.1c-1.2-1.6-2.3-3.6-3.2-5.5c-3.2,0.9-7,1.5-11.5,1.7C26.4,101.9,30.8,103.5,38,104.1
		z"/>
</g>
</svg>
