<?xml version="1.0" encoding="utf-8"?>
<!-- Generator: Adobe Illustrator 19.2.1, SVG Export Plug-In . SVG Version: 6.00 Build 0)  -->
<svg version="1.1" id="Layer_1" xmlns="http://www.w3.org/2000/svg" xmlns:xlink="http://www.w3.org/1999/xlink" x="0px" y="0px"
	 viewBox="0 0 142 142" style="enable-background:new 0 0 142 142;" xml:space="preserve">
<style type="text/css">
	.st0{fill:#932279;}
	.st1{fill:#EFA724;}
	.st2{fill:#262577;}
	.st3{fill:#9CCD2A;}
</style>
<g>
	<polygon class="st0" points="0,71 17.7,88.7 17.7,74.4 58.3,74.4 61.7,71 58.3,67.6 17.7,67.6 17.7,53.3 	"/>
	<polygon class="st1" points="53.3,17.7 67.6,17.7 67.6,58.3 71,61.7 74.4,58.3 74.4,17.7 88.7,17.7 71,0 	"/>
	<polygon class="st2" points="142,71 124.3,53.3 124.3,67.6 83.7,67.6 80.3,71 83.7,74.4 124.3,74.4 124.3,88.7 	"/>
	<polygon class="st3" points="88.7,124.3 74.4,124.3 74.4,83.7 71,80.3 67.6,83.7 67.6,124.3 53.3,124.3 71,142 	"/>
	<polygon class="st3" points="64.4,55.1 64.4,20.8 50.2,20.8 40.2,30.8 	"/>
	<polygon class="st3" points="20.8,45.8 30.8,35.7 59.6,64.4 64.4,64.4 64.4,59.6 35.7,30.8 45.8,20.8 20.8,20.8 	"/>
	<polygon class="st3" points="20.8,50.2 20.8,64.4 55.1,64.4 30.8,40.2 	"/>
	<polygon class="st0" points="77.6,55.1 101.8,30.8 91.8,20.8 77.6,20.8 	"/>
	<polygon class="st0" points="86.9,64.4 121.2,64.4 121.2,50.2 111.2,40.2 	"/>
	<polygon class="st0" points="106.3,30.8 77.6,59.6 77.6,64.4 82.4,64.4 111.2,35.7 121.2,45.8 121.2,20.8 96.2,20.8 	"/>
	<polygon class="st1" points="121.2,96.2 111.2,106.3 82.4,77.6 77.6,77.6 77.6,82.4 106.3,111.2 96.2,121.2 121.2,121.2 	"/>
	<polygon class="st1" points="121.2,91.8 121.2,77.6 86.9,77.6 111.2,101.8 	"/>
	<polygon class="st1" points="77.6,86.9 77.6,121.2 91.8,121.2 101.8,111.2 	"/>
	<polygon class="st2" points="35.7,111.2 64.4,82.4 64.4,77.6 59.6,77.6 30.8,106.3 20.8,96.2 20.8,121.2 45.8,121.2 	"/>
	<polygon class="st2" points="64.4,86.9 40.2,111.2 50.2,121.2 64.4,121.2 	"/>
	<polygon class="st2" points="55.1,77.6 20.8,77.6 20.8,91.8 30.8,101.8 	"/>
</g>
</svg>
