<?xml version="1.0" encoding="utf-8"?>
<!-- Generator: Adobe Illustrator 19.2.1, SVG Export Plug-In . SVG Version: 6.00 Build 0)  -->
<svg version="1.1" id="Layer_1" xmlns="http://www.w3.org/2000/svg" xmlns:xlink="http://www.w3.org/1999/xlink" x="0px" y="0px"
	 viewBox="0 0 142 142" style="enable-background:new 0 0 142 142;" xml:space="preserve">
<style type="text/css">
	.st0{fill:url(#SVGID_1_);}
	.st1{fill:url(#SVGID_2_);}
	.st2{fill:url(#SVGID_3_);}
	.st3{fill:url(#SVGID_4_);}
	.st4{fill:url(#SVGID_5_);}
	.st5{fill:url(#SVGID_6_);}
	.st6{fill:url(#SVGID_7_);}
	.st7{fill:url(#SVGID_8_);}
	.st8{fill:url(#SVGID_9_);}
	.st9{fill:url(#SVGID_10_);}
	.st10{fill:url(#SVGID_11_);}
	.st11{fill:url(#SVGID_12_);}
	.st12{fill:url(#SVGID_13_);}
</style>
<g>
	
		<linearGradient id="SVGID_1_" gradientUnits="userSpaceOnUse" x1="852.6477" y1="-429.5507" x2="924.6901" y2="-806.8649" gradientTransform="matrix(1.2371 0 0 -1.2371 -1063.3533 -858.0256)">
		<stop  offset="0" style="stop-color:#FFFFFF"/>
		<stop  offset="0.3421" style="stop-color:#FFFFFF"/>
		<stop  offset="0.52" style="stop-color:#BEBDF3"/>
		<stop  offset="0.7541" style="stop-color:#8F82F9"/>
		<stop  offset="0.8711" style="stop-color:#9F99C7"/>
		<stop  offset="1" style="stop-color:#524C76"/>
	</linearGradient>
	<path class="st0" d="M138,57.4c-3.8-13.8-34.8-42.2-60.2-53.6c-8.1-3.6-17.9-4.8-26.5-3.2C25.6,5.4,7.6,27.6,6,42.3
		c-0.8,7.2,3.1,12.6,5.3,14.9c5.8,6.4,17.3,11.3,24.7,15.4c-10.7,9.1-15.6,13.6-20.5,18.7c-7.2,7.6-12.3,16-12.3,22
		c0,1.9-0.3,8.1,2.2,12.9c0.9,1.8,3.6,7.9,11.7,12.5c5.2,2.9,12.5,4,19.7,3c22.3-3.2,52.2-22.1,73.5-39.7
		c13.6-11.2,23.5-22.1,26.4-27.5C139.1,70.1,139.4,62.3,138,57.4z M39.7,130.1c-14.6,2.9-27.1,3.7-32.8-11.8
		c-4.9-13.4,4.6-23.2,18.7-36c5.8-5.3,10.5-9.3,17.5-15.2c0.4-0.4-33.8-12.2-34.9-25.7C7.2,27.4,29.2,1.8,57.4,0.4
		c7.4-0.3,14.8,1.3,21.2,4.4c20.5,10.1,55.1,38.4,57.6,52.6C139.3,75,77.4,122.6,39.7,130.1z"/>
	
		<linearGradient id="SVGID_2_" gradientUnits="userSpaceOnUse" x1="853.2794" y1="-429.43" x2="925.3218" y2="-806.7443" gradientTransform="matrix(1.2371 0 0 -1.2371 -1063.3533 -858.0256)">
		<stop  offset="0" style="stop-color:#FFFFFF"/>
		<stop  offset="0.3421" style="stop-color:#FFFFFF"/>
		<stop  offset="0.52" style="stop-color:#BEBDF3"/>
		<stop  offset="0.7541" style="stop-color:#8F82F9"/>
		<stop  offset="0.8711" style="stop-color:#9F99C7"/>
		<stop  offset="1" style="stop-color:#524C76"/>
	</linearGradient>
	<path class="st1" d="M78.5,4.9c-6.4-3.1-13.8-4.8-21.2-4.4c-28.2,1.3-50.2,27-49,40.9C9.4,54.8,43.6,66.6,43.2,67
		c-7,5.9-11.7,9.9-17.5,15.2C11.6,95.1,2.1,104.9,7,118.3c5.7,15.4,18.1,14.7,32.8,11.8c37.7-7.4,99.6-55,96.4-72.6
		C133.6,43.2,99,14.9,78.5,4.9z M128.6,61.9c-0.7,2.5-15.2,17.8-30.7,29.8c-14.9,11.6-33.8,23.3-48.1,28.7
		c-9.8,3.7-24.5,6.3-31.6,2.2c-6.1-3.5-7.8-10.2-7.2-15.2C12.3,96.9,30.1,83,43.3,71.6c5.2-4.5,7.4-7.3,4.1-8.9
		c-11.1-5.3-24.5-10.8-32.6-17.6c-2.5-2.1-3.4-5.1-2.7-8.6c2-9.2,9.7-16.9,13.9-20.1c12.5-9.5,15.2-11.3,29-12.7
		C66,2.5,74.2,6.8,83.6,12.1c13,7.3,23.8,16.8,34,27.6c3.8,4.2,7.4,8,10,13.1C129.4,56.1,129.5,58.9,128.6,61.9z"/>
	
		<linearGradient id="SVGID_3_" gradientUnits="userSpaceOnUse" x1="212.6497" y1="-269.4331" x2="190.889" y2="-171.8638" gradientTransform="matrix(1.2371 0 0 -1.2371 -187.0187 -224.954)">
		<stop  offset="0" style="stop-color:#FFFFFF"/>
		<stop  offset="0.3421" style="stop-color:#FFFFFF"/>
		<stop  offset="0.52" style="stop-color:#BEBDF3"/>
		<stop  offset="0.7541" style="stop-color:#8F82F9"/>
		<stop  offset="0.8711" style="stop-color:#9F99C7"/>
		<stop  offset="1" style="stop-color:#524C76"/>
	</linearGradient>
	<path class="st2" d="M78.5,4.9c-6.4-3.1-13.8-4.8-21.2-4.4c-28.2,1.3-50.2,27-49,40.9C9.4,54.8,43.6,66.6,43.2,67
		c-7,5.9-11.7,9.9-17.5,15.2C11.6,95.1,2.1,104.9,7,118.3c5.7,15.4,18.1,14.7,32.8,11.8c37.7-7.4,99.6-55,96.4-72.6
		C133.6,43.2,99,14.9,78.5,4.9z M128.6,61.9c-0.7,2.5-15.2,17.8-30.7,29.8c-14.9,11.6-33.8,23.3-48.1,28.7
		c-9.8,3.7-24.5,6.3-31.6,2.2c-6.1-3.5-7.8-10.2-7.2-15.2C12.3,96.9,30.1,83,43.3,71.6c5.2-4.5,7.4-7.3,4.1-8.9
		c-11.1-5.3-24.5-10.8-32.6-17.6c-2.5-2.1-3.4-5.1-2.7-8.6c2-9.2,9.7-16.9,13.9-20.1c12.5-9.5,15.2-11.3,29-12.7
		C66,2.5,74.2,6.8,83.6,12.1c13,7.3,23.8,16.8,34,27.6c3.8,4.2,7.4,8,10,13.1C129.4,56.1,129.5,58.9,128.6,61.9z"/>
	
		<linearGradient id="SVGID_4_" gradientUnits="userSpaceOnUse" x1="859.2059" y1="-428.2985" x2="931.2484" y2="-805.6127" gradientTransform="matrix(1.2371 0 0 -1.2371 -1063.3533 -858.0256)">
		<stop  offset="0" style="stop-color:#FFFFFF"/>
		<stop  offset="0.3421" style="stop-color:#FFFFFF"/>
		<stop  offset="0.52" style="stop-color:#BEBDF3"/>
		<stop  offset="0.7541" style="stop-color:#8F82F9"/>
		<stop  offset="0.8711" style="stop-color:#9F99C7"/>
		<stop  offset="1" style="stop-color:#524C76"/>
	</linearGradient>
	<path class="st3" d="M75.4,27.9C63.2,22,53.6,24.6,52.8,38.5c-0.5,9.4,17,16.2,22.5,14.2C95.7,45.4,85.4,32.7,75.4,27.9z"/>
	
		<linearGradient id="SVGID_5_" gradientUnits="userSpaceOnUse" x1="219.6378" y1="-267.8746" x2="197.877" y2="-170.3053" gradientTransform="matrix(1.2371 0 0 -1.2371 -187.0187 -224.954)">
		<stop  offset="0" style="stop-color:#FFFFFF"/>
		<stop  offset="0.3421" style="stop-color:#FFFFFF"/>
		<stop  offset="0.52" style="stop-color:#BEBDF3"/>
		<stop  offset="0.7541" style="stop-color:#8F82F9"/>
		<stop  offset="0.8711" style="stop-color:#9F99C7"/>
		<stop  offset="1" style="stop-color:#524C76"/>
	</linearGradient>
	<path class="st4" d="M75.4,27.9C63.2,22,53.6,24.6,52.8,38.5c-0.5,9.4,17,16.2,22.5,14.2C95.7,45.4,85.4,32.7,75.4,27.9z"/>
	
		<radialGradient id="SVGID_6_" cx="-7.2327" cy="-134.3325" r="7.2879" gradientTransform="matrix(3.2874 0 0 -2.5197 83.7107 -306.9322)" gradientUnits="userSpaceOnUse">
		<stop  offset="0" style="stop-color:#FFFFFF"/>
		<stop  offset="0.3421" style="stop-color:#FFFFFF"/>
		<stop  offset="0.52" style="stop-color:#BEBDF3"/>
		<stop  offset="0.7541" style="stop-color:#8F82F9"/>
		<stop  offset="0.8711" style="stop-color:#9F99C7"/>
		<stop  offset="1" style="stop-color:#524C76"/>
	</radialGradient>
	<path class="st5" d="M75.4,27.9C63.2,22,53.6,24.6,52.8,38.5c-0.5,9.4,17,16.2,22.5,14.2C95.7,45.4,85.4,32.7,75.4,27.9z"/>
	
		<linearGradient id="SVGID_7_" gradientUnits="userSpaceOnUse" x1="852.752" y1="-429.5307" x2="924.7944" y2="-806.845" gradientTransform="matrix(1.2371 0 0 -1.2371 -1063.3533 -858.0256)">
		<stop  offset="0" style="stop-color:#FFFFFF"/>
		<stop  offset="0.3421" style="stop-color:#FFFFFF"/>
		<stop  offset="0.52" style="stop-color:#BEBDF3"/>
		<stop  offset="0.7541" style="stop-color:#8F82F9"/>
		<stop  offset="0.8711" style="stop-color:#9F99C7"/>
		<stop  offset="1" style="stop-color:#524C76"/>
	</linearGradient>
	<path class="st6" d="M117.6,39.7c-10.2-10.8-21.1-20.3-34-27.6C74.2,6.8,66,2.5,55.1,3.7c-13.8,1.5-16.5,3.2-29,12.7
		c-4.2,3.2-11.9,10.9-13.9,20.1c-0.8,3.5,0.1,6.5,2.7,8.6c8.1,6.8,21.5,12.3,32.6,17.6c3.2,1.6,1.1,4.4-4.1,8.9
		c-13.2,11.4-31,25.3-32.3,35.9c-0.6,5,1.1,11.8,7.2,15.2c7.1,4.1,21.8,1.4,31.6-2.2c14.3-5.3,33.1-17.1,48.1-28.7
		c15.5-12,30-27.3,30.7-29.8c0.9-3.1,0.8-5.9-0.9-9.1C125,47.7,121.5,43.9,117.6,39.7z M67.9,57c-6.9-1-20.8-8.8-19.8-22.3
		c1-13,15.9-15.4,22.8-13.5c8.2,2.3,21.9,12,20.7,21C90,53.9,79.8,58.7,67.9,57z"/>
	
		<linearGradient id="SVGID_8_" gradientUnits="userSpaceOnUse" x1="212.1696" y1="-269.5402" x2="190.4088" y2="-171.9709" gradientTransform="matrix(1.2371 0 0 -1.2371 -187.0187 -224.954)">
		<stop  offset="0" style="stop-color:#FFFFFF"/>
		<stop  offset="0.3421" style="stop-color:#FFFFFF"/>
		<stop  offset="0.52" style="stop-color:#BEBDF3"/>
		<stop  offset="0.7541" style="stop-color:#8F82F9"/>
		<stop  offset="0.8711" style="stop-color:#9F99C7"/>
		<stop  offset="1" style="stop-color:#524C76"/>
	</linearGradient>
	<path class="st7" d="M117.6,39.7c-10.2-10.8-21.1-20.3-34-27.6C74.2,6.8,66,2.5,55.1,3.7c-13.8,1.5-16.5,3.2-29,12.7
		c-4.2,3.2-11.9,10.9-13.9,20.1c-0.8,3.5,0.1,6.5,2.7,8.6c8.1,6.8,21.5,12.3,32.6,17.6c3.2,1.6,1.1,4.4-4.1,8.9
		c-13.2,11.4-31,25.3-32.3,35.9c-0.6,5,1.1,11.8,7.2,15.2c7.1,4.1,21.8,1.4,31.6-2.2c14.3-5.3,33.1-17.1,48.1-28.7
		c15.5-12,30-27.3,30.7-29.8c0.9-3.1,0.8-5.9-0.9-9.1C125,47.7,121.5,43.9,117.6,39.7z M67.9,57c-6.9-1-20.8-8.8-19.8-22.3
		c1-13,15.9-15.4,22.8-13.5c8.2,2.3,21.9,12,20.7,21C90,53.9,79.8,58.7,67.9,57z"/>
	
		<radialGradient id="SVGID_9_" cx="303.2975" cy="-449.6746" r="49.7331" gradientTransform="matrix(-6.603950e-02 4.1903 3.5738 5.626827e-02 1632.4822 -1208.179)" gradientUnits="userSpaceOnUse">
		<stop  offset="0" style="stop-color:#FFFFFF"/>
		<stop  offset="0.3421" style="stop-color:#FFFFFF"/>
		<stop  offset="0.52" style="stop-color:#BEBDF3"/>
		<stop  offset="0.7541" style="stop-color:#8F82F9"/>
		<stop  offset="0.8711" style="stop-color:#9F99C7"/>
		<stop  offset="1" style="stop-color:#524C76"/>
	</radialGradient>
	<path class="st8" d="M117.6,39.7c-10.2-10.8-21.1-20.3-34-27.6C74.2,6.8,66,2.5,55.1,3.7c-13.8,1.5-16.5,3.2-29,12.7
		c-4.2,3.2-11.9,10.9-13.9,20.1c-0.8,3.5,0.1,6.5,2.7,8.6c8.1,6.8,21.5,12.3,32.6,17.6c3.2,1.6,1.1,4.4-4.1,8.9
		c-13.2,11.4-31,25.3-32.3,35.9c-0.6,5,1.1,11.8,7.2,15.2c7.1,4.1,21.8,1.4,31.6-2.2c14.3-5.3,33.1-17.1,48.1-28.7
		c15.5-12,30-27.3,30.7-29.8c0.9-3.1,0.8-5.9-0.9-9.1C125,47.7,121.5,43.9,117.6,39.7z M67.9,57c-6.9-1-20.8-8.8-19.8-22.3
		c1-13,15.9-15.4,22.8-13.5c8.2,2.3,21.9,12,20.7,21C90,53.9,79.8,58.7,67.9,57z"/>
	
		<linearGradient id="SVGID_10_" gradientUnits="userSpaceOnUse" x1="859.3414" y1="-428.2726" x2="931.3839" y2="-805.5869" gradientTransform="matrix(1.2371 0 0 -1.2371 -1063.3533 -858.0256)">
		<stop  offset="0" style="stop-color:#FFFFFF"/>
		<stop  offset="0.3421" style="stop-color:#FFFFFF"/>
		<stop  offset="0.52" style="stop-color:#BEBDF3"/>
		<stop  offset="0.7541" style="stop-color:#8F82F9"/>
		<stop  offset="0.8711" style="stop-color:#9F99C7"/>
		<stop  offset="1" style="stop-color:#524C76"/>
	</linearGradient>
	<path class="st9" d="M91.6,42.2c1.2-8.9-12.5-18.7-20.7-21c-6.9-1.9-21.8,0.5-22.8,13.5c-1,13.5,12.8,21.3,19.8,22.3
		C79.8,58.7,90,53.9,91.6,42.2z M75.3,52.7c-5.5,2-23.1-4.9-22.5-14.2C53.6,24.6,63.2,22,75.4,27.9C85.4,32.7,95.7,45.4,75.3,52.7z"
		/>
	
		<linearGradient id="SVGID_11_" gradientUnits="userSpaceOnUse" x1="219.7886" y1="-267.8409" x2="198.0279" y2="-170.2717" gradientTransform="matrix(1.2371 0 0 -1.2371 -187.0187 -224.954)">
		<stop  offset="0" style="stop-color:#FFFFFF"/>
		<stop  offset="0.3421" style="stop-color:#FFFFFF"/>
		<stop  offset="0.52" style="stop-color:#BEBDF3"/>
		<stop  offset="0.7541" style="stop-color:#8F82F9"/>
		<stop  offset="0.8711" style="stop-color:#9F99C7"/>
		<stop  offset="1" style="stop-color:#524C76"/>
	</linearGradient>
	<path class="st10" d="M91.6,42.2c1.2-8.9-12.5-18.7-20.7-21c-6.9-1.9-21.8,0.5-22.8,13.5c-1,13.5,12.8,21.3,19.8,22.3
		C79.8,58.7,90,53.9,91.6,42.2z M75.3,52.7c-5.5,2-23.1-4.9-22.5-14.2C53.6,24.6,63.2,22,75.4,27.9C85.4,32.7,95.7,45.4,75.3,52.7z"
		/>
	
		<radialGradient id="SVGID_12_" cx="-7.2327" cy="-134.3325" r="7.2879" gradientTransform="matrix(3.2874 0 0 -2.5197 83.7107 -306.9322)" gradientUnits="userSpaceOnUse">
		<stop  offset="0" style="stop-color:#FFFFFF"/>
		<stop  offset="0.3421" style="stop-color:#FFFFFF"/>
		<stop  offset="0.52" style="stop-color:#BEBDF3"/>
		<stop  offset="0.7541" style="stop-color:#8F82F9"/>
		<stop  offset="0.8711" style="stop-color:#9F99C7"/>
		<stop  offset="1" style="stop-color:#524C76"/>
	</radialGradient>
	<path class="st11" d="M91.6,42.2c1.2-8.9-12.5-18.7-20.7-21c-6.9-1.9-21.8,0.5-22.8,13.5c-1,13.5,12.8,21.3,19.8,22.3
		C79.8,58.7,90,53.9,91.6,42.2z M75.3,52.7c-5.5,2-23.1-4.9-22.5-14.2C53.6,24.6,63.2,22,75.4,27.9C85.4,32.7,95.7,45.4,75.3,52.7z"
		/>
	
		<radialGradient id="SVGID_13_" cx="303.2975" cy="-449.6746" r="49.7331" gradientTransform="matrix(-6.603950e-02 4.1903 3.5738 5.626827e-02 1632.4822 -1208.179)" gradientUnits="userSpaceOnUse">
		<stop  offset="0" style="stop-color:#FFFFFF"/>
		<stop  offset="0.3421" style="stop-color:#FFFFFF"/>
		<stop  offset="0.52" style="stop-color:#BEBDF3"/>
		<stop  offset="0.7541" style="stop-color:#8F82F9"/>
		<stop  offset="0.8711" style="stop-color:#9F99C7"/>
		<stop  offset="1" style="stop-color:#524C76"/>
	</radialGradient>
	<path class="st12" d="M91.6,42.2c1.2-8.9-12.5-18.7-20.7-21c-6.9-1.9-21.8,0.5-22.8,13.5c-1,13.5,12.8,21.3,19.8,22.3
		C79.8,58.7,90,53.9,91.6,42.2z M75.3,52.7c-5.5,2-23.1-4.9-22.5-14.2C53.6,24.6,63.2,22,75.4,27.9C85.4,32.7,95.7,45.4,75.3,52.7z"
		/>
</g>
</svg>
