<?xml version="1.0" encoding="utf-8"?>
<!-- Generator: Adobe Illustrator 19.2.1, SVG Export Plug-In . SVG Version: 6.00 Build 0)  -->
<svg version="1.1" id="Layer_1" xmlns="http://www.w3.org/2000/svg" xmlns:xlink="http://www.w3.org/1999/xlink" x="0px" y="0px"
	 viewBox="0 0 142 142" style="enable-background:new 0 0 142 142;" xml:space="preserve">
<style type="text/css">
	.st0{fill:#FFFFFF;}
	.st1{fill:#FF3300;}
</style>
<g>
	<path d="M1.9,3.6c-8.4,8.4,13.2,43.5,16.9,47.2c3.7,3.7,13.5-0.1,21.9-8.5s12.2-18.2,8.5-21.9C45.4,16.7,10.3-4.8,1.9,3.6z"/>
	<path class="st0" d="M4,4.6c-7.6,7.3,12.9,41.3,16.4,44.9c3.5,3.7,12.5,0.8,20.2-6.5c7.6-7.3,11-16.1,7.5-19.8
		C44.5,19.6,11.6-2.6,4,4.6z"/>
	<path d="M3.5,3.4C-4,10.5,17.6,45.3,21.3,49.1c3.6,3.8,12.6,1.1,20-5.9c7.4-7.1,10.6-15.9,6.9-19.7C44.6,19.7,10.9-3.6,3.5,3.4z"/>
	<path class="st1" d="M4.5,4C-2,10.8,20.5,42.5,24.2,46c3.6,3.4,11.8,0.7,18.2-6.1c6.4-6.8,8.7-15.1,5.1-18.5
		C43.8,18,10.9-2.8,4.5,4z"/>
	<g>
		<circle cx="71.7" cy="72.2" r="68.3"/>
	</g>
	<ellipse class="st0" cx="71.7" cy="72.2" rx="66.6" ry="66.6"/>
	<g>
		<circle cx="69.1" cy="69.6" r="65.7"/>
	</g>
	<ellipse class="st1" cx="64.5" cy="63.3" rx="56.8" ry="58.1"/>
	<path d="M140.1,3.4c8.3,8.3-13.5,43.7-17.3,47.5c-3.7,3.7-13.5,0-21.9-8.3c-8.3-8.3-12.1-18.1-8.3-21.9
		C96.4,16.9,131.8-5,140.1,3.4z"/>
	<path class="st0" d="M137.9,6c7.6,7.6-13.1,40.7-16.6,44.2c-3.5,3.5-12.5,0.2-20.2-7.4c-7.6-7.6-11-16.6-7.4-20.2
		C97.3,19,130.3-1.6,137.9,6z"/>
	<path d="M137.7,4.3c7.3,7.3-14.3,40.8-17.9,44.5c-3.6,3.6-12.5,0.6-19.8-6.7c-7.3-7.3-10.3-16.2-6.7-19.8
		C96.8,18.6,130.3-3,137.7,4.3z"/>
	<path class="st1" d="M138,3.5c6.7,7.2-16.9,40.1-20.7,43.7c-3.8,3.5-12.3,0.6-19-6.6c-6.7-7.2-9.1-15.9-5.3-19.4
		C96.8,17.6,131.3-3.7,138,3.5z"/>
	<path d="M122.7,49.2c-3.5,3.5-12.8,0-20.6-7.9c-7.9-7.9-11.4-17.1-7.8-20.6c0.8-0.8,3-2.4,6-4.3c-4.5-1.8-8.3-1.9-10.4,0.1
		c-4.2,4.2,0.6,15.7,10.6,25.7c10,10,21.5,14.8,25.7,10.6c1.9-1.9,1.9-5.3,0.5-9.3C125,46.4,123.5,48.5,122.7,49.2z"/>
</g>
</svg>
