<?xml version="1.0" encoding="utf-8"?>
<!-- Generator: Adobe Illustrator 19.2.1, SVG Export Plug-In . SVG Version: 6.00 Build 0)  -->
<svg version="1.1" id="Layer_1" xmlns="http://www.w3.org/2000/svg" xmlns:xlink="http://www.w3.org/1999/xlink" x="0px" y="0px"
	 viewBox="0 0 142 142" style="enable-background:new 0 0 142 142;" xml:space="preserve">
<style type="text/css">
	.st0{fill:#DD4814;}
</style>
<g>
	<path class="st0" d="M71,0C31.8,0,0,31.8,0,71c0,39.2,31.8,71,71,71c39.2,0,71-31.8,71-71C142,31.8,110.2,0,71,0z M86.9,24.5
		c2.6-4.5,8.4-6.1,13-3.5c4.5,2.6,6.1,8.4,3.5,12.9c-2.6,4.5-8.4,6.1-12.9,3.5C85.9,34.8,84.3,29,86.9,24.5z M71,29.8
		c3.8,0,7.5,0.5,11,1.5c0.6,3.8,2.9,7.3,6.5,9.4c3.6,2.1,7.8,2.3,11.4,0.9c7,6.9,11.6,16.3,12.2,26.7l-13.5,0.2
		C97.3,54.4,85.5,43.3,71,43.3c-4.2,0-8.1,0.9-11.7,2.6l-6.6-11.8C58.2,31.4,64.4,29.8,71,29.8z M22.7,80.5c-5.2,0-9.5-4.2-9.5-9.5
		c0-5.2,4.2-9.5,9.5-9.5c5.2,0,9.5,4.2,9.5,9.5C32.2,76.2,28,80.5,22.7,80.5z M31.1,81.3c3-2.4,4.9-6.2,4.9-10.3
		c0-4.2-1.9-7.9-4.9-10.3c2.6-9.9,8.7-18.4,17-23.9l6.9,11.6C48,53.4,43.3,61.6,43.3,71c0,9.4,4.7,17.6,11.8,22.7l-6.9,11.6
		C39.9,99.7,33.7,91.2,31.1,81.3z M99.9,121c-4.5,2.6-10.3,1.1-12.9-3.5c-2.6-4.5-1.1-10.3,3.5-12.9c4.5-2.6,10.3-1.1,12.9,3.5
		C106,112.6,104.4,118.4,99.9,121z M99.9,100.4c-3.6-1.4-7.8-1.2-11.4,0.9c-3.6,2.1-5.9,5.6-6.5,9.4c-3.5,1-7.2,1.5-11,1.5
		c-6.6,0-12.7-1.5-18.2-4.3l6.6-11.8c3.5,1.6,7.5,2.6,11.7,2.6c14.5,0,26.3-11.1,27.6-25.2l13.5,0.2
		C111.4,84.1,106.9,93.5,99.9,100.4z"/>
</g>
</svg>
