<?xml version="1.0" encoding="utf-8"?>
<!-- Generator: Adobe Illustrator 19.2.1, SVG Export Plug-In . SVG Version: 6.00 Build 0)  -->
<svg version="1.1" id="Layer_1" xmlns="http://www.w3.org/2000/svg" xmlns:xlink="http://www.w3.org/1999/xlink" x="0px" y="0px"
	 viewBox="0 0 142 142" style="enable-background:new 0 0 142 142;" xml:space="preserve">
<style type="text/css">
	.st0{fill:#34495E;}
	.st1{fill:#E74C3C;}
	.st2{fill:#F2F2F2;}
</style>
<g>
	<path class="st0" d="M142,71c0,0.1,0,0.3,0,0.4c-0.1,22.6-10.8,42.6-27.3,55.5c-12,9.4-27.2,15.1-43.7,15.1c-2.7,0-5.4-0.2-8-0.5
		c-35.4-4-63-34.1-63-70.5C0,31.8,31.8,0,71,0c35.6,0,65,26.1,70.2,60.2C141.7,63.7,142,67.3,142,71z"/>
	<g>
		<path class="st1" d="M71,28.5c-16.7,0-30.2,14.9-30.2,33.3c0,18.4,30.2,51.8,30.2,51.8c0.3-0.2,30.2-33.8,30.2-51.8
			C101.2,43.4,87.7,28.5,71,28.5z M71,70.3c-6.8,0-12.4-5.5-12.4-12.4c0-6.8,5.5-12.4,12.4-12.4c6.8,0,12.4,5.5,12.4,12.4
			C83.4,64.7,77.8,70.3,71,70.3z"/>
		<path class="st2" d="M85,43.9c-0.1-0.1-0.1-0.1-0.2-0.1c-7.7-7.6-20.1-7.5-27.8,0.1c-7.7,7.7-7.7,20.1-0.1,27.8
			c0,0,0.1,0.1,0.1,0.2c7.7,7.7,20.3,7.7,28,0C92.7,64.2,92.7,51.6,85,43.9z"/>
	</g>
</g>
</svg>
