<?xml version="1.0" encoding="utf-8"?>
<!-- Generator: Adobe Illustrator 19.2.1, SVG Export Plug-In . SVG Version: 6.00 Build 0)  -->
<svg version="1.1" id="Layer_1" xmlns="http://www.w3.org/2000/svg" xmlns:xlink="http://www.w3.org/1999/xlink" x="0px" y="0px"
	 viewBox="0 0 142 142" style="enable-background:new 0 0 142 142;" xml:space="preserve">
<style type="text/css">
	.st0{fill:#2980B9;}
	.st1{fill:#FFFFFF;}
</style>
<g>
	<path class="st0" d="M142,71c0,0.1,0,0.3,0,0.4c-0.1,22.6-10.8,42.6-27.3,55.5c-12,9.4-27.2,15.1-43.7,15.1c-2.7,0-5.4-0.2-8-0.5
		c-35.4-4-63-34.1-63-70.5C0,31.8,31.8,0,71,0c35.6,0,65,26.1,70.2,60.2C141.7,63.7,142,67.3,142,71z"/>
	<g>
		<path class="st1" d="M84.3,84.7c0,0,3.3-17.1,3.3-17.1c0.7-3.9,0.1-6.7-1.8-8.5c-1.9-1.8-5.2-2.6-9.9-2.6h-5.7l1.6-8.5
			c0.1-0.3,0-0.6-0.2-0.9c-0.2-0.3-0.5-0.4-0.8-0.4h-7.9c-0.5,0-1,0.4-1.1,0.9l-3.5,18.1c-0.3-2-1.1-3.8-2.4-5.2
			c-2.3-2.7-6-4-10.9-4H29.5c-0.5,0-1,0.4-1.1,0.9L21.3,94c-0.1,0.3,0,0.6,0.2,0.9c0.2,0.3,0.5,0.4,0.8,0.4h8c0.5,0,1-0.4,1.1-0.9
			l1.7-8.9h5.9c3.1,0,5.7-0.3,7.8-1c2.1-0.7,4-1.8,5.7-3.4c1.4-1.3,2.5-2.7,3.4-4.2l-1.4,7.3c-0.1,0.3,0,0.6,0.2,0.9
			s0.5,0.4,0.8,0.4h7.9c0.5,0,1-0.4,1.1-0.9l3.9-20.1H74c2.3,0,3,0.5,3.2,0.7c0.2,0.2,0.5,0.8,0.1,2.8l-3.2,16.2
			c-0.1,0.3,0,0.6,0.2,0.9c0.2,0.3,0.5,0.4,0.8,0.4h8.1C83.7,85.6,84.2,85.2,84.3,84.7z M47.5,70.6C47,73.1,46.1,75,44.8,76
			c-1.4,1.1-3.6,1.6-6.5,1.6h-3.5l2.6-13.2h4.6c3.4,0,4.7,0.7,5.3,1.3C47.8,66.6,48,68.2,47.5,70.6z"/>
		<path class="st1" d="M118.2,60.5c-2.3-2.7-6-4-10.9-4H91.9c-0.5,0-1,0.4-1.1,0.9L83.7,94c-0.1,0.3,0,0.6,0.2,0.9
			c0.2,0.3,0.5,0.4,0.8,0.4h8c0.5,0,1-0.4,1.1-0.9l1.7-8.9h5.9c3.1,0,5.7-0.3,7.8-1c2.1-0.7,4-1.8,5.7-3.4c1.4-1.3,2.6-2.8,3.5-4.3
			c0.9-1.6,1.5-3.3,1.9-5.2C121.3,66.9,120.5,63.1,118.2,60.5z M109.9,70.6c-0.5,2.6-1.4,4.4-2.8,5.4c-1.4,1.1-3.6,1.6-6.5,1.6H97
			l2.6-13.2h4.6c3.4,0,4.7,0.7,5.3,1.3C110.2,66.6,110.4,68.2,109.9,70.6z"/>
	</g>
</g>
</svg>
