<svg xmlns="http://www.w3.org/2000/svg" viewBox="0 0 142 142" enable-background="new 0 0 142 142"><style type="text/css">.st0{fill:#BAC8DB;} .st1{fill:#0477BD;}</style><path class="st0" d="M141.5 79.8c-1.2 9.2-4.2 18.5-9.5 27.4-11.1 18.8-29.8 30.9-50.2 34.1-4.8.7-9.6 1-14.5.7-37.3-2-67.3-32.8-67.3-71 0-39.2 31.8-71 70.9-71 44.4 0 75.6 39.5 70.6 79.8z"/><path id="XMLID_4155_" class="st1" d="M91.3 50.7h-1.3c-3.4-10.3-13.1-17.7-24.6-17.7-14.3 0-25.9 11.6-25.9 25.9v.5c-7.7 1.9-13.5 8.9-13.5 17.3 0 9.8 8 17.8 17.8 17.8 1.2 0 2.3-.1 3.4-.3 3.2 4.4 8.5 7.3 14.4 7.3 5.8 0 10.9-2.8 14.2-7 4.3 3.5 9.7 5.6 15.6 5.6 13.6 0 24.7-11 24.7-24.7s-11.1-24.7-24.8-24.7z"/></svg>1c-2.9-11-12.8-18.9-24.6-18.9C54.4,40.9,43,52,43,66v0.3
	c-9.4,0-17.1,8.1-17,17.5c0,9.4,7.7,17.2,17.1,17.2l8.3,0.1h45.4c4.8,0,9.4-2.1,12.4-5.5c4.3-3.9,6.8-9.6,6.8-15.4
	C116,68.9,106.7,59.6,95.3,59.6z"/>
</svg>
