<svg xmlns="http://www.w3.org/2000/svg" viewBox="0 0 142 142" enable-background="new 0 0 142 142"><style type="text/css">.st0{fill:#BAC8DB;} .st1{fill:#0477BD;}</style><path class="st0" d="M141.5 79.8c-1.2 9.2-4.2 18.5-9.5 27.4-11.1 18.8-29.8 30.9-50.2 34.1-4.8.7-9.6 1-14.5.7-37.3-2-67.3-32.8-67.3-71 0-39.2 31.8-71 70.9-71 44.4 0 75.6 39.5 70.6 79.8z"/><path class="st1" d="M99.6 47c-1.3 0-2.5.1-3.7.4-2.4-6.1-8.3-10.3-15.3-10.3-4.1 0-7.8 1.5-10.7 4-1.4-1.9-7.6-3.1-10.6-1.7-.5-.8-2.2-1-3.1-.3-2.5-1.6-5.5-2.5-8.8-2.5-9.1 0-17.7 7.2-17.5 16.2.1 2.7 1.4 6 4 7.7-1.3 2.9-.4 10 4.4 11.3-.8-.2-1.3.7-.9 1.7-6.6 2.1-11.4 8.3-11.4 15.6 0 9.1 7.4 16.4 16.4 16.4 6.1 0 11.5-3.4 14.3-8.4 1.1.8 2.4.4 2.9-.6.8 1.4 5.7 1.5 7.3-1 .1 1 1.1 1.5 2 1.3 2.8 5.2 7.5 8.3 13.7 8.3 9.1 0 16.4-7.4 16.4-16.4 0-3.4-1-6.5-2.8-9.1 1.1.2 2.1.3 3.3.3 9.1 0 16.4-7.4 16.4-16.4.1-9.1-7.3-16.5-16.3-16.5z"/></svg>