<svg xmlns="http://www.w3.org/2000/svg" viewBox="0 0 142 142" enable-background="new 0 0 142 142"><style type="text/css">.st0{fill:#BAC8DB;} .st1{fill:#0477BD;}</style><path class="st0" d="M141.5 79.8c-1.2 9.2-4.2 18.5-9.5 27.4-11.1 18.8-29.8 30.9-50.2 34.1-4.8.7-9.6 1-14.5.7-37.3-2-67.3-32.8-67.3-71 0-39.2 31.8-71 70.9-71 44.4 0 75.6 39.5 70.6 79.8z"/><path class="st1" d="M38.6 51c-3.1-19.3 16.2-32.7 32.1-18.7 12.2-14 32.1-2.3 30.6 13.6 14.6.7 17 22.4 6 28 9.5 2.8 8.9 20-2.3 23.2-11.3 30.4-60 20.2-58.2-2.1-17.5-2.7-28.2-27.6-8.2-44z"/></svg>0,109.2,0,71C0,31.8,31.8,0,70.9,0C115.3,0,146.5,39.5,141.5,79.8z"/>
<path class="st1" d="M95.3,59.6c-0.8,0-1.6,0-2.3,0.1c-2.9-11-12.8-18.9-24.6-18.9C54.4,40.9,43,52,43,66v0.3
	c-9.4,0-17.1,8.1-17,17.5c0,9.4,7.7,17.2,17.1,17.2l8.3,0.1h45.4c4.8,0,9.4-2.1,12.4-5.5c4.3-3.9,6.8-9.6,6.8-15.4
	C116,68.9,106.7,59.6,95.3,59.6z"/>
</svg>
