<?xml version="1.0" encoding="utf-8"?>
<!-- Generator: Adobe Illustrator 19.2.1, SVG Export Plug-In . SVG Version: 6.00 Build 0)  -->
<svg version="1.1" id="Layer_1" xmlns="http://www.w3.org/2000/svg" xmlns:xlink="http://www.w3.org/1999/xlink" x="0px" y="0px"
	 viewBox="0 0 142 142" style="enable-background:new 0 0 142 142;" xml:space="preserve">
<style type="text/css">
	.st0{fill:#ECF0F1;}
	.st1{fill:#2980B9;}
	.st2{fill:#F1C411;}
</style>
<g>
	<path class="st0" d="M142,71c0,0.1,0,0.3,0,0.4c-0.1,22.6-10.8,42.6-27.3,55.5c-12,9.4-27.2,15.1-43.7,15.1c-2.7,0-5.4-0.2-8-0.5
		c-35.4-4-63-34.1-63-70.5C0,31.8,31.8,0,71,0c35.6,0,65,26.1,70.2,60.2C141.7,63.7,142,67.3,142,71z"/>
	<g>
		<path id="path1948" class="st1" d="M70.5,28.6c-3.5,0-6.8,0.3-9.7,0.8c-8.6,1.5-10.1,4.7-10.1,10.5v7.7h20.2v2.6H50.7h-7.6
			c-5.9,0-11,3.5-12.6,10.3c-1.9,7.7-1.9,12.5,0,20.6c1.4,6,4.9,10.3,10.7,10.3h7v-9.2c0-6.7,5.8-12.6,12.6-12.6H81
			c5.6,0,10.1-4.6,10.1-10.3V39.9c0-5.5-4.6-9.6-10.1-10.5C77.6,28.9,74,28.6,70.5,28.6z M59.6,34.8c2.1,0,3.8,1.7,3.8,3.9
			c0,2.1-1.7,3.8-3.8,3.8c-2.1,0-3.8-1.7-3.8-3.8C55.8,36.5,57.5,34.8,59.6,34.8z"/>
		<path id="path1950" class="st2" d="M93.7,50.2v9c0,7-5.9,12.8-12.6,12.8H60.8c-5.5,0-10.1,4.7-10.1,10.3v19.3
			c0,5.5,4.8,8.7,10.1,10.3c6.4,1.9,12.5,2.2,20.2,0c5.1-1.5,10.1-4.4,10.1-10.3v-7.7H70.9v-2.6h20.2h10.1c5.9,0,8.1-4.1,10.1-10.3
			c2.1-6.3,2-12.4,0-20.6c-1.5-5.9-4.2-10.3-10.1-10.3H93.7z M82.3,99c2.1,0,3.8,1.7,3.8,3.8c0,2.1-1.7,3.9-3.8,3.9
			c-2.1,0-3.8-1.7-3.8-3.9C78.5,100.7,80.2,99,82.3,99z"/>
	</g>
</g>
</svg>
