<?xml version="1.0" encoding="utf-8"?>
<!-- Generator: Adobe Illustrator 19.2.1, SVG Export Plug-In . SVG Version: 6.00 Build 0)  -->
<svg version="1.1" id="Layer_1" xmlns="http://www.w3.org/2000/svg" xmlns:xlink="http://www.w3.org/1999/xlink" x="0px" y="0px"
	 viewBox="0 0 142 142" style="enable-background:new 0 0 142 142;" xml:space="preserve">
<style type="text/css">
	.st0{fill:#34495E;}
	.st1{fill:#2BCC71;}
</style>
<g>
	<path class="st0" d="M142,71c0,0.1,0,0.3,0,0.4c-0.1,22.6-10.8,42.6-27.3,55.5c-12,9.4-27.2,15.1-43.7,15.1c-2.7,0-5.4-0.2-8-0.5
		c-35.4-4-63-34.1-63-70.5C0,31.8,31.8,0,71,0c35.6,0,65,26.1,70.2,60.2C141.7,63.7,142,67.3,142,71z"/>
	<g>
		<g>
			<path class="st1" d="M32.5,46.3c0-1.6,0.6-3.1,1.8-4.3c2.4-2.4,6.3-2.4,8.7,0L72.1,71L43,100.1c-2.4,2.4-6.3,2.4-8.7,0
				c-2.4-2.4-2.4-6.3,0-8.7L54.7,71L34.3,50.6C33.1,49.4,32.5,47.8,32.5,46.3z"/>
		</g>
		<g>
			<path class="st1" d="M69.9,46.3c0-1.6,0.6-3.1,1.8-4.3c2.4-2.4,6.3-2.4,8.7,0L109.5,71l-29.1,29.1c-2.4,2.4-6.3,2.4-8.7,0
				c-2.4-2.4-2.4-6.3,0-8.7L92.1,71L71.7,50.6C70.5,49.4,69.9,47.8,69.9,46.3z"/>
		</g>
	</g>
</g>
</svg>
