<svg xmlns="http://www.w3.org/2000/svg" viewBox="0 0 142 142" enable-background="new 0 0 142 142"><style type="text/css">.st0{fill:#34495E;} .st1{fill:#D8A912;} .st2{fill:#F1C411;} .st3{fill:#FFD243;}</style><path class="st0" d="M141.5 79.8c-1.2 9.2-4.2 18.5-9.5 27.4-11.1 18.8-29.8 30.9-50.2 34.1-4.8.7-9.6 1-14.5.7-37.3-2-67.3-32.8-67.3-71 0-39.2 31.8-71 70.9-71 44.4 0 75.6 39.5 70.6 79.8z"/><path class="st1" d="M93.4 51.6v25.9l22.3-13v-25.8z"/><path class="st2" d="M93.4 25.8l-22.4 12.9 22.4 12.9 22.3-12.9z"/><path class="st3" d="M71 38.7v25.8l22.4 13v-25.9z"/><path class="st1" d="M71 90.4v25.8l22.4-12.9v-25.8z"/><path class="st2" d="M71 64.5l-22.4 13 22.4 12.9 22.4-12.9z"/><path class="st1" d="M48.6 51.6v25.9l22.4-13v-25.8z"/><path class="st3" d="M48.6 77.5v25.8l22.4 12.9v-25.8z"/><path class="st2" d="M48.6 25.8l-22.3 12.9 22.3 12.9 22.4-12.9z"/><path class="st3" d="M26.3 38.7v25.8l22.3 13v-25.9z"/></svg>