<?xml version="1.0" encoding="utf-8"?>
<!-- Generator: Adobe Illustrator 19.2.1, SVG Export Plug-In . SVG Version: 6.00 Build 0)  -->
<svg version="1.1" id="Layer_1" xmlns="http://www.w3.org/2000/svg" xmlns:xlink="http://www.w3.org/1999/xlink" x="0px" y="0px"
	 viewBox="0 0 142 142" style="enable-background:new 0 0 142 142;" xml:space="preserve">
<style type="text/css">
	.st0{fill:#D8A912;}
	.st1{fill:#F1C411;}
	.st2{fill:#FFD243;}
</style>
<g id="XMLID_4341_">
	<g>
		<polygon class="st0" points="141.3,20.3 141.3,60.9 106.1,40.6 		"/>
		<polygon class="st1" points="141.3,20.3 106.1,40.6 106.1,0 		"/>
		<polygon class="st0" points="141.3,60.9 106.1,81.1 106.1,40.6 		"/>
		<polygon class="st0" points="106.1,81.1 106.1,121.7 71,101.4 		"/>
		<polygon class="st2" points="106.1,40.6 106.1,81.1 71,60.9 		"/>
		<polygon class="st1" points="106.1,0 106.1,40.6 71,20.3 		"/>
		<polygon class="st2" points="106.1,40.6 71,60.9 71,20.3 		"/>
		<polygon class="st1" points="106.1,81.1 71,101.4 71,60.9 		"/>
		<polygon class="st0" points="106.1,121.7 71,142 71,101.4 		"/>
		<polygon class="st2" points="71,101.4 71,142 35.9,121.7 		"/>
		<polygon class="st1" points="71,60.9 71,101.4 35.9,81.1 		"/>
		<polygon class="st0" points="71,20.3 71,60.9 35.9,40.6 		"/>
		<polygon class="st1" points="71,20.3 35.9,40.6 35.9,0 		"/>
		<polygon class="st0" points="71,60.9 35.9,81.1 35.9,40.6 		"/>
		<polygon class="st2" points="71,101.4 35.9,121.7 35.9,81.1 		"/>
		<polygon class="st2" points="35.9,40.6 35.9,81.1 0.7,60.9 		"/>
		<polygon class="st1" points="35.9,0 35.9,40.6 0.7,20.3 		"/>
		<polygon class="st2" points="35.9,40.6 0.7,60.9 0.7,20.3 		"/>
	</g>
</g>
</svg>
