<?xml version="1.0" encoding="utf-8"?>
<!-- Generator: Adobe Illustrator 19.2.1, SVG Export Plug-In . SVG Version: 6.00 Build 0)  -->
<svg version="1.1" id="Layer_1" xmlns="http://www.w3.org/2000/svg" xmlns:xlink="http://www.w3.org/1999/xlink" x="0px" y="0px"
	 viewBox="0 0 142 142" style="enable-background:new 0 0 142 142;" xml:space="preserve">
<style type="text/css">
	.st0{fill:#34495E;}
	.st1{fill:#B2B2B2;}
	.st2{fill:#3498DB;}
	.st3{fill:#F39C13;}
	.st4{fill:#ECF0F1;}
	.st5{fill:#F1C411;}
</style>
<g>
	<path class="st0" d="M142,71c0,0.1,0,0.3,0,0.4c-0.1,22.6-10.8,42.6-27.3,55.5c-12,9.4-27.2,15.1-43.7,15.1c-2.7,0-5.4-0.2-8-0.5
		c-35.4-4-63-34.1-63-70.5C0,31.8,31.8,0,71,0c35.6,0,65,26.1,70.2,60.2C141.7,63.7,142,67.3,142,71z"/>
	<g>
		<g>
			<path class="st1" d="M51.7,89.3c0-1.9-0.8-3.5-2-4.8l18-26.6c1.2,0.8,2.6,1.2,4.1,1.2c1.2,0,2.3-0.3,3.3-0.9l17.1,25.4
				c-1.2,1.3-1.9,3-1.9,5c0.1,3.9,3.3,7,7.3,7c4-0.1,7.1-3.3,7-7.2c-0.1-3.9-3.3-7-7.3-7c-0.9,0-1.7,0.2-2.5,0.5L77.5,56.1
				c0.9-1.2,1.3-2.7,1.3-4.2c-0.1-3.9-3.3-7-7.3-7c-3.9,0.1-7.1,3.3-7,7.2c0,1.3,0.4,2.4,1,3.4L47.1,82.8c-0.8-0.3-1.7-0.5-2.6-0.5
				c-3.9,0.1-7.1,3.3-7,7.2c0.1,3.9,3.3,7,7.3,7C48.7,96.4,51.8,93.2,51.7,89.3z"/>
			<path class="st2" d="M71.8,60.3c-4.3,0.1-7.8-3.3-7.9-7.5c-0.1-4.2,3.3-7.7,7.6-7.8c4.3-0.1,7.8,3.3,7.9,7.5
				C79.5,56.7,76.1,60.2,71.8,60.3z"/>
			<path class="st2" d="M97.4,95.8c-4.3,0.1-7.8-3.3-7.9-7.5c-0.1-4.2,3.3-7.7,7.6-7.8c4.3-0.1,7.8,3.3,7.9,7.5
				C105.1,92.2,101.7,95.7,97.4,95.8z"/>
			
				<ellipse transform="matrix(0.9998 -1.801928e-02 1.801928e-02 0.9998 -1.6032 0.82)" class="st2" cx="44.7" cy="89.4" rx="7.7" ry="7.7"/>
		</g>
		<g>
			<g>
				<path class="st3" d="M60.9,101c0,3.9-5.1,3.9-5.1,0V78.2h4.3c0.4,0,0.8,0.3,0.8,0.8V101z"/>
				<g>
					<path class="st4" d="M57.5,100.5c0,0.5-0.4,0.9-0.9,0.9H34.2v-26c0-0.4,0.3-0.6,0.7-0.6h21.7c0.4,0,0.9,0.1,0.9,0.6V100.5z"/>
				</g>
				<path class="st5" d="M58.8,103.9c-1.3,0-2.7-0.9-3-2.8L53,84.4c-0.1-0.4-0.4-0.6-0.8-0.6l-6.1,0h-3.2l-0.7-2.3
					c-0.2-0.7-1.1-1.1-1.8-1.1H30.1c-0.5,0-0.9,0.2-1.2,0.5c-0.3,0.3-0.4,0.8-0.4,1.2l3,18.2c0.3,2,1.8,3.7,3.1,3.7l13,0l1.8,0
					L58.8,103.9L58.8,103.9z"/>
			</g>
			<g>
				<path class="st3" d="M87.9,64.2c0,3.9-5.1,3.9-5.1,0V41.5h4.3c0.4,0,0.8,0.3,0.8,0.8V64.2z"/>
				<g>
					<path class="st4" d="M84.4,63.8c0,0.5-0.4,0.9-0.9,0.9H61.1v-26c0-0.4,0.3-0.6,0.7-0.6h21.7c0.4,0,0.9,0.1,0.9,0.6V63.8z"/>
				</g>
				<path class="st5" d="M85.8,67.2c-1.3,0-2.7-0.9-3-2.8l-2.8-16.7c-0.1-0.4-0.4-0.6-0.8-0.6L73,47h-3.2l-0.7-2.3
					c-0.2-0.7-1.1-1.1-1.8-1.1H57c-0.5,0-0.9,0.2-1.2,0.5c-0.3,0.3-0.4,0.8-0.4,1.2l3,18.2c0.3,2,1.8,3.7,3.1,3.7l13,0l1.8,0
					L85.8,67.2L85.8,67.2z"/>
			</g>
			<g>
				<path class="st3" d="M113.5,99.7c0,3.9-5.1,3.9-5.1,0V77h4.3c0.4,0,0.8,0.3,0.8,0.8V99.7z"/>
				<g>
					<path class="st4" d="M110.1,99.3c0,0.5-0.4,0.9-0.9,0.9H86.7v-26c0-0.4,0.3-0.6,0.7-0.6h21.7c0.4,0,0.9,0.1,0.9,0.6V99.3z"/>
				</g>
				<path class="st5" d="M111.4,102.7c-1.3,0-2.7-0.9-3-2.8l-2.8-16.7c-0.1-0.4-0.4-0.6-0.8-0.6l-6.1,0h-3.2l-0.7-2.3
					c-0.2-0.7-1.1-1.1-1.8-1.1H82.7c-0.5,0-0.9,0.2-1.2,0.5c-0.3,0.3-0.4,0.8-0.4,1.2l3,18.2c0.3,2,1.8,3.7,3.1,3.7l13,0l1.8,0
					L111.4,102.7L111.4,102.7z"/>
			</g>
		</g>
	</g>
</g>
</svg>
