<?xml version="1.0" encoding="utf-8"?>
<!-- Generator: Adobe Illustrator 19.2.1, SVG Export Plug-In . SVG Version: 6.00 Build 0)  -->
<svg version="1.1" id="Layer_1" xmlns="http://www.w3.org/2000/svg" xmlns:xlink="http://www.w3.org/1999/xlink" x="0px" y="0px"
	 viewBox="0 0 142 142" style="enable-background:new 0 0 142 142;" xml:space="preserve">
<style type="text/css">
	.st0{fill:#34495E;}
	.st1{fill:#3498DB;}
	.st2{fill:#47AFEA;}
	.st3{fill:#146190;}
	.st4{fill:#FFFFFF;}
	.st5{opacity:0.6;}
	.st6{fill:#939598;}
	.st7{opacity:0.1;}
	.st8{fill:#BCBEC0;}
	.st9{opacity:0.4;}
	.st10{opacity:0.7;fill:#FFFFFF;}
	.st11{opacity:0.4;fill:#231F20;}
	.st12{opacity:0.5;fill:#231F20;}
	.st13{opacity:0.3;fill:#231F20;}
</style>
<g>
	<path class="st0" d="M142,71c0,0.1,0,0.3,0,0.4c-0.1,22.6-10.8,42.6-27.3,55.5c-12,9.4-27.2,15.1-43.7,15.1c-2.7,0-5.4-0.2-8-0.5
		c-35.4-4-63-34.1-63-70.5C0,31.8,31.8,0,71,0c35.6,0,65,26.1,70.2,60.2C141.7,63.7,142,67.3,142,71z"/>
	<g>
		<g>
			<g>
				<path class="st1" d="M98.7,109.6c0,2.2-1.8,3.9-3.9,3.9H47.3c-2.2,0-3.9-1.8-3.9-3.9V70.7h55.4V109.6z"/>
				<path class="st2" d="M48.6,70.7h-5.3v38.8c0,2.2,1.8,3.9,3.9,3.9h1.3V70.7z"/>
				<path class="st2" d="M92.5,70.7v42.8h2.2c2.2,0,3.9-1.8,3.9-3.9V70.7H92.5z"/>
				<path class="st3" d="M98.7,70.6c0,2.2-1.8,3.9-3.9,3.9H47.3c-2.2,0-3.9-1.8-3.9-3.9v-0.5c0-2.2,1.8-3.9,3.9-3.9h47.5
					c2.2,0,3.9,1.8,3.9,3.9V70.6z"/>
				<path class="st4" d="M94.7,74.1H47.3c-2.2,0-3.9-1.8-3.9-3.9v0.4c0,2.2,1.8,3.9,3.9,3.9h47.5c2.2,0,3.9-1.8,3.9-3.9v-0.4
					C98.7,72.4,96.9,74.1,94.7,74.1z"/>
			</g>
			<ellipse class="st5" cx="54.9" cy="70.4" rx="5.5" ry="2"/>
			<ellipse class="st5" cx="87.1" cy="70.4" rx="5.5" ry="2"/>
			<g>
				<path class="st6" d="M87.1,53.5v18.8c-1.5,0-2.8-0.2-3.8-0.5V53.5c0-3.9-1.3-7.1-3.8-9.2c-2.2-2-5.3-3.1-8.6-3.1
					c-6.1,0-12.3,3.8-12.3,12.3v18.2c-1,0.3-2.3,0.5-3.8,0.5V53.5C54.9,32,87.1,32,87.1,53.5z"/>
				<path class="st7" d="M59.7,48.1c2-4.7,6.7-6.9,11.3-6.9c3.2,0,6.4,1.1,8.6,3.1c1.2,1.1,2.1,2.4,2.7,3.9h4.1
					C82,33.8,60,33.8,55.6,48.1H59.7z"/>
				<path class="st4" d="M90.9,53.5v18.2c-1,0.3-2.3,0.5-3.8,0.5V53.5c0-21.5-32.3-21.5-32.3,0v18.8c-1.5,0-2.8-0.2-3.8-0.5V53.5
					c0-13.1,10-19.9,19.9-19.9C80.9,33.6,90.9,40.4,90.9,53.5z"/>
			</g>
			<g>
				<path class="st8" d="M73.6,28.5c0.9,0,1.6,0.7,1.6,1.6v13.6c0,0.9-0.7,1.6-1.6,1.6h-4.5c-0.9,0-1.6-0.7-1.6-1.6V30.1
					c0-0.9,0.7-1.6,1.6-1.6H73.6z"/>
				<path class="st9" d="M67.5,41.6v2c0,0.9,0.7,1.6,1.6,1.6h4.5c0.9,0,1.6-0.7,1.6-1.6v-2H67.5z"/>
				<path class="st10" d="M75.1,33.7v-3.7c0-0.9-0.7-1.6-1.6-1.6h-4.5c-0.9,0-1.6,0.7-1.6,1.6v3.7H75.1z"/>
				<path class="st9" d="M72.1,28.5v16.4c0,0.1,0,0.2,0,0.2h-1.5c0-0.1,0-0.1,0-0.2V28.5H72.1z"/>
				<path class="st9" d="M71.6,28.5v16.4c0,0.1,0,0.2,0,0.2H71V28.5H71.6z"/>
			</g>
			<g>
				<path class="st11" d="M57.9,86.6c4.6,0,4.6-6.6,0-6.6H56v26.6h1.9c4.6,0,4.6-6.6,0-6.6c4.6,0,4.6-6.6,0-6.6
					C62.4,93.2,62.4,86.6,57.9,86.6z"/>
				<path class="st8" d="M57.5,86.6c-4.7,0-9.4,0-14.1,0c0-2.2,0-4.4,0-6.6c4.7,0,9.4,0,14.1,0C61.9,79.9,61.9,86.6,57.5,86.6z"/>
				<path class="st8" d="M57.5,93.2c-4.7,0-9.4,0-14.1,0c0-2.2,0-4.4,0-6.6c4.7,0,9.4,0,14.1,0C61.9,86.6,61.9,93.2,57.5,93.2z"/>
				<path class="st8" d="M57.5,99.9c-4.7,0-9.4,0-14.1,0c0-2.2,0-4.4,0-6.6c4.7,0,9.4,0,14.1,0C61.9,93.2,61.9,99.9,57.5,99.9z"/>
				<path class="st8" d="M57.5,106.5c-4.7,0-9.4,0-14.1,0c0-2.2,0-4.4,0-6.6c4.7,0,9.4,0,14.1,0C61.9,99.9,61.9,106.5,57.5,106.5z"
					/>
				<rect x="43.3" y="79.9" class="st10" width="5.3" height="6.6"/>
				<rect x="43.3" y="86.6" class="st10" width="5.3" height="6.6"/>
				<rect x="43.3" y="93.2" class="st10" width="5.3" height="6.6"/>
				<rect x="43.3" y="99.9" class="st10" width="5.3" height="6.6"/>
				<path class="st11" d="M43.3,85.9v0.7h14.1c0.9,0,1.5-0.3,2.1-0.7H43.3z"/>
				<path class="st12" d="M43.3,86.3v0.3h14.1c0.6,0,1-0.1,1.5-0.3H43.3z"/>
				<path class="st11" d="M43.3,92.5v0.7h14.1c0.9,0,1.6-0.3,2.2-0.7H43.3z"/>
				<path class="st12" d="M43.3,92.9v0.3h14.1c0.6,0,1.1-0.1,1.5-0.3H43.3z"/>
				<path class="st11" d="M43.3,98.9v1h14.1c1.1,0,1.9-0.4,2.4-1H43.3z"/>
				<path class="st12" d="M43.3,99.4v0.4h14.1c0.7,0,1.3-0.2,1.7-0.4H43.3z"/>
				<path class="st11" d="M43.3,105.8v0.7h14.1c0.9,0,1.6-0.3,2.2-0.7H43.3z"/>
				<path class="st12" d="M43.3,106.2v0.3h14.1c0.6,0,1.1-0.1,1.5-0.3H43.3z"/>
				<path class="st13" d="M57.5,79.9h-0.2v6.6h0.2C61.9,86.6,61.9,79.9,57.5,79.9z"/>
				<path class="st13" d="M57.5,86.6h-0.2v6.6h0.2C61.9,93.2,61.9,86.6,57.5,86.6z"/>
				<path class="st13" d="M57.5,93.2h-0.2v6.6h0.2C61.9,99.9,61.9,93.2,57.5,93.2z"/>
				<path class="st13" d="M57.5,99.9h-0.2v6.6h0.2C61.9,106.5,61.9,99.9,57.5,99.9z"/>
			</g>
		</g>
	</g>
</g>
</svg>
