<?xml version="1.0" encoding="utf-8"?>
<!-- Generator: Adobe Illustrator 19.2.1, SVG Export Plug-In . SVG Version: 6.00 Build 0)  -->
<svg version="1.1" id="Layer_1" xmlns="http://www.w3.org/2000/svg" xmlns:xlink="http://www.w3.org/1999/xlink" x="0px" y="0px"
	 viewBox="0 0 142 142" style="enable-background:new 0 0 142 142;" xml:space="preserve">
<style type="text/css">
	.st0{fill:#34495E;}
	.st1{fill:#2C3E50;}
	.st2{fill:#F2F2F2;}
	.st3{fill:#B3B3B3;}
	.st4{opacity:0.8;}
	.st5{fill:#3498DB;}
	.st6{fill:#E74C3C;}
	.st7{opacity:0.5;fill:#006ABA;}
	.st8{opacity:0.6;fill:#FFFFFF;}
	.st9{fill:#002856;}
	.st10{opacity:0.5;}
	.st11{fill:#B42006;}
	.st12{fill:#006ABA;}
	.st13{fill:#FFFFFF;}
	.st14{fill:#8C1B06;}
	.st15{fill:#373737;}
	.st16{opacity:0.8;fill:#FFFFFF;}
	.st17{opacity:0.3;}
</style>
<g>
	<path class="st0" d="M142,71c0,0.1,0,0.3,0,0.4c-0.1,22.6-10.8,42.6-27.3,55.5c-12,9.4-27.2,15.1-43.7,15.1c-2.7,0-5.4-0.2-8-0.5
		c-35.4-4-63-34.1-63-70.5C0,31.8,31.8,0,71,0c35.6,0,65,26.1,70.2,60.2C141.7,63.7,142,67.3,142,71z"/>
	<g>
		<g>
			<path class="st1" d="M107.6,71c0,10.4-4.4,20.2-12.1,27.2c-0.1,0.1-0.2,0.1-0.2,0.2c-6.7,5.9-15.3,9.2-24.3,9.2
				c-8.8,0-17.4-3.2-24-9c-0.1-0.1-0.2-0.1-0.2-0.2C38.9,91.4,34.4,81.5,34.4,71c0-20.2,16.4-36.6,36.6-36.6
				C91.2,34.4,107.6,50.8,107.6,71z"/>
			<path class="st2" d="M101.1,40.9c-8-8-18.7-12.4-30.1-12.4c-11.4,0-22,4.4-30.1,12.4c-8,8-12.4,18.7-12.4,30.1
				c0,12.3,5.3,24,14.6,32c7.7,6.7,17.6,10.5,27.9,10.5c10.4,0,20.4-3.8,28.2-10.7c9.1-8.1,14.3-19.7,14.3-31.8
				C113.5,59.6,109.1,49,101.1,40.9z M97.2,100.6c-7,6.2-16.2,9.9-26.2,9.9c-9.9,0-19-3.7-26-9.7C36.7,93.6,31.5,82.9,31.5,71
				c0-21.8,17.7-39.5,39.5-39.5c21.8,0,39.5,17.7,39.5,39.5C110.5,82.8,105.4,93.4,97.2,100.6z"/>
			<path class="st3" d="M71,31.5c-21.8,0-39.5,17.7-39.5,39.5c0,11.9,5.3,22.6,13.6,29.8c6.9,6.1,16,9.7,26,9.7
				c10.1,0,19.2-3.8,26.2-9.9c8.2-7.2,13.3-17.8,13.3-29.6C110.5,49.2,92.8,31.5,71,31.5z M95.3,98.4c-6.7,5.9-15.3,9.2-24.3,9.2
				c-8.8,0-17.4-3.2-24-9c-8-7-12.6-17-12.6-27.6c0-20.2,16.4-36.6,36.6-36.6c20.2,0,36.6,16.4,36.6,36.6
				C107.6,81.5,103.1,91.4,95.3,98.4z"/>
		</g>
		<g>
			<path class="st4" d="M95.4,51.8C89.7,44.3,80.9,39.5,71,39.5c-17.1,0-30.9,14.2-30.9,31.7c0,6.2,1.7,12.2,5,17.3
				c0.2,0.3,0.5,0.5,0.9,0.6c0.4,0.1,0.7,0,1-0.2l6.2-4.6c1.2-0.9,1.6-2.6,0.9-4c-1.4-2.8-2.2-5.9-2.2-9c0-10.7,8.5-19.5,19-19.5
				c6.6,0,12.5,3.5,15.9,8.8c2,3.1,3.1,6.7,3.1,10.7c0,3.2-0.8,6.4-2.2,9.2c-0.7,1.4-0.3,3.1,0.9,4l6.2,4.7c0.3,0.2,0.7,0.3,1,0.2
				c0.4-0.1,0.7-0.3,0.9-0.6c3.4-5.2,5.1-11.2,5.1-17.5C101.9,63.9,99.5,57.2,95.4,51.8z"/>
			<g>
				<path class="st5" d="M71,38.6c-17.8,0-32.4,14.5-32.4,32.4c0,6.3,1.8,12.4,5.2,17.7c0.2,0.3,0.6,0.6,0.9,0.6
					c0.4,0.1,0.8,0,1.1-0.2l6.5-4.7c1.3-0.9,1.7-2.7,1-4.1c-1.5-2.8-2.3-6-2.3-9.2c0-11,8.9-19.9,19.9-19.9c6.9,0,13,3.6,16.6,9
					l8.9-8.9C90.6,43.5,81.4,38.6,71,38.6z"/>
				<path class="st6" d="M87.6,60.1c2.1,3.1,3.3,6.9,3.3,10.9c0,3.3-0.8,6.5-2.3,9.4c-0.8,1.4-0.4,3.2,0.9,4.1l6.5,4.7
					c0.3,0.2,0.7,0.3,1.1,0.3c0.4-0.1,0.7-0.3,0.9-0.6c3.5-5.3,5.4-11.5,5.4-17.9c0-7.5-2.6-14.4-6.8-19.9L87.6,60.1z"/>
			</g>
		</g>
		<g>
			<path class="st7" d="M71.8,47.7c0,1.2-1.8,1.2-1.8,0c0-1.8,0-3.5,0-5.3c0-1.2,1.8-1.2,1.8,0C71.8,44.1,71.8,45.9,71.8,47.7z"/>
			<path class="st8" d="M71.6,41.7c0,0.1,0.1,0.2,0.1,0.3c0,1.8,0,3.5,0,5.3c0,0.9-1,1.1-1.5,0.6c0.3,0.8,1.7,0.7,1.7-0.3
				c0-1.8,0-3.5,0-5.3C71.8,42.1,71.7,41.9,71.6,41.7z"/>
			<path class="st9" d="M70.2,43.2c0-1,1.3-1.1,1.7-0.4c0-0.1,0-0.2,0-0.4c0-1.2-1.8-1.2-1.8,0c0,1.8,0,3.5,0,5.3
				c0,0.2,0,0.3,0.1,0.4C70.2,46.4,70.2,44.8,70.2,43.2z"/>
			<g class="st10">
				<path class="st11" d="M95.6,76c-1.2-0.1-0.9-1.9,0.2-1.7c1.8,0.2,3.5,0.4,5.3,0.6c1.2,0.1,1,1.9-0.2,1.7
					C99.1,76.4,97.3,76.2,95.6,76z"/>
				<path class="st11" d="M95.2,67.8c-1.1,0.3-1.5-1.5-0.4-1.7c1.7-0.4,3.4-0.8,5.2-1.1c1.1-0.3,1.5,1.5,0.4,1.7
					C98.7,67.1,96.9,67.4,95.2,67.8z"/>
				<path class="st11" d="M92.6,83.8c-1-0.5-0.3-2.1,0.8-1.6c1.6,0.8,3.2,1.6,4.7,2.3c1.1,0.5,0.3,2.1-0.8,1.6
					C95.8,85.4,94.2,84.6,92.6,83.8z"/>
				<path class="st11" d="M93.3,61.5c-1,0.6-1.9-1-0.8-1.5c1.6-0.8,3.1-1.7,4.7-2.5c1-0.6,1.9,1,0.8,1.5
					C96.4,59.8,94.8,60.6,93.3,61.5z"/>
				<path class="st12" d="M81.3,49.7c-0.4,1.1-2.1,0.4-1.6-0.7c0.7-1.6,1.3-3.3,2-4.9c0.4-1.1,2.1-0.4,1.6,0.7
					C82.6,46.5,81.9,48.1,81.3,49.7z"/>
				<path class="st12" d="M88.4,54.5c-0.8,0.9-2.1-0.3-1.3-1.2c1.2-1.3,2.4-2.6,3.6-3.9c0.8-0.9,2.1,0.3,1.3,1.2
					C90.8,51.9,89.6,53.2,88.4,54.5z"/>
			</g>
			<g class="st10">
				<path class="st13" d="M101.7,75.4c0,0.5-0.3,1-1,0.9c-1.8-0.2-3.5-0.4-5.3-0.6c-0.3,0-0.6-0.2-0.7-0.4c0,0.4,0.3,0.8,0.8,0.8
					c1.8,0.2,3.5,0.4,5.3,0.6C101.7,76.7,102,75.9,101.7,75.4z"/>
				<path class="st13" d="M101,65.4c0,0.4-0.2,0.8-0.7,0.9c-1.7,0.4-3.4,0.8-5.2,1.1c-0.5,0.1-0.8-0.1-1-0.5c0,0.5,0.4,1,1.1,0.8
					c1.7-0.4,3.4-0.8,5.2-1.1C101.1,66.5,101.2,65.9,101,65.4z"/>
				<path class="st13" d="M98.6,85c0,0.6-0.6,1.2-1.3,0.8c-1.6-0.8-3.2-1.6-4.8-2.3c-0.2-0.1-0.3-0.2-0.4-0.4c0,0.3,0.1,0.6,0.5,0.7
					c1.6,0.8,3.2,1.6,4.8,2.3C98.3,86.6,98.9,85.6,98.6,85z"/>
				<path class="st13" d="M98.3,57.8c0,0.3-0.1,0.6-0.5,0.8c-1.6,0.8-3.1,1.7-4.7,2.5c-0.5,0.3-1,0-1.2-0.4c0,0.6,0.6,1.2,1.3,0.8
					c1.6-0.8,3.1-1.7,4.7-2.5C98.4,58.7,98.5,58.2,98.3,57.8z"/>
				<path class="st13" d="M83.2,44.1c0,0.1,0,0.2-0.1,0.4c-0.7,1.6-1.3,3.3-2,4.9c-0.3,0.8-1.3,0.6-1.6,0.1c0,0.9,1.3,1.3,1.7,0.3
					c0.7-1.6,1.3-3.3,2-4.9C83.4,44.6,83.3,44.3,83.2,44.1z"/>
				<path class="st13" d="M92.1,49.7c0,0.2-0.1,0.4-0.2,0.6c-1.2,1.3-2.4,2.6-3.5,3.9c-0.5,0.5-1.2,0.3-1.4-0.2
					c0,0.7,0.9,1.3,1.5,0.6c1.2-1.3,2.4-2.6,3.6-3.9C92.3,50.3,92.3,49.9,92.1,49.7z"/>
			</g>
			<g>
				<path class="st14" d="M95.7,74.9c1.8,0.2,3.5,0.4,5.3,0.6c0.5,0.1,0.7,0.4,0.8,0.7c0.3-0.5,0.1-1.2-0.7-1.3
					c-1.8-0.2-3.5-0.4-5.3-0.6c-0.7-0.1-1,0.5-1,1C95,75,95.3,74.8,95.7,74.9z"/>
				<path class="st14" d="M94.7,66.7c1.7-0.4,3.4-0.8,5.2-1.1c0.6-0.1,1,0.3,1.1,0.7c0.3-0.6-0.1-1.5-1-1.3
					c-1.7,0.4-3.4,0.8-5.2,1.1c-0.5,0.1-0.7,0.6-0.7,1C94.3,66.9,94.5,66.8,94.7,66.7z"/>
				<path class="st14" d="M93.3,82.9c1.6,0.8,3.2,1.6,4.7,2.3c0.3,0.1,0.4,0.4,0.5,0.6c0.2-0.4,0.1-0.9-0.4-1.2
					c-1.6-0.8-3.2-1.6-4.7-2.3c-0.7-0.4-1.4,0.4-1.3,1C92.4,82.9,92.8,82.6,93.3,82.9z"/>
				<path class="st14" d="M92.4,60.5c1.6-0.8,3.1-1.7,4.7-2.5c0.6-0.3,1.2,0.1,1.3,0.6c0.4-0.7-0.3-1.7-1.2-1.2
					c-1.6,0.8-3.1,1.7-4.7,2.5c-0.4,0.2-0.5,0.6-0.4,0.9C92.1,60.7,92.2,60.6,92.4,60.5z"/>
				<path class="st9" d="M81.6,44.2c-0.7,1.6-1.3,3.3-2,4.9c-0.1,0.2-0.1,0.3-0.1,0.5c0.7-1.6,1.3-3.2,2-4.8
					c0.4-0.9,1.6-0.6,1.7,0.2c0,0,0-0.1,0-0.1C83.7,43.8,82.1,43.1,81.6,44.2z"/>
				<path class="st9" d="M87,54c1.2-1.3,2.4-2.6,3.5-3.9c0.6-0.6,1.4-0.2,1.5,0.4c0.5-0.8-0.7-1.8-1.4-1c-1.2,1.3-2.4,2.6-3.6,3.9
					c-0.2,0.2-0.3,0.5-0.2,0.8C86.9,54.1,87,54,87,54z"/>
			</g>
			<g class="st10">
				<path class="st12" d="M46.5,76c1.2-0.1,0.9-1.9-0.2-1.7c-1.8,0.2-3.5,0.4-5.3,0.6c-1.2,0.1-1,1.9,0.2,1.7
					C43,76.4,44.7,76.2,46.5,76z"/>
				<path class="st12" d="M46.8,67.8c1.1,0.3,1.5-1.5,0.4-1.7c-1.7-0.4-3.4-0.8-5.2-1.1c-1.1-0.3-1.5,1.5-0.4,1.7
					C43.4,67.1,45.1,67.4,46.8,67.8z"/>
				<path class="st12" d="M49.4,83.8c1-0.5,0.3-2.1-0.8-1.6c-1.6,0.8-3.2,1.6-4.7,2.3c-1,0.5-0.3,2.1,0.8,1.6
					C46.2,85.4,47.8,84.6,49.4,83.8z"/>
				<path class="st12" d="M48.7,61.5c1,0.6,1.9-1,0.8-1.5c-1.6-0.8-3.1-1.7-4.7-2.5c-1-0.6-1.9,1-0.8,1.5
					C45.6,59.8,47.2,60.6,48.7,61.5z"/>
				<path class="st12" d="M60.8,49.7c0.4,1.1,2.1,0.4,1.6-0.7c-0.7-1.6-1.3-3.3-2-4.9c-0.4-1.1-2.1-0.4-1.6,0.7
					C59.4,46.5,60.1,48.1,60.8,49.7z"/>
				<path class="st12" d="M53.6,54.5c0.8,0.9,2.1-0.3,1.3-1.2c-1.2-1.3-2.4-2.6-3.5-3.9c-0.8-0.9-2.1,0.3-1.3,1.2
					C51.2,51.9,52.4,53.2,53.6,54.5z"/>
			</g>
			<g class="st10">
				<path class="st13" d="M46.5,75.6c-1.8,0.2-3.5,0.4-5.3,0.6c-0.5,0.1-0.9-0.3-1-0.7c-0.1,0.5,0.2,1.2,1,1.1
					c1.8-0.2,3.5-0.4,5.3-0.6c0.6-0.1,0.8-0.6,0.7-1.1C47.1,75.3,46.9,75.6,46.5,75.6z"/>
				<path class="st13" d="M46.8,67.4c-1.7-0.4-3.4-0.8-5.2-1.1c-0.4-0.1-0.6-0.3-0.7-0.6c-0.1,0.4,0.1,0.9,0.7,1
					c1.7,0.4,3.4,0.8,5.2,1.1c0.7,0.2,1.2-0.5,1-1.1C47.8,67.2,47.4,67.6,46.8,67.4z"/>
				<path class="st13" d="M49.4,83.5c-1.6,0.8-3.2,1.6-4.8,2.3c-0.6,0.3-1.1-0.1-1.2-0.6c-0.1,0.6,0.5,1.4,1.2,1
					c1.6-0.8,3.2-1.6,4.8-2.3c0.4-0.2,0.5-0.6,0.5-0.9C49.8,83.1,49.7,83.3,49.4,83.5z"/>
				<path class="st13" d="M48.7,61.1c-1.6-0.8-3.1-1.7-4.7-2.5c-0.3-0.1-0.4-0.3-0.4-0.5c-0.1,0.3,0,0.7,0.4,0.9
					c1.6,0.8,3.1,1.7,4.7,2.5c0.8,0.4,1.4-0.4,1.3-1C49.9,61,49.3,61.4,48.7,61.1z"/>
				<path class="st13" d="M60.8,49.4c-0.7-1.6-1.3-3.3-2-4.9c0-0.1,0-0.1-0.1-0.2c0,0.2,0,0.4,0.1,0.6c0.7,1.6,1.3,3.3,2,4.9
					c0.4,1,1.9,0.5,1.7-0.5C62.3,50,61.1,50.2,60.8,49.4z"/>
				<path class="st13" d="M53.6,54.2c-1.2-1.3-2.4-2.6-3.6-3.9c-0.1-0.1-0.2-0.3-0.2-0.4c-0.1,0.2,0,0.5,0.2,0.8
					c1.2,1.3,2.4,2.6,3.6,3.9c0.7,0.7,1.7,0,1.5-0.8C55,54.3,54.1,54.8,53.6,54.2z"/>
			</g>
			<g>
				<path class="st9" d="M41,75.3c1.8-0.2,3.5-0.4,5.3-0.6c0.5-0.1,0.9,0.3,1,0.7c0.1-0.5-0.2-1.2-1-1.1c-1.8,0.2-3.5,0.4-5.3,0.6
					c-0.6,0.1-0.8,0.6-0.8,1C40.3,75.6,40.6,75.4,41,75.3z"/>
				<path class="st9" d="M42,65.4c1.7,0.4,3.4,0.8,5.2,1.1c0.4,0.1,0.6,0.3,0.7,0.6c0.1-0.4-0.1-0.9-0.7-1c-1.7-0.4-3.4-0.8-5.2-1.1
					c-0.7-0.2-1.2,0.5-1,1.1C41.1,65.6,41.5,65.2,42,65.4z"/>
				<path class="st9" d="M43.9,85c1.6-0.8,3.2-1.6,4.7-2.3c0.6-0.3,1.1,0.1,1.2,0.6c0.1-0.6-0.5-1.4-1.2-1c-1.6,0.8-3.2,1.6-4.7,2.3
					c-0.4,0.2-0.6,0.6-0.5,1C43.4,85.3,43.6,85.1,43.9,85z"/>
				<path class="st9" d="M44.9,57.8c1.6,0.8,3.1,1.7,4.7,2.5c0.3,0.1,0.4,0.3,0.4,0.5c0.1-0.3,0-0.7-0.4-0.9
					c-1.6-0.8-3.1-1.7-4.7-2.5c-0.8-0.4-1.4,0.3-1.3,1C43.7,57.9,44.3,57.5,44.9,57.8z"/>
				<path class="st9" d="M60.4,44.6c0.7,1.6,1.3,3.3,2,4.9c0,0.1,0,0.1,0.1,0.2c0-0.2,0-0.4-0.1-0.6c-0.7-1.6-1.3-3.3-2-4.9
					c-0.4-1-1.9-0.5-1.7,0.5C58.9,44,60,43.7,60.4,44.6z"/>
				<path class="st9" d="M51.4,49.8c1.2,1.3,2.4,2.6,3.5,3.9c0.1,0.1,0.2,0.3,0.2,0.4c0.1-0.2,0-0.5-0.2-0.8
					c-1.2-1.3-2.4-2.6-3.5-3.9c-0.7-0.7-1.7,0-1.5,0.8C50,49.6,50.8,49.2,51.4,49.8z"/>
			</g>
		</g>
		<g>
			<circle class="st15" cx="71" cy="71.1" r="9.5"/>
			<path class="st8" d="M71.1,62c4.6,0,8.4,3.3,9.3,7.6c-0.6-4.6-4.6-8.2-9.4-8.2c-5.2,0-9.5,4.3-9.5,9.5c0,0.7,0.1,1.3,0.2,1.9
				c-0.1-0.4-0.1-0.9-0.1-1.3C61.6,66.2,65.9,62,71.1,62z"/>
			<path d="M80.4,70c0.1,0.4,0.1,0.9,0.1,1.3c0,5.2-4.3,9.5-9.5,9.5c-4.6,0-8.4-3.3-9.3-7.6c0.6,4.6,4.6,8.2,9.4,8.2
				c5.2,0,9.5-4.3,9.5-9.5C80.6,71.2,80.5,70.6,80.4,70z"/>
		</g>
		<path class="st1" d="M95.5,98.2c-0.1,0.1-0.2,0.1-0.2,0.2c-6.7,5.9-15.3,9.2-24.3,9.2c-8.8,0-17.4-3.2-24-9
			c-0.1-0.1-0.2-0.1-0.2-0.2c6-7.9,14.7-12.9,24.5-12.9C80.9,85.5,89.5,90.4,95.5,98.2z"/>
		<path class="st4" d="M47.1,98.7c6-7.6,14.5-12.4,24.1-12.4c9.4,0,18,4.7,23.9,12.2c0.1,0,0.1-0.1,0.2-0.1c0.1-0.1,0.2-0.1,0.2-0.2
			c-6-7.8-14.6-12.7-24.3-12.7c-9.7,0-18.5,5-24.5,12.9c0.1,0.1,0.2,0.1,0.2,0.2C47,98.6,47.1,98.7,47.1,98.7z"/>
		<g>
			<g>
				<path class="st13" d="M97,50.2c-0.4,0.1-27.2,16.1-28,16.5c-0.8,0.5-1.5,1-2,1.9c-1,1.6-0.9,3.7,0.1,5.2l31.5-23.1
					C98.3,50.2,97.7,50,97,50.2z"/>
				<path class="st13" d="M67.1,73.8C67.1,73.8,67.1,73.8,67.1,73.8c1,1.5,2.9,2.3,4.7,2c1-0.2,1.9-0.7,2.7-1.4
					c0.7-0.6,23.6-21.5,23.9-21.8c0.3-0.3,0.5-0.7,0.5-1.1c0-0.3-0.1-0.6-0.3-0.8L67.1,73.8z"/>
			</g>
			<g>
				<path class="st16" d="M71,73.1c-1,0-1.8-0.8-1.9-1.8c0,0.1,0,0.1,0,0.2c0,1.1,0.9,2,2,2c1.1,0,2-0.9,2-2c0-0.1,0-0.1,0-0.2
					C72.9,72.3,72,73.1,71,73.1z"/>
				<path class="st17" d="M71,69.8c1,0,1.8,0.7,1.9,1.7c0-0.1,0-0.2,0-0.3c0-1.1-0.9-2-2-2c-1.1,0-2,0.9-2,2c0,0.1,0,0.2,0,0.3
					C69.2,70.5,70,69.8,71,69.8z"/>
			</g>
		</g>
	</g>
</g>
</svg>
