<?xml version="1.0" encoding="utf-8"?>
<!-- Generator: Adobe Illustrator 19.2.1, SVG Export Plug-In . SVG Version: 6.00 Build 0)  -->
<svg version="1.1" id="Layer_1" xmlns="http://www.w3.org/2000/svg" xmlns:xlink="http://www.w3.org/1999/xlink" x="0px" y="0px"
	 viewBox="0 0 142 142" style="enable-background:new 0 0 142 142;" xml:space="preserve">
<style type="text/css">
	.st0{fill:#34495E;}
	.st1{fill:#2C3E50;}
	.st2{fill:#ECF0F1;}
	.st3{fill:#3498DB;}
</style>
<g>
	<path class="st0" d="M142,71c0,0.1,0,0.3,0,0.4c-0.1,22.6-10.8,42.6-27.3,55.5c-12,9.4-27.2,15.1-43.7,15.1c-2.7,0-5.4-0.2-8-0.5
		c-35.4-4-63-34.1-63-70.5C0,31.8,31.8,0,71,0c35.6,0,65,26.1,70.2,60.2C141.7,63.7,142,67.3,142,71z"/>
	<g>
		<path class="st1" d="M67.5,66.6c-4.4-12.3,2-25.9,14.3-30.3c12.3-4.4,25.9,2,30.3,14.3c4.4,12.3-2,25.9-14.3,30.3
			C85.5,85.3,71.9,78.9,67.5,66.6z M68.6,66.2C72.8,77.9,85.7,84,97.4,79.8c11.7-4.2,17.8-17.1,13.6-28.8
			c-4.2-11.7-17.1-17.8-28.8-13.6C70.5,41.6,64.4,54.5,68.6,66.2z"/>
		<path class="st2" d="M31.4,96.3l23.8-18.3c5.3,0.4,10.3-3.9,14.4-7.2c1,1.6,2.1,3,3.4,4.3c-3.4,2.9-10.1,7.9-10.7,12l-23.8,18.3
			c-3,2.3-6.9,2.1-8.9-0.4C27.6,102.5,28.4,98.6,31.4,96.3z"/>
		<path class="st2" d="M68.8,68.7c5.1,10.6,17.4,15.8,28.7,11.8c12-4.3,18.3-17.6,14-29.6c-4.3-12-17.6-18.3-29.6-14
			c-7.4,2.7-12.6,8.7-14.6,15.8c-0.1,0.3-0.2,0.7-0.2,1C67,54,67,54.3,66.9,54.6c-0.1,0.5-0.2,1.1-0.2,1.6c0,0.1,0,0.2,0,0.3
			c-0.1,0.6-0.1,1.3-0.1,1.9c0,0,0,0,0,0.1c0,0.7,0,1.4,0.1,2.1c0,0,0,0,0,0c0.1,0.7,0.1,1.4,0.3,2c0,0,0,0.1,0,0.1
			c0.1,0.6,0.3,1.3,0.4,1.9c0,0.2,0.1,0.3,0.1,0.5c0.1,0.5,0.3,1,0.5,1.6c0.2,0.4,0.4,0.9,0.5,1.3C68.6,68.2,68.7,68.5,68.8,68.7z
			 M74.8,70.3c-6.4-8.4-4.9-20.4,3.5-26.9c8.4-6.4,20.4-4.9,26.9,3.5c6.4,8.4,4.9,20.4-3.5,26.9C93.3,80.3,81.3,78.7,74.8,70.3z"/>
		<polygon class="st3" points="59.3,89.5 52.4,80.2 55.1,78.1 61.9,87.4 		"/>
		<path class="st2" d="M92.8,42.3c-13-2.4-21.9,6.7-20,19.6C74.5,46.5,81.5,43.5,92.8,42.3z"/>
		<path class="st3" d="M70.3,61.5c-1.5-10.6,5.9-20.5,16.6-22c10.6-1.5,20.5,5.9,22.1,16.6c1.5,10.6-5.9,20.5-16.6,22
			C81.7,79.6,71.8,72.2,70.3,61.5z M71.3,61.4c1.4,10.1,10.8,17.2,21,15.7c10.1-1.4,17.2-10.8,15.7-21C106.5,46,97.1,39,87,40.4
			C76.9,41.9,69.8,51.3,71.3,61.4z"/>
	</g>
</g>
</svg>
