<?xml version="1.0" encoding="utf-8"?>
<!-- Generator: Adobe Illustrator 19.2.1, SVG Export Plug-In . SVG Version: 6.00 Build 0)  -->
<svg version="1.1" id="Layer_1" xmlns="http://www.w3.org/2000/svg" xmlns:xlink="http://www.w3.org/1999/xlink" x="0px" y="0px"
	 viewBox="0 0 276.2 291.7" style="enable-background:new 0 0 276.2 291.7;" xml:space="preserve">
<style type="text/css">
	.st0{fill:#FFFFFF;}
	.st1{fill:#3498DB;}
	.st2{fill:#74757A;}
	.st3{fill:#AAB1B9;}
	.st4{fill:#535453;}
	.st5{fill:#B7CDEA;}
	.st6{fill:#E74C3C;}
	.st7{fill:#FCB41B;}
	.st8{fill:#F89A20;}
	.st9{fill:#1ABC9C;}
	.st10{fill:#89C9B7;}
	.st11{fill:#C0392B;}
	.st12{fill:#F05D60;}
	.st13{fill:#F1C40F;}
	.st14{fill:#53BA9B;}
	.st15{fill:#E7E2DB;}
	.st16{fill:#2980B9;}
	.st17{fill:#8E44AD;}
	.st18{fill:#9A59A2;}
</style>
<g id="XMLID_1584_">
	<path id="XMLID_1587_" class="st0" d="M65.7,196.3h-0.9c-0.1,0-0.3,0-0.4-0.1h-0.3c-1.8-0.3-3.1-0.9-4.1-1.7
		c-0.1-0.1-0.2-0.2-0.3-0.2l-0.2-0.2c-0.1-0.1-0.1-0.2-0.2-0.2c-0.1-0.1-0.1-0.2-0.2-0.2l-0.1,0.1l-0.1,0.1l-0.1,0.1l-0.1,0.1
		l-0.1,0.1h-0.1l-0.1,0.1l-0.1,0.1h-0.1l-0.1,0.1l-0.2,0.1h-0.1l-0.2,0.1l-0.2,0.1l-0.2,0.1h-0.1c-0.1,0-0.2,0.1-0.2,0.1
		c-0.1,0-0.1,0-0.2,0.1h-0.1c-0.1,0-0.2,0-0.2,0.1c-0.1,0-0.2,0-0.2,0.1h-2.1c-0.1,0-0.2,0-0.3-0.1h-0.7c-1.5-0.6-2.2-1.6-2.5-2.4
		c0-0.1,0-0.1-0.1-0.2c0-0.1,0-0.1-0.1-0.2l-0.1-0.3h-0.1c-0.1,0-0.3,0-0.4,0.1h-1.9c-1.9-0.2-3.5-1-4.5-2.4l-0.2-0.3l-0.2-0.3
		c0-0.1-0.1-0.2-0.1-0.2v-0.1l-0.1-0.2v-0.1l-0.1-0.3c0-0.1-0.1-0.2-0.1-0.2V188c-0.1-0.2-0.1-0.3-0.1-0.5v-1.4c0-0.2,0-0.4,0.1-0.6
		l0.1-0.6l0.6,0.1l-0.6-0.1c0-0.2,0.1-0.4,0.2-0.5c0.1-0.4,0.3-0.9,0.6-1.3l0.3-0.5l0.6-0.7l0.1-0.1c0.2-0.2,0.4-0.4,0.7-0.5
		c0,0,0.1-0.1,0.2-0.1c0,0,0.1-0.1,0.2-0.1l0.6-0.3c0.1,0,0.1,0,0.2-0.1c0.1,0,0.1,0,0.2-0.1l0.4-0.1h0.8c0.4-1.2,1.6-2.7,3.9-2.7
		c0.3,0,0.6,0,0.9,0.1c0-0.2,0.1-0.5,0.2-0.7l0.2-0.5c0,0,0-0.1,0.1-0.1l0.1-0.3v-0.1c0,0,0-0.1,0.1-0.1l0.3-0.5l0.1-0.1l0.4-0.5
		c0.3-0.3,0.6-0.6,1-0.9l0.5-0.3c0.1-0.1,0.2-0.1,0.3-0.1l0.3-0.1l0.3-0.1h0.1l0.2-0.1H60c1.2,0.1,2.3,0.3,3.2,0.8h0.1
		c0.1,0.1,0.2,0.1,0.4,0.2c1.2,0.7,1.8,1.6,2.2,2.1c0.5-0.2,1.5-0.5,2.5-0.5h1.9l0.3,0.1h0.1c0.1,0,0.1,0,0.2,0.1H71l0.2,0.1h0.1
		c0.1,0.1,0.2,0.1,0.3,0.1h0.1l0.2,0.1l0.1,0.1l0.2,0.1c0,0,0.1,0,0.1,0.1c0.1,0.1,0.2,0.2,0.3,0.2l0.2,0.2l0.1,0.1l0.1,0.1l0.2,0.2
		c1.4,1.6,1.6,3.1,1.6,4h2.1c0.1,0,0.2,0,0.2,0.1h0.3c0.2,0.1,0.4,0.1,0.5,0.2c0.5,0.2,0.9,0.4,1.3,0.7c0.1,0.1,0.2,0.1,0.2,0.2
		c0.1,0.1,0.2,0.1,0.2,0.2l0.2,0.2c0.1,0.1,0.2,0.2,0.2,0.3l0.2,0.3v0.1l0.1,0.2c0,0,0,0.1,0.1,0.1l0.1,0.2c0,0.1,0,0.1,0.1,0.2v0.1
		c0.7,1.9,0.1,4.4-1.5,5.9l-0.1,0.1l-0.1,0.1l-0.1,0.1l-0.2,0.1l-0.1,0.1l-0.1,0.1l-0.2,0.1c0,0-0.1,0-0.1,0.1h-0.3
		c0,0-0.1,0-0.1,0.1h-0.1c-0.1,0-0.2,0.1-0.2,0.1h-0.7c0,0,0,0.1-0.1,0.1c0,0,0,0.1-0.1,0.1l-0.1,0.1l-0.1,0.1l-0.1,0.1l-0.1,0.1
		l-0.4,0.3l-0.2,0.1c-0.2,0.1-0.4,0.2-0.5,0.2h-1.8c-0.4,0-0.8-0.1-1.3-0.2v0.1l-0.1,0.2c0,0,0,0.1-0.1,0.1c0,0,0,0.1-0.1,0.1
		l-0.2,0.2v0.1l-0.1,0.1v0.1c-0.1,0.1-0.2,0.2-0.3,0.4l-0.1,0.1l-0.3,0.3l-0.1,0.1C68.7,195.9,67.3,196.3,65.7,196.3L65.7,196.3z"/>
	<path id="XMLID_50_" class="st1" d="M52.7,178.2c0,0,0.5-5.2,6.2-5.4c5.2-0.2,6.4,3.3,6.4,3.3s3.8-1.8,6.4,0.6
		c2.7,2.4,1.9,4.8,1.9,4.8s3.8-0.7,5.8,2s-0.2,7.3-3.3,7.3c0,0-1.3,2.7-4.9,1.4c0,0-1.6,4.2-6.7,3.4s-5.1-3.3-5.1-3.3
		s-1.8,2.8-5.2,2.3c-3.3-0.6-3.4-3.5-3.4-3.5s-5.2,1.6-7.4-2.5c-2.1-3.8,1.1-8.4,4.4-7.8C47.8,180.8,48.5,177.2,52.7,178.2z"/>
</g>
<g id="XMLID_1579_">
	<path id="XMLID_48_" class="st0" d="M53.6,232.6h-0.9c-0.2,0-0.5,0-0.8-0.1c-0.3,0-0.6-0.1-0.8-0.1l-0.6-0.1
		c-3.5-0.6-6.2-1.7-8.1-3.3c-0.2-0.2-0.4-0.3-0.5-0.5c-0.2-0.2-0.3-0.3-0.4-0.5l-0.4-0.5l-0.3-0.5l-0.1,0.1l-0.1,0.1l-0.2,0.2
		c-0.1,0.1-0.2,0.1-0.2,0.2c0,0-0.2,0.2-0.3,0.2l-0.1,0.1l-0.3,0.2l-0.1,0.1l-0.3,0.2l-0.1,0.1l-0.3,0.2h-0.1
		c-0.1,0.1-0.2,0.1-0.4,0.2L38,229l-0.3,0.2h-0.1l-0.4,0.2h-0.1l-0.4,0.2h-0.1l-0.5,0.2l-0.4,0.1h-0.1l-0.5,0.1H35
		c-0.1,0-0.3,0.1-0.5,0.1h-0.1c-0.1,0-0.3,0-0.4,0.1h-2.7l-0.6-0.1l-0.6-0.1c-0.1,0-0.2-0.1-0.2-0.1c-0.1,0-0.2-0.1-0.4-0.1
		c-0.1,0-0.2,0-0.3-0.1l-0.3-0.1l-0.3-0.1c-0.1,0-0.2-0.1-0.2-0.1c-2.9-1.1-4.3-3.2-5-4.8l-0.1-0.3l-0.1-0.3
		c-0.1-0.2-0.1-0.3-0.1-0.5h-0.2c-0.2,0-0.5,0.1-0.8,0.1l-0.6,0.1h-1.9c-0.4,0-0.9,0-1.3-0.1c-3.8-0.3-7-2-9-4.8
		c-0.2-0.2-0.3-0.4-0.4-0.6l-0.4-0.7L8.2,217H7.9l-0.2-0.4v-0.1L7.5,216v-0.1l-0.2-0.5v-0.1l-0.3-1v-0.1l-0.1-0.5v-0.1
		c0-0.2,0-0.3-0.1-0.5v-1.8l0.1-1.1c0.1-0.4,0.1-0.8,0.2-1.1l1.3,0.3l-1.2-0.3l0.3-1.1c0.3-0.9,0.7-1.7,1.2-2.5l0.6-0.9
		c0.3-0.5,0.7-0.9,1.1-1.3l0.3-0.3c0.4-0.4,0.9-0.8,1.3-1.1l0.3-0.2h0.1l0.3-0.2c0.4-0.2,0.7-0.4,1.1-0.5c0.1,0,0.2-0.1,0.4-0.1
		l0.3-0.1l0.9-0.2c0.1,0,0.3,0,0.4-0.1h1.1c0.9-2.3,3.2-5.4,7.8-5.4c0.5,0,1.1,0,1.7,0.1c0.1-0.4,0.2-0.9,0.4-1.4
		c0.1-0.3,0.2-0.6,0.4-1l0.1-0.3l0.3-0.6l0.1-0.1l0.1-0.3l0.6-1c0.1-0.1,0.1-0.2,0.2-0.2l0.1-0.1c0.3-0.4,0.5-0.7,0.8-1
		c0.6-0.6,1.2-1.2,1.9-1.7l1-0.7h0.1c0.2-0.1,0.4-0.2,0.5-0.3c0.2-0.1,0.4-0.2,0.5-0.3h0.1c0.2-0.1,0.4-0.2,0.6-0.2l0.2-0.1l0.5-0.2
		l0.2-0.1l0.3-0.1h0.1c0.1,0,0.2-0.1,0.4-0.1h0.2l0.3-0.1h0.2c0.1,0,0.2,0,0.3-0.1H41c2.4,0.1,4.6,0.6,6.5,1.5l0.1,0.1
		c0.3,0.1,0.5,0.3,0.7,0.4h0.1c2.3,1.4,3.7,3.1,4.4,4.3c1.1-0.4,2.9-0.9,4.9-1h1.7l0.7,0.1h0.1c0.1,0,0.2,0,0.3,0.1
		c0,0,0.2,0,0.3,0.1c0.1,0,0.2,0,0.3,0.1c0.1,0,0.2,0,0.3,0.1c0.1,0,0.1,0,0.2,0.1l0.5,0.2c0.1,0,0.1,0,0.2,0.1h0.1
		c0.1,0,0.2,0.1,0.4,0.1l0.2,0.1c0.1,0.1,0.2,0.1,0.4,0.2h0.1c0,0,0.1,0,0.1,0.1c0.2,0.1,0.4,0.2,0.5,0.3l0.1,0.1l0.4,0.3
		c0.1,0,0.2,0.1,0.2,0.1l0.4,0.3c0,0,0.1,0.1,0.2,0.1c0.2,0.2,0.4,0.3,0.5,0.4c0.2,0.2,0.3,0.3,0.5,0.4l0.2,0.2l0.2,0.2
		c0.1,0.1,0.2,0.2,0.3,0.4v0.1c2.8,3.2,3.2,6.2,3.1,7.9h2.7c0.1,0,0.3,0,0.4,0.1h1.1l0.5,0.1H75l0.3,0.1h0.1
		c0.4,0.1,0.7,0.2,1.1,0.4c0.9,0.4,1.8,0.9,2.6,1.4l0.1,0.1l0.5,0.4l0.5,0.4l0.1,0.1l0.4,0.4l0.1,0.1l0.5,0.6
		c0.1,0.2,0.2,0.3,0.4,0.5l0.1,0.2c0.1,0.1,0.2,0.3,0.2,0.4c0,0.1,0.1,0.2,0.1,0.2l0.2,0.4l0.1,0.3c0,0.1,0,0.1,0.1,0.2
		c1.4,3.8,0.1,8.7-3,11.7l-0.3,0.3c-0.1,0.1-0.2,0.1-0.2,0.2l-0.2,0.2c-0.1,0.1-0.2,0.2-0.4,0.3l-0.2,0.2l-0.3,0.2l-0.3,0.2
		c-0.1,0-0.2,0.1-0.2,0.1l-0.2,0.1l-0.2,0.1l-0.2,0.1l-0.3,0.1l-0.2,0.1c-0.2,0.1-0.3,0.1-0.5,0.1h-0.2l-0.4,0.1h-0.1l-0.6,0.1
		l-0.1,0.2l-0.1,0.2v0.1l-0.2,0.2c-0.1,0.1-0.1,0.2-0.2,0.2v0.1l-0.2,0.2l-0.1,0.1c-0.1,0.1-0.2,0.2-0.3,0.2h-0.1
		c-0.2,0.2-0.5,0.4-0.8,0.6c-0.1,0.1-0.3,0.2-0.4,0.2h-0.1c-0.4,0.2-0.7,0.4-1.1,0.5l-0.3,0.1c-0.1,0-0.1,0-0.2,0.1
		c-0.1,0-0.1,0-0.2,0.1c-0.1,0-0.2,0.1-0.4,0.1h-0.6c-0.2,0-0.3,0-0.5,0.1h-1.3c-0.8,0-1.7-0.2-2.6-0.4c0,0.1-0.1,0.2-0.1,0.2
		c-0.1,0.1-0.2,0.3-0.2,0.4l-0.1,0.2l-0.1,0.1l-0.1,0.2l-0.3,0.4l-0.1,0.1l-0.2,0.2l-0.1,0.1l-0.6,0.7l-0.1,0.1l-0.2,0.2
		c-0.2,0.2-0.4,0.3-0.5,0.5c-0.1,0.1-0.2,0.2-0.3,0.2C59.6,231.7,56.8,232.6,53.6,232.6L53.6,232.6z"/>
	<path id="XMLID_47_" class="st1" d="M27.7,196.5c0,0,0.9-10.4,12.3-10.8c10.3-0.3,12.8,6.6,12.8,6.6s7.5-3.6,12.8,1.2
		s3.8,9.6,3.8,9.6s7.6-1.3,11.6,4s-0.5,14.6-6.6,14.4c0,0-2.5,5.3-9.8,2.8c0,0-3.1,8.3-13.3,6.8c-10.1-1.5-10.1-6.6-10.1-6.6
		s-3.6,5.6-10.3,4.5c-6.6-1.2-6.8-7-6.8-7s-10.3,3.2-14.8-5c-4.1-7.5,2.2-16.7,8.8-15.4C18.1,201.6,19.5,194.5,27.7,196.5z"/>
</g>
<g id="XMLID_44_">
	<path id="XMLID_1572_" class="st0" d="M211.9,198.3H211c-0.2,0-0.3,0-0.5-0.1c-0.1,0-0.2,0-0.3-0.1c-1.9-0.3-3.4-0.9-4.4-1.8
		l-0.3-0.3c-0.1-0.1-0.2-0.2-0.2-0.3l-0.2-0.3l-0.2-0.3l-0.1,0.1l-0.1,0.1l-0.1,0.1l-0.1,0.1c0,0-0.1,0.1-0.2,0.1h-0.1l-0.1,0.1
		c0,0-0.1,0.1-0.2,0.1h-0.1c0,0-0.1,0.1-0.2,0.1l-0.2,0.1h-0.1l-0.2,0.1H203l-0.2,0.1l-0.2,0.1h-0.1l-0.3,0.1
		c-0.1,0-0.2,0.1-0.2,0.1h-0.1c-0.1,0-0.2,0-0.3,0.1c-0.1,0-0.2,0-0.3,0.1h-2.1c-0.1,0-0.2,0-0.3-0.1h-0.1c-0.1,0-0.1,0-0.2-0.1
		h-0.2c-0.1,0-0.1,0-0.2-0.1h-0.1c-1.6-0.6-2.4-1.8-2.7-2.6l-0.1-0.2c0-0.1,0-0.1-0.1-0.2l-0.1-0.3H195c-0.1,0-0.3,0-0.4,0.1h-2.1
		c-2.1-0.2-3.8-1.1-4.9-2.6c-0.1-0.1-0.2-0.2-0.2-0.3c-0.1-0.1-0.2-0.2-0.2-0.4l-0.1-0.3v-0.1l-0.1-0.2v-0.1l-0.1-0.3
		c0-0.1-0.1-0.2-0.1-0.2v-0.1c-0.1-0.2-0.1-0.4-0.1-0.6v-1.5c0-0.2,0-0.4,0.1-0.6l0.1-0.6l0.7,0.1l-0.7-0.2c0-0.2,0.1-0.4,0.2-0.6
		l0.6-1.4l0.3-0.5c0.2-0.3,0.4-0.5,0.6-0.7l0.2-0.2l0.7-0.6c0,0,0.1-0.1,0.2-0.1c0,0,0.1-0.1,0.2-0.1l0.6-0.3c0.1,0,0.1,0,0.2-0.1
		c0.1,0,0.1,0,0.2-0.1l0.5-0.1h0.8c0.5-1.3,1.7-2.9,4.2-2.9c0.3,0,0.6,0,0.9,0.1c0.1-0.2,0.1-0.5,0.2-0.8c0.1-0.2,0.1-0.4,0.2-0.5
		c0,0,0-0.1,0.1-0.2c0-0.1,0.1-0.2,0.2-0.3v-0.1l0.1-0.2l0.3-0.6l0.1-0.1l0.4-0.6c0.3-0.3,0.7-0.7,1-0.9c0.2-0.1,0.4-0.2,0.6-0.4
		l0.3-0.2c0.1-0.1,0.2-0.1,0.3-0.1l0.3-0.1h0.1l0.3-0.1h0.4c0.1,0,0.1,0,0.2-0.1h2.8c1.3,0.1,2.5,0.3,3.5,0.8h0.1l0.4,0.2
		c1.3,0.7,2,1.7,2.4,2.3c0.6-0.2,1.6-0.5,2.7-0.5h2.3l0.3,0.1h0.1c0.1,0,0.1,0,0.2,0.1c0,0,0.1,0,0.1,0.1l0.2,0.1h0.1l0.3,0.2h0.1
		c0.1,0,0.2,0.1,0.2,0.1l0.1,0.1c0.1,0,0.1,0.1,0.2,0.2c0,0,0.1,0,0.1,0.1c0.1,0.1,0.2,0.2,0.3,0.2c0.1,0.1,0.2,0.2,0.3,0.2l0.1,0.1
		l0.1,0.1l0.2,0.2c1.5,1.7,1.7,3.4,1.7,4.3h2.3c0.1,0,0.2,0,0.3,0.1h0.4l0.6,0.2c0.5,0.2,1,0.5,1.4,0.8l0.3,0.2
		c0.1,0.1,0.2,0.2,0.3,0.2l0.2,0.2l0.3,0.3l0.2,0.3c0,0,0,0.1,0.1,0.1c0,0.1,0.1,0.2,0.1,0.2s0,0.1,0.1,0.1l0.1,0.2
		c0,0.1,0,0.1,0.1,0.2v0.1c0.7,2.1,0.1,4.7-1.6,6.4c-0.1,0.1-0.1,0.1-0.2,0.1l-0.1,0.1l-0.1,0.1c-0.1,0.1-0.1,0.1-0.2,0.1l-0.1,0.1
		l-0.1,0.1l-0.2,0.1c0,0-0.1,0-0.1,0.1c0,0-0.1,0-0.1,0.1h-0.2c-0.1,0-0.1,0-0.2,0.1h-0.1l-0.3,0.1h-0.7c0,0,0,0.1-0.1,0.1l-0.1,0.1
		l-0.1,0.1l-0.1,0.1l-0.1,0.1l-0.1,0.1l-0.4,0.3l-0.2,0.1l-0.6,0.3c-0.1,0-0.1,0-0.2,0.1h-1.7c-0.4,0-0.9-0.1-1.4-0.2v0.1l-0.1,0.2
		l-0.1,0.1v0.1c0,0,0,0.1-0.1,0.1c-0.1,0.1-0.1,0.2-0.2,0.2v0.1l-0.1,0.1v0.1c-0.1,0.1-0.2,0.3-0.4,0.4l-0.1,0.1l-0.3,0.3l-0.2,0.1
		C215.1,197.8,213.6,198.3,211.9,198.3L211.9,198.3z"/>
	<path id="XMLID_1571_" class="st1" d="M197.8,178.7c0,0,0.5-5.7,6.7-5.9c5.6-0.2,6.9,3.6,6.9,3.6s4.1-2,6.9,0.6
		c2.9,2.6,2.1,5.2,2.1,5.2s4.1-0.7,6.3,2.2s-0.3,7.9-3.6,7.8c0,0-1.4,2.9-5.3,1.5c0,0-1.7,4.5-7.2,3.7s-5.5-3.6-5.5-3.6
		s-2,3.1-5.6,2.4c-3.6-0.6-3.7-3.8-3.7-3.8s-5.6,1.7-8-2.7c-2.2-4.1,1.2-9.1,4.8-8.4C192.6,181.5,193.3,177.6,197.8,178.7
		L197.8,178.7z"/>
</g>
<g id="XMLID_1564_">
	<path id="XMLID_1567_" class="st0" d="M230.1,230.5h-0.9c-0.2,0-0.5,0-0.7-0.1l-0.8-0.1l-0.6-0.1c-3.3-0.6-5.9-1.6-7.6-3.1
		c-0.2-0.1-0.3-0.3-0.5-0.5s-0.3-0.3-0.4-0.5c-0.1-0.2-0.2-0.3-0.4-0.5c-0.1-0.2-0.2-0.3-0.3-0.4l-0.1,0.1l-0.1,0.1l-0.2,0.2
		l-0.2,0.2c0,0-0.2,0.2-0.3,0.2l-0.1,0.1c-0.1,0.1-0.2,0.1-0.2,0.2l-0.1,0.1l-0.3,0.2l-0.1,0.1l-0.3,0.2h-0.1l-0.3,0.2l-0.1,0.1
		l-0.3,0.2H215l-0.4,0.2h-0.1c-0.1,0.1-0.2,0.1-0.4,0.2H214l-0.4,0.2l-0.4,0.1h-0.1l-0.4,0.1h-0.1c-0.1,0-0.3,0.1-0.5,0.1H212
		c-0.1,0-0.3,0-0.4,0.1h-2.5l-0.6-0.1l-0.6-0.1h-0.2l-0.3-0.1c-0.1,0-0.2,0-0.2-0.1l-0.3-0.1l-0.3-0.1l-0.2-0.1
		c-2.8-1.1-4.1-3-4.7-4.5l-0.1-0.3l-0.1-0.3c-0.1-0.2-0.1-0.3-0.1-0.5h-0.2c-0.2,0-0.5,0.1-0.8,0.1c-0.2,0-0.4,0-0.6,0.1H198
		c-0.4,0-0.8,0-1.2-0.1c-3.6-0.3-6.6-1.9-8.5-4.5l-0.4-0.6l-0.4-0.6c-0.1-0.2-0.2-0.3-0.2-0.5l-0.1-0.1l-0.2-0.4v-0.1l-0.2-0.5v-0.1
		c-0.1-0.2-0.1-0.3-0.1-0.4v-0.1l-0.3-1v-0.1l-0.1-0.5c0-0.2,0-0.3-0.1-0.5v-1.8c0-0.3,0-0.7,0.1-1c0.1-0.4,0.1-0.7,0.2-1l1.2,0.2
		l-1.2-0.3l0.3-1c0.3-0.8,0.6-1.6,1.1-2.4c0.2-0.3,0.4-0.6,0.6-0.8c0.3-0.4,0.7-0.9,1.1-1.3l0.3-0.3c0.4-0.4,0.8-0.7,1.2-1l0.3-0.2
		h0.1l0.3-0.2c0.3-0.2,0.7-0.4,1.1-0.5l0.3-0.1l0.3-0.1l0.8-0.2h1.5c0.8-2.2,3-5.1,7.3-5.1c0.5,0,1.1,0,1.6,0.1
		c0.1-0.4,0.2-0.8,0.4-1.3l0.3-0.9l0.1-0.3l0.3-0.6V192l0.1-0.3c0.2-0.3,0.4-0.6,0.6-1c0.1-0.1,0.1-0.2,0.2-0.2l0.1-0.1
		c0.2-0.3,0.5-0.7,0.8-1c0.5-0.6,1.1-1.2,1.8-1.6c0.3-0.2,0.6-0.4,1-0.6h0.1l0.5-0.3c0.2-0.1,0.3-0.2,0.5-0.2h0.1
		c0.2-0.1,0.4-0.2,0.5-0.2l0.2-0.1l0.4-0.1l0.2-0.1l0.3-0.1h0.1l0.3-0.1h0.2c0.1,0,0.2,0,0.3-0.1h0.2c0.1,0,0.2,0,0.3-0.1h3.9
		c2.3,0.1,4.3,0.6,6.1,1.4l0.1,0.1c0.2,0.1,0.5,0.2,0.7,0.4c2.2,1.3,3.5,2.9,4.1,4c1-0.4,2.7-0.8,4.6-0.9h1.6c0.2,0,0.4,0,0.7,0.1
		h0.6c0.1,0,0.2,0,0.3,0.1c0.1,0,0.2,0,0.3,0.1c0.1,0,0.1,0,0.2,0.1c0.2,0,0.3,0.1,0.5,0.2c0,0,0.1,0,0.1,0.1h0.1l0.3,0.1l0.2,0.1
		l0.3,0.2h0.1c0,0,0.1,0,0.1,0.1l0.5,0.3l0.1,0.1l0.4,0.3l0.2,0.1c0.1,0.1,0.2,0.2,0.4,0.3l0.1,0.1c0.2,0.2,0.3,0.3,0.5,0.4
		c0.2,0.1,0.3,0.3,0.4,0.4l0.2,0.2l0.2,0.2l0.3,0.3v0.1c2.6,3,3,5.9,3,7.4h2.4c0.1,0,0.3,0,0.4,0.1h1.1l0.5,0.1h0.1l0.3,0.1h0.1
		c0.3,0.1,0.7,0.2,1,0.4c0.9,0.4,1.7,0.8,2.4,1.3l0.1,0.1c0.2,0.1,0.3,0.2,0.4,0.4l0.5,0.4l0.1,0.1l0.4,0.4l0.1,0.1
		c0.2,0.2,0.3,0.4,0.4,0.6c0.1,0.1,0.2,0.3,0.3,0.5l0.1,0.1c0.1,0.1,0.2,0.3,0.2,0.4l0.1,0.2c0.1,0.1,0.1,0.2,0.2,0.4l0.1,0.3
		c0,0.1,0,0.1,0.1,0.2c1.3,3.6,0.1,8.2-2.8,11l-0.3,0.3l-0.2,0.2c-0.1,0.1-0.1,0.1-0.2,0.1l-0.3,0.3c-0.1,0.1-0.1,0.1-0.2,0.1
		l-0.3,0.2l-0.3,0.2l-0.2,0.1l-0.2,0.1l-0.2,0.1l-0.2,0.1l-0.3,0.1c-0.1,0-0.1,0-0.2,0.1s-0.3,0.1-0.5,0.1h-0.2l-0.4,0.1h-0.1
		c-0.2,0-0.3,0-0.5,0.1l-0.1,0.2l-0.1,0.2v0.1l-0.2,0.2c-0.1,0.1-0.1,0.2-0.2,0.2l-0.2,0.2l-0.1,0.1l-0.3,0.2h-0.1
		c-0.2,0.2-0.5,0.4-0.7,0.5c-0.1,0.1-0.2,0.2-0.4,0.2h-0.1l-1,0.5l-0.3,0.1c-0.1,0-0.1,0-0.2,0.1c-0.1,0-0.1,0-0.2,0.1l-0.3,0.1
		h-0.5c-0.2,0-0.3,0-0.5,0.1H243c-0.8,0-1.6-0.2-2.4-0.4l-0.1,0.2c-0.1,0.1-0.1,0.2-0.2,0.4c0,0-0.1,0.1-0.1,0.2l-0.1,0.1l-0.1,0.2
		l-0.3,0.4l-0.1,0.1c0,0.1-0.1,0.1-0.2,0.2l-0.1,0.1l-0.6,0.7l-0.1,0.1l-0.2,0.2l-0.5,0.5l-0.3,0.2
		C235.8,229.6,233.1,230.5,230.1,230.5L230.1,230.5z"/>
	<path id="XMLID_43_" class="st1" d="M205.8,196.5c0,0,0.9-9.8,11.5-10.1c9.7-0.3,12,6.2,12,6.2s7-3.4,12,1.1s3.6,9,3.6,9
		s7.2-1.2,10.9,3.7c3.7,5-0.5,13.7-6.2,13.6c0,0-2.3,5-9.2,2.7c0,0-3,7.8-12.5,6.4c-9.5-1.4-9.5-6.2-9.5-6.2s-3.4,5.3-9.7,4.2
		c-6.2-1.1-6.4-6.6-6.4-6.6s-9.7,3-13.9-4.7c-3.9-7,2-15.7,8.3-14.5C196.7,201.4,198,194.7,205.8,196.5L205.8,196.5z"/>
</g>
<path class="st2" d="M106.5,144.9h104.7v72.7H106.5V144.9z"/>
<path class="st3" d="M57.9,144.9h48.6v72.7H57.9V144.9z"/>
<path class="st4" d="M165.5,135.8h-7.8l1.2-1.7c0.3-0.5,0.9-0.8,1.5-0.8h2.4c0.6,0,1.2,0.3,1.5,0.8L165.5,135.8L165.5,135.8z
	 M151.1,142.3l2.6-16L152,126l-2.6,16.3H151.1z M173.9,142.3l-2.6-16.3l-1.7,0.3l2.6,16H173.9z M148.2,142.3l2.5-16L149,126
	l-2.6,16.3H148.2z M171,142.3l-2.6-16.3l-1.7,0.3l2.5,16H171z"/>
<path class="st3" d="M115.2,139.9h12v1.7h-12V139.9z"/>
<path class="st0" d="M164.8,73.5h-8.7c-1.2,0-2.1-1-2.1-2.1v-0.2c0-1.2,1-2.1,2.1-2.1h8.7c1.2,0,2.1,1,2.1,2.1v0.2
	C166.9,72.6,166,73.5,164.8,73.5z M126.2,100.3H116c-1.4,0-2.6-1.2-2.6-2.6s1.2-2.6,2.6-2.6h10.2c1.4,0,2.6,1.2,2.6,2.6
	C128.8,99.2,127.6,100.3,126.2,100.3z"/>
<path class="st5" d="M125.4,100.3h-8.6v32.2c0,2.4,1.9,4.3,4.3,4.3s4.3-1.9,4.3-4.3C125.4,132.5,125.4,100.3,125.4,100.3z"/>
<path class="st6" d="M123.5,105.2h-4.7v25.9c0,1.2,1,2.2,2.2,2.2h0.4c1.2,0,2.2-1,2.2-2.2L123.5,105.2L123.5,105.2z"/>
<path class="st0" d="M113.4,106.4h1.7v35.2h-1.7V106.4z"/>
<path class="st3" d="M125.4,106.4h1.7v1.7h-1.7V106.4z M150.1,125.1h23.1v1.7h-23.1V125.1z"/>
<path class="st0" d="M113.4,106.4h9.4v1.7h-9.4V106.4z"/>
<circle class="st5" cx="160.4" cy="105.2" r="20"/>
<circle class="st0" cx="160.4" cy="105.2" r="16.1"/>
<path class="st5" d="M157.1,73.5h6.7v13.1h-6.7V73.5z"/>
<path class="st0" d="M159.3,75.6h2.4v14.9h-2.4V75.6z"/>
<path class="st5" d="M167.3,134.9H156c-1.2,0-2.1,1.1-1.8,2.3l0.8,3c0.2,0.8,0.9,1.4,1.8,1.4h9.7c0.8,0,1.6-0.6,1.8-1.4l0.8-3
	C169.4,136.1,168.5,134.9,167.3,134.9z"/>
<path class="st7" d="M161.7,127.9c0,0-2.5,4.2,0,4.2C161.7,132.1,161.7,127.9,161.7,127.9z"/>
<path class="st8" d="M159.3,127.9c0,0-1.4,2.4,0,2.4S159.3,127.9,159.3,127.9z M164,127.9c0,0-1.4,2.4,0,2.4S164,127.9,164,127.9z"
	/>
<path class="st9" d="M147.5,105.2c0,7.1,5.8,12.9,12.9,12.9c7.1,0,12.9-5.8,12.9-12.9c0-1.7-0.3-3.3-0.9-4.8h-24
	C147.9,101.8,147.5,103.5,147.5,105.2z"/>
<circle class="st10" cx="160.3" cy="105.3" r="1.4"/>
<circle class="st10" cx="157.6" cy="110.8" r="2.6"/>
<circle class="st10" cx="154.9" cy="105.3" r="1"/>
<circle class="st10" cx="164.6" cy="107.6" r="1"/>
<circle class="st10" cx="163.7" cy="112.7" r="1.9"/>
<circle class="st10" cx="160.2" cy="94.4" r="1.2"/>
<circle class="st10" cx="157.1" cy="97" r="1.4"/>
<circle class="st10" cx="164.7" cy="97.7" r="0.7"/>
<path class="st5" d="M123.7,95.2h-5.2v-7.7c0-4.4,3.6-8,8-8h17.8c1.6,0,2.8-1.3,2.8-2.8c0-1.6-1.3-2.8-2.8-2.8h-17.8
	c-4.4,0-8-3.6-8-8s3.6-8,8-8h17.8c1.6,0,2.8-1.3,2.8-2.8c0-1.6-1.3-2.8-2.8-2.8h-17.8c-4.4,0-8-3.6-8-8s3.6-8,8-8h17.8
	c1.6,0,2.8-1.3,2.8-2.8c0-1.6-1.3-2.8-2.8-2.8h-17.8c-4.4,0-8-3.6-8-8c0-12.3,10-22.2,22.2-22.2c12.3,0,22.2,10,22.2,22.2v46.7h-5.2
	V22.3c0-9.4-7.7-17.1-17.1-17.1c-9.4,0-17.1,7.7-17.1,17.1c0,1.6,1.3,2.8,2.8,2.8h17.8c4.4,0,8,3.6,8,8s-3.6,8-8,8h-17.8
	c-1.6,0-2.8,1.3-2.8,2.8c0,1.6,1.3,2.8,2.8,2.8h17.8c4.4,0,8,3.6,8,8s-3.6,8-8,8h-17.8c-1.6,0-2.8,1.3-2.8,2.8
	c0,1.6,1.3,2.8,2.8,2.8h17.8c4.4,0,8,3.6,8,8s-3.6,8-8,8h-17.8c-1.6,0-2.8,1.3-2.8,2.8v8.1H123.7z"/>
<path class="st0" d="M118.8,102.9h4.7v2.2h-4.7V102.9z M146.3,125.1h3.8v1.7h-3.8V125.1z"/>
<circle class="st11" cx="120.5" cy="130.7" r="0.6"/>
<circle class="st12" cx="120.6" cy="127.8" r="0.5"/>
<circle class="st11" cx="121.9" cy="129.3" r="0.4"/>
<circle class="st11" cx="121.3" cy="123.7" r="0.9"/>
<circle class="st12" cx="121.7" cy="126.1" r="0.4"/>
<circle class="st12" cx="120.4" cy="120.5" r="0.4"/>
<path class="st0" d="M198.4,123.2h3.6v16.7h-3.6V123.2z"/>
<path class="st3" d="M202,123.2h1v16.7h-1V123.2z"/>
<path class="st0" d="M188.7,123.2h3.6v16.7h-3.6V123.2z"/>
<path class="st3" d="M192.3,123.2h1v16.7h-1V123.2z"/>
<path class="st0" d="M190.3,116.8h-5.9c-0.8,0-1.5-0.7-1.5-1.5s0.7-1.5,1.5-1.5h5.9c0.8,0,1.5,0.7,1.5,1.5S191.1,116.8,190.3,116.8z
	"/>
<path class="st5" d="M189.8,116.8h-4.9v18.5c0,1.4,1.1,2.5,2.5,2.5s2.5-1.1,2.5-2.5v-18.5H189.8z"/>
<path class="st13" d="M188.7,119.5H186v14.9c0,0.7,0.6,1.2,1.2,1.2h0.2c0.7,0,1.2-0.6,1.2-1.2v-14.9L188.7,119.5z"/>
<path class="st0" d="M186,118.3h2.7v1.3H186V118.3z M200,116.8h-5.9c-0.8,0-1.5-0.7-1.5-1.5s0.7-1.5,1.5-1.5h5.9
	c0.8,0,1.5,0.7,1.5,1.5C201.4,116.1,200.8,116.8,200,116.8z"/>
<path class="st5" d="M199.5,116.8h-4.9v18.5c0,1.4,1.1,2.5,2.5,2.5s2.5-1.1,2.5-2.5v-18.5H199.5z"/>
<path class="st14" d="M198.4,119.5h-2.7v14.9c0,0.7,0.6,1.2,1.2,1.2h0.2c0.7,0,1.2-0.6,1.2-1.2v-14.9L198.4,119.5z"/>
<path class="st0" d="M195.7,118.3h2.7v1.3h-2.7V118.3z"/>
<path class="st3" d="M182.3,121.4h22.8v1.7h-22.8V121.4z"/>
<path class="st0" d="M178,121.4h4.3v1.7H178V121.4z"/>
<path class="st3" d="M182.3,139.9h22.8v1.7h-22.8V139.9z"/>
<path class="st0" d="M178,139.9h4.3v1.7H178V139.9z M179.4,123.2h3.6v16.7h-3.6V123.2z"/>
<path class="st3" d="M182.9,123.2h1v16.7h-1V123.2z"/>
<path class="st2" d="M103.9,141.3h110v4.5h-110L103.9,141.3z"/>
<path class="st15" d="M55.3,141.3h48.6v4.5H55.3L55.3,141.3z"/>
<path class="st5" d="M80.7,114.8H69.8c-0.5,0-1-0.4-1-1c0-0.5,0.4-1,1-1h10.9c0.5,0,1,0.4,1,1C81.7,114.3,81.3,114.8,80.7,114.8z
	 M78.6,121.1v-6.3h-6.8v6.3l-9.4,14.6c-1.6,2.5,0.2,5.9,3.2,5.9h19c3,0,4.9-3.3,3.2-5.9C87.8,135.7,78.6,121.1,78.6,121.1z"/>
<path class="st1" d="M85.1,137.6L77.7,126h-4.9l-7.4,11.6c0,0.1-0.1,0.2,0,0.4s0.3,0.2,0.3,0.2h19c0.1,0,0.2,0,0.4-0.2
	C85.2,137.8,85.1,137.6,85.1,137.6z"/>
<path class="st0" d="M76.9,124.7v-7.1h-3.3v7.1l-0.8,1.3h4.9L76.9,124.7z"/>
<circle class="st16" cx="73.7" cy="133.5" r="1.3"/>
<circle class="st16" cx="75.5" cy="129.9" r="1.1"/>
<circle class="st16" cx="77.7" cy="133.6" r="1.1"/>
<circle class="st16" cx="72.8" cy="130.4" r="0.6"/>
<circle class="st16" cx="75.9" cy="135.6" r="0.4"/>
<circle class="st16" cx="78.2" cy="130.6" r="0.5"/>
<circle class="st16" cx="71" cy="135.5" r="0.5"/>
<circle class="st5" cx="100.4" cy="130.4" r="11.1"/>
<circle class="st0" cx="100.4" cy="130.4" r="8.9"/>
<path class="st5" d="M98.5,112.8h3.7v7.3h-3.7V112.8z"/>
<path class="st0" d="M99.7,113.9h1.3v8.2h-1.3V113.9z"/>
<path class="st17" d="M93.2,130.4c0,4,3.2,7.2,7.2,7.2s7.2-3.2,7.2-7.2c0-1-0.2-1.9-0.5-2.7H93.7C93.4,128.5,93.2,129.4,93.2,130.4z
	"/>
<path class="st5" d="M103.8,114.8h-7c-0.5,0-1-0.4-1-1c0-0.5,0.4-1,1-1h7c0.5,0,1,0.4,1,1C104.8,114.3,104.4,114.8,103.8,114.8z"/>
<circle class="st18" cx="97.6" cy="131.1" r="1.3"/>
<circle class="st18" cx="100.5" cy="129.8" r="0.7"/>
<circle class="st18" cx="101.6" cy="133.8" r="1.4"/>
<circle class="st18" cx="103.5" cy="131.9" r="0.5"/>
<circle class="st18" cx="104" cy="129.5" r="0.5"/>
<circle class="st18" cx="98.4" cy="134.3" r="0.5"/>
<path id="XMLID_5355_" class="st1" d="M77.8,92.2h-0.2c-0.5-1.4-1.8-2.5-3.4-2.5c-2,0-3.6,1.6-3.6,3.6v0.1c-1.1,0.3-1.9,1.2-1.9,2.4
	c0,1.4,1.1,2.5,2.5,2.5h0.5c0.4,0.6,1.2,1,2,1s1.5-0.4,2-1c0.6,0.5,1.3,0.8,2.2,0.8c1.9,0,3.4-1.5,3.4-3.4S79.6,92.2,77.8,92.2z"/>
<path id="XMLID_5354_" class="st1" d="M68.9,52.2h-0.2c-0.4-1.2-1.5-2-2.8-2c-1.6,0-2.9,1.3-2.9,2.9v0.1c-0.9,0.2-1.5,1-1.5,2
	c0,1.1,0.9,2,2,2h0.4c0.4,0.5,1,0.8,1.6,0.8c0.7,0,1.2-0.3,1.6-0.8c0.5,0.4,1.1,0.6,1.8,0.6c1.5,0,2.8-1.3,2.8-2.8
	C71.7,53.4,70.5,52.2,68.9,52.2z"/>
<path id="XMLID_5353_" class="st1" d="M95.7,41.1L95.7,41.1c-0.4-0.8-1.2-1.5-2.1-1.5c-1.2,0-2.1,1-2.1,2.1
	c-0.6,0.2-1.1,0.7-1.1,1.4c0,0.8,0.7,1.5,1.5,1.5h0.3c0.3,0.4,0.7,0.6,1.2,0.6s0.9-0.2,1.2-0.6c0.4,0.3,0.8,0.5,1.3,0.5
	c1.1,0,2-0.9,2-2S96.9,41.1,95.7,41.1z"/>
<path id="XMLID_5352_" class="st1" d="M93,78.8h-0.2c-0.5-1.4-1.8-2.5-3.4-2.5c-2,0-3.6,1.6-3.6,3.6V80c-1.1,0.3-1.9,1.2-1.9,2.4
	c0,1.4,1.1,2.5,2.5,2.5h0.5c0.4,0.6,1.2,1,2,1s1.5-0.4,2-1c0.6,0.5,1.3,0.8,2.2,0.8c1.9,0,3.4-1.5,3.4-3.4
	C96.4,80.3,94.9,78.8,93,78.8z"/>
<path id="XMLID_5351_" class="st1" d="M75.7,102.1c-0.2-0.4-0.5-0.7-1-0.7s-1,0.4-1,1c-0.3,0.1-0.5,0.3-0.5,0.6
	c0,0.4,0.3,0.7,0.7,0.7H74c0.1,0.2,0.3,0.3,0.5,0.3s0.4-0.1,0.5-0.3c0.2,0.1,0.4,0.2,0.6,0.2c0.5,0,0.9-0.4,0.9-0.9
	S76.2,102.1,75.7,102.1z"/>
<path id="XMLID_5350_" class="st1" d="M74,106.4c-0.1-0.2-0.2-0.3-0.4-0.3s-0.4,0.2-0.4,0.4c-0.1,0-0.2,0.2-0.2,0.3
	c0,0.2,0.1,0.3,0.3,0.3h0.1c0.1,0.1,0.1,0.1,0.2,0.1s0.2,0,0.2-0.1c0.1,0.1,0.2,0.1,0.3,0.1c0.2,0,0.4-0.2,0.4-0.4
	C74.4,106.6,74.2,106.4,74,106.4z"/>
<path id="XMLID_5349_" class="st1" d="M77.4,107.3c-0.1-0.3-0.4-0.5-0.7-0.5c-0.4,0-0.7,0.3-0.7,0.7c-0.2,0.1-0.4,0.2-0.4,0.5
	s0.2,0.5,0.5,0.5h0.1c0.1,0.1,0.2,0.2,0.4,0.2s0.3-0.1,0.4-0.2c0.1,0.1,0.3,0.1,0.4,0.1c0.4,0,0.7-0.3,0.7-0.7
	S77.8,107.3,77.4,107.3z"/>
<path id="XMLID_5348_" class="st1" d="M75.1,109.8c-0.1-0.2-0.2-0.3-0.4-0.3s-0.4,0.2-0.4,0.4c-0.1,0-0.2,0.1-0.2,0.3
	c0,0.2,0.1,0.3,0.3,0.3h0.1c0.1,0.1,0.1,0.1,0.2,0.1s0.2,0,0.2-0.1c0.1,0.1,0.2,0.1,0.3,0.1c0.2,0,0.4-0.2,0.4-0.4
	C75.5,110,75.3,109.8,75.1,109.8z"/>
<path id="XMLID_41_" class="st17" d="M101.7,101.1c-0.2-0.4-0.5-0.7-1-0.7s-1,0.4-1,1c-0.3,0.1-0.5,0.3-0.5,0.6
	c0,0.4,0.3,0.7,0.7,0.7h0.1c0.1,0.2,0.3,0.3,0.5,0.3s0.4-0.1,0.5-0.3c0.2,0.1,0.4,0.2,0.6,0.2c0.5,0,0.9-0.4,0.9-0.9
	S102.2,101.1,101.7,101.1z"/>
<path id="XMLID_40_" class="st17" d="M99.7,106.1c-0.1-0.3-0.4-0.4-0.6-0.4c-0.4,0-0.6,0.3-0.6,0.6c-0.2,0-0.3,0.2-0.3,0.4
	s0.2,0.4,0.4,0.4h0.1c0.1,0.1,0.2,0.2,0.4,0.2c0.1,0,0.3-0.1,0.4-0.2c0.1,0.1,0.2,0.1,0.4,0.1c0.3,0,0.6-0.3,0.6-0.6
	S100.1,106.1,99.7,106.1z"/>
<path id="XMLID_1595_" class="st17" d="M100.8,104.7c0.1-0.2,0.3-0.3,0.5-0.3c0.3,0,0.5,0.2,0.5,0.5c0.1,0,0.3,0.2,0.3,0.3
	c0,0.2-0.1,0.3-0.3,0.3h-0.1c-0.1,0.1-0.2,0.1-0.3,0.1l-0.3-0.1c-0.1,0.1-0.2,0.1-0.3,0.1c-0.3,0-0.5-0.2-0.5-0.5
	C100.4,104.9,100.6,104.7,100.8,104.7z"/>
<path id="XMLID_1596_" class="st17" d="M98.9,103.7c0.1-0.2,0.2-0.3,0.4-0.3s0.4,0.2,0.4,0.4c0.1,0,0.2,0.1,0.2,0.3
	c0,0.1-0.1,0.3-0.3,0.3h-0.1c0,0.1-0.1,0.1-0.2,0.1s-0.2,0-0.2-0.1c-0.1,0.1-0.1,0.1-0.2,0.1c-0.2,0-0.4-0.2-0.4-0.4
	S98.7,103.7,98.9,103.7z"/>
<path id="XMLID_1591_" class="st17" d="M100.9,108.5c-0.1-0.2-0.2-0.3-0.4-0.3s-0.4,0.2-0.4,0.4c-0.1,0-0.2,0.1-0.2,0.3
	c0,0.2,0.1,0.3,0.3,0.3h0.1c0.1,0.1,0.1,0.1,0.2,0.1s0.2,0,0.2-0.1c0.1,0.1,0.2,0.1,0.3,0.1c0.2,0,0.4-0.2,0.4-0.4
	C101.3,108.7,101.2,108.5,100.9,108.5z"/>
<path id="XMLID_5347_" class="st1" d="M72.7,76.1h-0.3c-0.7-2.2-2.9-3.8-5.3-3.8c-3.1,0-5.6,2.5-5.6,5.6V78
	c-1.7,0.4-2.9,1.9-2.9,3.8c0,2.1,1.7,3.9,3.9,3.9c0.3,0,0.5,0,0.7-0.1c0.7,1,1.8,1.6,3.1,1.6s2.4-0.6,3.1-1.5
	c0.9,0.8,2.1,1.2,3.4,1.2c3,0,5.4-2.4,5.4-5.4C78.1,78.5,75.7,76.1,72.7,76.1z"/>
<path id="XMLID_5346_" class="st1" d="M95.8,54.3h-0.5c-1.2-3.6-4.7-6.3-8.7-6.3c-5.1,0-9.2,4.1-9.2,9.2v0.2
	c-2.8,0.7-4.8,3.2-4.8,6.1c0,3.5,2.8,6.3,6.3,6.3c0.4,0,0.8,0,1.2-0.1c1.1,1.6,3,2.6,5.1,2.6s3.9-1,5-2.5c1.5,1.2,3.4,2,5.5,2
	c4.8,0,8.7-3.9,8.7-8.7S100.7,54.3,95.8,54.3z"/>
<path id="XMLID_5345_" class="st1" d="M78.4,17.1h-0.7c-1.7-5.2-6.7-9-12.5-9C57.9,8.1,52,14,52,21.3v0.3c-3.9,1-6.9,4.5-6.9,8.8
	c0,5,4,9,9,9c0.6,0,1.2-0.1,1.7-0.2c1.6,2.2,4.3,3.7,7.3,3.7c2.9,0,5.5-1.4,7.2-3.6c2.2,1.8,4.9,2.8,7.9,2.8
	c6.9,0,12.5-5.6,12.5-12.5S85.3,17.1,78.4,17.1z"/>
<path id="XMLID_5342_" class="st0" d="M62.6,34.5c-1.9,0-3.5-0.6-4.7-1.4l1.4-2.8c0.8,0.6,2.1,1.2,3,1.2s1.5-0.4,1.5-1.1
	c0-1.8-5.4-1.5-5.4-5.6c0-2.2,1.8-4,4-4s3.4,0.7,4,1l-1,2.9c-0.6-0.4-1.5-0.9-2.4-0.9c-0.6,0-1.1,0.4-1.1,0.9c0,1.3,5.4,1.4,5.4,5.5
	C67.3,32.5,66,34.5,62.6,34.5z M73.4,28.4L71.9,26l-1.5,2.4H68l2.7-4.1l-2.4-3.5h2.4l1.2,1.8l1.2-1.8h2.4l-2.4,3.5l2.8,4.1
	C75.9,28.4,73.4,28.4,73.4,28.4z"/>
<g id="XMLID_1544_">
	<path id="XMLID_1547_" class="st0" d="M129.1,243.1h-1.4c-0.4,0-0.7,0-1.1-0.1l-1.2-0.1l-0.9-0.1c-5.2-0.9-9.1-2.5-11.8-4.8
		l-0.8-0.7l-0.7-0.7c-0.2-0.2-0.4-0.5-0.5-0.7l-0.5-0.7v-0.1c0,0-0.1,0.1-0.2,0.1l-0.2,0.2l-0.4,0.3l-0.3,0.3c0,0-0.3,0.3-0.4,0.3
		l-0.2,0.1c-0.1,0.1-0.2,0.2-0.4,0.3l-0.1,0.1l-0.4,0.3l-0.2,0.1l-0.4,0.3l-0.1,0.1l-0.5,0.3l-0.2,0.1c-0.1,0.1-0.3,0.2-0.5,0.2
		l-0.1,0.1l-0.6,0.3h-0.1c-0.2,0.1-0.4,0.2-0.6,0.2l-0.2,0.1c-0.2,0.1-0.4,0.2-0.7,0.3h-0.1l-0.6,0.2l-0.2,0.1
		c-0.2,0.1-0.4,0.1-0.7,0.2h-0.1c-0.2,0.1-0.5,0.1-0.7,0.1h-0.2l-0.6,0.1h-0.1l-0.8,0.1h-2.1c-0.3,0-0.5,0-0.8-0.1h-0.2l-0.9-0.1
		l-0.9-0.2c-0.1,0-0.3-0.1-0.3-0.1c-0.2,0-0.4-0.1-0.5-0.1l-0.4-0.1l-0.4-0.1l-0.4-0.1c-0.1,0-0.3-0.1-0.3-0.1
		c-4.3-1.7-6.3-4.7-7.3-7l-0.2-0.5v-0.1l-0.2-0.5v-0.1c-0.1-0.2-0.2-0.5-0.2-0.7h-0.3c-0.4,0.1-0.7,0.1-1.2,0.2h-0.1l-0.9,0.1h-0.6
		c-0.3,0-0.7,0-1,0.1h-1.3c-0.6,0-1.2,0-1.9-0.1c-5.6-0.5-10.2-2.9-13.2-7v-0.1l-0.6-0.9v-0.1l-0.6-1l-0.4-0.7l-0.1-0.2l-0.3-0.6
		l-0.1-0.2l-0.3-0.7v-0.1c-0.1-0.2-0.2-0.5-0.2-0.7l-0.1-0.2c-0.2-0.5-0.3-1-0.4-1.5v-0.1l-0.1-0.7v-0.1l-0.1-0.7v-0.1
		c0-0.3,0-0.5-0.1-0.8v-1.8l0.1-1.6c0.1-0.6,0.2-1.1,0.3-1.6l1.8,0.4l-1.8-0.4c0.1-0.5,0.3-1,0.4-1.6c0.4-1.3,1-2.5,1.7-3.7
		c0.3-0.5,0.6-0.9,0.9-1.3v-0.1c0.5-0.7,1.1-1.4,1.6-2l0.4-0.4c0.6-0.6,1.3-1.1,1.9-1.6h0.1c0.1-0.1,0.3-0.2,0.5-0.3h0.1
		c0.1-0.1,0.3-0.2,0.5-0.3c0.5-0.3,1.1-0.6,1.7-0.8h0.1l0.5-0.2h0.1l0.5-0.2h0.1c0.4-0.1,0.8-0.2,1.3-0.3h0.1l0.6-0.1h1.8
		c1.3-3.4,4.6-7.9,11.4-7.9c0.8,0,1.6,0.1,2.5,0.2c0.1-0.6,0.3-1.3,0.6-2.1l0.5-1.4v-0.1l0.2-0.4l0.4-0.9l0.1-0.1l0.2-0.4l0.9-1.5
		c0.1-0.1,0.2-0.2,0.3-0.4l0.1-0.1l1.2-1.5c0.8-0.9,1.8-1.8,2.8-2.5h0.1l1.5-1l0.1-0.1c0.3-0.2,0.5-0.3,0.8-0.4h0.1l0.8-0.4h0.1
		c0.3-0.1,0.6-0.2,0.9-0.4l0.3-0.1l0.7-0.2l0.3-0.1h0.1l0.4-0.1l0.2-0.1c0.2,0,0.4-0.1,0.5-0.1l0.3-0.1l0.5-0.1c0.1,0,0.2,0,0.3-0.1
		l0.5-0.1c0.1,0,0.2,0,0.3-0.1l0.5-0.1h0.3c0.2,0,0.3,0,0.5-0.1h4.7c3.5,0.2,6.7,0.9,9.4,2.3l0.2,0.1l1.1,0.6h0.1
		c3.4,2,5.4,4.5,6.4,6.2c1.6-0.6,4.2-1.3,7.2-1.4h2.5l1,0.1h0.2c0.1,0,0.3,0,0.4,0.1c0,0,0.3,0.1,0.4,0.1c0.2,0,0.3,0.1,0.4,0.1
		l0.4,0.1h0.1l0.3,0.1c0.3,0.1,0.5,0.2,0.7,0.2l0.2,0.1h0.1l0.5,0.2l0.3,0.1c0.2,0.1,0.4,0.2,0.5,0.2h0.1l0.2,0.1l0.8,0.4l0.2,0.1
		l0.6,0.4c0.1,0.1,0.3,0.2,0.3,0.2l0.6,0.4c0,0,0.2,0.1,0.2,0.2l0.8,0.6c0.2,0.2,0.5,0.4,0.7,0.7l0.3,0.3l0.3,0.3l0.5,0.5l0.1,0.1
		c4.1,4.6,4.7,9.1,4.6,11.5h4.1c0.2,0,0.4,0,0.6,0.1c0.1,0,0.3,0,0.4,0.1c0.1,0,0.3,0.1,0.3,0.1c0.1,0,0.2,0,0.3,0.1
		c0.1,0,0.2,0,0.4,0.1l0.3,0.1l0.7,0.2l0.2,0.1c0.1,0,0.3,0.1,0.5,0.1h0.1c0.5,0.2,1,0.3,1.6,0.5h0.1c1.4,0.5,2.6,1.3,3.8,2.1
		l0.1,0.1l0.7,0.6l0.7,0.6l0.1,0.1l0.6,0.6l0.1,0.1c0.3,0.3,0.5,0.6,0.7,0.9c0.2,0.2,0.3,0.5,0.5,0.8c0,0.1,0.1,0.2,0.1,0.2
		c0.1,0.2,0.2,0.4,0.4,0.6l0.2,0.3l0.3,0.6c0.1,0.1,0.1,0.3,0.2,0.5l0.1,0.3c2,5.5,0.2,12.8-4.4,17.2l-0.4,0.4l-0.3,0.3
		c-0.1,0.1-0.2,0.2-0.3,0.2l-0.5,0.4c-0.1,0.1-0.2,0.2-0.3,0.2l-0.4,0.3l-0.5,0.3l-0.3,0.2l-0.3,0.1l-0.1,0.1l-0.3,0.1
		c-0.1,0-0.3,0.1-0.3,0.1l-0.4,0.2l-0.3,0.1l-0.7,0.2c-0.1,0-0.2,0-0.3,0.1c-0.2,0.1-0.4,0.1-0.6,0.1h-0.2l-0.8,0.1
		c-0.1,0.1-0.1,0.2-0.2,0.2l-0.1,0.1l-0.2,0.3l-0.1,0.1l-0.3,0.3v0.1l-0.1,0.1c-0.1,0.1-0.2,0.2-0.3,0.4l-0.1,0.1l-0.3,0.3l-0.1,0.1
		l-0.4,0.3l-0.1,0.1c-0.4,0.3-0.7,0.6-1.1,0.8h-0.1l-0.6,0.3h-0.1c-0.5,0.3-1.1,0.5-1.6,0.7c-0.1,0.1-0.3,0.1-0.4,0.1l-0.3,0.1
		l-0.3,0.1c-0.2,0-0.4,0.1-0.5,0.1s-0.2,0-0.2,0.1c-0.1,0-0.3,0-0.4,0.1h-0.2l-0.8,0.1h-1.8c-1.2,0-2.5-0.2-3.8-0.6
		c0,0.1-0.1,0.2-0.1,0.2v0.1c-0.1,0.2-0.2,0.4-0.4,0.6c0,0-0.1,0.2-0.2,0.3l-0.1,0.1l-0.2,0.3L145,235c-0.2,0.2-0.3,0.4-0.4,0.6
		l-0.1,0.2c-0.1,0.1-0.2,0.2-0.2,0.3l-0.1,0.1l-0.9,1.1l-0.1,0.1l-0.4,0.4l-0.1,0.1c-0.3,0.3-0.5,0.5-0.8,0.7h-0.1l-0.4,0.3h-0.1
		C137.9,241.8,133.8,243.1,129.1,243.1L129.1,243.1z"/>
	<path id="XMLID_39_" class="st1" d="M91.2,190.3c0,0,1.4-15.2,18-15.8c15-0.5,18.7,9.7,18.7,9.7s10.9-5.3,18.7,1.7
		s5.6,14.1,5.6,14.1s11.2-1.9,17,5.8c5.8,7.8-0.7,21.3-9.7,21.1c0,0-3.6,7.8-14.3,4.1c0,0-4.6,12.1-19.4,9.9
		c-14.8-2.2-14.8-9.7-14.8-9.7s-5.3,8.2-15,6.6c-9.7-1.7-9.9-10.2-9.9-10.2s-15,4.6-21.6-7.3c-6-11,3.2-24.5,12.9-22.6
		C77.2,197.8,79.1,187.4,91.2,190.3L91.2,190.3z"/>
</g>
<g id="XMLID_36_">
	<path id="XMLID_1552_" class="st0" d="M188.4,265.2h-1.7l-1.3-0.1c-0.5,0-1-0.1-1.4-0.2l-1-0.2h-0.1c-6.1-1-10.7-2.9-13.9-5.7
		c-0.3-0.3-0.6-0.6-0.9-0.8c-0.3-0.3-0.5-0.6-0.8-0.8c-0.2-0.3-0.5-0.6-0.6-0.8c-0.2-0.3-0.4-0.6-0.5-0.8v-0.1l-0.2,0.2l-0.2,0.2
		l-0.4,0.4c-0.1,0.1-0.3,0.2-0.4,0.4c0,0-0.4,0.3-0.5,0.4l-0.2,0.2l-0.4,0.3l-0.2,0.1l-0.5,0.3l-0.2,0.1l-0.5,0.3l-0.1,0.1
		c-0.2,0.1-0.4,0.2-0.6,0.4l-0.2,0.1c-0.2,0.1-0.4,0.2-0.5,0.3l-0.2,0.1l-0.7,0.3h-0.1c-0.2,0.1-0.4,0.2-0.7,0.3l-0.2,0.1l-0.8,0.3
		h-0.1c-0.2,0.1-0.5,0.2-0.7,0.2l-0.2,0.1l-0.8,0.2h-0.1l-0.9,0.2h-0.2c-0.2,0-0.5,0.1-0.8,0.1h-0.2l-0.9,0.1h-2.3
		c-0.3,0-0.6,0-0.9-0.1H150c-0.4,0-0.7-0.1-1.1-0.2l-1.1-0.2c-0.1,0-0.4-0.1-0.4-0.1l-0.6-0.2c-0.2,0-0.3-0.1-0.4-0.1
		c-0.2,0-0.3-0.1-0.5-0.2l-0.5-0.2c-0.1,0-0.3-0.1-0.3-0.1c-5.1-2-7.5-5.5-8.6-8.2c-0.1-0.2-0.2-0.4-0.2-0.6v-0.1l-0.2-0.6v-0.1
		l-0.3-0.9l-0.3,0.1c-0.4,0.1-0.9,0.1-1.4,0.2H134c-0.3,0-0.7,0.1-1.1,0.1c-0.2,0-0.4,0-0.6,0.1h-0.1l-1.2,0.1h-1.5
		c-0.7,0-1.5,0-2.2-0.1c-6.6-0.6-12-3.4-15.5-8.3l-0.1-0.1c-0.3-0.4-0.5-0.7-0.7-1.1v-0.1c-0.3-0.4-0.5-0.8-0.7-1.2
		c-0.2-0.3-0.3-0.6-0.4-0.8l-0.1-0.2l-0.3-0.7l-0.1-0.2l-0.3-0.9v-0.1l-0.3-0.8l-0.1-0.2l-0.5-1.8v-0.1c-0.1-0.3-0.1-0.6-0.2-0.8
		v-0.1l-0.1-0.9v-0.1l-0.1-0.9v-2.1c0-0.6,0.1-1.3,0.2-1.9c0.1-0.7,0.2-1.3,0.4-1.9l2.2,0.4l-2.1-0.5c0.1-0.6,0.3-1.2,0.5-1.8
		c0.5-1.5,1.2-3,2-4.3l1-1.5l0.1-0.1c0.6-0.8,1.2-1.6,1.9-2.3l0.5-0.5c0.7-0.7,1.5-1.3,2.3-1.8h0.1l0.5-0.3l0.1-0.1l0.5-0.3
		c0.6-0.3,1.3-0.7,1.9-0.9h0.1l0.6-0.2h0.1l0.6-0.2h0.1l1.5-0.3h0.1c0.2,0,0.4-0.1,0.7-0.1h0.1c0.2,0,0.5,0,0.7-0.1h1.2
		c1.5-4,5.5-9.2,13.4-9.2c0.9,0,1.9,0.1,2.9,0.2c0.2-0.7,0.4-1.5,0.7-2.5c0.2-0.6,0.4-1.1,0.6-1.6v-0.1c0.1-0.1,0.1-0.3,0.2-0.5
		v-0.1c0.2-0.3,0.3-0.7,0.5-1.1l0.1-0.2l0.3-0.5c0.3-0.6,0.7-1.2,1.1-1.7l0.3-0.4l0.1-0.1c0.4-0.6,0.9-1.2,1.4-1.7v-0.1
		c1-1.1,2.1-2.1,3.3-3h0.1c0.6-0.4,1.1-0.8,1.7-1.1l0.1-0.1l0.9-0.5h0.1l0.9-0.5l0.1-0.1l1-0.4c0,0,0.3-0.1,0.4-0.1l0.8-0.3l0.3-0.1
		h0.1l0.5-0.1l0.2-0.1l0.6-0.2l0.3-0.1l0.6-0.1c0.1,0,0.2,0,0.4-0.1l0.6-0.1c0.1,0,0.3,0,0.4-0.1l0.6-0.1c0.1,0,0.3,0,0.4-0.1
		c0.2,0,0.4,0,0.6-0.1h0.4c0.2,0,0.4,0,0.7-0.1h4.4c4.1,0.2,7.9,1.1,11.1,2.6l0.2,0.1c0.4,0.2,0.8,0.4,1.2,0.7h0.1
		c4,2.3,6.3,5.3,7.5,7.3c1.9-0.7,5-1.5,8.5-1.7h2.9c0.4,0,0.8,0.1,1.2,0.2h0.2l0.5,0.1c0,0,0.3,0.1,0.4,0.1l0.5,0.1l0.5,0.1h0.1
		c0.1,0,0.2,0.1,0.4,0.1l0.9,0.3l0.3,0.1h0.1c0.2,0.1,0.4,0.2,0.6,0.2c0.1,0.1,0.2,0.1,0.4,0.2l0.6,0.3h0.1c0.1,0,0.2,0.1,0.2,0.1
		l0.9,0.5c0.1,0,0.2,0.1,0.2,0.1c0.2,0.1,0.5,0.3,0.7,0.5c0.1,0.1,0.3,0.2,0.3,0.2c0.2,0.2,0.4,0.3,0.7,0.5c0,0,0.2,0.2,0.3,0.2
		l0.9,0.8c0.3,0.3,0.6,0.5,0.8,0.8l0.4,0.4l0.4,0.4l0.6,0.6l0.1,0.1c4.8,5.4,5.5,10.7,5.4,13.5h3.9c0.2,0,0.3,0,0.5,0.1h0.2l0.7,0.1
		c0.2,0,0.3,0,0.5,0.1c0.1,0,0.4,0.1,0.4,0.1c0.1,0,0.2,0,0.3,0.1l0.4,0.1l0.3,0.1l0.9,0.2l0.2,0.1c0.2,0,0.4,0.1,0.5,0.1h0.2
		l1.8,0.6h0.1c1.6,0.6,3.1,1.5,4.4,2.5l0.1,0.1c0.3,0.2,0.6,0.4,0.8,0.7h0.1c0.3,0.2,0.6,0.5,0.8,0.8l0.2,0.1
		c0.2,0.2,0.5,0.5,0.7,0.8l0.1,0.2c0.3,0.4,0.6,0.7,0.8,1l0.6,0.9l0.2,0.3l0.4,0.7l0.2,0.4l0.3,0.7c0.1,0.2,0.1,0.4,0.2,0.5l0.1,0.3
		c2.4,6.5,0.2,15-5.1,20.2l-0.5,0.5c-0.1,0.1-0.3,0.2-0.4,0.4l-0.3,0.3l-0.6,0.5l-0.4,0.3l-0.5,0.3c-0.2,0.1-0.4,0.2-0.6,0.4
		l-0.4,0.2l-0.3,0.2l-0.1,0.1l-0.4,0.1c-0.1,0-0.3,0.1-0.3,0.1l-0.5,0.2h-0.1c-0.1,0-0.2,0.1-0.4,0.1l-0.8,0.3l-0.3,0.1h-0.1
		l-0.7,0.2h-0.2c-0.3,0-0.6,0.1-1,0.1l-0.2,0.3l-0.1,0.1l-0.3,0.3l-0.1,0.1c-0.1,0.1-0.2,0.2-0.3,0.4l-0.1,0.1l-0.1,0.1
		c-0.1,0.1-0.2,0.3-0.4,0.4l-0.1,0.1l-0.4,0.4l-0.1,0.1c-0.1,0.1-0.3,0.3-0.5,0.4l-0.1,0.1l-1.3,1l-0.1,0.1L220,253l-0.1,0.1
		c-0.6,0.3-1.2,0.6-1.9,0.8l-0.5,0.2c-0.1,0-0.2,0.1-0.4,0.1l-0.3,0.1l-0.6,0.2h-0.1c-0.1,0-0.2,0-0.3,0.1l-0.4,0.1h-0.2l-0.9,0.1
		h-2.1c-1.4-0.1-2.9-0.3-4.4-0.7c0,0.1-0.2,0.3-0.2,0.3v0.1l-0.4,0.7c0,0-0.2,0.3-0.2,0.4l-0.1,0.2c-0.1,0.1-0.2,0.2-0.2,0.3
		l-0.1,0.1c-0.2,0.3-0.3,0.5-0.5,0.7l-0.1,0.2c-0.1,0.1-0.2,0.2-0.3,0.4l-0.1,0.2c-0.3,0.4-0.7,0.8-1.1,1.3l-0.1,0.1l-0.4,0.4
		l-0.1,0.1l-0.9,0.9l-0.1,0.1l-0.1,0.1l-0.5,0.4h-0.1C198.6,263.6,193.9,265.2,188.4,265.2L188.4,265.2z"/>
	<path id="XMLID_1551_" class="st1" d="M143.8,203.1c0,0,1.6-17.9,21.1-18.5c17.7-0.6,22,11.4,22,11.4s12.8-6.3,22,2
		c9.1,8.3,6.6,16.5,6.6,16.5s13.1-2.3,20,6.8c6.8,9.1-0.9,25.1-11.4,24.8c0,0-4.3,9.1-16.8,4.8c0,0-5.4,14.3-22.8,11.7
		s-17.4-11.4-17.4-11.4s-6.3,9.7-17.7,7.7s-11.7-12-11.7-12s-17.7,5.4-25.4-8.6c-7.1-12.9,3.7-28.8,15.1-26.5
		C127.3,212,129.6,199.7,143.8,203.1L143.8,203.1z"/>
</g>
<g id="XMLID_34_">
	<path id="XMLID_35_" class="st0" d="M87.7,267.9H86l-1.3-0.1c-0.5,0-1-0.1-1.4-0.2l-1-0.2h-0.1c-6.1-1-10.7-2.9-13.9-5.7
		c-0.3-0.3-0.6-0.6-0.9-0.8c-0.3-0.3-0.5-0.6-0.8-0.8c-0.2-0.3-0.5-0.6-0.6-0.8c-0.2-0.3-0.4-0.6-0.5-0.8v-0.1l-0.2,0.2l-0.2,0.2
		l-0.4,0.4c-0.1,0.1-0.3,0.2-0.4,0.4c0,0-0.4,0.3-0.5,0.4l-0.2,0.2l-0.4,0.3l-0.2,0.1l-0.5,0.3l-0.2,0.1l-0.5,0.3l-0.1,0.1
		c-0.2,0.1-0.4,0.2-0.6,0.4l-0.2,0.1c-0.2,0.1-0.4,0.2-0.5,0.3l-0.2,0.1l-0.7,0.3h-0.1c-0.2,0.1-0.4,0.2-0.7,0.3l-0.2,0.1l-0.8,0.3
		h-0.1c-0.2,0.1-0.5,0.2-0.7,0.2l-0.2,0.1l-0.8,0.2h-0.1l-0.9,0.2h-0.2c-0.2,0-0.5,0.1-0.8,0.1h-0.2l-0.9,0.1h-2.3
		c-0.3,0-0.6,0-0.9-0.1h-0.3c-0.4,0-0.7-0.1-1.1-0.2l-1.1-0.2c-0.1,0-0.4-0.1-0.4-0.1l-0.6-0.2c-0.2,0-0.3-0.1-0.4-0.1
		c-0.2,0-0.3-0.1-0.5-0.2l-0.5-0.2c-0.1,0-0.3-0.1-0.3-0.1c-5.1-2-7.5-5.5-8.6-8.2c-0.1-0.2-0.2-0.4-0.2-0.6v-0.1l-0.2-0.6v-0.1
		l-0.3-0.9l-0.3,0.1c-0.4,0.1-0.9,0.1-1.4,0.2h-0.1c-0.3,0-0.7,0.1-1.1,0.1c-0.2,0-0.4,0-0.6,0.1h-0.1l-1.2,0.1h-1.5
		c-0.7,0-1.5,0-2.2-0.1c-6.6-0.6-12-3.4-15.5-8.3l-0.1-0.1c-0.3-0.4-0.5-0.7-0.7-1.1v-0.1c-0.3-0.4-0.5-0.8-0.7-1.2
		c-0.2-0.3-0.3-0.6-0.4-0.8H9l-0.3-0.7l-0.1-0.2l-0.3-0.9v-0.1L8,238.5l-0.1-0.2l-0.5-1.8v-0.1c-0.1-0.3-0.1-0.6-0.2-0.8v-0.1
		l-0.1-0.9v-0.1L7,233.6v-2.1c0-0.6,0.1-1.3,0.2-1.9c0.1-0.7,0.2-1.3,0.4-1.9l2.2,0.4l-2.1-0.5c0.1-0.6,0.3-1.2,0.5-1.8
		c0.5-1.5,1.2-3,2-4.3l1-1.5l0.1-0.1c0.6-0.8,1.2-1.6,1.9-2.3l0.5-0.5c0.7-0.7,1.5-1.3,2.3-1.8h0.1l0.5-0.3l0.1-0.1l0.5-0.3
		c0.6-0.3,1.3-0.7,1.9-0.9h0.1l0.6-0.2h0.1l0.6-0.2h0.1l1.5-0.3h0.1c0.2,0,0.4-0.1,0.7-0.1H23c0.2,0,0.5,0,0.7-0.1h1.2
		c1.5-4,5.5-9.2,13.4-9.2c0.9,0,1.9,0.1,2.9,0.2c0.2-0.7,0.4-1.5,0.7-2.5c0.2-0.6,0.4-1.1,0.6-1.6v-0.1c0.1-0.1,0.1-0.3,0.2-0.5V199
		c0.2-0.3,0.3-0.7,0.5-1.1l0.1-0.2l0.3-0.5c0.3-0.6,0.7-1.2,1.1-1.7l0.3-0.4l0.1-0.1c0.4-0.6,0.9-1.2,1.4-1.7v-0.1
		c1-1.1,2.1-2.1,3.3-3h0.1c0.6-0.4,1.1-0.8,1.7-1.1l0.1-0.1l0.9-0.5h0.1l0.9-0.5l0.1-0.1l1-0.4c0,0,0.3-0.1,0.4-0.1l0.8-0.3l0.3-0.1
		h0.1l0.5-0.1l0.2-0.1l0.6-0.2l0.3-0.1l0.6-0.1c0.1,0,0.2,0,0.4-0.1c0.2,0,0.4-0.1,0.5-0.1s0.3,0,0.4-0.1l0.6-0.1
		c0.1,0,0.3,0,0.4-0.1c0.2,0,0.4,0,0.6-0.1h0.4c0.2,0,0.4,0,0.7-0.1h4.4c4.1,0.2,7.9,1.1,11.1,2.6l0.2,0.1c0.4,0.2,0.8,0.4,1.2,0.7
		h0.1c4,2.3,6.3,5.3,7.5,7.3c1.9-0.7,5-1.5,8.5-1.7h2.9c0.4,0,0.8,0.1,1.2,0.2h0.2l0.5,0.1c0,0,0.3,0.1,0.4,0.1l0.5,0.1l0.5,0.1h0.1
		c0.1,0,0.2,0.1,0.4,0.1l0.9,0.3l0.3,0.1h0.1c0.2,0.1,0.4,0.2,0.6,0.2c0.1,0.1,0.2,0.1,0.4,0.2l0.6,0.3h0.1c0.1,0,0.2,0.1,0.2,0.1
		l0.9,0.5c0.1,0,0.2,0.1,0.2,0.1c0.2,0.1,0.5,0.3,0.7,0.5c0.1,0.1,0.3,0.2,0.3,0.2c0.2,0.2,0.4,0.3,0.7,0.5c0,0,0.2,0.2,0.3,0.2
		l0.9,0.8c0.3,0.3,0.6,0.5,0.8,0.8l0.4,0.4l0.4,0.4l0.6,0.6l0.1,0.1c4.8,5.4,5.5,10.7,5.4,13.5h3.9c0.2,0,0.3,0,0.5,0.1h0.2l0.7,0.1
		c0.2,0,0.3,0,0.5,0.1c0.1,0,0.4,0.1,0.4,0.1c0.1,0,0.2,0,0.3,0.1l0.4,0.1l0.3,0.1l0.9,0.2l0.2,0.1c0.2,0,0.4,0.1,0.5,0.1h0.2
		l1.8,0.6h0.1c1.6,0.6,3.1,1.5,4.4,2.5l0.1,0.1c0.3,0.2,0.6,0.4,0.8,0.7h0.1c0.3,0.2,0.6,0.5,0.8,0.8l0.2,0.1
		c0.2,0.2,0.5,0.5,0.7,0.8l0.1,0.2c0.3,0.4,0.6,0.7,0.8,1l0.6,0.9l0.2,0.3l0.4,0.7l0.2,0.4l0.3,0.7c0.1,0.2,0.1,0.4,0.2,0.5l0.1,0.3
		c2.4,6.5,0.2,15-5.1,20.2l-0.5,0.5c-0.1,0.1-0.3,0.2-0.4,0.4l-0.3,0.3l-0.6,0.5l-0.4,0.3l-0.5,0.3c-0.2,0.1-0.4,0.2-0.6,0.4
		l-0.4,0.2l-0.3,0.2l-0.1,0.1l-0.4,0.1c-0.1,0-0.3,0.1-0.3,0.1l-0.5,0.2h-0.1c-0.1,0-0.2,0.1-0.4,0.1l-0.8,0.3l-0.3,0.1h-0.1
		l-0.7,0.2H125c-0.3,0-0.6,0.1-1,0.1l-0.2,0.3l-0.1,0.1l-0.3,0.3l-0.1,0.1c-0.1,0.1-0.2,0.2-0.3,0.4l-0.1,0.1l-0.1,0.1
		c-0.1,0.1-0.2,0.3-0.4,0.4l-0.1,0.1l-0.4,0.4l-0.1,0.1c-0.1,0.1-0.3,0.3-0.5,0.4l-0.1,0.1l-1.3,1l-0.1,0.1l-0.7,0.4L119,256
		c-0.6,0.3-1.2,0.6-1.9,0.8l-0.5,0.2c-0.1,0-0.2,0.1-0.4,0.1l-0.3,0.1l-0.6,0.2h-0.1c-0.1,0-0.2,0-0.3,0.1l-0.4,0.1h-0.2l-0.9,0.1
		h-2.1c-1.4-0.1-2.9-0.3-4.4-0.7c0,0.1-0.2,0.3-0.2,0.3v0.1l-0.4,0.7c0,0-0.2,0.3-0.2,0.4l-0.1,0.2c-0.1,0.1-0.2,0.2-0.2,0.3
		l-0.1,0.1c-0.2,0.3-0.3,0.5-0.5,0.7l-0.1,0.2c-0.1,0.1-0.2,0.2-0.3,0.4l-0.1,0.2c-0.3,0.4-0.7,0.8-1.1,1.3l-0.1,0.1l-0.4,0.4
		l-0.1,0.1l-0.9,0.9l-0.1,0.1l-0.1,0.1l-0.5,0.4h-0.1C98,266.3,93.2,267.9,87.7,267.9L87.7,267.9z"/>
	<path id="XMLID_1576_" class="st1" d="M43.2,205.8c0,0,1.6-17.9,21.1-18.5c17.7-0.6,22,11.4,22,11.4s12.8-6.3,22,2
		c9.1,8.3,6.6,16.5,6.6,16.5s13.1-2.3,20,6.8c6.8,9.1-0.9,25.1-11.4,24.8c0,0-4.3,9.1-16.8,4.8c0,0-5.4,14.3-22.8,11.7
		C66.3,262.8,66.3,254,66.3,254s-6.3,9.7-17.7,7.7s-11.7-12-11.7-12s-17.7,5.4-25.4-8.6c-7.1-12.9,3.7-28.8,15.1-26.5
		C26.6,214.7,28.9,202.4,43.2,205.8z"/>
</g>
<g id="XMLID_1559_">
	<path id="XMLID_32_" class="st0" d="M241.2,249.2h-0.9c-0.2,0-0.5,0-0.7-0.1l-0.8-0.1l-0.6-0.1c-3.3-0.6-5.9-1.6-7.6-3.1
		c-0.2-0.1-0.3-0.3-0.5-0.5s-0.3-0.3-0.4-0.5c-0.1-0.2-0.2-0.3-0.4-0.5c-0.1-0.2-0.2-0.3-0.3-0.4l-0.1,0.1l-0.1,0.1l-0.2,0.2
		l-0.2,0.2c0,0-0.2,0.2-0.3,0.2l-0.1,0.1c-0.1,0.1-0.2,0.1-0.2,0.2l-0.1,0.1l-0.3,0.2l-0.1,0.1l-0.3,0.2h-0.1l-0.3,0.2l-0.1,0.1
		l-0.3,0.2h-0.1l-0.4,0.2h-0.1c-0.1,0.1-0.2,0.1-0.4,0.2h-0.1l-0.4,0.2l-0.4,0.1h-0.1l-0.4,0.1h-0.1c-0.1,0-0.3,0.1-0.5,0.1h-0.1
		c-0.1,0-0.3,0-0.4,0.1h-2.5l-0.6-0.1l-0.6-0.1h-0.2l-0.3-0.1c-0.1,0-0.2,0-0.2-0.1l-0.3-0.1l-0.3-0.1l-0.2-0.1
		c-2.8-1.1-4.1-3-4.7-4.5l-0.1-0.3l-0.1-0.3c-0.1-0.2-0.1-0.3-0.1-0.5h-0.2c-0.2,0-0.5,0.1-0.8,0.1c-0.2,0-0.4,0-0.6,0.1h-1.8
		c-0.4,0-0.8,0-1.2-0.1c-3.6-0.3-6.6-1.9-8.5-4.5l-0.4-0.6l-0.4-0.6c-0.1-0.2-0.2-0.3-0.2-0.5l-0.1-0.1l-0.2-0.4v-0.1l-0.2-0.5v-0.1
		c-0.1-0.2-0.1-0.3-0.1-0.4V233l-0.3-1v-0.1l-0.1-0.5c0-0.2,0-0.3-0.1-0.5v-1.8c0-0.3,0-0.7,0.1-1c0.1-0.4,0.1-0.7,0.2-1l1.2,0.2
		l-1.2-0.3l0.3-1c0.3-0.8,0.6-1.6,1.1-2.4c0.2-0.3,0.4-0.6,0.6-0.8c0.3-0.4,0.7-0.9,1.1-1.3l0.3-0.3c0.4-0.4,0.8-0.7,1.2-1l0.3-0.2
		h0.1l0.3-0.2c0.3-0.2,0.7-0.4,1.1-0.5l0.3-0.1l0.3-0.1l0.8-0.2h1.5c0.8-2.2,3-5.1,7.3-5.1c0.5,0,1.1,0,1.6,0.1
		c0.1-0.4,0.2-0.8,0.4-1.3l0.3-0.9l0.1-0.3l0.3-0.6v-0.1l0.1-0.3c0.2-0.3,0.4-0.6,0.6-1c0.1-0.1,0.1-0.2,0.2-0.2l0.1-0.1
		c0.2-0.3,0.5-0.7,0.8-1c0.5-0.6,1.1-1.2,1.8-1.6c0.3-0.2,0.6-0.4,1-0.6h0.1l0.5-0.3c0.2-0.1,0.3-0.2,0.5-0.2h0.1
		c0.2-0.1,0.4-0.2,0.5-0.2l0.2-0.1l0.4-0.1l0.2-0.1l0.3-0.1h0.1l0.3-0.1h0.2c0.1,0,0.2,0,0.3-0.1h0.2c0.1,0,0.2,0,0.3-0.1h3.9
		c2.3,0.1,4.3,0.6,6.1,1.4l0.1,0.1c0.2,0.1,0.5,0.2,0.7,0.4c2.2,1.3,3.5,2.9,4.1,4c1-0.4,2.7-0.8,4.6-0.9h1.6c0.2,0,0.4,0,0.7,0.1
		h0.6c0.1,0,0.2,0,0.3,0.1c0.1,0,0.2,0,0.3,0.1c0.1,0,0.1,0,0.2,0.1c0.2,0,0.3,0.1,0.5,0.2c0,0,0.1,0,0.1,0.1h0.1l0.3,0.1l0.2,0.1
		l0.3,0.2h0.1c0,0,0.1,0,0.1,0.1l0.5,0.3l0.1,0.1l0.4,0.3l0.2,0.1c0.1,0.1,0.2,0.2,0.4,0.3l0.1,0.1c0.2,0.2,0.3,0.3,0.5,0.4
		c0.2,0.1,0.3,0.3,0.4,0.4l0.2,0.2l0.2,0.2l0.3,0.3v0.1c2.6,3,3,5.9,3,7.4h2.4c0.1,0,0.3,0,0.4,0.1h1.1l0.5,0.1h0.1l0.3,0.1h0.1
		c0.3,0.1,0.7,0.2,1,0.4c0.9,0.3,1.7,0.8,2.4,1.3l0.1,0.1c0.2,0.1,0.3,0.2,0.4,0.4l0.5,0.4l0.1,0.1l0.4,0.4l0.1,0.1
		c0.2,0.2,0.3,0.4,0.4,0.6c0.1,0.1,0.2,0.3,0.3,0.5l0.1,0.1c0.1,0.1,0.2,0.3,0.2,0.4l0.1,0.2c0.1,0.1,0.1,0.2,0.2,0.4l0.1,0.3
		c0,0.1,0,0.1,0.1,0.2c1.3,3.6,0.1,8.2-2.8,11l-0.3,0.3l-0.2,0.2c-0.1,0.1-0.1,0.1-0.2,0.1l-0.3,0.3c-0.1,0.1-0.1,0.1-0.2,0.1
		l-0.3,0.2l-0.3,0.2l-0.2,0.1l-0.2,0.1l-0.2,0.1l-0.2,0.1l-0.3,0.1c-0.1,0-0.1,0-0.2,0.1s-0.3,0.1-0.5,0.1h-0.2l-0.4,0.1h-0.1
		c-0.2,0-0.3,0-0.5,0.1l-0.1,0.2l-0.1,0.2v0.1l-0.2,0.2c-0.1,0.1-0.1,0.2-0.2,0.2l-0.2,0.2l-0.1,0.1l-0.3,0.2h-0.1
		c-0.2,0.2-0.5,0.4-0.7,0.5c-0.1,0.1-0.2,0.2-0.4,0.2h-0.1l-1,0.5l-0.3,0.1c-0.1,0-0.1,0-0.2,0.1c-0.1,0-0.1,0-0.2,0.1l-0.3,0.1
		h-0.5c-0.2,0-0.3,0-0.5,0.1h-1.1c-0.8,0-1.6-0.2-2.4-0.4l-0.1,0.2c-0.1,0.1-0.1,0.2-0.2,0.4c0,0-0.1,0.1-0.1,0.2l-0.1,0.1l-0.1,0.2
		l-0.3,0.4l-0.1,0.1c0,0.1-0.1,0.1-0.2,0.2l-0.1,0.1l-0.6,0.7l-0.1,0.1l-0.2,0.2l-0.5,0.5l-0.3,0.2
		C246.8,248.3,244.2,249.2,241.2,249.2L241.2,249.2z"/>
	<path id="XMLID_31_" class="st1" d="M216.8,215.2c0,0,0.9-9.8,11.5-10.1c9.7-0.3,12,6.2,12,6.2s7-3.4,12,1.1c5,4.5,3.6,9,3.6,9
		s7.2-1.2,10.9,3.7c3.7,5-0.5,13.7-6.2,13.6c0,0-2.3,5-9.2,2.7c0,0-3,7.8-12.5,6.4c-9.5-1.4-9.5-6.2-9.5-6.2s-3.4,5.3-9.7,4.2
		c-6.2-1.1-6.4-6.6-6.4-6.6s-9.7,3-13.9-4.7c-3.9-7,2-15.7,8.3-14.5C207.8,220,209,213.3,216.8,215.2L216.8,215.2z"/>
</g>
<g id="XMLID_25_">
	<path id="XMLID_29_" class="st0" d="M201.4,273.6H200c-0.3,0-0.7,0-1-0.1l-1.2-0.1c-0.3,0-0.6-0.1-0.8-0.1
		c-4.9-0.8-8.6-2.3-11.2-4.4c-0.3-0.2-0.5-0.4-0.7-0.7c-0.2-0.2-0.4-0.4-0.6-0.7c-0.2-0.2-0.4-0.4-0.5-0.7c-0.2-0.2-0.3-0.4-0.4-0.6
		v-0.1l-0.1,0.1l-0.2,0.1l-0.3,0.3l-0.3,0.3c0,0-0.3,0.2-0.4,0.3l-0.2,0.1c-0.1,0.1-0.2,0.2-0.4,0.3l-0.1,0.1l-0.4,0.3l-0.2,0.1
		c-0.1,0.1-0.3,0.2-0.4,0.2l-0.1,0.1l-0.5,0.3l-0.1,0.1c-0.1,0.1-0.3,0.2-0.4,0.2l-0.1,0.1l-0.6,0.3h-0.1c-0.2,0.1-0.4,0.2-0.5,0.2
		l-0.1,0.1c-0.2,0.1-0.4,0.2-0.6,0.2h-0.1l-0.6,0.2h-0.2l-0.6,0.2h-0.1c-0.2,0-0.4,0.1-0.7,0.1H175l-0.6,0.1h-0.1
		c-0.2,0-0.5,0-0.8,0.1h-1.9c-0.3,0-0.5,0-0.7-0.1h-0.2l-0.9-0.1c-0.3,0-0.6-0.1-0.8-0.2c-0.1,0-0.3-0.1-0.3-0.1l-0.5-0.1
		c-0.1,0-0.2-0.1-0.4-0.1l-0.4-0.1l-0.4-0.1c-0.1,0-0.3-0.1-0.3-0.1c-4.1-1.5-6-4.3-6.9-6.4l-0.2-0.5c-0.1-0.2-0.1-0.3-0.2-0.4
		l-0.2-0.7h-0.3c-0.3,0.1-0.7,0.1-1.1,0.2h-0.1l-0.9,0.1h-0.6c-0.3,0-0.6,0-1,0.1H154c-0.6,0-1.2,0-1.7-0.1
		c-5.3-0.4-9.6-2.7-12.5-6.4v-0.1c-0.2-0.3-0.4-0.6-0.6-0.8v-0.1l-0.6-0.9c-0.1-0.2-0.2-0.4-0.4-0.7l-0.1-0.2
		c-0.1-0.2-0.2-0.4-0.3-0.5l-0.1-0.1c-0.1-0.2-0.2-0.4-0.3-0.7v-0.1c-0.1-0.2-0.2-0.4-0.2-0.6l-0.1-0.2l-0.4-1.4V249
		c0-0.2-0.1-0.4-0.1-0.7v-0.1l-0.1-0.7v-0.1c0-0.2,0-0.5-0.1-0.7V245l0.1-1.5l0.3-1.5l1.7,0.3l-1.7-0.4c0.1-0.5,0.3-1,0.4-1.4
		c0.4-1.2,0.9-2.3,1.6-3.4l0.8-1.2v-0.1c0.5-0.6,1-1.2,1.6-1.8l0.4-0.4c0.6-0.5,1.2-1,1.8-1.4h0.1l0.4-0.3h0.1
		c0.1-0.1,0.3-0.2,0.4-0.2c0.5-0.3,1-0.5,1.6-0.7h0.1l0.5-0.2h0.1c0.2-0.1,0.3-0.1,0.5-0.1l1.2-0.3h0.1c0.2,0,0.4,0,0.5-0.1h1.8
		c1.2-3.1,4.4-7.2,10.8-7.2c0.8,0,1.5,0.1,2.4,0.2c0.1-0.6,0.3-1.2,0.6-1.9l0.5-1.3V220c0.1-0.1,0.1-0.2,0.2-0.4l0.4-0.8l0.1-0.1
		c0.1-0.1,0.1-0.2,0.2-0.4l0.8-1.4c0.1-0.1,0.2-0.2,0.2-0.3l0.1-0.1c0.3-0.5,0.7-0.9,1.1-1.4c0.8-0.9,1.7-1.6,2.6-2.3h0.1
		c0.4-0.3,0.9-0.6,1.4-0.9h0.1l0.7-0.4h0.1c0.3-0.1,0.5-0.2,0.8-0.4h0.1l0.8-0.3l0.3-0.1l0.7-0.2l0.3-0.1h0.1l0.4-0.1h0.2l0.5-0.1
		l0.3-0.1c0.1,0,0.3-0.1,0.5-0.1c0.1,0,0.2,0,0.3-0.1l0.4-0.1c0.1,0,0.2,0,0.3-0.1c0.1,0,0.3,0,0.5-0.1h0.3c0.2,0,0.3,0,0.5-0.1h4.3
		c3.3,0.1,6.3,0.8,8.9,2.1l0.2,0.1l1,0.5h0.1c3.2,1.8,5.1,4.1,6,5.7c1.5-0.5,4-1.2,6.8-1.3h2.2l1,0.1h0.2c0.1,0,0.3,0,0.4,0.1
		c0,0,0.3,0,0.4,0.1l0.4,0.1l0.4,0.1h0.1c0.1,0,0.2,0,0.3,0.1l0.7,0.2c0.1,0,0.1,0,0.2,0.1h0.1l0.5,0.2l0.3,0.1
		c0.2,0.1,0.3,0.2,0.5,0.2h0.1l0.2,0.1c0.3,0.1,0.5,0.3,0.7,0.4l0.2,0.1c0.2,0.1,0.4,0.2,0.6,0.4c0.1,0,0.2,0.2,0.2,0.2
		c0.2,0.1,0.4,0.2,0.5,0.4c0,0,0.2,0.1,0.2,0.2c0.3,0.2,0.5,0.4,0.7,0.6c0.2,0.2,0.4,0.4,0.7,0.6l0.3,0.3c0,0,0.3,0.2,0.3,0.3
		l0.5,0.5l0.1,0.1c3.9,4.2,4.4,8.4,4.3,10.5h3.8c0.2,0,0.4,0,0.6,0.1c0.1,0,0.3,0,0.4,0.1c0.1,0,0.3,0.1,0.3,0.1
		c0.1,0,0.2,0,0.3,0.1c0.1,0,0.2,0,0.3,0.1l0.2,0.1c0.2,0,0.5,0.1,0.7,0.2h0.2l0.4,0.1h0.1c0.5,0.1,1,0.3,1.5,0.5h0.1
		c1.3,0.5,2.5,1.1,3.6,1.9l0.1,0.1c0.2,0.2,0.4,0.3,0.7,0.5c0.2,0.2,0.4,0.4,0.7,0.6l0.1,0.1l0.6,0.6l0.1,0.1l0.7,0.8
		c0.2,0.2,0.3,0.4,0.5,0.7l0.1,0.2l0.3,0.6l0.2,0.3c0.1,0.2,0.2,0.4,0.3,0.5l0.2,0.4c0,0.1,0.1,0.2,0.1,0.2
		c1.9,5.1,0.2,11.7-4.1,15.7c-0.1,0.1-0.3,0.2-0.4,0.4l-0.3,0.3l-0.3,0.2c-0.2,0.1-0.3,0.2-0.5,0.4l-0.3,0.2
		c-0.1,0.1-0.2,0.2-0.4,0.2l-0.5,0.3l-0.3,0.2l-0.3,0.1l-0.1,0.1l-0.3,0.1c-0.1,0-0.3,0.1-0.3,0.1l-0.4,0.2l-0.3,0.1
		c-0.2,0.1-0.4,0.1-0.7,0.2c-0.1,0-0.2,0-0.2,0.1l-0.6,0.1h-0.2l-0.8,0.1c-0.1,0.1-0.1,0.2-0.2,0.2v0.1l-0.2,0.3l-0.1,0.1
		c-0.1,0.1-0.2,0.2-0.2,0.3v0.1l-0.1,0.1l-0.3,0.3l-0.1,0.1l-0.3,0.3l-0.1,0.1c-0.1,0.1-0.2,0.2-0.4,0.3l-0.1,0.1
		c-0.3,0.3-0.7,0.5-1.1,0.8h-0.1l-0.6,0.3H227c-0.5,0.3-1,0.5-1.5,0.7l-0.4,0.1l-0.3,0.1c-0.1,0-0.2,0-0.3,0.1l-0.5,0.1h-0.2
		c-0.1,0-0.2,0-0.4,0.1h-0.2l-0.7,0.1h-1.7c-1.1,0-2.3-0.2-3.5-0.5c0,0.1-0.1,0.2-0.1,0.2v0.1c-0.1,0.2-0.2,0.4-0.3,0.5
		c0,0-0.1,0.2-0.2,0.3l-0.1,0.1l-0.2,0.3v0.1c-0.1,0.2-0.3,0.4-0.4,0.5l-0.1,0.1c-0.1,0.1-0.2,0.2-0.2,0.3l-0.1,0.1l-0.9,1l-0.1,0.1
		l-0.3,0.3h-0.1l-0.7,0.7h-0.1l-0.4,0.3C209.7,272.3,205.8,273.6,201.4,273.6L201.4,273.6z"/>
	<path id="XMLID_1556_" class="st1" d="M165.7,225.2c0,0,1.3-13.9,17-14.4c14.2-0.4,17.6,8.9,17.6,8.9s10.3-4.9,17.6,1.6
		c7.3,6.4,5.3,12.9,5.3,12.9s10.5-1.8,16,5.3s-0.7,19.5-9.2,19.3c0,0-3.4,7.1-13.5,3.8c0,0-4.4,11.1-18.3,9.1c-14-2-14-8.9-14-8.9
		s-5,7.5-14.2,6c-9.2-1.6-9.4-9.3-9.4-9.3s-14.2,4.2-20.4-6.7c-5.7-10,3-22.4,12.1-20.6C152.4,232.1,154.2,222.6,165.7,225.2
		L165.7,225.2z"/>
</g>
<g id="XMLID_13_">
	<path id="XMLID_1786_" class="st0" d="M138.7,291.6c-0.6,0-1.2,0-1.8-0.1h-0.1l-1.5-0.1c-0.6-0.1-1.1-0.1-1.6-0.2l-1.2-0.2h-0.1
		c-6.9-1.2-12.2-3.3-15.9-6.4c-0.4-0.3-0.7-0.6-1-1c-0.3-0.3-0.6-0.6-0.9-1c-0.3-0.3-0.5-0.6-0.7-1l-0.6-0.9v-0.1l-0.2,0.2l-0.2,0.2
		l-0.5,0.4c-0.1,0.1-0.3,0.3-0.5,0.4c0,0-0.4,0.4-0.6,0.5l-0.2,0.2l-0.5,0.4l-0.2,0.1c-0.2,0.1-0.4,0.3-0.5,0.4l-0.2,0.1
		c-0.2,0.1-0.4,0.2-0.5,0.3l-0.2,0.1l-0.7,0.4l-0.2,0.1l-0.6,0.3l-0.2,0.1l-0.8,0.4l-0.1,0.1c-0.3,0.1-0.5,0.2-0.7,0.3l-0.2,0.1
		l-0.9,0.3h-0.1l-0.9,0.3l-0.2,0.1c-0.3,0.1-0.6,0.2-0.9,0.2h-0.1c-0.3,0.1-0.6,0.1-1,0.2h-0.3l-0.9,0.1H100l-1.1,0.1h-2.7
		c-0.4,0-0.7-0.1-1-0.1h-0.3c-0.4,0-0.8-0.1-1.2-0.2c-0.4-0.1-0.8-0.2-1.2-0.2c-0.1,0-0.4-0.1-0.4-0.1l-0.7-0.2l-0.5-0.1
		c-0.2-0.1-0.4-0.1-0.5-0.2l-0.6-0.2c-0.1,0-0.4-0.1-0.4-0.1c-5.8-2.2-8.5-6.3-9.8-9.4v-0.1l-0.3-0.7v-0.1c-0.1-0.2-0.2-0.4-0.2-0.7
		v-0.1l-0.3-1c-0.1,0-0.4,0.1-0.4,0.1c-0.5,0.1-1,0.2-1.6,0.2h-0.1l-1.2,0.1c-0.2,0-0.5,0-0.7,0.1h-0.1c-0.4,0-0.9,0.1-1.4,0.1h-1.7
		c-0.8,0-1.7,0-2.5-0.1H69c-7.5-0.6-13.6-3.9-17.7-9.4l-0.1-0.1c-0.3-0.4-0.6-0.8-0.8-1.2l-0.1-0.1c-0.3-0.5-0.5-0.9-0.8-1.3
		c-0.2-0.3-0.3-0.6-0.5-1l-0.1-0.3c-0.1-0.3-0.2-0.5-0.4-0.8l-0.1-0.2l-0.4-1v-0.1l-0.3-0.9l-0.1-0.2c-0.2-0.7-0.4-1.4-0.5-2.1v-0.2
		c-0.1-0.3-0.1-0.6-0.2-1V254c-0.1-0.3-0.1-0.7-0.1-1v-0.1l-0.1-1v-2.4c0-0.7,0.1-1.5,0.2-2.2v-0.1c0.1-0.8,0.2-1.5,0.4-2.2l2.5,0.5
		l-2.4-0.6l0.6-2.1v-0.1c0.6-1.7,1.3-3.4,2.3-4.9c0.4-0.6,0.7-1.2,1.2-1.8l0.1-0.1c0.7-0.9,1.4-1.8,2.2-2.6c0.2-0.2,0.4-0.4,0.6-0.5
		l0.1-0.1c0.8-0.8,1.7-1.5,2.6-2.1l0.1-0.1l0.6-0.4l0.1-0.1c0.2-0.1,0.4-0.2,0.6-0.4h0.1c0.7-0.4,1.5-0.7,2.2-1h0.1
		c0.2-0.1,0.5-0.2,0.7-0.2h0.1l0.7-0.2h0.2c0.6-0.2,1.1-0.3,1.7-0.4h0.1c0.2,0,0.5-0.1,0.8-0.1h0.2c0.2,0,0.5,0,0.8-0.1h1.4
		c1.7-4.5,6.2-10.5,15.3-10.5c1.1,0,2.2,0.1,3.3,0.3c0.2-0.8,0.5-1.8,0.8-2.8l0.7-1.9v-0.1c0.1-0.2,0.2-0.4,0.2-0.6v-0.1l0.6-1.2
		l0.1-0.2c0.1-0.2,0.2-0.4,0.3-0.5v-0.1l1.2-2v-0.2l0.3-0.5l0.1-0.1c0.5-0.7,1-1.4,1.6-2V205l0.1-0.1c1.1-1.3,2.4-2.4,3.7-3.4
		l0.1-0.1c0.6-0.5,1.3-0.9,2-1.3l0.1-0.1c0.3-0.2,0.7-0.4,1.1-0.6h0.1c0.4-0.2,0.7-0.4,1.1-0.5l0.1-0.1c0.4-0.2,0.8-0.3,1.1-0.5
		c0,0,0.4-0.1,0.4-0.2l0.9-0.3l0.4-0.1h0.1l0.6-0.2l0.3-0.1l0.7-0.2l0.4-0.1c0.2-0.1,0.4-0.1,0.6-0.1l0.4-0.1l0.6-0.1
		c0.2,0,0.3-0.1,0.4-0.1l0.6-0.1c0.1,0,0.3,0,0.4-0.1c0.2,0,0.4-0.1,0.7-0.1h0.4c0.2,0,0.5,0,0.8-0.1h0.4c0.4,0,0.8,0,1.2-0.1h3.3
		c4.7,0.2,9,1.2,12.6,3l0.2,0.1c0.5,0.2,1,0.5,1.4,0.8l0.1,0.1c4.6,2.7,7.2,6.1,8.5,8.3c2.1-0.8,5.6-1.8,9.7-1.9h2.4
		c0.3,0,0.5,0,0.7,0.1h0.2c0.5,0,0.9,0.1,1.4,0.2h0.3c0.2,0,0.4,0.1,0.5,0.1c0,0,0.4,0.1,0.5,0.1l0.6,0.1l0.6,0.1h0.1l0.4,0.1l1,0.3
		l0.3,0.1h0.1l0.7,0.3l0.4,0.2l0.7,0.3l0.1,0.1l0.3,0.1c0.4,0.2,0.7,0.4,1,0.6c0.1,0,0.2,0.1,0.2,0.1c0.3,0.2,0.6,0.3,0.8,0.5
		c0.1,0.1,0.3,0.2,0.3,0.2c0.3,0.2,0.5,0.4,0.7,0.5c0,0,0.2,0.2,0.3,0.2c0.4,0.3,0.7,0.6,1,0.9l0.9,0.9l0.4,0.4l0.4,0.4l0.6,0.7
		l0.1,0.1c5.5,6.2,6.2,12.2,6.2,15.4h4.5c0.2,0,0.4,0,0.6,0.1h0.2l0.8,0.1c0.2,0,0.4,0.1,0.5,0.1s0.5,0.1,0.5,0.1
		c0.1,0,0.3,0,0.4,0.1l0.5,0.1l0.3,0.1c0.3,0.1,0.6,0.1,1,0.2l0.3,0.1l0.6,0.2l0.2,0.1l2.1,0.7h0.1c1.8,0.7,3.5,1.7,5,2.8l0.2,0.1
		c0.3,0.2,0.6,0.5,0.9,0.8l0.1,0.1l0.9,0.9l0.2,0.2l0.8,0.9v0.1l0.2,0.2c0.3,0.4,0.7,0.8,0.9,1.2c0.2,0.3,0.5,0.6,0.7,1l0.2,0.3
		c0.2,0.3,0.3,0.6,0.5,0.8c0.1,0.1,0.2,0.3,0.2,0.5c0.1,0.3,0.2,0.5,0.4,0.8l0.3,0.6c0,0.1,0.1,0.2,0.1,0.4c2.7,7.4,0.2,17.1-5.9,23
		c-0.2,0.2-0.4,0.4-0.6,0.5l-0.5,0.4l-0.4,0.3c-0.2,0.2-0.5,0.4-0.7,0.5l-0.4,0.3c-0.2,0.1-0.4,0.2-0.5,0.3
		c-0.2,0.1-0.4,0.3-0.7,0.4c-0.1,0.1-0.3,0.2-0.5,0.2c-0.1,0.1-0.2,0.1-0.4,0.2l-0.1,0.1l-0.4,0.2c-0.1,0-0.4,0.2-0.4,0.2
		c-0.2,0.1-0.4,0.2-0.6,0.2h-0.1l-0.4,0.2l-0.9,0.3l-0.3,0.1h-0.1c-0.3,0.1-0.6,0.1-0.8,0.2h-0.3c-0.4,0.1-0.7,0.1-1.1,0.1
		c-0.1,0.1-0.2,0.2-0.2,0.3l-0.1,0.1c-0.1,0.1-0.2,0.2-0.3,0.4l-0.1,0.1l-0.3,0.4l-0.1,0.1l-0.1,0.1l-0.4,0.5l-0.1,0.1
		c-0.1,0.1-0.3,0.3-0.5,0.4l-0.1,0.1l-0.5,0.5l-0.1,0.1c-0.5,0.4-1,0.8-1.5,1.1l-0.1,0.1l-0.8,0.5l-0.1,0.1c-0.7,0.4-1.4,0.7-2.1,1
		l-0.6,0.2l-0.4,0.1l-0.4,0.1l-0.7,0.2h-0.1c-0.1,0-0.2,0-0.3,0.1l-0.5,0.1h-0.3c-0.3,0.1-0.7,0.1-1,0.1H168l-1.4,0.1h-0.8
		c-1.6-0.1-3.3-0.3-5-0.8c-0.1,0.1-0.2,0.3-0.2,0.3l-0.1,0.1c-0.1,0.2-0.3,0.5-0.5,0.8c0,0-0.2,0.3-0.3,0.4l-0.1,0.2l-0.3,0.4
		l-0.1,0.1l-0.6,0.8l-0.2,0.2l-0.3,0.4l-0.2,0.2c-0.4,0.5-0.8,1-1.3,1.4l-0.2,0.2l-0.5,0.5l-0.1,0.1l-1.1,1l-0.1,0.1l-0.1,0.1
		l-0.6,0.5l-0.1,0.1C150.3,289.8,144.9,291.6,138.7,291.6L138.7,291.6z"/>
	<path id="XMLID_21_" class="st1" d="M87.9,220.9c0,0,1.8-20.4,24-21.1c20.1-0.6,25,13,25,13s14.6-7.1,25,2.3
		c10.4,9.4,7.5,18.8,7.5,18.8s14.9-2.6,22.7,7.8c7.8,10.4-1,28.6-13,28.3c0,0-4.9,10.4-19.2,5.5c0,0-6.2,16.2-26,13.3
		c-19.8-2.9-19.8-13-19.8-13s-7.1,11-20.1,8.8C81,282.3,80.7,271,80.7,271s-20.1,6.2-28.9-9.7c-8.1-14.7,4.2-32.8,17.2-30.2
		C69.1,230.9,71.7,217,87.9,220.9L87.9,220.9z"/>
</g>
</svg>
