<?xml version="1.0" encoding="utf-8"?>
<!-- Generator: Adobe Illustrator 19.2.1, SVG Export Plug-In . SVG Version: 6.00 Build 0)  -->
<svg version="1.1" id="Layer_1" xmlns="http://www.w3.org/2000/svg" xmlns:xlink="http://www.w3.org/1999/xlink" x="0px" y="0px"
	 viewBox="0 0 142 142" style="enable-background:new 0 0 142 142;" xml:space="preserve">
<style type="text/css">
	.st0{fill:#34495E;}
	.st1{fill:none;}
	.st2{fill:#146190;}
	.st3{fill:#D3D3D3;}
	.st4{fill:#B2B2B2;}
	.st5{fill:#63ACE5;}
	.st6{fill:#ECF0F1;}
	.st7{fill:#074F77;}
	.st8{fill:#3498DB;}
</style>
<g>
	<path class="st0" d="M142,71c0,0.1,0,0.3,0,0.4c-0.1,22.6-10.8,42.6-27.3,55.5c-12,9.4-27.2,15.1-43.7,15.1c-2.7,0-5.4-0.2-8-0.5
		c-35.4-4-63-34.1-63-70.5C0,31.8,31.8,0,71,0c35.6,0,65,26.1,70.2,60.2C141.7,63.7,142,67.3,142,71z"/>
	<g>
		<path class="st1" d="M60.2,97.7c2.1-2.1-0.4-7.5-3.1-12.8c-5.3-2.7-10.7-5.3-12.8-3.1s0.4,7.5,3.1,12.8
			C52.7,97.3,58.1,99.8,60.2,97.7z"/>
		<path class="st1" d="M72.7,85.2c2.1-2.1-0.4-7.5-3.1-12.8c-5.3-2.7-10.7-5.3-12.8-3.1c-2.1,2.1,0.4,7.5,3.1,12.8
			C65.2,84.8,70.6,87.3,72.7,85.2z"/>
		<path class="st1" d="M85.2,72.7c2.1-2.1-0.4-7.5-3.1-12.8c-5.3-2.7-10.7-5.3-12.8-3.1c-2.1,2.1,0.4,7.5,3.1,12.8
			C77.8,72.3,83.1,74.8,85.2,72.7z"/>
		<path class="st1" d="M97.7,60.2c2.1-2.1-0.4-7.5-3.1-12.8c-5.3-2.7-10.7-5.3-12.8-3.1c-2.1,2.1,0.4,7.5,3.1,12.8
			C90.3,59.8,95.6,62.3,97.7,60.2z"/>
		<g>
			<path class="st2" d="M65.7,78.1c0.3-0.3,0.3-0.9-0.1-1.3l-8.7-8.7c-0.4-0.4-1-0.5-1.3-0.1c-0.3,0.3-0.3,0.9,0.1,1.3l8.7,8.7
				C64.8,78.4,65.4,78.4,65.7,78.1z"/>
			<path class="st3" d="M75.1,87.5c0.3-0.3,0.3-0.9-0.1-1.3l-9.6-9.6c-0.4-0.4-1-0.5-1.3-0.1c-0.3,0.3-0.3,0.9,0.1,1.3l9.6,9.6
				C74.2,87.7,74.8,87.8,75.1,87.5z"/>
		</g>
		<g>
			<path class="st4" d="M77,85c0.3-0.3,0.3-0.9-0.1-1.3l-9.6-9.6c-0.4-0.4-1-0.5-1.3-0.1c-0.3,0.3-0.3,0.9,0.1,1.3l9.6,9.6
				C76.1,85.2,76.6,85.3,77,85z"/>
			<path class="st5" d="M67.6,75.6c0.3-0.3,0.3-0.9-0.1-1.3l-8.7-8.7c-0.4-0.4-1-0.5-1.3-0.1c-0.3,0.3-0.3,0.9,0.1,1.3l8.7,8.7
				C66.7,75.8,67.3,75.9,67.6,75.6z"/>
		</g>
		<g>
			<path class="st6" d="M72.6,89.3c0.3-0.3,0.3-0.9-0.1-1.3l-9.6-9.6c-0.4-0.4-1-0.5-1.3-0.1c-0.3,0.3-0.3,0.9,0.1,1.3l9.6,9.6
				C71.7,89.6,72.3,89.6,72.6,89.3z"/>
			<path class="st7" d="M63.2,79.9c0.3-0.3,0.3-0.9-0.1-1.3l-8.7-8.7c-0.4-0.4-1-0.5-1.3-0.1c-0.3,0.3-0.3,0.9,0.1,1.3l8.7,8.7
				C62.3,80.2,62.9,80.2,63.2,79.9z"/>
		</g>
		<g>
			<path class="st2" d="M90.1,52.6c0.3-0.3,0.3-0.9-0.1-1.3l-8.7-8.7c-0.4-0.4-1-0.5-1.3-0.1c-0.3,0.3-0.3,0.9,0.1,1.3l8.7,8.7
				C89.2,52.9,89.8,52.9,90.1,52.6z"/>
			<path class="st3" d="M99.5,62c0.3-0.3,0.3-0.9-0.1-1.3l-9.6-9.6c-0.4-0.4-1-0.5-1.3-0.1c-0.3,0.3-0.3,0.9,0.1,1.3l9.6,9.6
				C98.6,62.2,99.2,62.3,99.5,62z"/>
		</g>
		<g>
			<path class="st4" d="M101.3,59.5c0.3-0.3,0.3-0.9-0.1-1.3l-9.6-9.6c-0.4-0.4-1-0.5-1.3-0.1c-0.3,0.3-0.3,0.9,0.1,1.3l9.6,9.6
				C100.4,59.7,101,59.8,101.3,59.5z"/>
			<path class="st5" d="M92,50.1c0.3-0.3,0.3-0.9-0.1-1.3l-8.7-8.7c-0.4-0.4-1-0.5-1.3-0.1c-0.3,0.3-0.3,0.9,0.1,1.3l8.7,8.7
				C91.1,50.3,91.6,50.4,92,50.1z"/>
		</g>
		<g>
			<path class="st6" d="M97,63.8c0.3-0.3,0.3-0.9-0.1-1.3l-9.6-9.6c-0.4-0.4-1-0.5-1.3-0.1c-0.3,0.3-0.3,0.9,0.1,1.3l9.6,9.6
				C96.1,64.1,96.7,64.1,97,63.8z"/>
			<path class="st7" d="M87.6,54.4c0.3-0.3,0.3-0.9-0.1-1.3l-8.7-8.7c-0.4-0.4-1-0.5-1.3-0.1c-0.3,0.3-0.3,0.9,0.1,1.3l8.7,8.7
				C86.7,54.7,87.3,54.7,87.6,54.4z"/>
		</g>
		<g>
			<path class="st3" d="M77.9,65.6c0.3-0.3,0.3-0.9-0.1-1.3l-8.7-8.7c-0.4-0.4-1-0.5-1.3-0.1c-0.3,0.3-0.3,0.9,0.1,1.3l8.7,8.7
				C77,65.8,77.6,65.9,77.9,65.6z"/>
			<path class="st2" d="M87.3,75c0.3-0.3,0.3-0.9-0.1-1.3l-9.6-9.6c-0.4-0.4-1-0.5-1.3-0.1c-0.3,0.3-0.3,0.9,0.1,1.3l9.6,9.6
				C86.4,75.2,87,75.3,87.3,75z"/>
		</g>
		<g>
			<path class="st7" d="M89.1,72.4c0.3-0.3,0.3-0.9-0.1-1.3l-9.6-9.6c-0.4-0.4-1-0.5-1.3-0.1c-0.3,0.3-0.3,0.9,0.1,1.3l9.6,9.6
				C88.2,72.7,88.8,72.7,89.1,72.4z"/>
			<path class="st6" d="M79.7,63c0.3-0.3,0.3-0.9-0.1-1.3l-8.7-8.7c-0.4-0.4-1-0.5-1.3-0.1c-0.3,0.3-0.3,0.9,0.1,1.3l8.7,8.7
				C78.8,63.3,79.4,63.4,79.7,63z"/>
		</g>
		<g>
			<path class="st5" d="M84.8,76.8c0.3-0.3,0.3-0.9-0.1-1.3l-9.6-9.6c-0.4-0.4-1-0.5-1.3-0.1c-0.3,0.3-0.3,0.9,0.1,1.3l9.6,9.6
				C83.9,77,84.5,77.1,84.8,76.8z"/>
			<path class="st4" d="M75.4,67.4c0.3-0.3,0.3-0.9-0.1-1.3l-8.7-8.7c-0.4-0.4-1-0.5-1.3-0.1c-0.3,0.3-0.3,0.9,0.1,1.3l8.7,8.7
				C74.5,67.7,75.1,67.7,75.4,67.4z"/>
		</g>
		<g>
			<path class="st3" d="M53.5,91c0.3-0.3,0.3-0.9-0.1-1.3l-8.7-8.7c-0.4-0.4-1-0.5-1.3-0.1c-0.3,0.3-0.3,0.9,0.1,1.3l8.7,8.7
				C52.6,91.3,53.2,91.4,53.5,91z"/>
			<path class="st2" d="M62.9,100.4c0.3-0.3,0.3-0.9-0.1-1.3l-9.6-9.6c-0.4-0.4-1-0.5-1.3-0.1c-0.3,0.3-0.3,0.9,0.1,1.3l9.6,9.6
				C62,100.7,62.6,100.7,62.9,100.4z"/>
		</g>
		<g>
			<path class="st7" d="M64.7,97.9c0.3-0.3,0.3-0.9-0.1-1.3L55,87c-0.4-0.4-1-0.5-1.3-0.1c-0.3,0.3-0.3,0.9,0.1,1.3l9.6,9.6
				C63.8,98.2,64.4,98.2,64.7,97.9z"/>
			<path class="st6" d="M55.3,88.5c0.3-0.3,0.3-0.9-0.1-1.3l-8.7-8.7c-0.4-0.4-1-0.5-1.3-0.1c-0.3,0.3-0.3,0.9,0.1,1.3l8.7,8.7
				C54.4,88.8,55,88.8,55.3,88.5z"/>
		</g>
		<g>
			<path class="st5" d="M60.4,102.2c0.3-0.3,0.3-0.9-0.1-1.3l-9.6-9.6c-0.4-0.4-1-0.5-1.3-0.1c-0.3,0.3-0.3,0.9,0.1,1.3l9.6,9.6
				C59.5,102.5,60,102.6,60.4,102.2z"/>
			<path class="st4" d="M51,92.9c0.3-0.3,0.3-0.9-0.1-1.3l-8.7-8.7c-0.4-0.4-1-0.5-1.3-0.1c-0.3,0.3-0.3,0.9,0.1,1.3l8.7,8.7
				C50.1,93.1,50.7,93.2,51,92.9z"/>
		</g>
		<path class="st8" d="M94.6,47.4c0.3,0.1,0.5,0.3,0.8,0.4c1.6,0.8,3.2,1.6,4.8,2.4c5.2,2.4,10.2,3.8,13.3,0.7l-3.3-3.3
			c-2.1,2.1-7.5-0.4-12.8-3.1c-0.3-0.1-0.5-0.3-0.8-0.4c-1.6-0.8-3.2-1.6-4.8-2.4c-5.2-2.4-10.2-3.8-13.3-0.7
			c-3.1,3.1-1.7,8,0.7,13.3c1.6,0.7,3.2,1.6,4.8,2.4c0.3,0.1,0.5,0.3,0.8,0.4c-2.7-5.3-5.3-10.7-3.1-12.8
			C83.9,42.2,89.3,44.7,94.6,47.4z"/>
		<path class="st8" d="M47.4,94.6c-0.3-0.1-0.5-0.3-0.8-0.4c-1.6-0.8-3.2-1.6-4.8-2.4c-5.2-2.4-10.2-3.8-13.3-0.7l3.3,3.3
			c2.1-2.1,7.5,0.4,12.8,3.1c0.3,0.1,0.5,0.3,0.8,0.4c1.6,0.8,3.2,1.7,4.8,2.4c5.2,2.4,10.2,3.8,13.3,0.7c3.1-3.1,1.7-8-0.7-13.3
			c-1.6-0.7-3.2-1.6-4.8-2.4c-0.3-0.1-0.5-0.3-0.8-0.4c2.7,5.3,5.3,10.7,3.1,12.8C58.1,99.8,52.7,97.3,47.4,94.6z"/>
		<path class="st8" d="M72.4,69.6c-0.3-0.1-0.5-0.3-0.8-0.4c-1.6-0.8-3.2-1.6-4.8-2.4c-5.2-2.4-10.2-3.8-13.3-0.7
			c-3.1,3.1-1.7,8,0.7,13.3c1.6,0.7,3.2,1.6,4.8,2.4c0.3,0.1,0.5,0.3,0.8,0.4c-2.7-5.3-5.3-10.7-3.1-12.8c2.1-2.1,7.5,0.4,12.8,3.1
			c0.3,0.1,0.5,0.3,0.8,0.4c1.6,0.8,3.2,1.6,4.8,2.4c5.2,2.4,10.2,3.8,13.3,0.7c3.1-3.1,1.7-8-0.7-13.3c-1.6-0.7-3.2-1.6-4.8-2.4
			c-0.3-0.1-0.5-0.3-0.8-0.4c2.7,5.3,5.3,10.7,3.1,12.8C83.1,74.8,77.8,72.3,72.4,69.6z"/>
		<path class="st6" d="M50.9,113.5c3.1-3.1,1.7-8-0.7-13.3c-1.6-0.7-3.2-1.6-4.8-2.4c-0.3-0.1-0.5-0.3-0.8-0.4
			c2.7,5.3,5.3,10.7,3.1,12.8L50.9,113.5z"/>
		<path class="st6" d="M91.1,28.5c-3.1,3.1-1.7,8,0.7,13.3c1.6,0.7,3.2,1.6,4.8,2.4c0.3,0.1,0.5,0.3,0.8,0.4
			c-2.7-5.3-5.3-10.7-3.1-12.8L91.1,28.5z"/>
		<path class="st6" d="M59.9,82.1c-0.3-0.1-0.5-0.3-0.8-0.4c-1.6-0.8-3.2-1.6-4.8-2.4C49,76.9,44.1,75.5,41,78.5
			c-3.1,3.1-1.7,8,0.7,13.3c1.6,0.7,3.2,1.6,4.8,2.4c0.3,0.1,0.5,0.3,0.8,0.4c-2.7-5.3-5.3-10.7-3.1-12.8s7.5,0.4,12.8,3.1
			c0.3,0.1,0.5,0.3,0.8,0.4c1.6,0.8,3.2,1.6,4.8,2.4c5.2,2.4,10.2,3.8,13.3,0.7c3.1-3.1,1.7-8-0.7-13.3c-1.6-0.7-3.2-1.6-4.8-2.4
			c-0.3-0.1-0.5-0.3-0.8-0.4c2.7,5.3,5.3,10.7,3.1,12.8C70.6,87.3,65.2,84.8,59.9,82.1z"/>
		<path class="st6" d="M84.9,57.1c-0.3-0.1-0.5-0.3-0.8-0.4c-1.6-0.8-3.2-1.6-4.8-2.4C74,51.9,69.1,50.4,66,53.5
			c-3.1,3.1-1.7,8,0.7,13.3c1.6,0.7,3.2,1.6,4.8,2.4c0.3,0.1,0.5,0.3,0.8,0.4c-2.7-5.3-5.3-10.7-3.1-12.8c2.1-2.1,7.5,0.4,12.8,3.1
			c0.3,0.1,0.5,0.3,0.8,0.4c1.6,0.8,3.2,1.6,4.8,2.4c5.2,2.4,10.2,3.8,13.3,0.7c3.1-3.1,1.7-8-0.7-13.3c-1.6-0.7-3.2-1.6-4.8-2.4
			c-0.3-0.1-0.5-0.3-0.8-0.4c2.7,5.3,5.3,10.7,3.1,12.8C95.6,62.3,90.3,59.8,84.9,57.1z"/>
	</g>
</g>
</svg>
