<?xml version="1.0" encoding="utf-8"?>
<!-- Generator: Adobe Illustrator 19.2.1, SVG Export Plug-In . SVG Version: 6.00 Build 0)  -->
<svg version="1.1" id="Layer_1" xmlns="http://www.w3.org/2000/svg" xmlns:xlink="http://www.w3.org/1999/xlink" x="0px" y="0px"
	 viewBox="0 0 142 142" style="enable-background:new 0 0 142 142;" xml:space="preserve">
<style type="text/css">
	.st0{fill:#2980B9;}
	.st1{fill:#FFFFFF;}
</style>
<g>
	<path class="st0" d="M142,71c0,0.1,0,0.3,0,0.4c-0.1,22.6-10.8,42.6-27.3,55.5c-12,9.4-27.2,15.1-43.7,15.1c-2.7,0-5.4-0.2-8-0.5
		c-35.4-4-63-34.1-63-70.5C0,31.8,31.8,0,71,0c35.6,0,65,26.1,70.2,60.2C141.7,63.7,142,67.3,142,71z"/>
	<g>
		<path id="XMLID_4336_" class="st1" d="M41.2,91c-6.1,0-10.9-2-14.9-4.5l4.5-8.8c2.4,1.8,6.5,3.9,9.3,3.9c2.9,0,4.8-1.1,4.8-3.6
			c0-5.7-17.1-4.8-17.1-17.6c0-7,5.6-12.7,12.6-12.7c7,0,10.7,2.1,12.6,3.1l-3,9.2c-1.9-1.3-4.7-2.9-7.5-2.9c-1.9,0-3.4,1.3-3.4,2.8
			c0,4.1,16.9,4.5,16.9,17.3C56,84.7,51.8,91,41.2,91z M75.2,71.7l-4.9-7.6l-4.8,7.6l-7.6,0l8.6-12.9L59,47.7l7.6,0l3.7,5.8l3.8-5.8
			l7.6,0l-7.4,11.1l8.7,12.8L75.2,71.7z"/>
		<g>
			<path class="st1" d="M68.1,93.8l-4.5-6.9h-0.3v6.9h-5.4V73.7h8.2c4.3,0,6.6,2.9,6.6,6.6c0,2.4-2,4.9-3.9,5.7l5.8,7.9H68.1z
				 M65.3,78.1h-2.1v4.4h2c1.2,0,2.3-1,2.3-2.2S67.1,78.1,65.3,78.1z"/>
			<path class="st1" d="M74.4,93.8V73.7H86v4.7h-6.2v3.6h5.4v4.4h-5.4v2.8H86v4.7H74.4z"/>
			<path class="st1" d="M95.3,94.3c-3,0-5.3-1-7.3-2.2l2.2-4.3c1.2,0.9,3.2,1.9,4.6,1.9c1.4,0,2.4-0.6,2.4-1.8
				c0-2.8-8.4-2.4-8.4-8.7c0-3.4,2.8-6.2,6.2-6.2c3.4,0,5.2,1,6.2,1.5l-1.5,4.5c-0.9-0.6-2.3-1.4-3.7-1.4c-0.9,0-1.7,0.6-1.7,1.4
				c0,2,8.3,2.2,8.3,8.5C102.6,91.2,100.5,94.3,95.3,94.3z"/>
			<path class="st1" d="M112.1,78.4v15.4h-5.4V78.4h-3.6v-4.7h12.6v4.7H112.1z"/>
		</g>
	</g>
</g>
</svg>
