<?xml version="1.0" encoding="utf-8"?>
<!-- Generator: Adobe Illustrator 19.2.1, SVG Export Plug-In . SVG Version: 6.00 Build 0)  -->
<svg version="1.1" id="Layer_1" xmlns="http://www.w3.org/2000/svg" xmlns:xlink="http://www.w3.org/1999/xlink" x="0px" y="0px"
	 viewBox="0 0 142 142" style="enable-background:new 0 0 142 142;" xml:space="preserve">
<style type="text/css">
	.st0{fill:#34495E;}
	.st1{fill:#333333;}
	.st2{fill:#C0392B;}
	.st3{opacity:0.7;fill:#FFFFFF;}
	.st4{opacity:0.3;fill:#FFFFFF;}
	.st5{opacity:0.3;fill:url(#SVGID_1_);}
	.st6{fill:#AD2923;}
	.st7{fill:#ECF1F2;}
	.st8{fill:#BABEBF;}
	.st9{fill:#ABAFB0;}
	.st10{fill:#364D5C;}
	.st11{fill:#2A3A48;}
	.st12{fill:#E74C3C;}
	.st13{fill:#F1C411;}
</style>
<g>
	<path class="st0" d="M142,71c0,0.1,0,0.3,0,0.4c-0.1,22.6-10.8,42.6-27.3,55.5c-12,9.4-27.2,15.1-43.7,15.1c-2.7,0-5.4-0.2-8-0.5
		c-35.4-4-63-34.1-63-70.5C0,31.8,31.8,0,71,0c35.6,0,65,26.1,70.2,60.2C141.7,63.7,142,67.3,142,71z"/>
	<g>
		<g>
			<rect x="62.2" y="100.9" class="st1" width="18.1" height="1.6"/>
			<rect x="62.2" y="100.9" class="st2" width="18.1" height="1.6"/>
			<rect x="62.8" y="100.9" class="st3" width="2.4" height="1.6"/>
			<rect x="66.5" y="100.9" class="st4" width="1.5" height="1.6"/>
			
				<radialGradient id="SVGID_1_" cx="3672.677" cy="-2103.1067" r="3.314" gradientTransform="matrix(0.3906 0 0 0.3906 -1355.8488 923.1456)" gradientUnits="userSpaceOnUse">
				<stop  offset="0.5744" style="stop-color:#130C0E"/>
				<stop  offset="0.7977" style="stop-color:#130C0E"/>
				<stop  offset="1" style="stop-color:#130C0E"/>
			</radialGradient>
			<rect x="77.1" y="100.9" class="st5" width="3.3" height="1.6"/>
			<rect x="65.9" y="96.7" class="st6" width="10.7" height="2.1"/>
			<polygon class="st2" points="80.3,100.9 62.2,100.9 65.9,98.5 76.6,98.5 			"/>
		</g>
		<path class="st7" d="M91.1,74.4l-40.3,0.3c-0.6,0-1.1,0.5-1.1,1.1l0.1,6.3c0,0.6,0.5,1.1,1.1,1.1l40.3-0.3c0.6,0,1.1-0.5,1.1-1.1
			l-0.1-6.3C92.3,74.9,91.8,74.3,91.1,74.4z"/>
		<path class="st2" d="M91.1,72.6L50.8,73c-1.6,0-2.8,1.3-2.8,2.9l0.1,6.3c0,1.6,1.3,2.9,2.9,2.9l40.3-0.3c1.6,0,2.8-1.3,2.8-2.9
			L94,75.5C94,73.9,92.7,72.6,91.1,72.6z M93.2,81.8c0,1.1-0.9,2-2,2l-40.3,0.3c-1.1,0-2-0.9-2-2l-0.1-6.3c0-1.1,0.9-2,2-2l40.3-0.3
			c1.1,0,2,0.9,2,2L93.2,81.8z"/>
		<path class="st8" d="M91.1,73.5l-40.3,0.3c-1.1,0-2,0.9-2,2l0.1,6.3c0,1.1,0.9,2,2,2l40.3-0.3c1.1,0,2-0.9,2-2l-0.1-6.3
			C93.1,74.4,92.2,73.5,91.1,73.5z M92.3,81.8c0,0.6-0.5,1.1-1.1,1.1l-40.3,0.3c-0.6,0-1.1-0.5-1.1-1.1l-0.1-6.3
			c0-0.6,0.5-1.1,1.1-1.1l40.3-0.3c0.6,0,1.1,0.5,1.1,1.1L92.3,81.8z"/>
		
			<rect x="66" y="78.4" transform="matrix(1 -8.903949e-03 8.903949e-03 1 -0.6983 0.6847)" class="st9" width="21.1" height="0.7"/>
		<ellipse transform="matrix(1 -8.476055e-03 8.476055e-03 1 -0.6635 0.76)" class="st10" cx="89.3" cy="78.7" rx="2.7" ry="2.7"/>
		<g>
			<g>
				
					<rect x="51.1" y="75.5" transform="matrix(1 -8.501968e-03 8.501968e-03 1 -0.6473 0.4441)" class="st9" width="1.7" height="1.7"/>
				
					<rect x="53.8" y="75.5" transform="matrix(1 -8.505487e-03 8.505487e-03 1 -0.6473 0.4676)" class="st9" width="1.7" height="1.7"/>
				
					<rect x="56.5" y="75.4" transform="matrix(1 -8.898655e-03 8.898655e-03 1 -0.6768 0.5137)" class="st9" width="1.7" height="1.7"/>
				
					<rect x="59.3" y="75.4" transform="matrix(1 -8.491647e-03 8.491647e-03 1 -0.6457 0.5134)" class="st9" width="1.7" height="1.7"/>
				
					<rect x="62.1" y="75.4" transform="matrix(1 -8.481460e-03 8.481460e-03 1 -0.6446 0.537)" class="st9" width="1.7" height="1.7"/>
				
					<rect x="62.2" y="78" transform="matrix(1 -8.502144e-03 8.502144e-03 1 -0.6684 0.5386)" class="st9" width="1.7" height="1.7"/>
				
					<rect x="62.2" y="80.6" transform="matrix(1 -8.483038e-03 8.483038e-03 1 -0.6891 0.5376)" class="st9" width="1.7" height="1.7"/>
				
					<rect x="64.7" y="75.4" transform="matrix(1 -8.477952e-03 8.477952e-03 1 -0.644 0.5585)" class="st9" width="1.7" height="1.7"/>
				
					<rect x="64.7" y="78" transform="matrix(1 -8.501968e-03 8.501968e-03 1 -0.6681 0.5604)" class="st9" width="1.7" height="1.7"/>
				
					<rect x="64.7" y="80.6" transform="matrix(1 -8.479530e-03 8.479530e-03 1 -0.6885 0.5592)" class="st9" width="1.7" height="1.7"/>
			</g>
			<g>
				
					<rect x="51.1" y="78.1" transform="matrix(1 -8.481460e-03 8.481460e-03 1 -0.668 0.4433)" class="st9" width="1.7" height="1.7"/>
				
					<rect x="53.8" y="78.1" transform="matrix(1 -8.484794e-03 8.484794e-03 1 -0.6679 0.4667)" class="st9" width="1.7" height="1.7"/>
				
					<rect x="56.6" y="78.1" transform="matrix(1 -8.091623e-03 8.091623e-03 1 -0.6368 0.4671)" class="st9" width="1.7" height="1.7"/>
				
					<rect x="59.3" y="78" transform="matrix(1 -8.493231e-03 8.493231e-03 1 -0.668 0.5137)" class="st9" width="1.7" height="1.7"/>
			</g>
			<g>
				
					<rect x="51.1" y="80.7" transform="matrix(1 -8.481284e-03 8.481284e-03 1 -0.6901 0.4436)" class="st9" width="1.7" height="1.7"/>
				
					<rect x="53.8" y="80.7" transform="matrix(1 -8.507072e-03 8.507072e-03 1 -0.6919 0.4682)" class="st9" width="1.7" height="1.7"/>
				
					<rect x="56.6" y="80.7" transform="matrix(1 -8.505487e-03 8.505487e-03 1 -0.6915 0.4914)" class="st9" width="1.7" height="1.7"/>
				
					<rect x="59.3" y="80.7" transform="matrix(1 -8.493231e-03 8.493231e-03 1 -0.6902 0.514)" class="st9" width="1.7" height="1.7"/>
			</g>
		</g>
		<g>
			<g>
				
					<rect x="71.6" y="77.3" transform="matrix(1 -8.261287e-03 8.261287e-03 1 -0.6485 0.6059)" class="st11" width="2.9" height="2.9"/>
				
					<rect x="72.1" y="77.9" transform="matrix(1 -8.657161e-03 8.657161e-03 1 -0.6794 0.6351)" class="st2" width="1.8" height="1.7"/>
			</g>
			<g>
				
					<rect x="68" y="77.4" transform="matrix(1 -8.490751e-03 8.490751e-03 1 -0.6668 0.5928)" class="st11" width="2.9" height="2.9"/>
				
					<rect x="68.6" y="78" transform="matrix(1 -8.637030e-03 8.637030e-03 1 -0.6782 0.6031)" class="st2" width="1.8" height="1.7"/>
			</g>
			<g>
				
					<rect x="75.1" y="77.3" transform="matrix(1 -8.492699e-03 8.492699e-03 1 -0.6662 0.6529)" class="st11" width="2.9" height="2.9"/>
				
					<rect x="75.7" y="77.9" transform="matrix(1 -8.658905e-03 8.658905e-03 1 -0.6792 0.6658)" class="st2" width="1.8" height="1.7"/>
			</g>
			<g>
				
					<rect x="78.6" y="77.3" transform="matrix(1 -8.492699e-03 8.492699e-03 1 -0.6658 0.6829)" class="st11" width="2.9" height="2.9"/>
				
					<rect x="79.2" y="77.9" transform="matrix(1 -8.274829e-03 8.274829e-03 1 -0.6488 0.6653)" class="st2" width="1.8" height="1.7"/>
			</g>
			<g>
				
					<rect x="82.1" y="77.3" transform="matrix(1 -8.491776e-03 8.491776e-03 1 -0.6653 0.7128)" class="st11" width="2.9" height="2.9"/>
				
					<rect x="82.7" y="77.8" transform="matrix(1 -8.657161e-03 8.657161e-03 1 -0.6782 0.7268)" class="st2" width="1.8" height="1.7"/>
			</g>
		</g>
		<path class="st7" d="M91.2,86.4l-40.3,0.3c-0.6,0-1.1,0.5-1.1,1.1l0.1,6.3c0,0.6,0.5,1.1,1.1,1.1L91.3,95c0.6,0,1.1-0.5,1.1-1.1
			l-0.1-6.3C92.4,86.9,91.9,86.4,91.2,86.4z"/>
		<path class="st2" d="M91.2,84.6L50.9,85c-1.6,0-2.8,1.3-2.8,2.9l0.1,6.3c0,1.6,1.3,2.9,2.9,2.9l40.3-0.3c1.6,0,2.8-1.3,2.8-2.9
			l-0.1-6.3C94.1,85.9,92.8,84.6,91.2,84.6z M93.3,93.8c0,1.1-0.9,2-2,2L51,96.2c-1.1,0-2-0.9-2-2l-0.1-6.3c0-1.1,0.9-2,2-2
			l40.3-0.3c1.1,0,2,0.9,2,2L93.3,93.8z"/>
		<path class="st8" d="M91.2,85.5l-40.3,0.3c-1.1,0-2,0.9-2,2l0.1,6.3c0,1.1,0.9,2,2,2l40.3-0.3c1.1,0,2-0.9,2-2l-0.1-6.3
			C93.2,86.4,92.3,85.5,91.2,85.5z M92.4,93.8c0,0.6-0.5,1.1-1.1,1.1L51,95.3c-0.6,0-1.1-0.5-1.1-1.1l-0.1-6.3
			c0-0.6,0.5-1.1,1.1-1.1l40.3-0.3c0.6,0,1.1,0.5,1.1,1.1L92.4,93.8z"/>
		
			<rect x="66.5" y="90.5" transform="matrix(1 -8.362973e-03 8.362973e-03 1 -0.7566 0.6476)" class="st9" width="21.1" height="0.7"/>
		
			<ellipse transform="matrix(1 -8.476055e-03 8.476055e-03 1 -0.7655 0.7613)" class="st10" cx="89.4" cy="90.7" rx="2.7" ry="2.7"/>
		<g>
			<g>
				
					<rect x="51.2" y="87.5" transform="matrix(1 -8.481284e-03 8.481284e-03 1 -0.7478 0.4443)" class="st9" width="1.7" height="1.7"/>
				
					<rect x="53.9" y="87.5" transform="matrix(1 -8.898471e-03 8.898471e-03 1 -0.7841 0.4907)" class="st9" width="1.7" height="1.7"/>
				
					<rect x="56.6" y="87.5" transform="matrix(1 -8.484619e-03 8.484619e-03 1 -0.7475 0.491)" class="st9" width="1.7" height="1.7"/>
				
					<rect x="59.4" y="87.4" transform="matrix(1 -8.493231e-03 8.493231e-03 1 -0.7479 0.5148)" class="st9" width="1.7" height="1.7"/>
				
					<rect x="62.2" y="87.4" transform="matrix(1 -8.481284e-03 8.481284e-03 1 -0.7466 0.5383)" class="st9" width="1.7" height="1.7"/>
				
					<rect x="62.3" y="90" transform="matrix(1 -8.481284e-03 8.481284e-03 1 -0.7688 0.5385)" class="st9" width="1.7" height="1.7"/>
				
					<rect x="62.3" y="92.7" transform="matrix(1 -8.501968e-03 8.501968e-03 1 -0.7929 0.5401)" class="st9" width="1.7" height="1.7"/>
				
					<rect x="64.8" y="87.4" transform="matrix(1 -8.481284e-03 8.481284e-03 1 -0.7463 0.56)" class="st9" width="1.7" height="1.7"/>
				
					<rect x="64.8" y="90" transform="matrix(1 -8.894973e-03 8.894973e-03 1 -0.8059 0.5878)" class="st9" width="1.7" height="1.7"/>
				
					<rect x="64.8" y="92.6" transform="matrix(1 -8.481284e-03 8.481284e-03 1 -0.7907 0.5606)" class="st9" width="1.7" height="1.7"/>
			</g>
			<g>
				
					<rect x="51.2" y="90.1" transform="matrix(1 -8.479530e-03 8.479530e-03 1 -0.7698 0.4445)" class="st9" width="1.7" height="1.7"/>
				
					<rect x="53.9" y="90.1" transform="matrix(1 -8.483038e-03 8.483038e-03 1 -0.7698 0.4679)" class="st9" width="1.7" height="1.7"/>
				
					<rect x="56.7" y="90.1" transform="matrix(1 -8.484605e-03 8.484605e-03 1 -0.7697 0.4913)" class="st9" width="1.7" height="1.7"/>
				
					<rect x="59.4" y="90.1" transform="matrix(1 -8.493421e-03 8.493421e-03 1 -0.7702 0.5151)" class="st9" width="1.7" height="1.7"/>
			</g>
			<g>
				
					<rect x="51.2" y="92.7" transform="matrix(1 -8.481284e-03 8.481284e-03 1 -0.7922 0.4449)" class="st9" width="1.7" height="1.7"/>
				
					<rect x="53.9" y="92.7" transform="matrix(1 -8.484794e-03 8.484794e-03 1 -0.7922 0.4683)" class="st9" width="1.7" height="1.7"/>
				
					<rect x="56.7" y="92.7" transform="matrix(1 -8.486374e-03 8.486374e-03 1 -0.792 0.4916)" class="st9" width="1.7" height="1.7"/>
				
					<rect x="59.4" y="92.7" transform="matrix(1 -8.495166e-03 8.495166e-03 1 -0.7926 0.5154)" class="st9" width="1.7" height="1.7"/>
			</g>
		</g>
		<g>
			<g>
				
					<rect x="72.1" y="89.4" transform="matrix(1 -8.492699e-03 8.492699e-03 1 -0.7687 0.6277)" class="st11" width="2.9" height="2.9"/>
				
					<rect x="72.6" y="89.9" transform="matrix(1 -8.257674e-03 8.257674e-03 1 -0.7475 0.6102)" class="st2" width="1.8" height="1.7"/>
			</g>
			<g>
				
					<rect x="68.5" y="89.4" transform="matrix(1 -8.490751e-03 8.490751e-03 1 -0.7689 0.5976)" class="st11" width="2.9" height="2.9"/>
				
					<rect x="69.1" y="90" transform="matrix(1 -8.635292e-03 8.635292e-03 1 -0.7819 0.6078)" class="st2" width="1.8" height="1.7"/>
			</g>
			<g>
				
					<rect x="75.6" y="89.3" transform="matrix(1 -8.491776e-03 8.491776e-03 1 -0.7682 0.6576)" class="st11" width="2.9" height="2.9"/>
				
					<rect x="76.2" y="89.9" transform="matrix(1 -8.657161e-03 8.657161e-03 1 -0.7831 0.6705)" class="st2" width="1.8" height="1.7"/>
			</g>
			<g>
				
					<rect x="79.1" y="89.3" transform="matrix(1 -8.490751e-03 8.490751e-03 1 -0.7677 0.6875)" class="st11" width="2.9" height="2.9"/>
				
					<rect x="79.7" y="89.9" transform="matrix(1 -8.657161e-03 8.657161e-03 1 -0.7827 0.701)" class="st2" width="1.8" height="1.7"/>
			</g>
			<g>
				
					<rect x="82.7" y="89.3" transform="matrix(1 -8.492699e-03 8.492699e-03 1 -0.7675 0.7176)" class="st11" width="2.9" height="2.9"/>
				
					<rect x="83.2" y="89.9" transform="matrix(1 -8.655436e-03 8.655436e-03 1 -0.7822 0.7315)" class="st2" width="1.8" height="1.7"/>
			</g>
		</g>
		<polygon class="st12" points="92,60.9 49.7,61.3 60.3,54.5 81.3,54.4 		"/>
		<path class="st7" d="M91,62.4l-40.3,0.3c-0.6,0-1.1,0.5-1.1,1.1l0.1,6.3c0,0.6,0.5,1.1,1.1,1.1L91.1,71c0.6,0,1.1-0.5,1.1-1.1
			l-0.1-6.3C92.2,62.9,91.7,62.4,91,62.4z"/>
		<path class="st2" d="M91,60.7L50.7,61c-1.6,0-2.8,1.3-2.8,2.9l0.1,6.3c0,1.6,1.3,2.9,2.9,2.9l40.3-0.3c1.6,0,2.8-1.3,2.8-2.9
			l-0.1-6.3C93.9,61.9,92.6,60.6,91,60.7z M93.1,69.8c0,1.1-0.9,2-2,2l-40.3,0.3c-1.1,0-2-0.9-2-2l-0.1-6.3c0-1.1,0.9-2,2-2L91,61.5
			c1.1,0,2,0.9,2,2L93.1,69.8z"/>
		<path class="st8" d="M91,61.5l-40.3,0.3c-1.1,0-2,0.9-2,2l0.1,6.3c0,1.1,0.9,2,2,2l40.3-0.3c1.1,0,2-0.9,2-2L93,63.5
			C93,62.4,92.1,61.5,91,61.5z M92.2,69.8c0,0.6-0.5,1.1-1.1,1.1l-40.3,0.3c-0.6,0-1.1-0.5-1.1-1.1l-0.1-6.3c0-0.6,0.5-1.1,1.1-1.1
			L91,62.4c0.6,0,1.1,0.5,1.1,1.1L92.2,69.8z"/>
		<g>
			<g>
				
					<rect x="51" y="63.5" transform="matrix(1 -8.481284e-03 8.481284e-03 1 -0.5444 0.4417)" class="st9" width="1.7" height="1.7"/>
				
					<rect x="53.7" y="63.5" transform="matrix(1 -8.484794e-03 8.484794e-03 1 -0.5443 0.4651)" class="st9" width="1.7" height="1.7"/>
				
					<rect x="56.4" y="63.5" transform="matrix(1 -8.484794e-03 8.484794e-03 1 -0.544 0.4884)" class="st9" width="1.7" height="1.7"/>
				
					<rect x="59.2" y="63.5" transform="matrix(1 -8.491471e-03 8.491471e-03 1 -0.5441 0.5121)" class="st9" width="1.7" height="1.7"/>
				
					<rect x="62" y="63.4" transform="matrix(1 -8.481460e-03 8.481460e-03 1 -0.5432 0.5357)" class="st9" width="1.7" height="1.7"/>
				
					<rect x="62.1" y="66.1" transform="matrix(1 -8.481460e-03 8.481460e-03 1 -0.5654 0.536)" class="st9" width="1.7" height="1.7"/>
				
					<rect x="62.1" y="68.7" transform="matrix(1 -8.481460e-03 8.481460e-03 1 -0.5876 0.5362)" class="st9" width="1.7" height="1.7"/>
				
					<rect x="64.6" y="63.4" transform="matrix(1 -8.477952e-03 8.477952e-03 1 -0.5427 0.5572)" class="st9" width="1.7" height="1.7"/>
				
					<rect x="64.6" y="66" transform="matrix(1 -8.479530e-03 8.479530e-03 1 -0.565 0.5576)" class="st9" width="1.7" height="1.7"/>
				
					<rect x="64.6" y="68.6" transform="matrix(1 -8.481284e-03 8.481284e-03 1 -0.5873 0.558)" class="st9" width="1.7" height="1.7"/>
			</g>
			<g>
				
					<rect x="51" y="66.1" transform="matrix(1 -8.481284e-03 8.481284e-03 1 -0.5666 0.442)" class="st9" width="1.7" height="1.7"/>
				
					<rect x="53.7" y="66.1" transform="matrix(1 -8.484794e-03 8.484794e-03 1 -0.5665 0.4654)" class="st9" width="1.7" height="1.7"/>
				
					<rect x="56.5" y="66.1" transform="matrix(1 -8.484794e-03 8.484794e-03 1 -0.5662 0.4887)" class="st9" width="1.7" height="1.7"/>
				
					<rect x="59.2" y="66.1" transform="matrix(1 -8.491457e-03 8.491457e-03 1 -0.5663 0.5123)" class="st9" width="1.7" height="1.7"/>
			</g>
			<g>
				
					<rect x="51" y="68.8" transform="matrix(1 -8.479705e-03 8.479705e-03 1 -0.5886 0.4422)" class="st9" width="1.7" height="1.7"/>
				
					<rect x="53.7" y="68.7" transform="matrix(1 -8.484794e-03 8.484794e-03 1 -0.5887 0.4657)" class="st9" width="1.7" height="1.7"/>
				
					<rect x="56.5" y="68.7" transform="matrix(1 -8.484794e-03 8.484794e-03 1 -0.5884 0.489)" class="st9" width="1.7" height="1.7"/>
				
					<rect x="59.2" y="68.7" transform="matrix(1 -8.491471e-03 8.491471e-03 1 -0.5886 0.5126)" class="st9" width="1.7" height="1.7"/>
			</g>
		</g>
		<g>
			
				<rect x="65.9" y="66.5" transform="matrix(1 -8.430682e-03 8.430682e-03 1 -0.5606 0.6466)" class="st9" width="21.1" height="0.7"/>
			<g>
				<g>
					
						<rect x="71.4" y="65.4" transform="matrix(1 -8.504882e-03 8.504882e-03 1 -0.5659 0.6222)" class="st11" width="2.9" height="2.9"/>
					
						<rect x="72" y="66" transform="matrix(1 -8.257856e-03 8.257856e-03 1 -0.5495 0.6041)" class="st2" width="1.8" height="1.7"/>
				</g>
				<g>
					
						<rect x="67.9" y="65.4" transform="matrix(1 -8.492699e-03 8.492699e-03 1 -0.5654 0.5914)" class="st11" width="2.9" height="2.9"/>
					
						<rect x="68.5" y="66" transform="matrix(1 -8.638579e-03 8.638579e-03 1 -0.5751 0.6016)" class="st2" width="1.8" height="1.7"/>
				</g>
				<g>
					
						<rect x="74.9" y="65.4" transform="matrix(1 -8.491776e-03 8.491776e-03 1 -0.5646 0.6513)" class="st11" width="2.9" height="2.9"/>
					
						<rect x="75.5" y="65.9" transform="matrix(1 -8.633554e-03 8.633554e-03 1 -0.574 0.6622)" class="st2" width="1.8" height="1.7"/>
				</g>
				<g>
					
						<rect x="78.5" y="65.3" transform="matrix(1 -8.490751e-03 8.490751e-03 1 -0.5642 0.6812)" class="st11" width="2.9" height="2.9"/>
					
						<rect x="79.1" y="65.9" transform="matrix(1 -8.254547e-03 8.254547e-03 1 -0.5485 0.6622)" class="st2" width="1.8" height="1.7"/>
				</g>
				<g>
					
						<rect x="82" y="65.3" transform="matrix(1 -8.732290e-03 8.732290e-03 1 -0.5797 0.7315)" class="st11" width="2.9" height="2.9"/>
					
						<rect x="82.6" y="65.9" transform="matrix(1 -8.657161e-03 8.657161e-03 1 -0.5748 0.7251)" class="st2" width="1.8" height="1.7"/>
				</g>
			</g>
		</g>
		
			<ellipse transform="matrix(1 -8.483132e-03 8.483132e-03 1 -0.5626 0.7594)" class="st10" cx="89.2" cy="66.7" rx="2.7" ry="2.7"/>
		<ellipse transform="matrix(1 -8.483132e-03 8.483132e-03 1 -0.5626 0.7594)" class="st2" cx="89.2" cy="66.7" rx="2.4" ry="2.4"/>
		<ellipse transform="matrix(1 -8.483132e-03 8.483132e-03 1 -0.664 0.7607)" class="st2" cx="89.3" cy="78.7" rx="2.4" ry="2.4"/>
		<ellipse transform="matrix(1 -8.483132e-03 8.483132e-03 1 -0.7661 0.762)" class="st2" cx="89.4" cy="90.7" rx="2.4" ry="2.4"/>
		<g>
			<path class="st13" d="M72.4,35.8c-0.2-0.2-0.4-0.3-0.7-0.3l-1.4,0c-0.6,0-1,0.5-1,1l0.1,9.4c0,0.3,0.1,0.5,0.3,0.7
				c0.2,0.2,0.5,0.3,0.7,0.3c0,0,0,0,0,0l1.4,0c0.6,0,1-0.5,1-1.1l-0.1-9.4C72.7,36.3,72.6,36,72.4,35.8z"/>
			<path class="st13" d="M51.7,41.3c-0.3-0.5-0.9-0.7-1.4-0.4l-1.2,0.7c-0.2,0.1-0.4,0.4-0.5,0.6c-0.1,0.3,0,0.5,0.1,0.8l4.8,8.1
				c0.2,0.3,0.5,0.5,0.9,0.5c0.2,0,0.4,0,0.5-0.1l1.2-0.7c0.2-0.1,0.4-0.4,0.5-0.6c0.1-0.3,0-0.5-0.1-0.8L51.7,41.3z"/>
			<path class="st13" d="M44.1,60.4l-8.2-4.6c-0.5-0.3-1.1-0.1-1.4,0.4l-0.7,1.2c-0.1,0.2-0.2,0.5-0.1,0.8c0.1,0.3,0.3,0.5,0.5,0.6
				l8.2,4.6c0.2,0.1,0.3,0.1,0.5,0.1c0.4,0,0.7-0.2,0.9-0.5l0.7-1.2c0.1-0.2,0.2-0.5,0.1-0.8C44.5,60.8,44.4,60.6,44.1,60.4z"/>
			<path class="st13" d="M107.8,97.2l-8.2-4.6c-0.2-0.1-0.5-0.2-0.8-0.1c-0.3,0.1-0.5,0.3-0.6,0.5l-0.7,1.2
				c-0.3,0.5-0.1,1.1,0.4,1.4l8.2,4.6c0.2,0.1,0.3,0.1,0.5,0.1c0.1,0,0.2,0,0.3,0c0.3-0.1,0.5-0.3,0.6-0.5l0.7-1.2
				C108.5,98.1,108.3,97.5,107.8,97.2z"/>
			<path class="st13" d="M40,78.7l0-1.4c0-0.3-0.1-0.5-0.3-0.7c-0.2-0.2-0.5-0.3-0.7-0.3l-9.4,0.1c-0.6,0-1,0.5-1,1l0,1.4
				c0,0.3,0.1,0.5,0.3,0.7c0.2,0.2,0.5,0.3,0.7,0.3c0,0,0,0,0,0l9.4-0.1C39.5,79.7,40,79.2,40,78.7z"/>
			<path class="st13" d="M113.5,77.2c0-0.3-0.1-0.5-0.3-0.7c-0.2-0.2-0.5-0.3-0.7-0.3l-9.4,0.1c-0.3,0-0.5,0.1-0.7,0.3
				c-0.2,0.2-0.3,0.5-0.3,0.7l0,1.4c0,0.6,0.5,1,1,1c0,0,0,0,0,0l9.4-0.1c0.6,0,1-0.5,1-1L113.5,77.2z"/>
			<path class="st13" d="M43.7,92.9c-0.1-0.2-0.4-0.4-0.6-0.5c-0.3-0.1-0.5,0-0.8,0.1l-8.1,4.8c-0.5,0.3-0.7,0.9-0.4,1.4l0.7,1.2
				c0.1,0.2,0.4,0.4,0.6,0.5c0.1,0,0.2,0,0.3,0c0.2,0,0.4,0,0.5-0.1l8.1-4.8c0.5-0.3,0.7-0.9,0.4-1.4L43.7,92.9z"/>
			<path class="st13" d="M98.3,63.2c0.1,0.2,0.4,0.4,0.6,0.5c0.1,0,0.2,0,0.3,0c0.2,0,0.4,0,0.5-0.1l8.1-4.8
				c0.2-0.1,0.4-0.4,0.5-0.6c0.1-0.3,0-0.5-0.1-0.8l-0.7-1.2c-0.3-0.5-0.9-0.7-1.4-0.4l-8.1,4.8c-0.5,0.3-0.7,0.9-0.4,1.4L98.3,63.2
				z"/>
			<path class="st13" d="M92.8,41.5l-1.2-0.7c-0.2-0.1-0.5-0.2-0.8-0.1c-0.3,0.1-0.5,0.3-0.6,0.5l-4.6,8.2c-0.3,0.5-0.1,1.1,0.4,1.4
				l1.2,0.7c0.2,0.1,0.3,0.1,0.5,0.1c0.1,0,0.2,0,0.3,0c0.3-0.1,0.5-0.3,0.6-0.5l4.6-8.2C93.5,42.5,93.3,41.8,92.8,41.5z"/>
		</g>
	</g>
</g>
</svg>
