<?xml version="1.0" encoding="utf-8"?>
<!-- Generator: Adobe Illustrator 19.2.1, SVG Export Plug-In . SVG Version: 6.00 Build 0)  -->
<svg version="1.1" id="Layer_1" xmlns="http://www.w3.org/2000/svg" xmlns:xlink="http://www.w3.org/1999/xlink" x="0px" y="0px"
	 viewBox="0 0 142 142" style="enable-background:new 0 0 142 142;" xml:space="preserve">
<style type="text/css">
	.st0{fill:#34495E;}
	.st1{fill:#ECF0F1;}
	.st2{fill:#E74C3C;}
</style>
<g>
	<path class="st0" d="M142,71c0,0.1,0,0.3,0,0.4c-0.1,22.6-10.8,42.6-27.3,55.5c-12,9.4-27.2,15.1-43.7,15.1c-2.7,0-5.4-0.2-8-0.5
		c-35.4-4-63-34.1-63-70.5C0,31.8,31.8,0,71,0c35.6,0,65,26.1,70.2,60.2C141.7,63.7,142,67.3,142,71z"/>
	<g>
		<path class="st1" d="M47,90.9c-0.1-2.3-1-4.4-2.5-6L67,51.7c1.5,1,3.2,1.5,5.1,1.5c1.5,0,2.9-0.4,4.1-1.1l21.4,31.7
			c-1.5,1.6-2.4,3.8-2.4,6.2c0.1,4.9,4.2,8.8,9.1,8.7c4.9-0.1,8.9-4.1,8.8-9c-0.1-4.9-4.1-8.8-9.1-8.7c-1.1,0-2.1,0.2-3.1,0.6
			L79.2,49.4c1.1-1.5,1.7-3.3,1.6-5.3c-0.1-4.9-4.2-8.8-9.1-8.7c-4.9,0.1-8.8,4.1-8.8,9c0,1.6,0.5,3,1.2,4.3l-23,33.9
			c-1-0.4-2.1-0.6-3.3-0.6c-4.9,0.1-8.8,4.1-8.8,9c0.1,4.9,4.1,8.8,9.1,8.7C43.1,99.8,47,95.7,47,90.9z"/>
		<path class="st2" d="M72,54.6c-5.3,0.1-9.7-4.1-9.8-9.4c-0.1-5.3,4.2-9.7,9.5-9.8c5.3-0.1,9.7,4.1,9.8,9.4
			C81.6,50.2,77.3,54.5,72,54.6z"/>
		<path class="st2" d="M104,99c-5.3,0.1-9.7-4.1-9.8-9.4c-0.1-5.3,4.2-9.7,9.5-9.8c5.3-0.1,9.7,4.1,9.8,9.4
			C113.6,94.5,109.3,98.9,104,99z"/>
		<path class="st2" d="M38.3,100.5c-5.3,0.1-9.7-4.1-9.8-9.4c-0.1-5.3,4.2-9.7,9.5-9.8c5.3-0.1,9.7,4.1,9.8,9.4
			C47.9,96.1,43.7,100.4,38.3,100.5z"/>
	</g>
</g>
</svg>
