<?xml version="1.0" encoding="utf-8"?>
<!-- Generator: Adobe Illustrator 19.2.1, SVG Export Plug-In . SVG Version: 6.00 Build 0)  -->
<svg version="1.1" id="Layer_1" xmlns="http://www.w3.org/2000/svg" xmlns:xlink="http://www.w3.org/1999/xlink" x="0px" y="0px"
	 viewBox="0 0 142 142" style="enable-background:new 0 0 142 142;" xml:space="preserve">
<style type="text/css">
	.st0{fill:#E67E22;}
	.st1{fill:#231F20;}
	.st2{fill:#102947;}
	.st3{fill:#F2F2F2;}
	.st4{fill:#FFFFFF;}
	.st5{opacity:0.15;}
	.st6{opacity:0.3;}
	.st7{fill:#27B899;}
	.st8{fill:#EA3924;}
	.st9{fill:#D1D3D4;}
	.st10{fill:#939598;}
	.st11{fill:#29FFF5;}
	.st12{fill:#ABACAD;}
	.st13{fill:#F1F2F2;}
	.st14{fill:#BCBEC0;}
</style>
<g>
	<path class="st0" d="M141.5,79.8c-1.2,9.2-4.2,18.5-9.5,27.4c0,0,0,0,0,0c-11.1,18.8-29.8,30.9-50.2,34.1c-4.8,0.7-9.6,1-14.5,0.7
		C30,140,0,109.2,0,71C0,31.8,31.8,0,70.9,0C115.3,0,146.5,39.5,141.5,79.8z"/>
	<g>
		<g>
			<rect x="42.1" y="43.4" class="st1" width="57.8" height="68.6"/>
			<rect x="42.1" y="42.3" class="st2" width="57.8" height="68.6"/>
			<polygon class="st3" points="97.5,43.9 97.5,108.4 55.8,108.4 44.5,97.1 44.5,43.9 			"/>
			<polygon class="st4" points="44.5,97.1 55.8,108.4 55.8,97.1 			"/>
			<polygon class="st5" points="55.8,97.1 67.1,108.4 55.8,108.4 			"/>
		</g>
		<g>
			<path class="st2" d="M48.7,55.4v10.4h10.4V55.4H48.7z M58.1,64.8h-8.5v-8.5h8.5V64.8z"/>
			<polygon class="st6" points="62.1,57.9 61.4,57.2 54.8,62.3 51.8,60.2 51.1,60.9 53.5,63.3 55.1,64.9 55.1,64.9 55.1,64.9 
				56.5,63.5 56.5,63.5 			"/>
			<rect x="63" y="59" class="st7" width="29.8" height="3.5"/>
			<polygon class="st8" points="61.5,56.5 60.9,55.8 54.2,60.9 51.2,58.8 50.6,59.5 53,61.9 54.5,63.5 54.5,63.5 54.6,63.5 
				55.9,62.1 55.9,62.1 			"/>
		</g>
		<g>
			<path class="st2" d="M48.7,69.3v10.4h10.4V69.3H48.7z M58.1,78.7h-8.5v-8.5h8.5V78.7z"/>
			<polygon class="st6" points="62.1,71.8 61.4,71.1 54.8,76.2 51.8,74.1 51.1,74.8 53.5,77.2 55.1,78.7 55.1,78.7 55.1,78.7 
				56.5,77.4 56.5,77.4 			"/>
			<rect x="63" y="72.9" class="st7" width="29.8" height="3.5"/>
			<polygon class="st8" points="61.5,70.4 60.9,69.7 54.2,74.8 51.2,72.7 50.6,73.4 53,75.8 54.5,77.4 54.5,77.4 54.6,77.4 55.9,76 
				55.9,76 			"/>
		</g>
		<g>
			<path class="st2" d="M48.7,83.2v10.4h10.4V83.2H48.7z M58.1,92.6h-8.5v-8.5h8.5V92.6z"/>
			<polygon class="st6" points="62.1,85.6 61.4,85 54.8,90 51.8,88 51.1,88.6 53.5,91.1 55.1,92.6 55.1,92.6 55.1,92.6 56.5,91.2 
				56.5,91.2 			"/>
			<rect x="63" y="86.8" class="st7" width="29.8" height="3.5"/>
			<polygon class="st8" points="61.5,84.3 60.9,83.6 54.2,88.7 51.2,86.6 50.6,87.3 53,89.7 54.5,91.2 54.5,91.2 54.6,91.2 
				55.9,89.9 55.9,89.9 			"/>
		</g>
		<g>
			<path class="st9" d="M85.9,37.4h-5.8c-0.9,0-1.7-0.7-1.9-1.6c-0.5-3.3-3.3-5.7-6.7-5.7c-3.4,0-6.2,2.5-6.7,5.7
				c-0.1,0.9-0.9,1.6-1.9,1.6h-5.8c-1.5,0-2.7,1.2-2.7,2.7v7.7c0,0.4,0.2,0.8,0.5,1c0.2,0.1,0.4,0.2,0.7,0.2h31.7
				c0.7,0,1.2-0.5,1.2-1.2V40C88.6,38.6,87.4,37.4,85.9,37.4z M70.1,33.4c1.4-0.9,3.4-0.2,4.1,1.4c0.9,2.3-1.4,4.5-3.7,3.6
				c-0.5-0.2-0.8-0.5-0.8-0.5c0,0-0.1-0.1-0.1-0.1v0C68.1,36.5,68.6,34.3,70.1,33.4z"/>
			<path class="st10" d="M54.4,44.3v3.5c0,0.7,0.5,1.2,1.2,1.2h31.7c0.7,0,1.2-0.5,1.2-1.2v-3.5H54.4z"/>
			<path class="st11" d="M75.7,35.7c-0.1-2.2-2-4-4.2-4c0,0,0,0,0,0c-4.6,0-6,6.5-1.4,8.2c0.1,0,0.2,0.1,0.2,0.1
				c0.1,0,0.2,0.1,0.3,0.1c0.1,0,0.1,0,0.2,0c0,0,0,0,0,0c1.1,0.2,2.1,0,3-0.5c0,0,0,0,0,0c1.3-0.8,1.9-2.1,2-3.4c0,0,0-0.1,0-0.2
				C75.7,35.8,75.7,35.7,75.7,35.7z M70.4,38.5c-0.5-0.2-0.8-0.5-0.8-0.5c0,0-0.1-0.1-0.1-0.1v0c-1.4-1.4-0.9-3.6,0.6-4.4
				c1.4-0.9,3.4-0.2,4.1,1.4C75,37.2,72.7,39.4,70.4,38.5z"/>
			<path class="st12" d="M69.5,33.9c1.1-1.1,2.9-1.1,4,0l1-1c-1.6-1.6-4.3-1.6-6,0c-1.6,1.6-1.6,4.3,0,6l1-1
				C68.4,36.8,68.4,35,69.5,33.9z"/>
			<path class="st13" d="M74.5,32.9l-1,1c1.1,1.1,1.1,2.9,0,4c-1.1,1.1-2.9,1.1-4,0l-1,1c1.6,1.6,4.3,1.6,6,0
				C76.1,37.2,76.1,34.5,74.5,32.9z"/>
			<rect x="54.4" y="40" class="st14" width="34.1" height="5.7"/>
		</g>
	</g>
</g>
</svg>
