<?xml version="1.0" encoding="utf-8"?>
<!-- Generator: Adobe Illustrator 19.2.1, SVG Export Plug-In . SVG Version: 6.00 Build 0)  -->
<svg version="1.1" id="Layer_1" xmlns="http://www.w3.org/2000/svg" xmlns:xlink="http://www.w3.org/1999/xlink" x="0px" y="0px"
	 viewBox="0 0 142 142" style="enable-background:new 0 0 142 142;" xml:space="preserve">
<style type="text/css">
	.st0{fill:#E74C3C;}
	.st1{fill:#CCCCCC;}
	.st2{fill:#231F20;}
	.st3{fill:#EA3A25;}
	.st4{fill:#BCBEC0;}
	.st5{fill:#939598;}
	.st6{fill:#414042;}
	.st7{fill:#FFFFFF;}
	.st8{opacity:0.3;}
	.st9{fill:#585858;}
</style>
<g>
	<path class="st0" d="M141.5,79.8c-1.2,9.2-4.2,18.5-9.5,27.4c0,0,0,0,0,0c-11.1,18.8-29.8,30.9-50.2,34.1c-4.8,0.7-9.6,1-14.5,0.7
		C30,140,0,109.2,0,71C0,31.8,31.8,0,70.9,0C115.3,0,146.5,39.5,141.5,79.8z"/>
	<g>
		<path class="st1" d="M71,111c-13.2,0-25.5-6.5-33-17.4c-4.6-6.6-7-14.4-7-22.6c0-22.1,17.9-40,40-40c22.1,0,40,17.9,40,40
			c0,8.1-2.4,15.9-7,22.6C96.5,104.5,84.2,111,71,111z"/>
		<path class="st2" d="M36.5,71C36.5,52,52,36.5,71,36.5c19,0,34.5,15.4,34.5,34.5c0,7.2-2.2,13.9-6,19.4c0,0,0,0,0,0.1
			c-6.2,9.1-16.6,15-28.5,15c-11.8,0-22.2-5.9-28.4-15c0,0,0-0.1,0-0.1C38.7,84.9,36.5,78.2,36.5,71z"/>
		<g>
			<path class="st3" d="M93.1,71c0-12.2-9.9-22.1-22.1-22.1v-5.2C86,43.7,98.3,56,98.3,71H93.1z"/>
			<g>
				<path class="st4" d="M83.6,43.8c0.1-0.2,0.1-0.4,0-0.5c-0.1-0.2-0.2-0.3-0.4-0.4l-1-0.4c-0.3-0.1-0.7,0-0.9,0.4l-3.7,8.9
					c-0.1,0.2-0.1,0.4,0,0.5c0.1,0.2,0.2,0.3,0.4,0.4c0.3,0.1,0.6,0.3,1,0.4c0.2,0.1,0.4,0.1,0.5,0c0.2-0.1,0.3-0.2,0.4-0.4
					L83.6,43.8z"/>
				<path class="st4" d="M60.7,42.9c-0.1-0.3-0.5-0.5-0.9-0.4l-1,0.4c-0.2,0.1-0.3,0.2-0.4,0.4c-0.1,0.2-0.1,0.4,0,0.5l3.7,8.9
					c0.1,0.2,0.2,0.3,0.4,0.4c0.2,0.1,0.4,0.1,0.5,0c0.3-0.1,0.6-0.3,1-0.4c0.2-0.1,0.3-0.2,0.4-0.4c0.1-0.2,0.1-0.4,0-0.5
					L60.7,42.9z"/>
				<path class="st4" d="M43.8,58.4c-0.2-0.1-0.4-0.1-0.5,0c-0.2,0.1-0.3,0.2-0.4,0.4l-0.4,1c-0.1,0.3,0,0.7,0.4,0.9l8.9,3.7
					c0.2,0.1,0.4,0.1,0.5,0c0.2-0.1,0.3-0.2,0.4-0.4c0.1-0.3,0.3-0.6,0.4-1c0.1-0.2,0.1-0.4,0-0.5c-0.1-0.2-0.2-0.3-0.4-0.4
					L43.8,58.4z"/>
				<path class="st4" d="M99.1,60.7c0.3-0.1,0.5-0.5,0.4-0.9l-0.4-1c-0.1-0.2-0.2-0.3-0.4-0.4c-0.2-0.1-0.4-0.1-0.5,0l-8.9,3.7
					c-0.2,0.1-0.3,0.2-0.4,0.4c-0.1,0.2-0.1,0.4,0,0.5c0.1,0.3,0.3,0.6,0.4,1c0.1,0.2,0.2,0.3,0.4,0.4c0.2,0.1,0.4,0.1,0.5,0
					L99.1,60.7z"/>
				<path class="st4" d="M57.5,56.7c0.1-0.1,0.2-0.3,0.2-0.5c0-0.2-0.1-0.4-0.2-0.5L50.7,49c-0.3-0.3-0.7-0.3-1,0L49,49.7
					c-0.1,0.1-0.2,0.3-0.2,0.5c0,0.2,0.1,0.4,0.2,0.5l6.8,6.8c0.1,0.1,0.3,0.2,0.5,0.2c0.2,0,0.4-0.1,0.5-0.2
					C57,57.2,57.2,57,57.5,56.7z"/>
				<path class="st4" d="M71.5,51.3c0.2,0,0.4-0.1,0.5-0.2c0.1-0.1,0.2-0.3,0.2-0.5V41c0-0.4-0.3-0.7-0.7-0.7h-1.1
					c-0.4,0-0.7,0.3-0.7,0.7v9.6c0,0.2,0.1,0.4,0.2,0.5c0.1,0.1,0.3,0.2,0.5,0.2c0.2,0,0.3,0,0.5,0C71.2,51.3,71.3,51.3,71.5,51.3z"
					/>
				<path class="st4" d="M51.3,70.5c0-0.2-0.1-0.4-0.2-0.5c-0.1-0.1-0.3-0.2-0.5-0.2H41c-0.4,0-0.7,0.3-0.7,0.7v1.1
					c0,0.4,0.3,0.7,0.7,0.7h9.6c0.2,0,0.4-0.1,0.5-0.2c0.1-0.1,0.2-0.3,0.2-0.5c0-0.2,0-0.3,0-0.5C51.3,70.8,51.3,70.7,51.3,70.5z"
					/>
				<path class="st4" d="M85.3,57.5c0.1,0.1,0.3,0.2,0.5,0.2c0.2,0,0.4-0.1,0.5-0.2l6.8-6.8c0.3-0.3,0.3-0.7,0-1L92.3,49
					c-0.3-0.3-0.7-0.3-1,0l-6.8,6.8c-0.1,0.1-0.2,0.3-0.2,0.5c0,0.2,0.1,0.4,0.2,0.5C84.8,57,85,57.2,85.3,57.5z"/>
				<path class="st4" d="M90.7,71.5c0,0.2,0.1,0.4,0.2,0.5c0.1,0.1,0.3,0.2,0.5,0.2h9.6c0.4,0,0.7-0.3,0.7-0.7v-1.1
					c0-0.4-0.3-0.7-0.7-0.7h-9.6c-0.2,0-0.4,0.1-0.5,0.2c-0.1,0.1-0.2,0.3-0.2,0.5c0,0.2,0,0.3,0,0.5C90.7,71.2,90.7,71.3,90.7,71.5
					z"/>
			</g>
		</g>
		<g>
			<circle class="st5" cx="71" cy="72.6" r="7.9"/>
			<circle class="st6" cx="71" cy="72.6" r="6.3"/>
			<path class="st7" d="M93.6,47.9C93.6,47.9,93.6,47.9,93.6,47.9c-0.1-0.1-0.3-0.1-0.4,0L67.9,69.7c-0.2,0.2-0.5,0.5-0.7,0.7
				c-1.3,1.8-1,4.3,0.7,5.7c0.1,0.1,0.1,0.1,0.2,0.2c1.9,1.4,4.5,0.9,5.9-0.9l19.6-27.1C93.8,48.2,93.7,48,93.6,47.9z"/>
		</g>
		<path class="st8" d="M71,47c17.3,0,31.6,12.7,34.1,29.2c0.3-1.7,0.4-3.5,0.4-5.2c0-19-15.4-34.5-34.5-34.5
			C52,36.5,36.5,52,36.5,71c0,1.8,0.1,3.5,0.4,5.2C39.4,59.7,53.7,47,71,47z"/>
		<g>
			<path class="st9" d="M99.5,90.4C99.5,90.4,99.5,90.4,99.5,90.4c-6.2,9.1-16.7,15.1-28.5,15.1c-11.8,0-22.2-5.9-28.4-15
				c0,0,0-0.1,0-0.1C59.8,79.3,82.2,79.3,99.5,90.4z"/>
		</g>
	</g>
</g>
</svg>
