<?xml version="1.0" encoding="utf-8"?>
<!-- Generator: Adobe Illustrator 19.2.1, SVG Export Plug-In . SVG Version: 6.00 Build 0)  -->
<svg version="1.1" id="Layer_1" xmlns="http://www.w3.org/2000/svg" xmlns:xlink="http://www.w3.org/1999/xlink" x="0px" y="0px"
	 viewBox="0 0 142 142" style="enable-background:new 0 0 142 142;" xml:space="preserve">
<style type="text/css">
	.st0{fill:#34495E;}
	.st1{fill:#FFFFFF;}
	.st2{fill:#2BCC71;}
</style>
<g>
	<path class="st0" d="M142,71c0,0.1,0,0.3,0,0.4c-0.1,22.6-10.8,42.6-27.3,55.5c-12,9.4-27.2,15.1-43.7,15.1c-2.7,0-5.4-0.2-8-0.5
		c-35.4-4-63-34.1-63-70.5C0,31.8,31.8,0,71,0c35.6,0,65,26.1,70.2,60.2C141.7,63.7,142,67.3,142,71z"/>
	<g>
		<path class="st1" d="M103.1,79.3c-1.8,1.9-2.7,4.3-2.8,6.7L56,94.6c-0.4-1.9-1.4-3.7-2.9-5.2c-1.2-1.2-2.6-2-4.2-2.4l8.2-42.3
			c2.5-0.1,5-1.1,6.8-3c3.8-4,3.7-10.3-0.3-14.1c-4-3.9-10.3-3.8-14.2,0.2c-3.8,4-3.7,10.3,0.3,14.1c0.9,0.9,1.9,1.5,3,2l-8.3,42.9
			c-2,0.3-4,1.3-5.5,2.9c-3.8,4-3.7,10.3,0.3,14.2c4,3.8,10.3,3.8,14.1-0.2c1.2-1.3,2-2.8,2.5-4.4l45.3-8.7c0.5,1.1,1.2,2.2,2.2,3.1
			c4,3.9,10.3,3.8,14.1-0.2c3.8-4,3.7-10.3-0.3-14.1C113.3,75.3,107,75.4,103.1,79.3z"/>
		<path class="st2" d="M54.3,88.2c4.3,4.2,4.5,11,0.3,15.3c-4.1,4.3-11,4.4-15.3,0.2c-4.3-4.2-4.5-11-0.3-15.3
			C43.2,84.2,50,84.1,54.3,88.2z"/>
		<path class="st2" d="M64.2,27.4c4.3,4.2,4.5,11,0.3,15.3c-4.1,4.3-11,4.4-15.3,0.2c-4.3-4.2-4.5-11-0.3-15.3
			C53,23.4,59.9,23.3,64.2,27.4z"/>
		<path class="st2" d="M117.7,78.5c4.3,4.2,4.5,11,0.3,15.3c-4.1,4.3-11,4.4-15.3,0.2c-4.3-4.2-4.5-11-0.3-15.3
			C106.5,74.4,113.4,74.3,117.7,78.5z"/>
	</g>
</g>
</svg>
