<?xml version="1.0" encoding="utf-8"?>
<!-- Generator: Adobe Illustrator 19.2.1, SVG Export Plug-In . SVG Version: 6.00 Build 0)  -->
<svg version="1.1" id="Layer_1" xmlns="http://www.w3.org/2000/svg" xmlns:xlink="http://www.w3.org/1999/xlink" x="0px" y="0px"
	 viewBox="0 0 142 142" style="enable-background:new 0 0 142 142;" xml:space="preserve">
<style type="text/css">
	.st0{fill:#34495E;}
	.st1{fill:#E74C3C;}
</style>
<g>
	<path class="st0" d="M142,71c0,0.1,0,0.3,0,0.4c-0.1,22.6-10.8,42.6-27.3,55.5c-12,9.4-27.2,15.1-43.7,15.1c-2.7,0-5.4-0.2-8-0.5
		c-35.4-4-63-34.1-63-70.5C0,31.8,31.8,0,71,0c35.6,0,65,26.1,70.2,60.2C141.7,63.7,142,67.3,142,71z"/>
	<g>
		<g>
			<polygon class="st1" points="54.5,28.5 54.5,46.6 49.8,41.9 41.4,41.9 41.4,48.6 47.3,54.5 28.5,54.5 28.5,63 63,63 63,28.5 			
				"/>
			<polygon class="st1" points="94.7,54.5 100.6,48.6 100.6,41.9 92.2,41.9 87.5,46.6 87.5,28.5 79,28.5 79,63 113.5,63 113.5,54.5 
							"/>
		</g>
		<g>
			<polygon class="st1" points="79,79 79,113.5 87.5,113.5 87.5,95.4 92.2,100.1 100.6,100.1 100.6,93.4 94.7,87.5 113.5,87.5 
				113.5,79 			"/>
			<polygon class="st1" points="28.5,79 28.5,87.5 47.3,87.5 41.4,93.4 41.4,100.1 49.8,100.1 54.5,95.4 54.5,113.5 63,113.5 63,79 
							"/>
		</g>
	</g>
</g>
</svg>
