<?xml version="1.0" encoding="utf-8"?>
<!-- Generator: Adobe Illustrator 19.2.1, SVG Export Plug-In . SVG Version: 6.00 Build 0)  -->
<svg version="1.1" id="Layer_1" xmlns="http://www.w3.org/2000/svg" xmlns:xlink="http://www.w3.org/1999/xlink" x="0px" y="0px"
	 viewBox="0 0 142 142" style="enable-background:new 0 0 142 142;" xml:space="preserve">
<style type="text/css">
	.st0{fill:#34495E;}
	.st1{fill:#3498DB;}
	.st2{fill:#E74C3C;}
	.st3{fill:#2C3E50;}
	.st4{fill:#16BC9C;}
</style>
<g>
	<path class="st0" d="M142,71c0,0.1,0,0.3,0,0.4c-0.1,22.6-10.8,42.6-27.3,55.5c-12,9.4-27.2,15.1-43.7,15.1c-2.7,0-5.4-0.2-8-0.5
		c-35.4-4-63-34.1-63-70.5C0,31.8,31.8,0,71,0c35.6,0,65,26.1,70.2,60.2C141.7,63.7,142,67.3,142,71z"/>
	<g>
		<path class="st1" d="M43.5,101.5c0,1.4-1.5,2.6-3.3,2.6h-1.6c-1.8,0-3.3-1.1-3.3-2.6V86c0-1.4,1.5-2.6,3.3-2.6h1.6
			c1.8,0,3.3,1.1,3.3,2.6V101.5z"/>
		<path class="st1" d="M58.2,101c0,1.7-1.5,3-3.3,3h-1.6c-1.8,0-3.3-1.3-3.3-3V83c0-1.7,1.5-3,3.3-3h1.6c1.8,0,3.3,1.3,3.3,3V101z"
			/>
		<path class="st1" d="M72.8,100.3c0,2.1-1.5,3.7-3.3,3.7h-1.6c-1.8,0-3.3-1.7-3.3-3.7V77.8c0-2.1,1.5-3.7,3.3-3.7h1.6
			c1.8,0,3.3,1.7,3.3,3.7V100.3z"/>
		<path class="st1" d="M87.6,99.1c0.1,2.7-1.4,4.9-3.2,4.9l-1.6,0c-1.8,0-3.3-2.1-3.4-4.8l-0.6-29.3c-0.1-2.7,1.4-4.9,3.2-4.9l1.6,0
			c1.8,0,3.3,2.1,3.4,4.8L87.6,99.1z"/>
		<path class="st2" d="M102.1,97.8c0,3.4-1.5,6.2-3.3,6.2h-1.6c-1.8,0-3.3-2.8-3.3-6.2V60.3c0-3.4,1.5-6.2,3.3-6.2h1.6
			c1.8,0,3.3,2.8,3.3,6.2V97.8z"/>
		<path class="st3" d="M105.7,110.2c0,1.8-1.5,3.3-3.3,3.3H36.6c-1.8,0-3.3-1.5-3.3-3.3v-0.5c0-1.8,1.5-3.3,3.3-3.3h65.8
			c1.8,0,3.3,1.5,3.3,3.3V110.2z"/>
		<path class="st4" d="M108.5,45l-4.2-14.5c-0.2-0.7-0.7-1.3-1.3-1.6c-0.6-0.4-1.4-0.5-2.1-0.2l-14.5,4.2c-1.4,0.4-2.3,1.9-1.9,3.4
			l0.6,1.9c0.4,1.4,2,2.3,3.4,1.9l4.7-1.4C79.6,56.9,60.6,69,37.9,73.7c-2.1,0.4-3.5,2.2-3.3,4.2c0,0.2,0,0.4,0.1,0.6
			c0.3,2,2.4,3.3,4.6,2.9c25-5.1,46-18.6,60.7-38.9l1.3,4.6c0.4,1.4,1.9,2.3,3.4,1.9l1.9-0.6C108.1,47.9,108.9,46.4,108.5,45z"/>
	</g>
</g>
</svg>
