<?xml version="1.0" encoding="utf-8"?>
<!-- Generator: Adobe Illustrator 19.2.1, SVG Export Plug-In . SVG Version: 6.00 Build 0)  -->
<svg version="1.1" id="Layer_1" xmlns="http://www.w3.org/2000/svg" xmlns:xlink="http://www.w3.org/1999/xlink" x="0px" y="0px"
	 viewBox="0 0 256.6 258.9" style="enable-background:new 0 0 256.6 258.9;" xml:space="preserve">
<style type="text/css">
	.st0{fill:#34495E;}
	.st1{fill:#FFFFFF;}
	.st2{fill:#E18745;}
	.st3{fill:#3DACAF;}
	.st4{fill:#4E2F58;}
	.st5{fill:#5F3C69;}
	.st6{fill:#D0D2D3;}
	.st7{fill:#E6E7E8;}
	.st8{fill:#EDE8C5;}
	.st9{fill:#2C3E50;}
	.st10{opacity:0.31;fill:#4E2F58;}
	.st11{fill:#E3CD9C;}
	.st12{fill:#EBEADC;}
	.st13{opacity:0.32;fill:#FFFFFF;}
	.st14{fill:#DDAD4A;}
	.st15{opacity:0.49;fill:#FFFFFF;}
	.st16{opacity:0.62;fill:#FFFFFF;}
	.st17{opacity:0.3;fill:#E18745;}
	.st18{opacity:0.42;fill:#FFFFFF;}
	.st19{fill:#F39C13;}
	.st20{fill:#ECF0F1;}
	.st21{fill:#F1C411;}
	.st22{fill:#0077BF;}
</style>
<g>
	<polygon class="st0" points="211,85.5 209.8,83.2 208.5,81 207.1,78.8 205.6,76.7 204.1,74.5 202.6,72.5 201,70.4 199.3,68.4 
		197.6,66.5 195.8,64.6 194,62.7 192.1,60.9 190.2,59.1 188.3,57.4 186.3,55.8 184.2,54.2 182.1,52.6 180,51.1 177.8,49.7 
		175.6,48.3 173.4,47 171.1,45.7 168.8,44.5 166.5,43.4 164.1,42.3 161.8,41.3 159.3,40.3 156.9,39.4 154.4,38.6 152,37.8 
		149.4,37.1 146.9,36.5 144.4,35.9 141.8,35.4 139.3,35 136.7,34.6 134.1,34.3 131.5,34.1 129,33.9 126.4,33.9 123.8,33.8 
		121.2,33.9 118.6,34 116,34.2 113.4,34.4 110.8,34.7 108.2,35.1 105.7,35.5 103.1,36.1 100.6,36.6 98.1,37.3 95.6,38 93.1,38.8 
		90.7,39.6 88.2,40.5 85.8,41.5 83.4,42.6 81.1,43.6 78.8,44.8 76.5,46 74.2,47.3 72,48.6 69.8,50 67.6,51.5 65.5,53 63.4,54.6 
		61.4,56.2 59.4,57.9 57.5,59.6 55.6,61.3 53.7,63.2 51.9,65 50.2,67 48.5,68.9 46.8,70.9 45.2,73 43.7,75.1 42.2,77.2 40.7,79.4 
		39.4,81.6 38.1,83.8 36.8,86.1 35.6,88.4 34.5,90.7 33.4,93.1 32.4,95.5 31.4,97.9 30.5,100.3 29.7,102.8 29,105.3 28.3,107.8 
		27.6,110.3 27.1,112.8 26.6,115.4 26.2,118 25.8,120.5 25.5,123.1 25.3,125.7 25.2,128.3 25.1,130.9 25,133.5 25.1,136.1 
		25.2,138.7 25.4,141.3 25.7,143.9 26,146.4 26.4,149 26.8,151.6 27.3,154.1 27.9,156.6 28.6,159.1 29.3,161.6 30.1,164.1 31,166.6 
		31.9,169 32.9,171.4 33.9,173.8 35,176.1 36.2,178.5 37.4,180.8 38.7,183 40,185.2 41.4,187.4 42.9,189.6 44.4,191.7 46,193.7 
		47.6,195.8 49.3,197.8 51,199.7 52.8,201.6 54.6,203.4 56.5,205.2 58.4,207 60.4,208.7 62.4,210.3 64.4,211.9 66.5,213.5 
		68.7,214.9 70.8,216.4 73,217.7 75.3,219 77.6,220.3 79.9,221.5 82.2,222.6 84.6,223.7 87,224.7 89.4,225.6 91.8,226.5 94.3,227.3 
		95.4,223.9 93,223.1 90.7,222.2 88.3,221.3 86,220.4 83.7,219.3 81.5,218.3 79.2,217.1 77.1,215.9 74.9,214.6 72.8,213.3 
		70.7,211.9 68.6,210.5 66.6,209 64.6,207.5 62.7,205.9 60.8,204.3 58.9,202.6 57.1,200.9 55.4,199.1 53.7,197.3 52,195.4 
		50.4,193.5 48.8,191.5 47.3,189.5 45.8,187.5 44.4,185.4 43.1,183.3 41.8,181.2 40.5,179 39.4,176.8 38.2,174.6 37.2,172.3 
		36.2,170 35.2,167.7 34.3,165.3 33.5,163 32.8,160.6 32.1,158.2 31.4,155.8 30.9,153.3 30.4,150.9 29.9,148.4 29.6,145.9 
		29.2,143.5 29,141 28.8,138.5 28.7,136 28.7,133.5 28.7,131 28.8,128.5 28.9,126 29.1,123.5 29.4,121 29.7,118.5 30.1,116 
		30.6,113.6 31.2,111.1 31.8,108.7 32.4,106.3 33.2,103.9 33.9,101.5 34.8,99.2 35.7,96.8 36.7,94.5 37.7,92.2 38.8,90 40,87.8 
		41.2,85.6 42.5,83.4 43.8,81.3 45.2,79.2 46.6,77.2 48.1,75.1 49.6,73.2 51.2,71.2 52.9,69.4 54.5,67.5 56.3,65.7 58.1,64 
		59.9,62.2 61.8,60.6 63.7,59 65.6,57.4 67.6,55.9 69.7,54.5 71.8,53.1 73.9,51.7 76,50.4 78.2,49.2 80.4,48 82.6,46.9 84.9,45.8 
		87.2,44.8 89.5,43.9 91.9,43 94.2,42.2 96.6,41.5 99,40.8 101.5,40.2 103.9,39.6 106.4,39.1 108.8,38.7 111.3,38.3 113.8,38 
		116.3,37.8 118.8,37.6 121.3,37.5 123.8,37.4 126.3,37.5 128.8,37.5 131.3,37.7 133.8,37.9 136.3,38.2 138.7,38.6 141.2,39 
		143.7,39.5 146.1,40 148.5,40.6 150.9,41.3 153.3,42 155.7,42.8 158.1,43.7 160.4,44.6 162.7,45.6 165,46.6 167.2,47.7 169.4,48.9 
		171.6,50.1 173.8,51.4 175.9,52.7 178,54.1 180,55.5 182,57 184,58.6 185.9,60.2 187.8,61.8 189.6,63.5 191.4,65.3 193.2,67.1 
		194.9,68.9 196.6,70.8 198.2,72.7 199.7,74.7 201.2,76.7 202.7,78.7 204,80.8 205.4,82.9 206.7,85 207.9,87.2 211,85.5 	"/>
	<polygon class="st0" points="75.2,214.6 77.3,215.9 79.5,217 81.8,218.2 84,219.2 86.3,220.2 88.7,221.2 91,222.1 93.4,222.9 
		95.7,223.6 98.2,224.3 100.6,225 103,225.5 105.5,226 107.9,226.5 110.4,226.9 112.9,227.2 115.4,227.4 117.9,227.6 120.4,227.7 
		122.9,227.7 125.4,227.7 127.9,227.6 130.4,227.5 132.9,227.3 135.4,227 137.8,226.7 140.3,226.3 142.8,225.8 145.2,225.2 
		147.6,224.6 150.1,224 152.5,223.2 154.8,222.5 157.2,221.6 159.5,220.7 161.8,219.7 164.1,218.7 166.3,217.6 168.6,216.4 
		170.8,215.2 172.9,213.9 175,212.6 177.1,211.2 179.2,209.8 181.2,208.3 183.2,206.8 185.1,205.2 187,203.6 188.8,201.9 
		190.6,200.1 192.4,198.3 194.1,196.5 195.8,194.6 197.4,192.7 198.9,190.8 200.4,188.8 201.9,186.7 203.3,184.6 204.6,182.5 
		205.9,180.4 207.2,178.2 208.3,176 209.4,173.8 210.5,171.5 211.5,169.2 212.4,166.9 213.3,164.5 214.1,162.2 214.9,159.8 
		215.6,157.4 216.2,154.9 216.8,152.5 217.2,150.1 217.7,147.6 218.1,145.1 218.4,142.6 218.6,140.1 218.8,137.6 218.9,135.1 
		218.9,132.6 218.9,130.1 218.8,127.6 218.6,125.1 218.4,122.6 218.1,120.2 217.8,117.7 217.4,115.2 216.9,112.7 216.3,110.3 
		215.7,107.9 215.1,105.5 214.3,103.1 213.5,100.7 212.7,98.4 211.7,96 210.8,93.7 209.7,91.4 208.6,89.2 207.5,87 206.2,84.8 
		205,82.6 203.6,80.5 202.2,78.4 200.8,76.4 199.3,74.4 197.8,72.4 196.2,70.5 194.5,68.6 192.8,66.8 191.1,65 189.3,63.2 
		187.5,61.5 185.6,59.9 183.7,58.3 181.7,56.7 179.7,55.2 177.6,53.7 175.6,52.4 173.5,51 171.3,49.7 169.1,48.5 166.9,47.3 
		164.7,46.2 162.4,45.2 160.1,44.2 157.8,43.3 155.4,42.4 153,41.6 150.7,40.8 148.3,40.2 145.8,39.5 143.4,39 140.9,38.5 
		138.5,38.1 136,37.7 133.5,37.4 131,37.2 128.5,37 126,36.9 123.5,36.9 121,36.9 118.5,37 116,37.2 113.5,37.4 111,37.7 
		108.5,38.1 106.1,38.5 103.6,39 101.2,39.5 102.3,44.2 104.6,43.7 106.9,43.2 109.3,42.8 111.6,42.5 114,42.2 116.4,42 118.7,41.9 
		121.1,41.8 123.5,41.7 125.9,41.8 128.2,41.9 130.6,42 133,42.2 135.3,42.5 137.7,42.9 140,43.3 142.3,43.7 144.7,44.2 147,44.8 
		149.3,45.5 151.5,46.2 153.8,47 156,47.8 158.2,48.7 160.4,49.6 162.5,50.6 164.7,51.7 166.8,52.8 168.8,53.9 170.9,55.1 
		172.9,56.4 174.9,57.7 176.8,59.1 178.7,60.5 180.6,62 182.4,63.5 184.2,65.1 185.9,66.7 187.6,68.4 189.3,70.1 190.9,71.8 
		192.4,73.6 194,75.4 195.4,77.3 196.8,79.2 198.2,81.2 199.5,83.1 200.8,85.2 202,87.2 203.2,89.3 204.3,91.4 205.3,93.5 
		206.3,95.7 207.2,97.9 208.1,100.1 208.9,102.3 209.7,104.6 210.4,106.8 211,109.1 211.6,111.4 212.1,113.7 212.6,116.1 213,118.4 
		213.3,120.8 213.6,123.1 213.8,125.5 213.9,127.9 214,130.2 214,132.6 214,135 213.9,137.4 213.7,139.7 213.5,142.1 213.2,144.5 
		212.9,146.8 212.5,149.1 212,151.5 211.5,153.8 210.9,156.1 210.2,158.4 209.5,160.6 208.7,162.9 207.9,165.1 207,167.3 
		206.1,169.5 205.1,171.6 204,173.8 202.9,175.9 201.7,177.9 200.5,180 199.2,182 197.9,184 196.5,185.9 195.1,187.8 193.6,189.6 
		192.1,191.5 190.5,193.2 188.9,195 187.2,196.7 185.5,198.3 183.7,199.9 181.9,201.5 180.1,203 178.2,204.5 176.3,205.9 
		174.4,207.2 172.4,208.5 170.4,209.8 168.3,211 166.3,212.2 164.1,213.2 162,214.3 159.8,215.3 157.7,216.2 155.4,217.1 
		153.2,217.9 151,218.6 148.7,219.3 146.4,219.9 144.1,220.5 141.8,221 139.4,221.5 137.1,221.9 134.7,222.2 132.4,222.5 130,222.7 
		127.6,222.8 125.3,222.9 122.9,222.9 120.5,222.8 118.1,222.7 115.8,222.6 113.4,222.3 111,222 108.7,221.7 106.4,221.3 104,220.8 
		101.7,220.2 99.4,219.6 97.1,219 94.9,218.3 92.6,217.5 90.4,216.7 88.2,215.8 86,214.8 83.9,213.8 81.7,212.7 79.7,211.6 
		77.6,210.4 	"/>
	<polygon class="st0" points="21.1,195.6 22.8,198.3 24.5,201 26.3,203.6 28.2,206.2 30.2,208.7 32.2,211.1 34.3,213.5 36.4,215.9 
		38.6,218.2 40.9,220.4 43.2,222.6 45.6,224.7 48,226.7 50.5,228.7 53,230.6 55.6,232.5 58.2,234.3 60.9,236 63.6,237.6 66.4,239.2 
		69.2,240.7 72,242.1 74.9,243.4 77.8,244.7 80.8,245.9 83.7,247 86.7,248.1 89.8,249 92.8,249.9 95.9,250.7 99,251.4 102.1,252.1 
		105.2,252.6 108.4,253.1 111.5,253.5 114.7,253.8 117.9,254 121,254.2 124.2,254.2 127.4,254.2 130.6,254.1 133.7,253.9 
		136.9,253.6 140.1,253.3 143.2,252.8 146.3,252.3 149.5,251.7 152.6,251 155.6,250.2 158.7,249.4 161.7,248.5 164.8,247.4 
		167.7,246.4 170.7,245.2 173.6,244 176.5,242.6 179.4,241.2 182.2,239.8 185,238.2 187.7,236.6 190.4,234.9 193.1,233.2 
		195.7,231.4 198.2,229.5 200.7,227.5 203.2,225.5 205.6,223.4 207.9,221.3 210.2,219 212.4,216.8 214.6,214.5 216.7,212.1 
		218.7,209.6 220.7,207.1 222.6,204.6 224.4,202 226.2,199.4 227.9,196.7 229.6,194 231.1,191.2 232.6,188.4 234,185.6 235.4,182.7 
		236.6,179.8 237.8,176.8 238.9,173.8 239.9,170.8 240.9,167.8 241.8,164.7 242.6,161.7 243.3,158.6 243.9,155.4 244.4,152.3 
		244.9,149.2 245.3,146 245.6,142.9 245.8,139.7 245.9,136.5 246,133.3 245.9,130.2 245.8,127 245.6,123.8 245.3,120.6 245,117.5 
		244.5,114.3 244,111.2 243.4,108.1 242.7,105 241.9,101.9 241,98.9 240.1,95.8 239.1,92.8 238,89.8 236.8,86.9 235.6,83.9 
		234.2,81.1 232.8,78.2 231.4,75.4 229.8,72.6 228.2,69.9 226.5,67.2 224.7,64.6 222.9,62 221,59.4 219,56.9 217,54.5 214.9,52.1 
		212.8,49.7 210.5,47.5 208.3,45.3 205.9,43.1 203.6,41 201.1,39 198.6,37 196.1,35.1 193.5,33.3 190.8,31.5 188.2,29.8 185.4,28.2 
		182.6,26.6 179.8,25.1 177,23.7 174.1,22.4 171.2,21.2 168.2,20 165.2,18.9 162.2,17.9 159.2,16.9 156.1,16.1 154.5,22 157.4,22.8 
		160.3,23.7 163.2,24.7 166,25.7 168.8,26.8 171.6,28 174.3,29.3 177,30.6 179.7,32 182.3,33.5 184.9,35 187.5,36.6 190,38.3 
		192.4,40 194.8,41.9 197.2,43.7 199.5,45.7 201.8,47.6 204,49.7 206.2,51.8 208.3,54 210.3,56.2 212.3,58.4 214.2,60.8 216.1,63.1 
		217.9,65.6 219.6,68 221.3,70.5 222.9,73.1 224.5,75.7 225.9,78.3 227.3,81 228.7,83.7 229.9,86.4 231.1,89.2 232.2,92 233.3,94.8 
		234.2,97.7 235.1,100.6 235.9,103.5 236.7,106.4 237.3,109.3 237.9,112.3 238.4,115.3 238.8,118.3 239.2,121.3 239.5,124.3 
		239.7,127.3 239.8,130.3 239.8,133.3 239.8,136.3 239.6,139.3 239.4,142.3 239.1,145.3 238.8,148.3 238.3,151.3 237.8,154.3 
		237.2,157.2 236.6,160.2 235.8,163.1 235,166 234.1,168.9 233.1,171.7 232,174.6 230.9,177.4 229.7,180.1 228.4,182.9 227.1,185.6 
		225.7,188.2 224.2,190.9 222.7,193.4 221,196 219.4,198.5 217.6,201 215.8,203.4 213.9,205.7 212,208 210,210.3 207.9,212.5 
		205.8,214.7 203.7,216.8 201.4,218.8 199.2,220.8 196.8,222.7 194.5,224.5 192,226.3 189.6,228.1 187,229.7 184.5,231.3 
		181.9,232.9 179.3,234.3 176.6,235.7 173.9,237 171.1,238.3 168.3,239.5 165.5,240.6 162.7,241.6 159.9,242.6 157,243.5 
		154.1,244.3 151.1,245 148.2,245.6 145.2,246.2 142.3,246.7 139.3,247.1 136.3,247.5 133.3,247.7 130.3,247.9 127.2,248 124.2,248 
		121.2,248 118.2,247.8 115.2,247.6 112.2,247.3 109.2,247 106.2,246.5 103.2,246 100.3,245.4 97.3,244.7 94.4,244 91.5,243.1 
		88.7,242.2 85.8,241.2 83,240.2 80.2,239 77.4,237.8 74.7,236.5 72,235.2 69.3,233.8 66.7,232.3 64.1,230.7 61.6,229.1 59.1,227.4 
		56.6,225.6 54.2,223.8 51.9,221.9 49.6,220 47.3,218 45.1,215.9 43,213.8 40.9,211.6 38.8,209.4 36.9,207.1 35,204.8 33.1,202.4 
		31.3,200 29.6,197.5 27.9,195 26.3,192.4 	"/>
	<path class="st0" d="M124.3,208c-41.2,0-74.8-33.5-74.8-74.8s33.5-74.8,74.8-74.8c41.2,0,74.8,33.5,74.8,74.8S165.5,208,124.3,208z
		 M124.3,62.4c-39,0-70.8,31.8-70.8,70.8c0,39,31.8,70.8,70.8,70.8s70.8-31.8,70.8-70.8C195.1,94.2,163.3,62.4,124.3,62.4z"/>
	<g>
		<polygon class="st0" points="167.5,180.8 166.3,181.9 165,183 163.7,184 162.3,185.1 160.9,186.1 159.5,187 158.1,187.9 
			156.7,188.8 155.2,189.6 153.7,190.5 152.2,191.2 150.7,191.9 149.1,192.6 147.6,193.3 146,193.9 144.4,194.4 142.8,194.9 
			141.1,195.4 139.5,195.8 137.9,196.2 136.2,196.6 134.5,196.9 132.9,197.1 131.2,197.4 129.5,197.5 127.8,197.7 126.1,197.7 
			124.4,197.8 124.4,195.4 126,195.4 127.7,195.3 129.3,195.2 130.9,195 132.5,194.8 134.1,194.6 135.7,194.3 137.3,193.9 
			138.9,193.6 140.5,193.1 142.1,192.7 143.6,192.2 145.2,191.7 146.7,191.1 148.2,190.5 149.7,189.8 151.2,189.1 152.6,188.4 
			154.1,187.6 155.5,186.8 156.9,185.9 158.2,185 159.6,184.1 160.9,183.2 162.2,182.2 163.5,181.2 164.7,180.1 165.9,179 
			167.1,177.9 168.3,176.8 169.4,175.6 170.5,174.4 171.6,173.1 172.6,171.9 173.6,170.6 174.6,169.2 175.5,167.9 176.4,166.5 
			177.2,165.2 178.1,163.7 178.8,162.3 179.6,160.9 180.3,159.4 181,157.9 181.6,156.4 182.2,154.9 182.7,153.3 183.2,151.8 
			183.7,150.2 184.1,148.6 184.5,147.1 184.8,145.5 185.1,143.9 185.4,142.2 185.6,140.6 185.8,139 185.9,137.4 186,135.8 
			186.1,134.1 186.1,132.5 186,130.9 185.9,129.2 185.8,127.6 185.6,126 185.4,124.4 185.2,122.7 184.9,121.1 184.5,119.5 
			184.2,118 183.7,116.4 183.3,114.8 182.8,113.3 182.2,111.7 181.6,110.2 181,108.7 180.4,107.2 179.7,105.7 178.9,104.3 
			178.1,102.8 177.3,101.4 176.5,100 175.6,98.7 174.7,97.3 173.7,96 172.7,94.7 171.7,93.4 170.6,92.2 169.5,91 168.4,89.8 
			167.3,88.7 166.1,87.5 164.9,86.4 163.6,85.4 162.3,84.4 161.1,83.4 159.7,82.4 158.4,81.5 157,80.6 155.6,79.7 154.2,78.9 
			152.8,78.2 151.3,77.4 149.9,76.7 148.4,76 146.9,75.4 145.3,74.8 143.8,74.3 142.2,73.8 140.7,73.3 139.1,72.9 137.5,72.5 
			135.9,72.2 134.3,71.9 132.7,71.7 131.1,71.4 129.5,71.3 127.8,71.1 126.2,71.1 124.6,71 122.9,71 121.3,71.1 119.7,71.2 
			118.1,71.3 116.4,71.5 114.8,71.7 113.2,71.9 111.6,72.2 110,72.6 108.4,73 106.8,73.4 105.3,73.9 103.7,74.4 102.2,74.9 
			100.7,75.5 99.2,76.1 97.7,76.8 96.2,77.5 94.8,78.2 93.3,79 91.9,79.9 90.5,80.7 89.2,81.6 87.8,82.5 86.5,83.5 85.2,84.5 
			83.9,85.5 82.7,86.6 81.5,87.7 80.3,88.8 79.2,90 78,91.1 77,92.4 75.9,93.6 74.9,94.9 73.9,96.2 72.9,97.5 72,98.8 71.1,100.2 
			70.3,101.6 69.5,103 68.7,104.5 68,105.9 67.3,107.4 66.6,108.9 66,110.4 65.4,111.9 64.9,113.5 64.4,115 63.9,116.6 63.5,118.2 
			63.1,119.8 62.8,121.3 62.5,123 60.2,122.6 60.5,120.9 60.8,119.2 61.2,117.6 61.7,116 62.1,114.3 62.6,112.7 63.2,111.1 
			63.8,109.5 64.4,108 65.1,106.4 65.9,104.9 66.6,103.4 67.4,101.9 68.3,100.4 69.1,99 70.1,97.5 71,96.1 72,94.8 73,93.4 
			74.1,92.1 75.2,90.8 76.3,89.6 77.5,88.3 78.7,87.1 79.9,86 81.1,84.8 82.4,83.7 83.7,82.6 85.1,81.6 86.5,80.6 87.8,79.6 
			89.3,78.7 90.7,77.8 92.2,77 93.7,76.2 95.2,75.4 96.7,74.7 98.2,74 99.8,73.3 101.4,72.7 103,72.1 104.6,71.6 106.2,71.1 
			107.8,70.7 109.5,70.3 111.1,69.9 112.8,69.6 114.5,69.4 116.1,69.1 117.8,69 119.5,68.8 121.2,68.7 122.9,68.7 124.6,68.7 
			126.3,68.7 128,68.8 129.7,68.9 131.4,69.1 133,69.3 134.7,69.6 136.4,69.9 138,70.2 139.7,70.6 141.3,71.1 142.9,71.6 
			144.5,72.1 146.1,72.6 147.7,73.2 149.3,73.9 150.8,74.6 152.4,75.3 153.9,76.1 155.4,76.9 156.8,77.7 158.3,78.6 159.7,79.5 
			161.1,80.5 162.5,81.5 163.8,82.5 165.1,83.6 166.4,84.7 167.7,85.8 168.9,87 170.1,88.2 171.3,89.4 172.4,90.7 173.5,91.9 
			174.6,93.3 175.6,94.6 176.6,96 177.5,97.4 178.5,98.8 179.3,100.2 180.2,101.7 181,103.2 181.8,104.7 182.5,106.2 183.2,107.8 
			183.8,109.3 184.4,110.9 185,112.5 185.5,114.1 186,115.8 186.4,117.4 186.8,119 187.2,120.7 187.5,122.4 187.8,124 188,125.7 
			188.1,127.4 188.3,129.1 188.4,130.8 188.4,132.5 188.4,134.2 188.4,135.8 188.3,137.5 188.1,139.2 187.9,140.9 187.7,142.6 
			187.5,144.3 187.1,145.9 186.8,147.6 186.4,149.2 186,150.9 185.5,152.5 184.9,154.1 184.4,155.7 183.8,157.3 183.1,158.8 
			182.4,160.4 181.7,161.9 180.9,163.4 180.1,164.9 179.3,166.4 178.4,167.8 177.4,169.2 176.5,170.6 175.5,172 174.4,173.3 
			173.4,174.6 172.3,175.9 171.1,177.2 170,178.4 168.8,179.6 167.5,180.8 		"/>
		<polygon class="st0" points="165.9,179 164.7,180.1 163.5,181.2 162.2,182.2 160.9,183.2 159.6,184.1 158.2,185 156.9,185.9 
			155.5,186.8 154.1,187.6 152.6,188.4 151.2,189.1 149.7,189.8 148.2,190.5 146.7,191.1 145.2,191.7 143.6,192.2 142.1,192.7 
			140.5,193.1 138.9,193.6 137.3,193.9 135.7,194.3 134.1,194.6 132.5,194.8 130.9,195 129.3,195.2 127.7,195.3 126,195.4 
			124.4,195.4 124.4,193.8 126,193.7 127.6,193.7 129.2,193.5 130.7,193.4 132.3,193.2 133.9,192.9 135.4,192.7 137,192.3 
			138.5,192 140.1,191.6 141.6,191.1 143.1,190.6 144.6,190.1 146.1,189.5 147.6,188.9 149,188.3 150.5,187.6 151.9,186.9 
			153.3,186.2 154.6,185.4 156,184.5 157.3,183.7 158.7,182.8 159.9,181.9 161.2,180.9 162.4,179.9 163.7,178.9 164.8,177.8 
			166,176.7 167.1,175.6 168.2,174.5 169.3,173.3 170.3,172.1 171.3,170.8 172.3,169.6 173.2,168.3 174.1,167 175,165.7 
			175.8,164.3 176.6,162.9 177.4,161.5 178.1,160.1 178.8,158.7 179.4,157.2 180.1,155.8 180.6,154.3 181.2,152.8 181.7,151.3 
			182.1,149.8 182.5,148.2 182.9,146.7 183.2,145.1 183.5,143.6 183.8,142 184,140.4 184.1,138.9 184.3,137.3 184.4,135.7 
			184.4,134.1 184.4,132.5 184.4,130.9 184.3,129.3 184.2,127.8 184,126.2 183.8,124.6 183.5,123 183.3,121.5 182.9,119.9 
			182.6,118.4 182.1,116.8 181.7,115.3 181.2,113.8 180.7,112.3 180.1,110.8 179.5,109.4 178.9,107.9 178.2,106.5 177.5,105.1 
			176.7,103.7 175.9,102.3 175.1,100.9 174.2,99.6 173.3,98.3 172.4,97 171.4,95.8 170.4,94.5 169.4,93.3 168.3,92.1 167.2,91 
			166.1,89.9 165,88.8 163.8,87.7 162.6,86.7 161.3,85.7 160.1,84.7 158.8,83.8 157.5,82.9 156.1,82 154.8,81.2 153.4,80.4 
			152,79.6 150.6,78.9 149.2,78.2 147.7,77.6 146.3,77 144.8,76.4 143.3,75.9 141.8,75.4 140.2,74.9 138.7,74.5 137.2,74.2 
			135.6,73.8 134,73.6 132.5,73.3 130.9,73.1 129.3,72.9 127.7,72.8 126.1,72.7 124.6,72.7 123,72.7 121.4,72.7 119.8,72.8 
			118.2,73 116.6,73.1 115.1,73.3 113.5,73.6 111.9,73.9 110.4,74.2 108.8,74.6 107.3,75 105.8,75.5 104.3,75.9 102.8,76.5 
			101.3,77.1 99.8,77.7 98.4,78.3 97,79 95.5,79.7 94.1,80.5 92.8,81.3 91.4,82.1 90.1,83 88.8,83.9 87.5,84.8 86.2,85.8 85,86.8 
			83.8,87.8 82.6,88.9 81.5,90 80.4,91.1 79.3,92.3 78.2,93.5 77.2,94.7 76.2,95.9 75.2,97.2 74.3,98.5 73.4,99.8 72.6,101.1 
			71.7,102.5 70.9,103.8 70.2,105.2 69.5,106.7 68.8,108.1 68.2,109.6 67.6,111 67,112.5 66.5,114 66,115.5 65.5,117 65.1,118.6 
			64.8,120.1 64.4,121.7 64.2,123.2 62.5,123 62.8,121.3 63.1,119.8 63.5,118.2 63.9,116.6 64.4,115 64.9,113.5 65.4,111.9 
			66,110.4 66.6,108.9 67.3,107.4 68,105.9 68.7,104.5 69.5,103 70.3,101.6 71.1,100.2 72,98.8 72.9,97.5 73.9,96.2 74.9,94.9 
			75.9,93.6 77,92.4 78,91.1 79.2,90 80.3,88.8 81.5,87.7 82.7,86.6 83.9,85.5 85.2,84.5 86.5,83.5 87.8,82.5 89.2,81.6 90.5,80.7 
			91.9,79.9 93.3,79 94.8,78.2 96.2,77.5 97.7,76.8 99.2,76.1 100.7,75.5 102.2,74.9 103.7,74.4 105.3,73.9 106.8,73.4 108.4,73 
			110,72.6 111.6,72.2 113.2,71.9 114.8,71.7 116.4,71.5 118.1,71.3 119.7,71.2 121.3,71.1 122.9,71 124.6,71 126.2,71.1 
			127.8,71.1 129.5,71.3 131.1,71.4 132.7,71.7 134.3,71.9 135.9,72.2 137.5,72.5 139.1,72.9 140.7,73.3 142.2,73.8 143.8,74.3 
			145.3,74.8 146.9,75.4 148.4,76 149.9,76.7 151.3,77.4 152.8,78.2 154.2,78.9 155.6,79.7 157,80.6 158.4,81.5 159.7,82.4 
			161.1,83.4 162.3,84.4 163.6,85.4 164.9,86.4 166.1,87.5 167.3,88.7 168.4,89.8 169.5,91 170.6,92.2 171.7,93.4 172.7,94.7 
			173.7,96 174.7,97.3 175.6,98.7 176.5,100 177.3,101.4 178.1,102.8 178.9,104.3 179.7,105.7 180.4,107.2 181,108.7 181.6,110.2 
			182.2,111.7 182.8,113.3 183.3,114.8 183.7,116.4 184.2,118 184.5,119.5 184.9,121.1 185.2,122.7 185.4,124.4 185.6,126 
			185.8,127.6 185.9,129.2 186,130.9 186.1,132.5 186.1,134.1 186,135.8 185.9,137.4 185.8,139 185.6,140.6 185.4,142.2 
			185.1,143.9 184.8,145.5 184.5,147.1 184.1,148.6 183.7,150.2 183.2,151.8 182.7,153.3 182.2,154.9 181.6,156.4 181,157.9 
			180.3,159.4 179.6,160.9 178.8,162.3 178.1,163.7 177.2,165.2 176.4,166.5 175.5,167.9 174.6,169.2 173.6,170.6 172.6,171.9 
			171.6,173.1 170.5,174.4 169.4,175.6 168.3,176.8 167.1,177.9 165.9,179 		"/>
	</g>
	<g>
		<polygon class="st0" points="197.6,169.8 196.7,171.7 199.4,173.2 200.4,171.2 201.4,169.2 202.3,167.1 203.2,165.1 204,163 
			204.7,160.9 205.4,158.8 206.1,156.6 206.6,154.5 207.2,152.3 207.7,150.1 208.1,147.9 208.4,145.7 208.7,143.5 209,141.3 
			209.1,139.1 209.3,136.9 209.3,134.6 209.3,132.4 209.3,130.2 209.2,127.9 209,125.7 208.8,123.5 208.5,121.3 208.2,119.1 
			207.8,116.9 207.3,114.7 206.8,112.5 206.2,110.4 205.6,108.2 204.9,106.1 204.2,104 203.4,101.9 202.5,99.9 201.6,97.8 
			200.7,95.8 199.7,93.8 198.6,91.8 197.5,89.9 196.3,88 195.1,86.1 193.9,84.3 192.6,82.5 191.2,80.7 189.8,79 188.4,77.3 
			186.9,75.6 185.3,74 183.8,72.4 182.1,70.9 180.5,69.4 178.8,67.9 177.1,66.5 175.3,65.2 173.5,63.8 171.7,62.6 169.8,61.4 
			167.9,60.2 166,59.1 164,58 162,57 160,56 158,55.1 155.9,54.3 153.8,53.5 151.7,52.7 149.6,52 147.5,51.4 145.3,50.8 143.1,50.3 
			141,49.8 138.8,49.4 136.6,49.1 134.3,48.8 132.1,48.5 129.9,48.4 127.7,48.2 125.4,48.2 123.2,48.2 121,48.2 118.8,48.4 
			116.5,48.5 114.3,48.8 112.1,49.1 109.9,49.4 107.7,49.8 105.5,50.3 103.4,50.8 101.2,51.4 99.1,52 96.9,52.7 94.8,53.4 
			92.8,54.2 90.7,55.1 88.7,56 86.6,57 84.7,58 82.7,59 80.8,60.2 78.9,61.3 77,62.5 75.2,63.8 73.4,65.1 71.6,66.5 69.9,67.9 
			68.2,69.3 66.5,70.8 64.9,72.4 63.3,73.9 61.8,75.6 60.3,77.2 58.8,78.9 57.4,80.7 56.1,82.4 54.8,84.2 53.5,86.1 52.3,88 
			51.1,89.9 50,91.8 49,93.7 48,95.7 47,97.8 46.1,99.8 45.2,101.9 44.4,103.9 43.7,106 43,108.2 42.4,110.3 41.8,112.5 41.3,114.6 
			40.8,116.8 40.4,119 40.1,121.2 39.8,123.4 39.6,125.7 39.4,127.9 39.3,130.1 39.2,132.3 39.3,134.6 39.3,136.8 39.4,139 
			39.6,141.2 39.9,143.5 40.2,145.7 40.5,147.9 40.9,150.1 41.4,152.2 41.9,154.4 42.5,156.6 43.2,158.7 43.8,160.8 44.6,162.9 
			45.4,165 46.3,167.1 47.2,169.1 48.1,171.1 49.2,173.1 50.2,175.1 51.4,177 52.5,178.9 53.8,180.7 55,182.6 56.3,184.4 
			57.7,186.1 59.1,187.9 60.6,189.6 62.1,191.2 63.6,192.8 65.2,194.4 66.8,195.9 68.5,197.4 70.2,198.9 71.9,200.2 73.8,197.8 
			72.2,196.5 70.5,195.1 68.9,193.6 67.4,192.2 65.8,190.7 64.3,189.1 62.9,187.5 61.5,185.9 60.1,184.2 58.8,182.5 57.6,180.8 
			56.3,179 55.1,177.2 54,175.4 52.9,173.5 51.9,171.6 50.9,169.7 50,167.8 49.1,165.8 48.3,163.8 47.5,161.8 46.8,159.8 
			46.1,157.8 45.5,155.7 44.9,153.6 44.4,151.6 44,149.5 43.6,147.3 43.2,145.2 42.9,143.1 42.7,141 42.5,138.8 42.4,136.7 
			42.4,134.5 42.3,132.4 42.4,130.2 42.5,128.1 42.7,125.9 42.9,123.8 43.2,121.7 43.5,119.5 43.9,117.4 44.3,115.3 44.8,113.2 
			45.4,111.1 46,109.1 46.6,107 47.4,105 48.1,103 48.9,101 49.8,99 50.7,97.1 51.7,95.2 52.7,93.3 53.8,91.4 54.9,89.6 56.1,87.8 
			57.3,86 58.6,84.3 59.9,82.6 61.2,80.9 62.6,79.3 64.1,77.7 65.5,76.1 67,74.6 68.6,73.1 70.2,71.7 71.8,70.3 73.5,68.9 
			75.2,67.6 76.9,66.3 78.7,65.1 80.5,63.9 82.3,62.8 84.2,61.7 86.1,60.7 88,59.7 90,58.8 91.9,57.9 93.9,57.1 95.9,56.3 
			97.9,55.6 100,55 102,54.4 104.1,53.8 106.2,53.3 108.3,52.8 110.4,52.5 112.5,52.1 114.7,51.8 116.8,51.6 119,51.4 121.1,51.3 
			123.3,51.3 125.4,51.3 127.6,51.3 129.7,51.4 131.8,51.6 134,51.8 136.1,52.1 138.2,52.5 140.3,52.9 142.5,53.3 144.5,53.8 
			146.6,54.4 148.7,55 150.7,55.6 152.7,56.4 154.8,57.1 156.7,58 158.7,58.8 160.6,59.8 162.6,60.7 164.4,61.8 166.3,62.9 
			168.1,64 169.9,65.2 171.7,66.4 173.4,67.6 175.1,69 176.8,70.3 178.4,71.7 180,73.1 181.6,74.6 183.1,76.2 184.6,77.7 186,79.3 
			187.4,81 188.8,82.6 190.1,84.3 191.3,86.1 192.5,87.9 193.7,89.7 194.8,91.5 195.9,93.4 196.9,95.2 197.9,97.2 198.8,99.1 
			199.7,101.1 200.5,103.1 201.3,105.1 202,107.1 202.6,109.1 203.2,111.2 203.8,113.3 204.3,115.4 204.7,117.5 205.1,119.6 
			205.4,121.7 205.7,123.9 205.9,126 206.1,128.1 206.2,130.3 206.2,132.4 206.2,134.6 206.2,136.7 206.1,138.9 205.9,141 
			205.6,143.2 205.4,145.3 205,147.4 204.6,149.5 204.2,151.6 203.7,153.7 203.1,155.8 202.5,157.8 201.8,159.9 201.1,161.9 
			200.3,163.9 199.5,165.9 198.6,167.9 197.6,169.8 		"/>
		<polygon class="st0" points="194.5,168.2 193.5,170.1 196.7,171.7 197.6,169.8 198.6,167.9 199.5,165.9 200.3,163.9 201.1,161.9 
			201.8,159.9 202.5,157.8 203.1,155.8 203.7,153.7 204.2,151.6 204.6,149.5 205,147.4 205.4,145.3 205.6,143.2 205.9,141 
			206.1,138.9 206.2,136.7 206.2,134.6 206.2,132.4 206.2,130.3 206.1,128.1 205.9,126 205.7,123.9 205.4,121.7 205.1,119.6 
			204.7,117.5 204.3,115.4 203.8,113.3 203.2,111.2 202.6,109.1 202,107.1 201.3,105.1 200.5,103.1 199.7,101.1 198.8,99.1 
			197.9,97.2 196.9,95.2 195.9,93.4 194.8,91.5 193.7,89.7 192.5,87.9 191.3,86.1 190.1,84.3 188.8,82.6 187.4,81 186,79.3 
			184.6,77.7 183.1,76.2 181.6,74.6 180,73.1 178.4,71.7 176.8,70.3 175.1,69 173.4,67.6 171.7,66.4 169.9,65.2 168.1,64 
			166.3,62.9 164.4,61.8 162.6,60.7 160.6,59.8 158.7,58.8 156.7,58 154.8,57.1 152.7,56.4 150.7,55.6 148.7,55 146.6,54.4 
			144.5,53.8 142.5,53.3 140.3,52.9 138.2,52.5 136.1,52.1 134,51.8 131.8,51.6 129.7,51.4 127.6,51.3 125.4,51.3 123.3,51.3 
			121.1,51.3 119,51.4 116.8,51.6 114.7,51.8 112.5,52.1 110.4,52.5 108.3,52.8 106.2,53.3 104.1,53.8 102,54.4 100,55 97.9,55.6 
			95.9,56.3 93.9,57.1 91.9,57.9 90,58.8 88,59.7 86.1,60.7 84.2,61.7 82.3,62.8 80.5,63.9 78.7,65.1 76.9,66.3 75.2,67.6 
			73.5,68.9 71.8,70.3 70.2,71.7 68.6,73.1 67,74.6 65.5,76.1 64.1,77.7 62.6,79.3 61.2,80.9 59.9,82.6 58.6,84.3 57.3,86 
			56.1,87.8 54.9,89.6 53.8,91.4 52.7,93.3 51.7,95.2 50.7,97.1 49.8,99 48.9,101 48.1,103 47.4,105 46.6,107 46,109.1 45.4,111.1 
			44.8,113.2 44.3,115.3 43.9,117.4 43.5,119.5 43.2,121.7 42.9,123.8 42.7,125.9 42.5,128.1 42.4,130.2 42.3,132.4 42.4,134.5 
			42.4,136.7 42.5,138.8 42.7,141 42.9,143.1 43.2,145.2 43.6,147.3 44,149.5 44.4,151.6 44.9,153.6 45.5,155.7 46.1,157.8 
			46.8,159.8 47.5,161.8 48.3,163.8 49.1,165.8 50,167.8 50.9,169.7 51.9,171.6 52.9,173.5 54,175.4 55.1,177.2 56.3,179 
			57.6,180.8 58.8,182.5 60.1,184.2 61.5,185.9 62.9,187.5 64.3,189.1 65.8,190.7 67.4,192.2 68.9,193.6 70.5,195.1 72.2,196.5 
			73.8,197.8 76,195 74.4,193.7 72.9,192.4 71.3,191 69.8,189.6 68.4,188.2 67,186.7 65.6,185.2 64.2,183.6 62.9,182 61.7,180.4 
			60.5,178.7 59.3,177 58.2,175.3 57.1,173.6 56,171.8 55.1,170 54.1,168.2 53.2,166.3 52.4,164.4 51.6,162.5 50.8,160.6 
			50.1,158.7 49.5,156.7 48.9,154.8 48.4,152.8 47.9,150.8 47.5,148.8 47.1,146.7 46.7,144.7 46.5,142.7 46.3,140.6 46.1,138.6 
			46,136.5 45.9,134.5 45.9,132.4 46,130.4 46.1,128.3 46.2,126.3 46.4,124.2 46.7,122.2 47,120.1 47.4,118.1 47.8,116.1 
			48.3,114.1 48.8,112.1 49.4,110.1 50,108.2 50.7,106.2 51.4,104.3 52.2,102.4 53,100.5 53.9,98.7 54.9,96.8 55.8,95 56.9,93.3 
			57.9,91.5 59.1,89.8 60.2,88.1 61.4,86.4 62.7,84.8 64,83.2 65.3,81.6 66.7,80.1 68.1,78.6 69.5,77.1 71,75.7 72.6,74.3 74.1,73 
			75.7,71.7 77.3,70.5 79,69.2 80.7,68.1 82.4,67 84.2,65.9 86,64.9 87.8,63.9 89.6,62.9 91.5,62 93.3,61.2 95.2,60.4 97.2,59.7 
			99.1,59 101,58.4 103,57.8 105,57.2 107,56.8 109,56.3 111,56 113.1,55.6 115.1,55.4 117.2,55.2 119.2,55 121.3,54.9 123.3,54.8 
			125.4,54.8 127.4,54.9 129.5,55 131.5,55.2 133.6,55.4 135.6,55.7 137.6,56 139.7,56.3 141.7,56.8 143.7,57.3 145.7,57.8 
			147.6,58.4 149.6,59 151.5,59.7 153.5,60.4 155.4,61.2 157.2,62.1 159.1,63 160.9,63.9 162.7,64.9 164.5,65.9 166.3,67 168,68.1 
			169.7,69.3 171.3,70.5 173,71.7 174.6,73 176.1,74.4 177.6,75.8 179.1,77.2 180.6,78.6 182,80.1 183.4,81.7 184.7,83.2 186,84.8 
			187.2,86.5 188.4,88.1 189.6,89.8 190.7,91.6 191.8,93.3 192.8,95.1 193.8,96.9 194.7,98.7 195.6,100.6 196.4,102.5 197.2,104.4 
			198,106.3 198.6,108.2 199.3,110.2 199.8,112.2 200.4,114.2 200.8,116.2 201.3,118.2 201.6,120.2 201.9,122.2 202.2,124.3 
			202.4,126.3 202.6,128.4 202.7,130.4 202.7,132.5 202.7,134.5 202.7,136.6 202.5,138.6 202.4,140.7 202.1,142.7 201.9,144.8 
			201.5,146.8 201.2,148.8 200.7,150.8 200.2,152.8 199.7,154.8 199.1,156.8 198.5,158.7 197.8,160.7 197,162.6 196.2,164.5 
			195.4,166.4 194.5,168.2 		"/>
	</g>
	<path class="st0" d="M124.4,244.4c-61.6,0-111.8-50.2-111.8-111.8S62.7,20.8,124.4,20.8S236.2,71,236.2,132.6
		S186,244.4,124.4,244.4z M124.4,25.3c-59.2,0-107.3,48.1-107.3,107.3c0,59.2,48.1,107.3,107.3,107.3c59.2,0,107.3-48.1,107.3-107.3
		C231.7,73.5,183.5,25.3,124.4,25.3z"/>
	<circle class="st1" cx="163.3" cy="15.7" r="15.7"/>
	<circle class="st2" cx="163.3" cy="15.7" r="14.4"/>
	<circle class="st1" cx="186.4" cy="224.9" r="22.4"/>
	<circle class="st3" cx="186.4" cy="224.9" r="20.5"/>
	<path class="st4" d="M198.8,232.6c0,2.1-1.7,3.8-3.8,3.8h-17.2c-2.1,0-3.8-1.7-3.8-3.8v-17.2c0-2.1,1.7-3.8,3.8-3.8h14.9l6.1,5.7
		V232.6z"/>
	<path class="st5" d="M198.8,232.7c0,2-1.6,3.7-3.7,3.7h-16.8c-2,0-3.7-1.6-3.7-3.7v-16.8c0-2,1.6-3.7,3.7-3.7h14.6l5.9,5.6V232.7z"
		/>
	<path class="st1" d="M193.6,223.8h-14.4c-0.7,0-1.2,0.5-1.2,1.2v11.3h16.8V225C194.8,224.4,194.3,223.8,193.6,223.8z"/>
	<path class="st6" d="M192.5,212.2v4c0,1.2-1,2.3-2.3,2.3h-7.6c-0.2,0-0.3,0-0.5,0c-1-0.2-1.8-1.1-1.8-2.2v-4H192.5z"/>
	<rect x="189.5" y="213.3" class="st4" width="1.5" height="3.2"/>
	<rect x="179.6" y="226.2" class="st6" width="13.6" height="0.6"/>
	<rect x="179.6" y="228.1" class="st6" width="13.6" height="0.6"/>
	<path class="st7" d="M186.4,212.2v6.3h-3.8c-0.2,0-0.3,0-0.5,0v-6.2H186.4z"/>
	<path class="st8" d="M164.4,14l-0.4,2.2c-0.1,0.3-0.3,0.4-0.6,0.4l-2.5-0.5c0.2-0.1,0.3-0.3,0.4-0.6c0.3-0.7-0.2-1.6-1-1.7
		c-0.8-0.2-1.6,0.5-1.6,1.2c0,0.2,0,0.5,0.1,0.7l-2.6-0.5c-0.3-0.1-0.4-0.3-0.4-0.6l0.4-2.2c0,0-0.4,0.2-0.6,0.2c-0.1,0-0.2,0-0.4,0
		c-0.7,0-1.3-0.7-1.1-1.5c0.2-0.8,0.9-1.2,1.6-0.9c0.2,0.1,0.4,0.2,0.6,0.4c0,0,0.1,0.2,0.2,0.2l0.5-2.2c0.1-0.3,0.3-0.4,0.6-0.4
		l2.7,0.5c-0.1-0.2-0.2-0.4-0.1-0.7c0-0.7,0.7-1.3,1.5-1.1c0.8,0.2,1.2,0.9,0.9,1.6c-0.1,0.2-0.2,0.4-0.4,0.6l2.6,0.5
		c0.3,0.1,0.4,0.3,0.4,0.6l-0.4,2c-0.2-0.3-0.4-0.5-0.8-0.6c-0.7-0.3-1.5,0.2-1.6,1c-0.2,0.8,0.4,1.6,1.1,1.6
		C163.8,14.3,164.1,14.2,164.4,14C164.4,14,164.4,14,164.4,14L164.4,14z"/>
	<path class="st4" d="M162.9,20.9l-0.4,2.2c-0.1,0.3-0.3,0.4-0.6,0.4l-2.5-0.5c0.2-0.1,0.3-0.3,0.4-0.6c0.3-0.7-0.2-1.6-1-1.7
		c-0.8-0.2-1.6,0.5-1.6,1.2c0,0.2,0,0.5,0.1,0.7l-2.6-0.5c-0.3-0.1-0.4-0.3-0.4-0.6l0.4-2.2c0,0-0.4,0.2-0.5,0.2c-0.1,0-0.2,0-0.4,0
		c-0.7,0-1.3-0.7-1.1-1.5c0.2-0.8,0.9-1.2,1.6-0.9c0.2,0.1,0.4,0.2,0.6,0.4c0,0,0.1,0.2,0.2,0.2l0.4-2.2c0.1-0.3,0.3-0.4,0.6-0.4
		l2.7,0.5c-0.1-0.2-0.2-0.4-0.1-0.7c0-0.7,0.7-1.3,1.5-1.1c0.8,0.2,1.2,0.9,0.9,1.6c-0.1,0.2-0.2,0.4-0.4,0.6l2.6,0.5
		c0.3,0.1,0.4,0.3,0.4,0.6l-0.4,2c-0.2-0.3-0.4-0.5-0.8-0.6c-0.7-0.3-1.5,0.2-1.6,1c-0.2,0.8,0.4,1.6,1.1,1.6
		C162.4,21.2,162.7,21.1,162.9,20.9C162.9,20.9,162.9,20.9,162.9,20.9L162.9,20.9z"/>
	<path class="st3" d="M173.6,21.2l0.2,2.2c0,0.3-0.2,0.5-0.5,0.5l-2.5,0.2c0.1-0.2,0.2-0.4,0.2-0.7c0.1-0.7-0.6-1.4-1.4-1.4
		c-0.8,0.1-1.4,0.9-1.2,1.6c0.1,0.2,0.2,0.4,0.3,0.6l-2.6,0.2c-0.3,0-0.5-0.2-0.5-0.5l-0.2-2.2c0,0-0.3,0.3-0.5,0.4
		c-0.1,0.1-0.2,0.1-0.3,0.1c-0.7,0.2-1.4-0.3-1.5-1.1c-0.1-0.8,0.6-1.4,1.3-1.3c0.2,0,0.5,0.1,0.7,0.2c0,0,0.2,0.1,0.2,0.2l-0.2-2.2
		c0-0.3,0.2-0.5,0.5-0.5l2.8-0.2c-0.2-0.2-0.3-0.4-0.3-0.6c-0.2-0.7,0.3-1.4,1.1-1.5c0.8-0.1,1.4,0.6,1.3,1.3c0,0.3-0.1,0.5-0.2,0.7
		l2.6-0.2c0.3,0,0.5,0.2,0.5,0.5l0.2,2c-0.2-0.2-0.5-0.4-0.9-0.4c-0.7-0.1-1.3,0.6-1.3,1.4c0.1,0.8,0.8,1.4,1.5,1.2
		C173.1,21.7,173.4,21.5,173.6,21.2C173.6,21.2,173.6,21.2,173.6,21.2L173.6,21.2z"/>
	<g>
		<g>
			<path class="st2" d="M161.1,12.9l-0.1-0.4l-1.2-0.2l-0.2,0.4c-0.1,0.1-0.1,0.2-0.2,0.3c0,0-0.1,0.1-0.2,0c-0.1,0-0.1-0.1-0.2-0.1
				c0-0.1-0.1-0.1-0.1-0.2c0,0,0-0.1,0-0.1c0,0,0.1-0.1,0.1-0.2l1.1-1.8c0-0.1,0.1-0.1,0.1-0.2c0-0.1,0.1-0.1,0.1-0.2
				c0,0,0.1-0.1,0.2-0.1c0.1,0,0.1,0,0.2,0c0.1,0,0.2,0,0.2,0.1c0.1,0,0.1,0.1,0.1,0.1c0,0.1,0,0.1,0.1,0.2c0,0.1,0,0.1,0,0.2
				l0.4,2.1c0,0.2,0,0.3,0,0.3c0,0.1-0.1,0.1-0.1,0.2c-0.1,0-0.1,0.1-0.2,0.1c0,0-0.1,0-0.1,0c0,0-0.1-0.1-0.1-0.1
				c0,0,0-0.1-0.1-0.1C161.1,13,161.1,13,161.1,12.9z M160.1,11.9l0.9,0.2l-0.2-1.3L160.1,11.9z"/>
		</g>
	</g>
	<g>
		<g>
			<path class="st8" d="M158.8,20.2L158,20c-0.1,0-0.2-0.1-0.2-0.1c0-0.1,0-0.2,0-0.3l0.4-2.1c0-0.1,0.1-0.2,0.1-0.2
				c0.1,0,0.2-0.1,0.3,0l0.9,0.2c0.1,0,0.2,0.1,0.3,0.1c0.1,0,0.2,0.1,0.2,0.1c0.1,0.1,0.1,0.1,0.1,0.2c0,0.1,0.1,0.1,0.1,0.2
				c0,0.1,0,0.2,0,0.2c-0.1,0.3-0.2,0.5-0.5,0.5c0.3,0.2,0.5,0.5,0.4,0.8c0,0.2-0.1,0.3-0.2,0.4c-0.1,0.1-0.2,0.2-0.4,0.2
				c-0.1,0-0.2,0-0.3,0C159.1,20.2,159,20.2,158.8,20.2z M158.7,17.7l-0.1,0.7l0.5,0.1c0.1,0,0.3,0,0.3,0c0.1,0,0.2,0,0.2-0.1
				c0,0,0.1-0.1,0.1-0.2c0-0.1,0-0.2-0.1-0.3c-0.1-0.1-0.2-0.1-0.4-0.2L158.7,17.7z M159,19l-0.6-0.1l-0.2,0.8l0.6,0.1
				c0.4,0.1,0.6,0,0.7-0.3c0-0.1,0-0.3-0.1-0.3C159.4,19.1,159.2,19,159,19z"/>
		</g>
	</g>
	<g>
		<g>
			<path class="st8" d="M170.1,20.6c0,0.1,0,0.2-0.1,0.3c0,0.1-0.1,0.2-0.2,0.3c-0.1,0.1-0.2,0.2-0.3,0.3c-0.1,0.1-0.3,0.1-0.5,0.1
				c-0.1,0-0.3,0-0.4,0c-0.1,0-0.2-0.1-0.3-0.1c-0.1-0.1-0.2-0.1-0.3-0.2c-0.1-0.1-0.1-0.2-0.2-0.3c-0.1-0.1-0.1-0.2-0.1-0.3
				c0-0.1-0.1-0.3-0.1-0.4c0-0.2,0-0.4,0.1-0.6c0.1-0.2,0.1-0.3,0.3-0.5c0.1-0.1,0.3-0.2,0.4-0.3c0.2-0.1,0.3-0.1,0.5-0.1
				c0.2,0,0.4,0,0.6,0.1c0.2,0.1,0.3,0.2,0.4,0.3c0.1,0.1,0.2,0.3,0.2,0.4c0,0.1,0,0.1-0.1,0.2c0,0.1-0.1,0.1-0.2,0.1
				c-0.1,0-0.1,0-0.2,0c0,0-0.1-0.1-0.1-0.2c-0.1-0.1-0.2-0.2-0.3-0.3c-0.1-0.1-0.2-0.1-0.4-0.1c-0.2,0-0.4,0.1-0.5,0.3
				c-0.1,0.2-0.2,0.4-0.2,0.8c0,0.2,0.1,0.4,0.1,0.5c0.1,0.1,0.2,0.2,0.3,0.3c0.1,0.1,0.2,0.1,0.4,0.1c0.2,0,0.3-0.1,0.4-0.1
				c0.1-0.1,0.2-0.2,0.2-0.4c0-0.1,0-0.1,0.1-0.2c0,0,0.1-0.1,0.2-0.1c0.1,0,0.1,0,0.2,0.1C170,20.4,170.1,20.5,170.1,20.6z"/>
		</g>
	</g>
	<circle class="st1" cx="163.3" cy="15.7" r="15.7"/>
	<circle class="st9" cx="163.3" cy="15.7" r="14.4"/>
	<circle class="st1" cx="186.4" cy="224.9" r="22.4"/>
	<circle class="st9" cx="186.4" cy="224.9" r="20.5"/>
	<circle class="st1" cx="78.6" cy="68.5" r="28.9"/>
	<circle class="st3" cx="78.6" cy="68.5" r="26.5"/>
	<path class="st6" d="M78.7,58.6c0,0,5.1-2.9,10.4-2.6c8.1,0.5,9.3,4.3,9.3,4.3v19.2c0,0,0.1,1.4-0.3,1.7c-0.3,0.3-1.7,0.4-1.7,0.4
		H61.5c0,0-1.7,0.1-2.2-0.4c-0.5-0.5-0.4-2.5-0.4-2.5l-0.2-19c0,0,3-3.8,10.3-3.6C74.4,56.2,78.7,58.6,78.7,58.6z"/>
	<path class="st4" d="M78.2,57.9c0,0,5-2.9,10.2-2.6c7.9,0.5,9.1,4.2,9.1,4.2v18.8c0,0,0.1,1.3-0.3,1.7c-0.3,0.3-1.6,0.4-1.6,0.4
		H61.5c0,0-1.6,0.1-2.1-0.4c-0.5-0.5-0.4-2.5-0.4-2.5l-0.2-18.5c0,0,3-3.7,10-3.6C74,55.7,78.2,57.9,78.2,57.9z"/>
	<path class="st10" d="M78.2,60.1c0,0,4.8-2.5,9.8-2.2c7.6,0.4,8.7,3.7,8.7,3.7v16.5c0,0,0.1,1.2-0.3,1.5c-0.3,0.3-1.6,0.3-1.6,0.3
		H62.1c0,0-1.6,0.1-2-0.3c-0.5-0.4-0.4-2.2-0.4-2.2l-0.1-16.3c0,0,2.8-3.3,9.6-3.1C74.2,58.1,78.2,60.1,78.2,60.1z"/>
	<path class="st11" d="M78.4,58.5c0,0,3.8-2.5,9.6-2.5c6.9,0,8.7,3.2,8.7,3.2v20.7c0,0-4.6-1.7-9.2-1.9c-4.2-0.2-9.2,1.9-9.2,1.9
		V58.5z"/>
	<path class="st12" d="M78.4,58.5c0,0,3.6-2.5,9.2-2.5c6.5,0,8.4,3.2,8.4,3.2v20.7c0,0-4.4-1.7-8.8-1.9c-4-0.2-8.8,1.9-8.8,1.9V58.5
		z"/>
	<path class="st11" d="M78,58.5c0,0-3.8-2.5-9.6-2.5c-6.9,0-8.7,3.2-8.7,3.2v20.7c0,0,4.8-1.5,8.7-1.9c3.9-0.4,9.6,1.9,9.6,1.9V58.5
		z"/>
	<path class="st8" d="M78,58.5c0,0-3.5-2.5-9-2.5c-6.4,0-8.2,3.2-8.2,3.2v20.7c0,0,4.5-1.5,8.2-1.9c3.6-0.4,9,1.9,9,1.9V58.5z"/>
	<path class="st11" d="M93.9,62.2c0,0-2.7-1.9-6.3-1.9c-4.1,0-7.1,1.4-7.2,1.4l0-1c0.1-0.1,2.9-1.3,7.2-1.3c3.8,0,6.1,1.7,6.3,1.7
		L93.9,62.2z"/>
	<path class="st11" d="M93.9,64.6c0,0-2.7-1.9-6.3-1.9c-4.1,0-7.1,1.4-7.2,1.4l0-1c0.1-0.1,2.9-1.3,7.2-1.3c3.8,0,6.1,1.7,6.3,1.7
		L93.9,64.6z"/>
	<path class="st11" d="M93.9,67.1c0,0-2.7-1.9-6.3-1.9c-4.1,0-7.1,1.4-7.2,1.4l0-1c0.1-0.1,2.9-1.3,7.2-1.3c3.8,0,6.1,1.7,6.3,1.7
		L93.9,67.1z"/>
	<path class="st11" d="M93.9,69.5c0,0-2.7-1.9-6.3-1.9c-4.1,0-7.1,1.4-7.2,1.4l0-1c0.1-0.1,2.9-1.3,7.2-1.3c3.8,0,6.1,1.7,6.3,1.7
		L93.9,69.5z"/>
	<path class="st11" d="M93.9,71.9c0,0-2.7-1.9-6.3-1.9c-4.1,0-7.1,1.4-7.2,1.4l0-1c0.1-0.1,2.9-1.3,7.2-1.3c3.8,0,6.1,1.7,6.3,1.7
		L93.9,71.9z"/>
	<path class="st11" d="M93.9,74.4c0,0-2.7-1.9-6.3-1.9c-4.1,0-7.1,1.4-7.2,1.4l0-1c0.1-0.1,2.9-1.3,7.2-1.3c3.8,0,6.1,1.7,6.3,1.7
		L93.9,74.4z"/>
	<path class="st12" d="M65.4,56.4c0,0,1.6-0.3,2.4-0.4c0.8-0.1,2.4,0.1,2.4,0.1V78c0,0-1.9,0.1-2.5,0.2c-0.6,0.1-2.2,0.4-2.2,0.4
		V56.4z"/>
	<path class="st13" d="M82.9,56.6c0,0,1.6-0.4,2.3-0.5C86,56,87.6,56,87.6,56V78c0,0-1.9,0-2.5,0c-0.6,0.1-2.2,0.5-2.2,0.5V56.6z"/>
	<path class="st11" d="M75.8,79.1l0.6-21.5l1.6,0.9c0,0,0,21.5,0,21.5"/>
	<circle class="st1" cx="78.6" cy="68.5" r="28.9"/>
	<circle class="st1" cx="182.9" cy="87.9" r="23.3"/>
	<circle class="st14" cx="182.9" cy="87.9" r="21.3"/>
	<g>
		<g>
			<path class="st4" d="M187.4,78.4c-2.2-4.3-7.6-6-11.9-3.8c-4.3,2.2-6,7.6-3.8,11.9c2.1,4.1,6.9,5.8,11.1,4.2l0.7,1.3
				c-0.6,0.7-0.8,1.8-0.3,2.7l3.7,7.2c0.6,1.2,2,1.7,3.1,1.1l0.3-0.2c1.1-0.6,1.5-2,0.9-3.2l-3.7-7.2c-0.5-0.9-1.5-1.5-2.4-1.3
				l-0.7-1.3C188.1,87.4,189.5,82.4,187.4,78.4z M173.6,85.5c-1.7-3.3-0.4-7.4,2.9-9.1c3.3-1.7,7.4-0.4,9.1,2.9
				c1.7,3.3,0.4,7.4-2.9,9.1C179.4,90.1,175.3,88.8,173.6,85.5z"/>
			<path class="st4" d="M181.1,77.7c3.1,1.1,4.2,4.4,4.2,4.4s-0.3-3.8-3.7-5c-3.6-1.3-6.1,1.4-6.1,1.4S178.2,76.7,181.1,77.7z"/>
		</g>
	</g>
	<ellipse transform="matrix(0.888 -0.4599 0.4599 0.888 -17.811 91.7996)" class="st15" cx="179.5" cy="82.5" rx="7.3" ry="7.3"/>
	<path class="st16" d="M177.3,89.4c-3.8-1.2-5.9-5.3-4.7-9.1c1.2-3.8,5.3-5.9,9.1-4.7C179.7,81.8,179.6,82.2,177.3,89.4z"/>
	<ellipse transform="matrix(0.2752 -0.9614 0.9614 0.2752 49.0413 227.0882)" class="st1" cx="175.1" cy="81" rx="2.6" ry="1.7"/>
	<path class="st2" d="M183.5,91.9c-0.6,0.7-0.8,1.8-0.3,2.7l3.7,7.2c0.6,1.2,2,1.7,3.1,1.1l0.3-0.2c1.1-0.6,1.5-2,0.9-3.2l-3.7-7.2
		c-0.5-1-1.5-1.5-2.4-1.3L183.5,91.9z"/>
	<path class="st17" d="M183.5,91.9c-0.3,0.4,4.5,1.4,6.3,7.1c1.1,3.6-2.9,2.8-2.9,2.8c0.6,1.2,2,1.7,3.1,1.1l0.3-0.2
		c1.1-0.6,1.5-2,0.9-3.2l-3.7-7.2c-0.5-1-1.5-1.5-2.4-1.3L183.5,91.9z"/>
	
		<ellipse transform="matrix(0.9952 -9.806692e-02 9.806692e-02 0.9952 -8.2862 18.503)" class="st18" cx="184.1" cy="93.5" rx="0.8" ry="1.5"/>
	<circle class="st1" cx="182.9" cy="87.9" r="23.3"/>
	<circle class="st9" cx="78.6" cy="68.5" r="26.5"/>
	<g>
		<path class="st19" d="M93,78.8c0,3.4-4.5,3.4-4.5,0V58.6h3.8c0.4,0,0.7,0.3,0.7,0.7V78.8z"/>
		<g>
			<path class="st20" d="M90,78.4c0,0.5-0.4,0.8-0.8,0.8H69.3V56.1c0-0.3,0.3-0.6,0.6-0.6h19.2c0.3,0,0.8,0.1,0.8,0.6V78.4z"/>
		</g>
		<path class="st21" d="M91.1,81.4c-1.1,0-2.4-0.8-2.7-2.4l-2.5-14.8c-0.1-0.3-0.3-0.6-0.7-0.6l-5.4,0H77l-0.6-2.1
			c-0.2-0.6-0.9-1-1.6-1h-9.2c-0.4,0-0.8,0.2-1,0.5c-0.3,0.3-0.4,0.7-0.3,1.1l2.6,16.1c0.3,1.8,1.6,3.3,2.8,3.3l11.5,0l1.6,0
			L91.1,81.4L91.1,81.4z"/>
	</g>
	<circle class="st9" cx="235.5" cy="151.3" r="21.1"/>
	<g>
		<path class="st19" d="M246.9,159.5c0,2.7-3.6,2.7-3.6,0v-16.1h3c0.3,0,0.5,0.2,0.5,0.5V159.5z"/>
		<g>
			<path class="st20" d="M244.5,159.2c0,0.4-0.3,0.7-0.7,0.7H228v-18.4c0-0.2,0.2-0.5,0.5-0.5h15.3c0.3,0,0.7,0.1,0.7,0.5V159.2z"/>
		</g>
		<path class="st21" d="M245.4,161.6c-0.9,0-1.9-0.6-2.1-1.9l-2-11.8c0-0.3-0.3-0.5-0.5-0.5l-4.3,0h-2.2l-0.5-1.6
			c-0.1-0.5-0.7-0.8-1.2-0.8h-7.3c-0.3,0-0.6,0.1-0.8,0.4c-0.2,0.2-0.3,0.6-0.3,0.9l2.1,12.8c0.2,1.4,1.2,2.6,2.2,2.6l9.2,0l1.3,0
			L245.4,161.6L245.4,161.6z"/>
	</g>
	<circle class="st9" cx="21.1" cy="117.3" r="21.1"/>
	<g>
		<path class="st19" d="M32.5,125.5c0,2.7-3.6,2.7-3.6,0v-16.1h3c0.3,0,0.5,0.2,0.5,0.5V125.5z"/>
		<g>
			<path class="st20" d="M30.1,125.2c0,0.4-0.3,0.7-0.7,0.7H13.7v-18.4c0-0.2,0.2-0.5,0.5-0.5h15.3c0.3,0,0.7,0.1,0.7,0.5V125.2z"/>
		</g>
		<path class="st21" d="M31.1,127.6c-0.9,0-1.9-0.6-2.1-1.9l-2-11.8c0-0.3-0.3-0.5-0.5-0.5l-4.3,0h-2.2l-0.5-1.6
			c-0.1-0.5-0.7-0.8-1.2-0.8h-7.3c-0.3,0-0.6,0.1-0.8,0.4c-0.2,0.2-0.3,0.6-0.3,0.9l2.1,12.8c0.2,1.4,1.2,2.6,2.2,2.6l9.2,0l1.3,0
			L31.1,127.6L31.1,127.6z"/>
	</g>
	<circle class="st9" cx="91.1" cy="234.2" r="24.7"/>
	<g>
		<path class="st19" d="M104.5,243.8c0,3.2-4.2,3.2-4.2,0V225h3.6c0.4,0,0.6,0.3,0.6,0.6V243.8z"/>
		<g>
			<path class="st20" d="M101.7,243.5c0,0.4-0.3,0.8-0.8,0.8H82.4v-21.5c0-0.3,0.3-0.5,0.6-0.5h17.9c0.3,0,0.8,0.1,0.8,0.5V243.5z"
				/>
		</g>
		<path class="st21" d="M102.8,246.3c-1,0-2.2-0.8-2.5-2.3L98,230.2c-0.1-0.3-0.3-0.5-0.6-0.5l-5.1,0h-2.6l-0.5-1.9
			c-0.2-0.6-0.9-0.9-1.5-0.9H79c-0.4,0-0.7,0.2-1,0.4c-0.2,0.3-0.4,0.7-0.3,1l2.5,15c0.3,1.7,1.4,3,2.6,3l10.8,0l1.5,0L102.8,246.3
			L102.8,246.3z"/>
	</g>
	<circle class="st9" cx="182.9" cy="87.9" r="21.3"/>
	<g>
		<path class="st19" d="M195.4,96.8c0,3-3.9,3-3.9,0V79.2h3.3c0.3,0,0.6,0.3,0.6,0.6V96.8z"/>
		<g>
			<path class="st20" d="M192.8,96.5c0,0.4-0.3,0.7-0.7,0.7h-17.3V77.1c0-0.3,0.2-0.5,0.5-0.5H192c0.3,0,0.7,0.1,0.7,0.5V96.5z"/>
		</g>
		<path class="st21" d="M193.8,99.1c-1,0-2.1-0.7-2.3-2.1l-2.2-12.9c0-0.3-0.3-0.5-0.6-0.5l-4.7,0h-2.4l-0.5-1.8
			c-0.1-0.5-0.8-0.9-1.4-0.9h-8c-0.3,0-0.7,0.2-0.9,0.4c-0.2,0.3-0.3,0.6-0.3,1l2.3,14c0.3,1.6,1.4,2.8,2.4,2.8l10,0l1.4,0
			L193.8,99.1L193.8,99.1z"/>
	</g>
	<circle class="st9" cx="58.8" cy="177.8" r="16.2"/>
	<g>
		<path class="st19" d="M68.3,184.6c0,2.3-3,2.3-3,0v-13.3h2.5c0.3,0,0.5,0.2,0.5,0.5V184.6z"/>
		<g>
			<path class="st20" d="M66.3,184.3c0,0.3-0.2,0.5-0.5,0.5H52.6v-15.2c0-0.2,0.2-0.4,0.4-0.4h12.7c0.2,0,0.5,0.1,0.5,0.4V184.3z"/>
		</g>
		<path class="st21" d="M67.1,186.3c-0.7,0-1.6-0.5-1.8-1.6l-1.7-9.8c0-0.2-0.2-0.4-0.4-0.4l-3.6,0h-1.8l-0.4-1.4
			c-0.1-0.4-0.6-0.7-1-0.7h-6.1c-0.3,0-0.5,0.1-0.7,0.3c-0.2,0.2-0.3,0.5-0.2,0.7l1.7,10.6c0.2,1.2,1,2.2,1.8,2.2l7.6,0l1.1,0
			L67.1,186.3L67.1,186.3z"/>
	</g>
	<path class="st19" d="M171,21.2c0,1.8-2.4,1.8-2.4,0V10.4h2c0.2,0,0.4,0.2,0.4,0.4V21.2z"/>
	<g>
		<path class="st20" d="M169.4,21c0,0.2-0.2,0.4-0.4,0.4h-10.6V9.1c0-0.2,0.1-0.3,0.3-0.3h10.2c0.2,0,0.4,0.1,0.4,0.3V21z"/>
	</g>
	<path class="st21" d="M170,22.6c-0.6,0-1.3-0.4-1.4-1.3l-1.3-7.9c0-0.2-0.2-0.3-0.4-0.3l-2.9,0h-1.5l-0.3-1.1
		c-0.1-0.3-0.5-0.5-0.8-0.5h-4.9c-0.2,0-0.4,0.1-0.6,0.3c-0.1,0.2-0.2,0.4-0.2,0.6l1.4,8.6c0.2,1,0.8,1.7,1.5,1.7l6.1,0l0.9,0
		L170,22.6L170,22.6z"/>
	<path class="st19" d="M196.8,232.4c0,2.5-3.3,2.5-3.3,0v-14.6h2.8c0.3,0,0.5,0.2,0.5,0.5V232.4z"/>
	<g>
		<path class="st20" d="M194.6,232.1c0,0.3-0.3,0.6-0.6,0.6h-14.4v-16.7c0-0.2,0.2-0.4,0.5-0.4H194c0.2,0,0.6,0.1,0.6,0.4V232.1z"/>
	</g>
	<path class="st21" d="M195.5,234.3c-0.8,0-1.7-0.6-1.9-1.8l-1.8-10.8c0-0.2-0.2-0.4-0.5-0.4l-3.9,0h-2l-0.4-1.5
		c-0.1-0.4-0.7-0.7-1.1-0.7H177c-0.3,0-0.6,0.1-0.8,0.3c-0.2,0.2-0.3,0.5-0.2,0.8l1.9,11.7c0.2,1.3,1.1,2.4,2,2.4l8.4,0l1.2,0
		L195.5,234.3L195.5,234.3z"/>
	<g>
		<circle class="st22" cx="125.8" cy="132.1" r="25.6"/>
		<circle class="st1" cx="125.8" cy="132.1" r="20.6"/>
		<path class="st21" d="M109.2,132.1c0,9.2,7.4,16.6,16.6,16.6c9.2,0,16.6-7.4,16.6-16.6c0-2.2-0.4-4.3-1.2-6.2h-30.7
			C109.6,127.8,109.2,129.9,109.2,132.1z"/>
		<circle class="st19" cx="125.5" cy="132.2" r="1.7"/>
		<circle class="st19" cx="122.1" cy="139.3" r="3.4"/>
		<circle class="st19" cx="118.7" cy="132.2" r="1.3"/>
		<circle class="st19" cx="125.4" cy="118.3" r="1.5"/>
		<circle class="st19" cx="121.5" cy="121.7" r="1.8"/>
		<circle class="st19" cx="132.3" cy="133.9" r="1.3"/>
		<circle class="st19" cx="130.7" cy="140.2" r="2.4"/>
		<circle class="st19" cx="129.6" cy="121.3" r="0.9"/>
	</g>
	<path class="st0" d="M125.8,157.9c-14.2,0-25.8-11.6-25.8-25.8c0-14.2,11.6-25.8,25.8-25.8c14.2,0,25.8,11.6,25.8,25.8
		C151.6,146.3,140,157.9,125.8,157.9z M125.8,112c-11.1,0-20.1,9-20.1,20.1c0,11.1,9,20.1,20.1,20.1c11.1,0,20.1-9,20.1-20.1
		C145.9,121,136.9,112,125.8,112z"/>
</g>
</svg>
