<?xml version="1.0" encoding="utf-8"?>
<!-- Generator: Adobe Illustrator 19.2.1, SVG Export Plug-In . SVG Version: 6.00 Build 0)  -->
<svg version="1.1" id="Layer_1" xmlns="http://www.w3.org/2000/svg" xmlns:xlink="http://www.w3.org/1999/xlink" x="0px" y="0px"
	 viewBox="0 0 142 142" style="enable-background:new 0 0 142 142;" xml:space="preserve">
<style type="text/css">
	.st0{fill:#34495E;}
	.st1{fill-rule:evenodd;clip-rule:evenodd;fill:#3498DB;}
	.st2{fill-rule:evenodd;clip-rule:evenodd;fill:#2BCC71;}
</style>
<g>
	<path class="st0" d="M142,71c0,0.1,0,0.3,0,0.4c-0.1,22.6-10.8,42.6-27.3,55.5c-12,9.4-27.2,15.1-43.7,15.1c-2.7,0-5.4-0.2-8-0.5
		c-35.4-4-63-34.1-63-70.5C0,31.8,31.8,0,71,0c35.6,0,65,26.1,70.2,60.2C141.7,63.7,142,67.3,142,71z"/>
	<g>
		<path class="st1" d="M71,95.9C79.7,91,85.6,81.7,85.6,71c0-4.4-1-8.6-2.8-12.3c0,0,0,0,0,0c-5.2,0.9-9.2,4.9-10.1,10.1
			c0,0,0,0,0,0c0.1,0.7,0.1,1.4,0.1,2.2c0,2.7-0.7,5.2-1.9,7.5c0,0,0,0,0,0c-2.1,3.9-5.7,6.8-10.1,7.9c0,0,0,0,0,0c0,0,0,0,0,0
			c-1.2,0.3-2.5,0.5-3.8,0.5c-8.7,0-15.8-7.1-15.8-15.8c0-8.2,6.2-14.9,14.2-15.7c0,0,0,0,0,0c2.4-4.6,5.9-8.5,10.1-11.5
			c-2.7-0.8-5.5-1.3-8.5-1.3c-15.8,0-28.6,12.8-28.6,28.6c0,15.8,12.8,28.6,28.6,28.6C62.1,99.6,66.9,98.2,71,95.9
			C71,95.9,71,95.9,71,95.9C71,95.9,71,95.9,71,95.9z"/>
		<path class="st2" d="M84.9,42.4c-15.8,0-28.6,12.8-28.6,28.6c0,4.4,1,8.5,2.8,12.2c0,0,0,0,0,0c5.2-0.9,9.2-4.9,10.1-10.1
			c0,0,0,0,0,0c-0.1-0.7-0.2-1.5-0.2-2.2c0-8.7,7.1-15.8,15.8-15.8c8.7,0,15.8,7.1,15.8,15.8c0,8.2-6.2,14.9-14.2,15.7c0,0,0,0,0,0
			c-2.4,4.6-5.9,8.5-10.1,11.5c0,0,0,0,0,0c2.7,0.8,5.5,1.3,8.5,1.3c15.8,0,28.6-12.8,28.6-28.6C113.5,55.2,100.7,42.4,84.9,42.4z"
			/>
	</g>
</g>
</svg>
