<?xml version="1.0" encoding="utf-8"?>
<!-- Generator: Adobe Illustrator 19.2.1, SVG Export Plug-In . SVG Version: 6.00 Build 0)  -->
<svg version="1.1" id="Layer_1" xmlns="http://www.w3.org/2000/svg" xmlns:xlink="http://www.w3.org/1999/xlink" x="0px" y="0px"
	 viewBox="0 0 142 142" style="enable-background:new 0 0 142 142;" xml:space="preserve">
<style type="text/css">
	.st0{fill:#34495E;}
	.st1{fill:#D1D3D4;}
	.st2{fill:#25AE60;}
	.st3{fill:#2BCC71;}
	.st4{fill:#FFFFFF;}
	.st5{fill:#FBC520;}
</style>
<g>
	<path class="st0" d="M142,71c0,0.1,0,0.3,0,0.4c-0.1,22.6-10.8,42.6-27.3,55.5c-12,9.4-27.2,15.1-43.7,15.1c-2.7,0-5.4-0.2-8-0.5
		c-35.4-4-63-34.1-63-70.5C0,31.8,31.8,0,71,0c35.6,0,65,26.1,70.2,60.2C141.7,63.7,142,67.3,142,71z"/>
	<g>
		<g>
			<g>
				<line class="st1" x1="67.3" y1="64.4" x2="67.3" y2="67"/>
			</g>
			<g>
				<rect x="46.7" y="64.4" class="st1" width="2.6" height="32"/>
			</g>
			<g>
				<circle class="st2" cx="47.9" cy="65.7" r="3.7"/>
			</g>
		</g>
		<g>
			<g>
				<rect x="51.6" y="64.4" class="st1" width="38.8" height="2.6"/>
			</g>
			<g>
				<rect x="69.7" y="34.9" class="st1" width="2.6" height="32"/>
			</g>
			<g>
				<circle class="st2" cx="71" cy="65.7" r="3.7"/>
			</g>
		</g>
		<g>
			<g>
				<line class="st1" x1="74.7" y1="67" x2="74.7" y2="64.4"/>
			</g>
			<g>
				<rect x="92.8" y="64.4" class="st1" width="2.6" height="32"/>
			</g>
			<g>
				<circle class="st2" cx="94.1" cy="65.7" r="3.7"/>
			</g>
		</g>
		<g>
			<g>
				<path class="st3" d="M90.4,34c0,1.1-0.9,2-2,2H53.6c-1.1,0-2-0.9-2-2v-6.2c0-1.1,0.9-2,2-2h34.8c1.1,0,2,0.9,2,2V34z"/>
			</g>
			<g>
				<path class="st4" d="M56.7,30.9c0,0.9-0.7,1.5-1.5,1.5l0,0c-0.9,0-1.5-0.7-1.5-1.5l0,0c0-0.9,0.7-1.5,1.5-1.5l0,0
					C56,29.3,56.7,30,56.7,30.9L56.7,30.9z"/>
			</g>
			<g>
				<path class="st5" d="M79.3,30.9c0,0.9-0.7,1.5-1.5,1.5l0,0c-0.9,0-1.5-0.7-1.5-1.5l0,0c0-0.9,0.7-1.5,1.5-1.5l0,0
					C78.6,29.3,79.3,30,79.3,30.9L79.3,30.9z"/>
			</g>
			<g>
				<path class="st5" d="M83.5,30.9c0,0.9-0.7,1.5-1.5,1.5l0,0c-0.9,0-1.5-0.7-1.5-1.5l0,0c0-0.9,0.7-1.5,1.5-1.5l0,0
					C82.8,29.3,83.5,30,83.5,30.9L83.5,30.9z"/>
			</g>
			<g>
				<path class="st5" d="M87.7,30.9c0,0.9-0.7,1.5-1.5,1.5l0,0c-0.9,0-1.5-0.7-1.5-1.5l0,0c0-0.9,0.7-1.5,1.5-1.5l0,0
					C87,29.3,87.7,30,87.7,30.9L87.7,30.9z"/>
			</g>
		</g>
		<g>
			<g>
				<path class="st3" d="M90.4,45.3c0,1.1-0.9,2-2,2H53.6c-1.1,0-2-0.9-2-2v-6.2c0-1.1,0.9-2,2-2h34.8c1.1,0,2,0.9,2,2V45.3z"/>
			</g>
			<g>
				<path class="st4" d="M56.7,42.2c0,0.9-0.7,1.5-1.5,1.5l0,0c-0.9,0-1.5-0.7-1.5-1.5l0,0c0-0.9,0.7-1.5,1.5-1.5l0,0
					C56,40.6,56.7,41.3,56.7,42.2L56.7,42.2z"/>
			</g>
			<g>
				<path class="st5" d="M79.3,42.2c0,0.9-0.7,1.5-1.5,1.5l0,0c-0.9,0-1.5-0.7-1.5-1.5l0,0c0-0.9,0.7-1.5,1.5-1.5l0,0
					C78.6,40.6,79.3,41.3,79.3,42.2L79.3,42.2z"/>
			</g>
			<g>
				<path class="st5" d="M83.5,42.2c0,0.9-0.7,1.5-1.5,1.5l0,0c-0.9,0-1.5-0.7-1.5-1.5l0,0c0-0.9,0.7-1.5,1.5-1.5l0,0
					C82.8,40.6,83.5,41.3,83.5,42.2L83.5,42.2z"/>
			</g>
			<g>
				<path class="st5" d="M87.7,42.2c0,0.9-0.7,1.5-1.5,1.5l0,0c-0.9,0-1.5-0.7-1.5-1.5l0,0c0-0.9,0.7-1.5,1.5-1.5l0,0
					C87,40.6,87.7,41.3,87.7,42.2L87.7,42.2z"/>
			</g>
		</g>
		<g>
			<g>
				<path class="st3" d="M90.4,56.7c0,1.1-0.9,2-2,2H53.6c-1.1,0-2-0.9-2-2v-6.2c0-1.1,0.9-2,2-2h34.8c1.1,0,2,0.9,2,2V56.7z"/>
			</g>
			<g>
				<path class="st4" d="M56.7,53.6c0,0.9-0.7,1.5-1.5,1.5l0,0c-0.9,0-1.5-0.7-1.5-1.5l0,0c0-0.9,0.7-1.5,1.5-1.5l0,0
					C56,52,56.7,52.7,56.7,53.6L56.7,53.6z"/>
			</g>
			<g>
				<path class="st5" d="M79.3,53.6c0,0.9-0.7,1.5-1.5,1.5l0,0c-0.9,0-1.5-0.7-1.5-1.5l0,0c0-0.9,0.7-1.5,1.5-1.5l0,0
					C78.6,52,79.3,52.7,79.3,53.6L79.3,53.6z"/>
			</g>
			<g>
				<path class="st5" d="M83.5,53.6c0,0.9-0.7,1.5-1.5,1.5l0,0c-0.9,0-1.5-0.7-1.5-1.5l0,0c0-0.9,0.7-1.5,1.5-1.5l0,0
					C82.8,52,83.5,52.7,83.5,53.6L83.5,53.6z"/>
			</g>
			<g>
				<path class="st5" d="M87.7,53.6c0,0.9-0.7,1.5-1.5,1.5l0,0c-0.9,0-1.5-0.7-1.5-1.5l0,0c0-0.9,0.7-1.5,1.5-1.5l0,0
					C87,52,87.7,52.7,87.7,53.6L87.7,53.6z"/>
			</g>
		</g>
		<g>
			<g>
				<path class="st3" d="M67.4,81.9c0,1.1-0.9,2-2,2H30.5c-1.1,0-2-0.9-2-2v-6.2c0-1.1,0.9-2,2-2h34.8c1.1,0,2,0.9,2,2V81.9z"/>
			</g>
			<g>
				<path class="st4" d="M33.7,79.4c0,0.9-0.7,1.5-1.5,1.5l0,0c-0.9,0-1.5-0.7-1.5-1.5l0,0c0-0.9,0.7-1.5,1.5-1.5l0,0
					C33,77.9,33.7,78.6,33.7,79.4L33.7,79.4z"/>
			</g>
			<g>
				<path class="st5" d="M56.3,78.8c0,0.9-0.7,1.5-1.5,1.5l0,0c-0.9,0-1.5-0.7-1.5-1.5l0,0c0-0.9,0.7-1.5,1.5-1.5l0,0
					C55.6,77.3,56.3,78,56.3,78.8L56.3,78.8z"/>
			</g>
			<g>
				<path class="st5" d="M60.5,78.8c0,0.9-0.7,1.5-1.5,1.5l0,0c-0.9,0-1.5-0.7-1.5-1.5l0,0c0-0.9,0.7-1.5,1.5-1.5l0,0
					C59.8,77.3,60.5,78,60.5,78.8L60.5,78.8z"/>
			</g>
			<g>
				<path class="st5" d="M64.7,78.8c0,0.9-0.7,1.5-1.5,1.5l0,0c-0.9,0-1.5-0.7-1.5-1.5l0,0c0-0.9,0.7-1.5,1.5-1.5l0,0
					C64,77.3,64.7,78,64.7,78.8L64.7,78.8z"/>
			</g>
		</g>
		<g>
			<g>
				<path class="st3" d="M67.4,93.2c0,1.1-0.9,2-2,2H30.5c-1.1,0-2-0.9-2-2v-6.2c0-1.1,0.9-2,2-2h34.8c1.1,0,2,0.9,2,2V93.2z"/>
			</g>
			<g>
				<path class="st4" d="M33.7,90.1c0,0.9-0.7,1.5-1.5,1.5l0,0c-0.9,0-1.5-0.7-1.5-1.5l0,0c0-0.9,0.7-1.5,1.5-1.5l0,0
					C33,88.6,33.7,89.3,33.7,90.1L33.7,90.1z"/>
			</g>
			<g>
				<path class="st5" d="M56.3,90.1c0,0.9-0.7,1.5-1.5,1.5l0,0c-0.9,0-1.5-0.7-1.5-1.5l0,0c0-0.9,0.7-1.5,1.5-1.5l0,0
					C55.6,88.6,56.3,89.3,56.3,90.1L56.3,90.1z"/>
			</g>
			<g>
				<path class="st5" d="M60.5,90.1c0,0.9-0.7,1.5-1.5,1.5l0,0c-0.9,0-1.5-0.7-1.5-1.5l0,0c0-0.9,0.7-1.5,1.5-1.5l0,0
					C59.8,88.6,60.5,89.3,60.5,90.1L60.5,90.1z"/>
			</g>
			<g>
				<path class="st5" d="M64.7,90.1c0,0.9-0.7,1.5-1.5,1.5l0,0c-0.9,0-1.5-0.7-1.5-1.5l0,0c0-0.9,0.7-1.5,1.5-1.5l0,0
					C64,88.6,64.7,89.3,64.7,90.1L64.7,90.1z"/>
			</g>
		</g>
		<g>
			<g>
				<path class="st3" d="M67.4,104.6c0,1.1-0.9,2-2,2H30.5c-1.1,0-2-0.9-2-2v-6.2c0-1.1,0.9-2,2-2h34.8c1.1,0,2,0.9,2,2V104.6z"/>
			</g>
			<g>
				<path class="st4" d="M33.7,101.5c0,0.9-0.7,1.5-1.5,1.5l0,0c-0.9,0-1.5-0.7-1.5-1.5l0,0c0-0.9,0.7-1.5,1.5-1.5l0,0
					C33,100,33.7,100.7,33.7,101.5L33.7,101.5z"/>
			</g>
			<g>
				<path class="st5" d="M56.3,101.5c0,0.9-0.7,1.5-1.5,1.5l0,0c-0.9,0-1.5-0.7-1.5-1.5l0,0c0-0.9,0.7-1.5,1.5-1.5l0,0
					C55.6,100,56.3,100.7,56.3,101.5L56.3,101.5z"/>
			</g>
			<g>
				<path class="st5" d="M60.5,101.5c0,0.9-0.7,1.5-1.5,1.5l0,0c-0.9,0-1.5-0.7-1.5-1.5l0,0c0-0.9,0.7-1.5,1.5-1.5l0,0
					C59.8,100,60.5,100.7,60.5,101.5L60.5,101.5z"/>
			</g>
			<g>
				<path class="st5" d="M64.7,101.5c0,0.9-0.7,1.5-1.5,1.5l0,0c-0.9,0-1.5-0.7-1.5-1.5l0,0c0-0.9,0.7-1.5,1.5-1.5l0,0
					C64,100,64.7,100.7,64.7,101.5L64.7,101.5z"/>
			</g>
		</g>
		<g>
			<g>
				<path class="st3" d="M113.5,81.9c0,1.1-0.9,2-2,2H76.7c-1.1,0-2-0.9-2-2v-6.2c0-1.1,0.9-2,2-2h34.8c1.1,0,2,0.9,2,2V81.9z"/>
			</g>
			<g>
				<path class="st4" d="M79.8,78.8c0,0.9-0.7,1.5-1.5,1.5l0,0c-0.9,0-1.5-0.7-1.5-1.5l0,0c0-0.9,0.7-1.5,1.5-1.5l0,0
					C79.1,77.3,79.8,78,79.8,78.8L79.8,78.8z"/>
			</g>
			<g>
				<path class="st5" d="M102.4,78.8c0,0.9-0.7,1.5-1.5,1.5l0,0c-0.9,0-1.5-0.7-1.5-1.5l0,0c0-0.9,0.7-1.5,1.5-1.5l0,0
					C101.7,77.3,102.4,78,102.4,78.8L102.4,78.8z"/>
			</g>
			<g>
				<path class="st5" d="M106.6,78.8c0,0.9-0.7,1.5-1.5,1.5l0,0c-0.9,0-1.5-0.7-1.5-1.5l0,0c0-0.9,0.7-1.5,1.5-1.5l0,0
					C105.9,77.3,106.6,78,106.6,78.8L106.6,78.8z"/>
			</g>
			<g>
				<path class="st5" d="M110.8,78.8c0,0.9-0.7,1.5-1.5,1.5l0,0c-0.9,0-1.5-0.7-1.5-1.5l0,0c0-0.9,0.7-1.5,1.5-1.5l0,0
					C110.1,77.3,110.8,78,110.8,78.8L110.8,78.8z"/>
			</g>
		</g>
		<g>
			<g>
				<path class="st3" d="M113.5,93.2c0,1.1-0.9,2-2,2H76.7c-1.1,0-2-0.9-2-2v-6.2c0-1.1,0.9-2,2-2h34.8c1.1,0,2,0.9,2,2V93.2z"/>
			</g>
			<g>
				<path class="st4" d="M79.8,90.1c0,0.9-0.7,1.5-1.5,1.5l0,0c-0.9,0-1.5-0.7-1.5-1.5l0,0c0-0.9,0.7-1.5,1.5-1.5l0,0
					C79.1,88.6,79.8,89.3,79.8,90.1L79.8,90.1z"/>
			</g>
			<g>
				<path class="st5" d="M102.4,90.1c0,0.9-0.7,1.5-1.5,1.5l0,0c-0.9,0-1.5-0.7-1.5-1.5l0,0c0-0.9,0.7-1.5,1.5-1.5l0,0
					C101.7,88.6,102.4,89.3,102.4,90.1L102.4,90.1z"/>
			</g>
			<g>
				<path class="st5" d="M106.6,90.1c0,0.9-0.7,1.5-1.5,1.5l0,0c-0.9,0-1.5-0.7-1.5-1.5l0,0c0-0.9,0.7-1.5,1.5-1.5l0,0
					C105.9,88.6,106.6,89.3,106.6,90.1L106.6,90.1z"/>
			</g>
			<g>
				<path class="st5" d="M110.8,90.1c0,0.9-0.7,1.5-1.5,1.5l0,0c-0.9,0-1.5-0.7-1.5-1.5l0,0c0-0.9,0.7-1.5,1.5-1.5l0,0
					C110.1,88.6,110.8,89.3,110.8,90.1L110.8,90.1z"/>
			</g>
		</g>
		<g>
			<g>
				<path class="st3" d="M113.5,104.6c0,1.1-0.9,2-2,2H76.7c-1.1,0-2-0.9-2-2v-6.2c0-1.1,0.9-2,2-2h34.8c1.1,0,2,0.9,2,2V104.6z"/>
			</g>
			<g>
				<path class="st4" d="M79.8,101.5c0,0.9-0.7,1.5-1.5,1.5l0,0c-0.9,0-1.5-0.7-1.5-1.5l0,0c0-0.9,0.7-1.5,1.5-1.5l0,0
					C79.1,100,79.8,100.7,79.8,101.5L79.8,101.5z"/>
			</g>
			<g>
				<path class="st5" d="M102.4,101.5c0,0.9-0.7,1.5-1.5,1.5l0,0c-0.9,0-1.5-0.7-1.5-1.5l0,0c0-0.9,0.7-1.5,1.5-1.5l0,0
					C101.7,100,102.4,100.7,102.4,101.5L102.4,101.5z"/>
			</g>
			<g>
				<path class="st5" d="M106.6,101.5c0,0.9-0.7,1.5-1.5,1.5l0,0c-0.9,0-1.5-0.7-1.5-1.5l0,0c0-0.9,0.7-1.5,1.5-1.5l0,0
					C105.9,100,106.6,100.7,106.6,101.5L106.6,101.5z"/>
			</g>
			<g>
				<path class="st5" d="M110.8,101.5c0,0.9-0.7,1.5-1.5,1.5l0,0c-0.9,0-1.5-0.7-1.5-1.5l0,0c0-0.9,0.7-1.5,1.5-1.5l0,0
					C110.1,100,110.8,100.7,110.8,101.5L110.8,101.5z"/>
			</g>
		</g>
	</g>
</g>
</svg>
