<?xml version="1.0" encoding="utf-8"?>
<!-- Generator: Adobe Illustrator 19.2.1, SVG Export Plug-In . SVG Version: 6.00 Build 0)  -->
<svg version="1.1" id="Layer_1" xmlns="http://www.w3.org/2000/svg" xmlns:xlink="http://www.w3.org/1999/xlink" x="0px" y="0px"
	 viewBox="0 0 142 142" style="enable-background:new 0 0 142 142;" xml:space="preserve">
<style type="text/css">
	.st0{fill:#34495E;}
	.st1{fill:#97CCF6;}
	.st2{fill:#3498DB;}
	.st3{fill:#E74C3C;}
	.st4{fill:#F1C411;}
</style>
<g>
	<path class="st0" d="M142,71c0,0.1,0,0.3,0,0.4c-0.1,22.6-10.8,42.6-27.3,55.5c-12,9.4-27.2,15.1-43.7,15.1c-2.7,0-5.4-0.2-8-0.5
		c-35.4-4-63-34.1-63-70.5C0,31.8,31.8,0,71,0c35.6,0,65,26.1,70.2,60.2C141.7,63.7,142,67.3,142,71z"/>
	<g>
		<g>
			<path class="st1" d="M80.7,99.1c0,0,0,0-0.1,0.1C80.6,99.2,80.7,99.1,80.7,99.1z"/>
			<path class="st2" d="M48.4,91.3c1.5,0.4,2.1-0.7,1-1.8c0.4,0.1,1.1,0,1.4,0c-0.2-0.7-0.1-1.3-0.7-1.9c2-0.2,2.8-0.5,1.6-2.5
				c0.2,0.1,1,0.1,1.5,0.3c0.5-0.7,0.2-1.5-0.2-2.2c0.5,0.1,1.5-0.1,2.4-0.4c-0.7-0.5-1.4-0.9-2.1-1.4c-1.6-1.1-3.2-2.1-4.8-3.2
				C47.3,77.5,46,76.8,45,76c-2.7-2.2-4-6-2.8-9.4c1.2-3.4,4.1-5.8,7.7-6c3.8-0.2,7,2.5,10,4.5c1.7,1.1,3.5,2.3,5.2,3.4
				c-0.1-0.1-0.2-0.2-0.3-0.3c0.8-0.1,1.9-0.1,2.7,0.4c0.8-1.1-0.4-2.1-0.7-3.1c0.8,0.2,1.6,0.5,2.4,0.9c0.5-0.9-0.3-1.7-0.7-2.3
				c0.9,0.2,1.7,0.6,2.5,0.7c-0.7-0.8-0.8-2.1-1.5-3c1-0.3,4.8-1.5,1.8-2.7c0.7-0.1,1.5-0.1,2.3-0.3c-3.9-2.5-7.7-5-11.6-7.5
				c-6-3.9-13.7-4.6-20.2-1.7c-6.9,3-11.9,9.6-12.8,17.1c-0.9,7.7,2.5,15.5,8.9,20c2.6,1.8,5.4,3.5,8.1,5.3c0.9,0.6,1.9,1.2,2.8,1.8
				C49,92.9,48.8,91.8,48.4,91.3z"/>
			<path class="st1" d="M80.7,99.1C80.7,99.1,80.7,99.1,80.7,99.1L80.7,99.1z"/>
			<path class="st2" d="M92.6,100.7c2.7-6.2,2.3-13.3-1-19.2c-1.3-2.3-2.6-4.6-3.9-6.9c-0.7-0.2-1.4-0.5-2.1-0.8
				c2.1,2.4-1.8,1.7-2.9,1.5c0.2,1.2-0.3,2.3-0.1,3.4c-0.6-0.5-1.2-1.2-1.9-1.8c0.1,0.7,0.4,1.8-0.5,2.3c-0.5-0.7-1.1-1.4-1.7-1.9
				c-0.2,1,0.3,2.5-0.9,3.1c-0.5-0.8-1.4-1.4-2.2-1.6c0,0.1,0.1,0.3,0.1,0.4c1.1,2,2.2,3.9,3.3,5.9c0.6,1.1,1.3,2.1,1.8,3.3
				c1.5,3,1,6.8-1.1,9.4c-2.4,2.8-6.3,3.8-9.8,2.5c-1.7-0.7-3.1-1.8-4.1-3.3c-0.5-0.8-1-1.7-1.5-2.6c-1.3-2.4-2.6-4.7-3.9-7.1
				c-0.9-0.1-1.8-0.4-2.3-0.8c0,0.8-0.1,1.6-0.9,2c-0.3-0.4-1-0.8-1.1-1c0.2,2.4-0.7,2.2-2.6,1.5c0.2,0.8-0.1,1.3-0.3,2
				c-0.3-0.2-0.9-0.3-1.2-0.7c0.5,1.5-0.5,2.2-1.7,1.1c0,0.6-0.3,1.7-0.8,2.4c1.5,2.7,3,5.3,4.4,8c2.9,5.3,7.4,9.2,13.3,10.9
				c2.4,0.7,5.2,1.1,7.8,0.7C82.7,112.7,89.5,107.7,92.6,100.7z"/>
		</g>
		<path class="st3" d="M112.5,71.4c0,0,0.1-0.1,0.1-0.1c0.1-0.1,0.1-0.1,0.1-0.2c0-0.1,0.1-0.2,0.1-0.3c0-0.1,0.1-0.2,0.1-0.3
			c0-0.1,0-0.2,0-0.3c0-0.1,0-0.2,0-0.3c0,0,0-0.1,0-0.1c0-0.1-0.1-0.2-0.1-0.2c0-0.1-0.1-0.2-0.1-0.3l-0.1-0.1c0,0-0.1-0.1-0.2-0.2
			c0,0-0.1-0.1-0.1-0.1c-0.1-0.1-0.1-0.1-0.2-0.2l-13.1-7.7l6.2-14.8c0-0.1,0.1-0.2,0.1-0.2c0-0.1,0-0.2,0-0.3c0-0.1,0-0.2,0-0.3
			c0-0.1,0-0.2-0.1-0.3c0-0.1-0.1-0.2-0.1-0.3c0,0,0,0,0-0.1c0-0.1-0.1-0.2-0.2-0.3c-0.1-0.1-0.2-0.2-0.2-0.2c0,0-0.1-0.1-0.2-0.1
			c-0.1,0-0.1-0.1-0.2-0.1c-0.1,0-0.2-0.1-0.3-0.1c-0.1,0-0.2,0-0.3,0c-0.1,0-0.2,0-0.3,0c-0.1,0-0.2,0-0.3,0.1l-11.8,3.8L89.8,39
			c0-0.1,0-0.2-0.1-0.3c0-0.1-0.1-0.1-0.1-0.2c0,0-0.1-0.1-0.1-0.2c-0.1-0.1-0.1-0.2-0.2-0.3c0,0-0.1-0.1-0.2-0.1
			c-0.1-0.1-0.2-0.1-0.2-0.1c-0.1,0-0.2-0.1-0.3-0.1c-0.1,0-0.2,0-0.3,0c-0.1,0-0.1,0-0.2,0c-0.1,0-0.2,0-0.2,0
			c-0.1,0-0.2,0-0.3,0.1c-0.1,0-0.2,0.1-0.3,0.1c-0.1,0-0.1,0.1-0.2,0.2c-0.1,0-0.1,0.1-0.2,0.2l-4.6,5l-7.3-13.8
			c0-0.1-0.1-0.2-0.1-0.2c0,0,0-0.1-0.1-0.1c0-0.1-0.1-0.1-0.2-0.2c-0.1-0.1-0.2-0.2-0.3-0.2c-0.1-0.1-0.2-0.1-0.3-0.1
			c-0.1,0-0.2,0-0.2-0.1c-0.1,0-0.2,0-0.3,0c-0.1,0-0.1,0-0.2,0c-0.1,0-0.1,0-0.2,0c0,0-0.1,0-0.2,0.1c-0.1,0-0.1,0.1-0.2,0.1
			c-0.1,0-0.1,0.1-0.2,0.1c-0.1,0.1-0.1,0.1-0.2,0.2c-0.1,0.1-0.1,0.2-0.2,0.2c0,0.1-0.1,0.2-0.1,0.3c0,0.1-0.1,0.2-0.1,0.3
			c0,0.1,0,0.2,0,0.3l-0.2,22.1c0,0.4,0.1,0.8,0.4,1c0.3,0.4,0.8,0.6,1.3,0.6c0.4,0,0.9-0.2,1.2-0.5c0.3-0.3,0.5-0.7,0.5-1.2
			l0.1-15.5l5.6,10.6c0,0.1,0.1,0.1,0.1,0.2c0,0,0,0,0,0c0.4,0.5,1.2,0.6,1.8,0.2c0.1-0.1,0.2-0.2,0.3-0.3l4.2-4.6l1.6,7.9
			c0.1,0.3,0.3,0.7,0.6,0.8c0.3,0.2,0.7,0.2,1,0.1l10.5-3.4l-5.4,12.8c-0.1,0.2-0.1,0.4-0.1,0.5c0,0.1,0,0.2,0,0.3
			c0.1,0.5,0.4,1,0.8,1.3l10.4,6.1l-15,2.5c-0.9,0.2-1.5,1-1.4,1.9c0.1,0.9,1,1.5,1.9,1.4l19.5-3.3c0.1,0,0.2,0,0.3-0.1
			c0,0,0.1,0,0.1,0c0.1,0,0.2-0.1,0.3-0.1C112.4,71.6,112.5,71.5,112.5,71.4z"/>
		<path class="st4" d="M96.1,66.9C96.1,66.9,96.1,66.8,96.1,66.9c0.1-0.1,0.1-0.1,0.1-0.1c0,0,0-0.1,0.1-0.1c0,0,0-0.1,0-0.1
			c0,0,0-0.1,0-0.1c0,0,0-0.1,0-0.1c0,0,0,0,0-0.1c0,0,0-0.1,0-0.1c0,0,0-0.1-0.1-0.1l0,0c0,0-0.1-0.1-0.1-0.1c0,0,0,0,0,0
			c0,0-0.1,0-0.1-0.1l-5.8-3.4l2.7-6.5c0,0,0-0.1,0-0.1c0,0,0-0.1,0-0.1c0,0,0-0.1,0-0.1c0,0,0-0.1,0-0.1c0,0,0-0.1-0.1-0.1
			c0,0,0,0,0,0c0,0-0.1-0.1-0.1-0.1c0,0-0.1-0.1-0.1-0.1c0,0,0,0-0.1,0c0,0,0,0-0.1,0c0,0-0.1,0-0.1,0c0,0-0.1,0-0.1,0
			c-0.1,0-0.1,0-0.1,0c0,0-0.1,0-0.1,0l-5.2,1.7l-0.7-3.9c0,0,0-0.1,0-0.1c0,0,0-0.1,0-0.1c0,0,0-0.1-0.1-0.1c0,0-0.1-0.1-0.1-0.1
			c0,0,0,0-0.1-0.1c0,0-0.1,0-0.1-0.1c0,0-0.1,0-0.1,0c0,0-0.1,0-0.1,0c0,0-0.1,0-0.1,0c0,0-0.1,0-0.1,0c0,0-0.1,0-0.1,0
			c0,0-0.1,0-0.1,0c0,0-0.1,0-0.1,0.1c0,0-0.1,0.1-0.1,0.1l-2,2.2l-3.2-6.1c0,0,0-0.1-0.1-0.1c0,0,0,0,0,0c0,0,0-0.1-0.1-0.1
			c0,0-0.1-0.1-0.1-0.1c0,0-0.1,0-0.1-0.1c0,0-0.1,0-0.1,0c0,0-0.1,0-0.2,0c0,0,0,0-0.1,0c0,0-0.1,0-0.1,0c0,0-0.1,0-0.1,0
			c0,0-0.1,0-0.1,0c0,0-0.1,0-0.1,0.1c0,0-0.1,0.1-0.1,0.1c0,0-0.1,0.1-0.1,0.1c0,0,0,0.1-0.1,0.1c0,0,0,0.1,0,0.1c0,0,0,0.1,0,0.1
			l-0.1,9.7c0,0.2,0.1,0.3,0.2,0.5c0.1,0.2,0.3,0.3,0.6,0.3c0.2,0,0.4-0.1,0.5-0.2c0.1-0.1,0.2-0.3,0.2-0.5l0.1-6.8l2.4,4.6
			c0,0,0,0.1,0.1,0.1l0,0c0.2,0.2,0.5,0.3,0.8,0.1c0,0,0.1-0.1,0.1-0.1l1.8-2l0.7,3.5c0,0.2,0.1,0.3,0.3,0.4
			c0.1,0.1,0.3,0.1,0.4,0.1l4.6-1.5l-2.4,5.6c0,0.1,0,0.2,0,0.2c0,0,0,0.1,0,0.1c0,0.2,0.2,0.4,0.4,0.5l4.6,2.7l-6.6,1.1
			c-0.4,0.1-0.7,0.4-0.6,0.8c0.1,0.4,0.5,0.7,0.8,0.6l8.6-1.4c0,0,0.1,0,0.1,0c0,0,0,0,0,0C95.9,67,96,67,96.1,66.9
			C96,66.9,96.1,66.9,96.1,66.9z"/>
	</g>
</g>
</svg>
