<?xml version="1.0" encoding="utf-8"?>
<!-- Generator: Adobe Illustrator 19.2.1, SVG Export Plug-In . SVG Version: 6.00 Build 0)  -->
<svg version="1.1" id="Layer_1" xmlns="http://www.w3.org/2000/svg" xmlns:xlink="http://www.w3.org/1999/xlink" x="0px" y="0px"
	 viewBox="0 0 142 142" style="enable-background:new 0 0 142 142;" xml:space="preserve">
<style type="text/css">
	.st0{fill:#34495E;}
	.st1{fill:#E67E22;}
	.st2{fill:#F1C411;}
</style>
<g>
	<path class="st0" d="M142,71c0,0.1,0,0.3,0,0.4c-0.1,22.6-10.8,42.6-27.3,55.5c-12,9.4-27.2,15.1-43.7,15.1c-2.7,0-5.4-0.2-8-0.5
		c-35.4-4-63-34.1-63-70.5C0,31.8,31.8,0,71,0c35.6,0,65,26.1,70.2,60.2C141.7,63.7,142,67.3,142,71z"/>
	<g>
		<g>
			<g>
				<path class="st1" d="M73.7,102.2c0,1.5-1.2,2.7-2.7,2.7l0,0c-1.5,0-2.7-1.2-2.7-2.7V66.3c0-1.5,1.2-2.7,2.7-2.7l0,0
					c1.5,0,2.7,1.2,2.7,2.7V102.2z"/>
			</g>
		</g>
	</g>
	<g>
		<g>
			<path class="st2" d="M83.7,83.3c-0.7,0-1.4-0.3-1.9-0.9c-0.9-1.1-0.8-2.7,0.2-3.6c3.1-2.8,5-6.8,5-11.1c0-4.2-1.8-8.2-5-11.1
				c-1.1-0.9-1.1-2.6-0.2-3.6c0.9-1.1,2.6-1.1,3.6-0.2c4.2,3.8,6.7,9.2,6.7,14.9c0,5.7-2.4,11.1-6.7,14.9
				C84.9,83.1,84.3,83.3,83.7,83.3z"/>
		</g>
		<g>
			<path class="st2" d="M91.6,90.3c-0.7,0-1.3-0.3-1.8-0.8c-1-1-1-2.6,0-3.6c4.8-4.8,7.5-11.1,7.5-17.9c0-7-2.9-13.7-8.1-18.5
				c-1-1-1.1-2.6-0.1-3.6c1-1,2.6-1.1,3.6-0.1c6.2,5.7,9.7,13.8,9.7,22.2c0,8.1-3.2,15.8-9,21.5C92.9,90.1,92.3,90.3,91.6,90.3z"/>
		</g>
		<g>
			<path class="st2" d="M99.4,98.4c-0.7,0-1.3-0.3-1.8-0.8c-1-1-1-2.6,0-3.6c6.9-6.9,10.7-16,10.7-25.8c0-10.1-4.2-19.8-11.7-26.6
				c-1-1-1.1-2.6-0.1-3.6c1-1,2.6-1.1,3.6-0.1c8.5,7.8,13.3,18.9,13.3,30.4c0,11.1-4.4,21.6-12.3,29.4
				C100.7,98.1,100.1,98.4,99.4,98.4z"/>
		</g>
	</g>
	<g>
		<g>
			<g>
				<path class="st2" d="M58.3,83.3c0.7,0,1.4-0.3,1.9-0.9c0.9-1.1,0.8-2.7-0.2-3.6c-3.1-2.8-5-6.8-5-11.1c0-4.2,1.8-8.2,5-11.1
					c1.1-0.9,1.1-2.6,0.2-3.6c-0.9-1.1-2.6-1.1-3.6-0.2c-4.2,3.8-6.7,9.2-6.7,14.9c0,5.7,2.4,11.1,6.7,14.9
					C57.1,83.1,57.7,83.3,58.3,83.3z"/>
			</g>
			<g>
				<path class="st2" d="M50.4,90.3c0.7,0,1.3-0.3,1.8-0.8c1-1,1-2.6,0-3.6c-4.8-4.8-7.5-11.1-7.5-17.9c0-7,2.9-13.7,8.1-18.5
					c1-1,1.1-2.6,0.1-3.6c-1-1-2.6-1.1-3.6-0.1c-6.2,5.7-9.7,13.8-9.7,22.2c0,8.1,3.2,15.8,9,21.5C49.1,90.1,49.7,90.3,50.4,90.3z"
					/>
			</g>
			<g>
				<path class="st2" d="M42.6,98.4c0.7,0,1.3-0.3,1.8-0.8c1-1,1-2.6,0-3.6c-6.9-6.9-10.7-16-10.7-25.8c0-10.1,4.2-19.8,11.7-26.6
					c1-1,1.1-2.6,0.1-3.6c-1-1-2.6-1.1-3.6-0.1c-8.5,7.8-13.3,18.9-13.3,30.4c0,11.1,4.4,21.6,12.3,29.4
					C41.3,98.1,41.9,98.4,42.6,98.4z"/>
			</g>
		</g>
	</g>
</g>
</svg>
