<?xml version="1.0" encoding="utf-8"?>
<!-- Generator: Adobe Illustrator 19.2.1, SVG Export Plug-In . SVG Version: 6.00 Build 0)  -->
<svg version="1.1" id="Layer_1" xmlns="http://www.w3.org/2000/svg" xmlns:xlink="http://www.w3.org/1999/xlink" x="0px" y="0px"
	 viewBox="0 0 142 142" style="enable-background:new 0 0 142 142;" xml:space="preserve">
<style type="text/css">
	.st0{fill:#34495E;}
	.st1{fill:#3498DB;}
	.st2{opacity:0.5;fill:#58C6F1;}
</style>
<g>
	<path class="st0" d="M142,71c0,0.1,0,0.3,0,0.4c-0.1,22.6-10.8,42.6-27.3,55.5c-12,9.4-27.2,15.1-43.7,15.1c-2.7,0-5.4-0.2-8-0.5
		c-35.4-4-63-34.1-63-70.5C0,31.8,31.8,0,71,0c35.6,0,65,26.1,70.2,60.2C141.7,63.7,142,67.3,142,71z"/>
	<path class="st1" d="M51.8,116.5c-7,0-13.6-2.7-18.6-7.7c-5-5-7.7-11.6-7.7-18.6c0-7,2.7-13.6,7.7-18.6c4.3-4.3,12-7.1,23.5-8.5
		c1.9-0.2,3.9-0.4,5.9-0.6c0.2-2,0.4-4,0.6-5.9c1.4-11.5,4.2-19.2,8.5-23.5c5-5,11.6-7.7,18.6-7.7c7,0,13.6,2.7,18.6,7.7
		c5,5,7.7,11.6,7.7,18.6c0,7-2.7,13.6-7.7,18.6c-4.3,4.3-12,7.1-23.5,8.5c-1.9,0.2-3.9,0.4-5.9,0.6c-0.2,2-0.4,4-0.6,5.9
		c-1.4,11.5-4.2,19.2-8.5,23.5C65.4,113.8,58.8,116.5,51.8,116.5C51.8,116.5,51.8,116.5,51.8,116.5z M61.5,80.5
		c-9.1,0.9-14.7,2.7-15.8,3.8c-1.6,1.6-2.5,3.7-2.5,6c0,2.3,0.9,4.4,2.5,6c1.6,1.6,3.7,2.5,6,2.5c2.3,0,4.4-0.9,6-2.5
		C58.8,95.2,60.6,89.5,61.5,80.5z M90.2,43.3c-2.3,0-4.4,0.9-6,2.5c-1.1,1.1-2.9,6.7-3.8,15.8c9.1-0.9,14.7-2.7,15.8-3.8
		c3.3-3.3,3.3-8.7,0-12C94.6,44.2,92.5,43.3,90.2,43.3z"/>
	<path class="st2" d="M73.8,35.3C70,39.1,67.5,46.2,66.1,57c-0.4,3.1-0.6,6-0.7,8.3c-2.4,0.1-5.3,0.4-8.3,0.8
		c-10.8,1.3-17.9,3.9-21.7,7.7c-9.1,9.1-9.1,23.8,0,32.9c9.1,9.1,23.8,9.1,32.9,0c3.8-3.8,6.3-10.9,7.7-21.7c0.4-3.1,0.6-6,0.7-8.3
		c2.4-0.1,5.3-0.4,8.3-0.7c10.8-1.3,17.9-3.9,21.7-7.7c9.1-9.1,9.1-23.8,0-32.9C97.6,26.2,82.9,26.2,73.8,35.3z M59.9,98.4
		c-4.5,4.5-11.8,4.5-16.2,0c-4.5-4.5-4.5-11.8,0-16.2c2.5-2.5,11.9-4.3,21.2-4.9C64.2,86.4,62.3,95.9,59.9,98.4z M98.4,59.9
		c-2.5,2.5-11.9,4.3-21.2,4.9c0.6-9.2,2.5-18.7,4.9-21.2c4.5-4.5,11.8-4.5,16.2,0C102.8,48.1,102.8,55.4,98.4,59.9z"/>
</g>
</svg>
